<svg xmlns="http://www.w3.org/2000/svg" xmlns:xlink="http://www.w3.org/1999/xlink" id="Layer_1" x="0" y="0" version="1.1" viewBox="0 0 500 500" xml:space="preserve" style="enable-background:new 0 0 500 500"><style type="text/css">.st0{fill:#ebebeb}.st1{fill:#f0f0f0}.st2{fill:#e6e6e6}.st3{fill:#e0e0e0}.st4{fill:#f5f5f5}.st5{fill:#fff}.st6{opacity:.3;fill:#407bff;enable-background:new}.st7{fill:#fbbc04}.st8{opacity:.2;enable-background:new}.st9{fill:#0f9d58}.st10{fill:#263238}.st11{fill:#7f3e3b}.st12{fill:#630f0f}.st13{fill:#ffc3bd}.st14{fill:#ea4335}.st15{fill:#ed847e}.st16{fill:#ce7a63}.st17{fill:#407bff}.st18{opacity:.1;fill:#fff;enable-background:new}.st19{fill:#ba4d3c}</style><g id="freepik--background-complete--inject-63"><rect width="500" height=".2" y="382.4" class="st0"/><rect width="33.1" height=".2" x="324.6" y="389.2" class="st0"/><rect width="8.7" height=".2" x="428.6" y="391.4" class="st0"/><rect width="19.2" height=".2" x="358.7" y="398.5" class="st0"/><rect width="43.2" height=".2" x="206.8" y="395.1" class="st0"/><rect width="6.3" height=".2" x="191.6" y="395.1" class="st0"/><rect width="93.7" height=".2" x="77.3" y="390.9" class="st0"/><path d="M237,337.8H43.9c-3.1,0-5.7-2.6-5.7-5.7V60.7c0-3.1,2.6-5.7,5.7-5.7H237c3.2,0,5.7,2.6,5.7,5.7c0,0,0,0,0,0 v271.4C242.7,335.2,240.2,337.8,237,337.8z M43.9,55.2c-3,0-5.5,2.4-5.5,5.5v271.4c0,3,2.4,5.5,5.5,5.5H237c3,0,5.5-2.4,5.5-5.5 V60.7c0-3-2.4-5.5-5.5-5.5H43.9z" class="st0"/><path d="M453.3,337.8H260.2c-3.2,0-5.7-2.6-5.7-5.7V60.7c0-3.1,2.6-5.7,5.7-5.7h193.1c3.1,0,5.7,2.5,5.7,5.7v271.4 C459,335.2,456.5,337.8,453.3,337.8z M260.2,55.2c-3,0-5.5,2.4-5.5,5.5v271.4c0,3,2.4,5.5,5.5,5.5h193.1c3,0,5.5-2.4,5.5-5.5V60.7 c0-3-2.4-5.5-5.5-5.5H260.2z" class="st0"/><rect width="36.1" height="3.3" x="60.6" y="287.9" class="st0"/><path d="M79.1,277.7L79.1,277.7c-1.8-0.4-2.9-2.1-2.6-3.9c0,0,0,0,0,0l3.3-15.8c0.4-1.8,2.1-2.9,3.9-2.6c0,0,0,0,0,0 l0,0c1.8,0.4,2.9,2.1,2.6,3.9L83,275.1C82.6,276.9,80.9,278,79.1,277.7z" class="st1"/><path d="M77.1,277.3L77.1,277.3c-1.5,0.2-3-0.8-3.2-2.3l-2.1-13.6c-0.2-1.5,0.8-3,2.4-3.2l0,0c1.5-0.2,3,0.8,3.2,2.4 l2,13.6C79.6,275.7,78.6,277.1,77.1,277.3z" class="st1"/><polygon points="84.7 287.9 72.5 287.9 69.9 273.3 87.3 273.3" class="st2"/><rect width="19.2" height="4.2" x="69" y="271.2" class="st3"/><polygon points="100.8 382.4 92.6 291.2 86.1 291.2 98.3 382.4" class="st4"/><polygon points="56.5 382.4 64.6 291.2 71.1 291.2 58.9 382.4" class="st4"/><polygon points="74.3 382.4 76.7 291.2 83.1 291.2 76.8 382.4" class="st4"/><rect width="36.1" height="3.3" x="412" y="287.9" class="st0"/><path d="M429.6,277.7L429.6,277.7c1.8-0.4,2.9-2.1,2.5-3.9l-3.3-15.8c-0.4-1.8-2.1-2.9-3.9-2.6c0,0,0,0,0,0l0,0 c-1.8,0.4-2.9,2.1-2.6,3.9l3.3,15.8C426.1,276.9,427.8,278,429.6,277.7z" class="st1"/><path d="M431.6,277.3L431.6,277.3c1.5,0.2,3-0.8,3.2-2.4l2.1-13.6c0.2-1.5-0.8-3-2.4-3.2l0,0c-1.5-0.2-3,0.8-3.2,2.4 c0,0,0,0,0,0l-2.1,13.6C429,275.7,430,277.1,431.6,277.3z" class="st1"/><polygon points="424 287.9 436.2 287.9 438.8 273.3 421.4 273.3" class="st2"/><rect width="19.2" height="4.2" x="420.5" y="271.2" class="st3"/><polygon points="407.9 382.4 416.1 291.2 422.5 291.2 410.4 382.4" class="st4"/><polygon points="452.2 382.4 444.1 291.2 437.6 291.2 449.8 382.4" class="st4"/><polygon points="434.4 382.4 432 291.2 425.6 291.2 431.9 382.4" class="st4"/><rect width="172.3" height="135.4" x="60.4" y="75.3" class="st2"/><rect width="172.3" height="135.4" x="62.3" y="75.3" class="st1"/><rect width="149.6" height="110.7" x="73.7" y="86.6" class="st5"/><path d="M200.7,139.7l3.8-23.6c0.1-0.3-0.1-0.7-0.4-0.7c-0.1,0-0.2,0-0.3,0l-23.6,3.8c-11.9,1.9-23.1,13.2-25,25 l-3.8,23.6c-0.1,0.3,0.1,0.6,0.4,0.7c0.1,0,0.2,0,0.3,0l23.6-3.8C187.5,162.8,198.8,151.6,200.7,139.7z" class="st1"/><path d="M141.8,139.7l3.8-23.6c0.1-0.3-0.1-0.7-0.4-0.7c-0.1,0-0.2,0-0.3,0l-23.6,3.8c-11.9,1.9-23.1,13.2-25,25 l-3.8,23.6c-0.1,0.3,0.1,0.6,0.4,0.7c0.1,0,0.2,0,0.3,0l23.6-3.8C128.6,162.8,139.9,151.6,141.8,139.7z" class="st1"/><path d="M171.2,139.7l3.8-23.6c0.1-0.3-0.1-0.7-0.4-0.7c-0.1,0-0.2,0-0.3,0l-23.6,3.8c-11.9,1.9-23.1,13.1-25,25 l-3.8,23.6c-0.1,0.3,0.1,0.6,0.4,0.7c0.1,0,0.2,0,0.3,0l23.6-3.8C158.1,162.8,169.3,151.6,171.2,139.7z" class="st2"/><rect width="98.8" height="203.1" x="286.6" y="109.1" class="st2"/><rect width="109.1" height="203.1" x="290.4" y="109.1" class="st1"/><rect width="73.7" height="167.8" x="308" y="126.7" class="st5"/><path d="M364.6,172.8v75.8c0,3.9-3.2,7-7,7h-25.4c-3.9,0-7-3.2-7-7v-75.8c0-3.9,3.2-7,7-7h25.4 C361.5,165.7,364.6,168.9,364.6,172.8z" class="st4"/></g><g id="freepik--Shadow--inject-63"><ellipse id="freepik--path--inject-63" cx="250" cy="416.2" class="st4" rx="193.9" ry="11.3"/></g><g id="freepik--Bulb--inject-63"><path d="M374.2,143c-0.7-4.2-1.8-8.4-3-12.5l1-0.3c1.2,4.1,2.2,8.4,3,12.6L374.2,143z" class="st6"/><path d="M368.1,121.4c-3.2-8.1-7.4-15.7-12.4-22.8l0.8-0.6c5,7.1,9.2,14.8,12.5,23L368.1,121.4z" class="st6"/><path d="M371.6,181.3c10.6-58.6-28.4-114.7-87-125.3c-0.5-0.1-1-0.2-1.5-0.3c-57.4-9.5-112.5,28.8-123.5,86 c-7.4,38.1,6.3,77.3,35.9,102.5c8.2,7.1,12,18,10,28.6l-1.3,7.1c-2,11.1,5.4,21.7,16.5,23.8l37.3,6.7c11.1,2,21.7-5.4,23.8-16.5 l1.3-7.1c1.9-10.7,9.3-19.6,19.5-23.4C338.6,250.3,364.8,219,371.6,181.3z" class="st6"/><circle cx="229.5" cy="105.6" r="28.2" class="st5"/><ellipse cx="276" cy="92.2" class="st5" rx="10.4" ry="10.4" transform="matrix(0.9576 -0.2882 0.2882 0.9576 -14.8652 83.4687)"/></g><g id="freepik--character-1--inject-63"><path d="M149.6,154.3c-0.4,2.1-0.9,4.5-1.4,6.8s-0.8,4.6-1.2,6.8s-0.6,4.5-0.7,6.5c-0.1,1,0,2,0,2.8s0.2,1.5,0.1,1.6 L146,178c-0.2-0.2-0.6-0.4-0.6-0.3s0.2,0.2,0.6,0.4c1.3,0.3,2.7,0.3,4,0.2c1.7-0.1,3.3-0.4,5-0.7c1.7-0.3,3.5-0.7,5.2-1.1l0.3-0.1 c2-0.4,3.9,0.8,4.3,2.8c0.3,1.4-0.2,2.8-1.3,3.7c-1.6,1.3-3.4,2.4-5.2,3.4c-1.9,1-3.8,1.9-5.8,2.6c-2.3,0.8-4.8,1.3-7.3,1.3 c-1.7,0-3.3-0.3-4.9-0.9c-2-0.8-3.7-2.1-5-3.9c-0.1-0.2-0.2-0.4-0.4-0.6l-0.1-0.2c-0.9-1.7-1.5-3.6-1.8-5.5c-0.3-1.5-0.4-3-0.4-4.6 c-0.1-2.7,0-5.5,0.3-8.2c0.2-2.6,0.6-5.2,1.1-7.8s1-5,1.7-7.6c1.2-3.8,5.2-6,9-4.8c3.5,1.1,5.6,4.6,5,8.1L149.6,154.3z" class="st7"/><path d="M149.6,154.3c-0.4,2.1-0.9,4.5-1.4,6.8s-0.8,4.6-1.2,6.8s-0.6,4.5-0.7,6.5c-0.1,1,0,2,0,2.8s0.2,1.5,0.1,1.6 L146,178c-0.2-0.2-0.6-0.4-0.6-0.3s0.2,0.2,0.6,0.4c1.3,0.3,2.7,0.3,4,0.2c1.7-0.1,3.3-0.4,5-0.7c1.7-0.3,3.5-0.7,5.2-1.1l0.3-0.1 c2-0.4,3.9,0.8,4.3,2.8c0.3,1.4-0.2,2.8-1.3,3.7c-1.6,1.3-3.4,2.4-5.2,3.4c-1.9,1-3.8,1.9-5.8,2.6c-2.3,0.8-4.8,1.3-7.3,1.3 c-1.7,0-3.3-0.3-4.9-0.9c-2-0.8-3.7-2.1-5-3.9c-0.1-0.2-0.2-0.4-0.4-0.6l-0.1-0.2c-0.9-1.7-1.5-3.6-1.8-5.5c-0.3-1.5-0.4-3-0.4-4.6 c-0.1-2.7,0-5.5,0.3-8.2c0.2-2.6,0.6-5.2,1.1-7.8s1-5,1.7-7.6c1.2-3.8,5.2-6,9-4.8c3.5,1.1,5.6,4.6,5,8.1L149.6,154.3z" class="st8"/><path d="M127.2,331c0,0-4.6-5.6-4.4-7.4l-5.3-3l-3.5,5.4l4.3,2.5l0.8-0.2l0.5,1c2.2,1.4,4.6,2.5,7.2,3.1 C127.3,332,127.4,331.5,127.2,331z" class="st9"/><path d="M132.6,261c3.9-28.2,2.7-45.4,6.8-59.3l25.6-2.1c0,0-11.4,44.7-16.6,63.3s-25.2,61.3-25.2,61.3l-7-4 C116.3,320.3,125.7,282.8,132.6,261z" class="st10"/><path d="M153.5,220.5c-1.7,4-5.1,29.9-5.1,42.8c0-0.1,0-0.2,0.1-0.3c1.8-6.5,4.4-16.3,7-26.3L153.5,220.5z"/><path d="M173.8,330.6c0,0-10.8-1.6-11.6-3.3h-6.7l0.3,6.4h3.8l0.6-0.6l0.9,0.6c3,0,11.7-0.8,13.4-2 C174.5,331.2,174.2,330.8,173.8,330.6z" class="st9"/><path d="M155.3,261.7c-5.6-38.2-5.6-61.9-5.6-61.9l25.1-0.4c0,0-3,45.6-4.1,64.7c-1.1,19.9-7.3,63.6-7.3,63.6h-8.7 C154.7,327.7,152.7,286.3,155.3,261.7z" class="st10"/><path d="M151.8,127.9c-1.2,5-2,11.5-3.5,15.2c2.5,2.4,6.6,5.3,12.1,5.2s4.5-3.8,3-5.7c-3.9-2-4.1-4-3.1-5.7 L151.8,127.9z" class="st11"/><path d="M143.2,144.4c1.5-1.3,3-2.5,4.7-3.6c1.4-0.7,12-0.5,14.4,0s5.5,4.1,5.5,4.1L143.2,144.4z" class="st5"/><path d="M169.1,127.2c-0.1,0.5,0.1,1,0.4,1s0.7-0.3,0.8-0.8s-0.1-0.9-0.4-1S169.2,126.8,169.1,127.2z" class="st10"/><path d="M168.9,127.9c0.3,1.6,0.7,3.2,1.4,4.7c-0.8,0.3-1.7,0.3-2.5-0.1L168.9,127.9z" class="st12"/><path d="M170.8,124.4c-0.1,0-0.2,0-0.3,0c-0.7-0.3-1.5-0.3-2.1,0.1c-0.1,0.1-0.3,0-0.4-0.1c-0.1-0.1,0-0.3,0.1-0.4 c0.8-0.5,1.8-0.5,2.7-0.1c0.2,0.1,0.2,0.2,0.2,0.4C170.9,124.3,170.9,124.4,170.8,124.4z" class="st10"/><path d="M152.7,122.2c-1,6.2-1.9,9.7,0.5,13.5c3.6,5.7,11.7,4.5,14.5-1.2c2.5-5.2,3.7-14.3-1.7-18.1 c-3.9-2.7-9.3-1.7-11.9,2.2C153.4,119.7,152.9,120.9,152.7,122.2z" class="st11"/><path d="M162.8,131.2c-6.6,4.1-10.6,3.1-12.2,0.7c-2.7-3.9,0-6.2,0-6.2c-3.2,0.1-4.1-5.4-1.9-7.3 c-2-2-0.7-6.7,2.7-5.9c-0.3-3.4,5.1-6.8,10.3-3.2c4.2-2.2,10.1-0.6,11.6,3.3s-0.7,5.6-0.7,5.6c1.3,1.4-1,5.6-5.1,5.4 c-0.7,2.2-1,3.9-3.6,4C163.3,130.4,163.9,130.2,162.8,131.2z" class="st10"/><path d="M161.2,127.2c-0.4,1.3-0.2,2.6,0.4,3.8c0.8,1.5,2.4,0.8,3.2-0.8c0.7-1.4,1.1-3.9-0.2-4.8 S161.6,125.6,161.2,127.2z" class="st11"/><path d="M143.6,143.7c9.5-1.1,19-0.9,28.5,0.4c4.1,0.7,7.1,4.1,7.4,8.2c1,12.2-1.7,33.4-4,54.9 c-18.8,6.3-37.8-0.1-37.8-0.1c-0.4-4.3,1.9-18.5,3.4-26c-1.1-7.8-3.8-16.7-5.3-27.1c-0.7-5,2.7-9.6,7.7-10.3 C143.5,143.7,143.5,143.7,143.6,143.7z" class="st7"/><path d="M169.1,160.7c1.3,7.3,5.3,16.1,9,21.8c0.5-5.1,0.9-9.9,1.2-14.3L169.1,160.7z" class="st8"/><path d="M216.8,168.3l-1.9-0.7c-0.7-0.3-1.5-0.2-2.1,0.2l-2.9,1.9c-1.2,0.8-1.9,2.1-1.9,3.5v0.9 c3,1.4,7.3,0.7,7.3,0.7l1.2-0.1c1.1,0,1.9-0.9,1.9-2c0,0,0,0,0,0l-0.1-2.5C218.3,169.4,217.7,168.6,216.8,168.3z" class="st11"/><path d="M178.4,149.3c1,2,2,4.2,3.1,6.2s2.1,4.1,3.2,6.1s2.3,3.9,3.4,5.6c0.6,0.8,1.2,1.6,1.7,2.2s1,1.1,1.1,1.2 l-0.9-0.4c0.9,0.4,1.9,0.6,2.9,0.6c1.5,0,3.1-0.1,4.6-0.3c1.6-0.2,3.3-0.5,5-0.8s3.5-0.8,5.1-1.1l0.3-0.1c2-0.4,3.9,0.8,4.3,2.8 c0.3,1.4-0.2,2.8-1.3,3.7c-1.6,1.2-3.3,2.4-5,3.4c-1.8,1-3.6,1.9-5.5,2.7c-2.1,0.8-4.2,1.4-6.4,1.8c-2.7,0.5-5.4,0.4-8.1-0.3 c-0.2-0.1-0.4-0.1-0.6-0.2l-0.3-0.1c-1.8-0.9-3.4-2-4.8-3.3c-1.1-1-2.2-2.2-3.1-3.3c-1.7-2.1-3.4-4.4-4.8-6.7 c-1.4-2.2-2.7-4.5-3.9-6.8s-2.3-4.6-3.3-7.1c-1.6-3.6,0-7.9,3.6-9.5c3.6-1.6,7.9,0,9.5,3.6L178.4,149.3z" class="st7"/><rect width="85.8" height="7" x="99.3" y="333.7" class="st10"/><rect width="85.8" height="7" x="89.3" y="371.7" class="st10"/><rect width="85.8" height="7" x="79.3" y="409.6" class="st10"/><rect width="1.9" height="83" x="183.2" y="333.7" class="st10"/><polygon points="160.4 416.7 162.4 416.7 181.3 333.7 179.4 333.7" class="st10"/><rect width="1.9" height="83" x="109.7" y="333.7" class="st10"/><polygon points="87 416.7 88.9 416.7 107.8 333.7 105.9 333.7" class="st10"/></g><g id="freepik--character-2--inject-63"><path d="M291.4,317.7c-8.8-1-12.5,6.8-6.1,10.6s-11,15.5-2.7,21.6s18.3,19.4,24.1,6.9s-9.8-19-2.8-25.1 S301.4,308.2,291.4,317.7z" class="st10"/><path d="M306.6,357c-0.1,0-0.2,0-0.2-0.1c-0.1-0.1,0-0.3,0.1-0.4c2-1.1,3.1-2.5,3.4-4c0.7-3-1.6-6.4-3.8-9.7 c-2.7-4-5.4-8.2-2.3-11.2c1.9-1.9,2.5-4.8,1.7-8.1c-1-3.9-3.8-7-6.9-7.8c-2.6-0.6-5.2,0.3-7.5,2.8c-0.1,0.1-0.3,0.1-0.4,0 c-0.1-0.1-0.1-0.3,0-0.4c0,0,0,0,0,0c3.1-3.3,6.1-3.4,8-2.9c3.3,0.8,6.2,4.1,7.3,8.2c0.9,3.5,0.2,6.6-1.8,8.5 c-2.9,2.7-0.3,6.5,2.3,10.6c2.2,3.4,4.6,6.9,3.8,10.1c-0.4,1.7-1.6,3.1-3.7,4.3C306.7,357,306.7,357,306.6,357z" class="st10"/><path d="M272.2,384.6l18.2,3.3c1.6,9.5-2.5,21.8-18.9,21.8c-19.9,0-38.9-3.8-36.1-13 C238.9,385.7,272.2,384.6,272.2,384.6z" class="st10"/><path d="M272.2,384.6l18.2,3.3c1.6,9.5-2.5,21.8-18.9,21.8c-19.9,0-38.9-3.8-36.1-13 C238.9,385.7,272.2,384.6,272.2,384.6z" class="st8"/><path d="M290.9,401c3.7,3.2,10.4,9.2,9.5,10c-4.4,3.5-9.1-4.2-13.9-3C287.1,404.5,290.9,401,290.9,401z" class="st10"/><path d="M299.1,387.9c1.6,9.5-2.5,24.9-18.9,24.9c-26.8,0-42.5,0.4-44.7-8.9s36.3-10.4,36.3-10.4 c-2.1-3.2-2.7-7.2-1.6-10.9C288,383,299.1,387.9,299.1,387.9z" class="st10"/><path d="M280.9,354.1c-1.1,2-2.2,3.7-3.4,5.5c-1.2,1.8-2.5,3.4-3.9,5.1c-1.4,1.7-3,3.3-4.6,4.7 c-0.9,0.8-1.8,1.5-2.7,2.1c-0.5,0.3-1,0.7-1.5,1L264,373c-0.4,0.2-0.9,0.4-1.4,0.6c-1.7,0.5-3.5,0.5-5.2,0 c-1.3-0.4-2.5-0.9-3.6-1.5c-1.9-1.2-3.7-2.5-5.4-4.1c-3.1-2.9-5.8-6.1-8.2-9.6c-0.7-1-0.5-2.4,0.6-3.1c0.9-0.6,2-0.5,2.8,0.2 l0.1,0.1c2.9,2.6,5.9,5,9,7.2c1.4,1,3,1.9,4.6,2.6c0.6,0.3,1.3,0.5,2,0.6c0.5,0.1,0.8,0,0.7-0.1s-0.1,0,0,0l0.5-0.3 c0.3-0.2,0.6-0.5,1-0.7c0.6-0.5,1.2-1.1,1.9-1.7c1.3-1.3,2.4-2.7,3.5-4.1c1.1-1.5,2.2-3,3.3-4.5s2.1-3.2,3-4.7l0.1-0.1 c1.3-2.1,4.1-2.8,6.2-1.5C281.4,349.5,282.1,352,280.9,354.1L280.9,354.1z" class="st13"/><path d="M277.3,346.8c-5.9,1.2-10.7,11.3-10.7,11.3l9.2,10.4c0,0,4.9-6.9,5.9-10.1S280.7,346.1,277.3,346.8z" class="st14"/><path d="M235.2,355.5l0.7-2.9c0.2-0.7,0.9-1.1,1.5-0.9c0,0,0,0,0,0l2.1,0.5c0.8,0.2,1.5,0.6,2.1,1.3l3.4,3.9l-1.7,2.7 c-1.5-0.2-3-0.8-4.3-1.5l-3.1-1.6C235.3,356.6,235,356,235.2,355.5z" class="st13"/><path d="M277.3,346.8c7.4-1.5,13.1-2.4,21.1,1c4.3,1.9,6.7,6.4,5.9,11c-1.8,10.5-4.9,19.7-5.2,29.1 c-18.4,7.6-29.1,0.8-28.8-5.2c4.4-11.4,1.2-24.4,2.8-30.7C273.9,348.7,274.8,347.3,277.3,346.8z" class="st14"/><path d="M292.4,333.5c-0.7,3.6-1.6,10.9,0.9,13.2c-3.7,2.7-7.2,5.8-10.4,9.1c-4-5.9-0.7-9.1-0.7-9.1 c4-1,4.1-4.6,3.4-7.4L292.4,333.5z" class="st13"/><path d="M289.6,335.9l-4,3.5c0.2,0.7,0.3,1.3,0.3,2c1.5-0.2,3.9-1.5,4.2-3.2C290.2,337.4,290,336.6,289.6,335.9z" class="st10"/><path d="M300.5,331.8c-3.2,5-4.5,7.2-8.6,8.4c-6.2,1.8-11.7-3.3-10-9.2c1.5-5.3,6.6-12.6,12.8-11.9 c4.5,0.6,7.7,4.6,7.1,9.1C301.6,329.6,301.1,330.8,300.5,331.8z" class="st13"/><path d="M292.1,328.7c0.5,0,1.1,0.3,1.4,0.7C293,329.3,292.5,329,292.1,328.7z" class="st10"/><path d="M291.9,329.1c0.5,0.1,0.9,0.5,1.1,1C292.6,329.8,292.2,329.5,291.9,329.1z" class="st10"/><path d="M289.8,321.6c1.4,0.6,2.7,1.4,3.9,2.5C292.3,323.3,291,322.5,289.8,321.6z" class="st10"/><path d="M290.9,318.4c2.8,6.1,5.8,8.2,7.1,8.8c-4.1,2-4,7.3,0.2,8.7s5.3-6.9,5.2-9.9S297.9,316.3,290.9,318.4z" class="st10"/><path d="M284.8,331.7c2.5,0.3,5,0.9,7.4,1.6c-1,1.1-2.5,1.9-5.2,1.1S284.8,331.7,284.8,331.7z" class="st5"/><path d="M291.4,328.5c-0.2,0.4-0.6,0.6-0.9,0.5s-0.3-0.6-0.1-1s0.7-0.6,0.9-0.5S291.6,328.1,291.4,328.5z" class="st10"/><path d="M286.6,325.9c-0.2,0.4-0.7,0.6-0.9,0.5s-0.3-0.6-0.1-1s0.6-0.6,0.9-0.5S286.8,325.4,286.6,325.9z" class="st10"/><path d="M286.6,324.9l-0.9-0.9C285.8,324,285.8,325.1,286.6,324.9z" class="st10"/><path d="M287.6,327.5c-0.9,0.8-1.9,1.4-3,1.9c0.3,0.8,1.4,1.1,1.4,1.1L287.6,327.5z" class="st15"/><path d="M299.3,337c-1,0.6-2.2,0.8-3.3,0.5c-1.5-0.4-1.5-1.9-0.4-2.9s2.9-1.8,4-0.9c0.8,0.7,0.9,2,0.2,2.8 C299.7,336.7,299.5,336.9,299.3,337z" class="st13"/><path d="M293.6,327.9c-0.1-0.1-0.2-0.2-0.2-0.3c0-0.9-0.5-1.8-1.2-2.5c-0.1-0.1-0.1-0.3,0-0.4c0,0,0,0,0,0 c0.1-0.1,0.3-0.1,0.4,0c0,0,0,0,0,0c0.9,0.7,1.4,1.8,1.4,2.9c0,0.2-0.2,0.3-0.3,0.3c0,0,0,0,0,0L293.6,327.9z" class="st10"/><path d="M286.2,322.7c-0.1,0-0.2-0.1-0.2-0.2c-0.1-0.1,0-0.3,0.2-0.4c0,0,0,0,0,0c0.8-0.4,1.8-0.3,2.6,0.2 c0.1,0.1,0.2,0.3,0.1,0.4c-0.1,0.1-0.3,0.1-0.4,0.1c-0.6-0.4-1.4-0.4-2.1-0.2C286.3,322.7,286.2,322.7,286.2,322.7z" class="st10"/><path d="M291.4,327.6l-0.9-0.9C290.5,326.7,290.6,327.8,291.4,327.6z" class="st10"/><path d="M229.3,334.8c-2.3,0.2-4,2.2-3.8,4.4c0,0.3,0.1,0.7,0.2,1c3.6,10.5,15.4,17.6,28.7,16.5 c13.3-1.1,23.7-10.1,25.6-21c0.4-2.3-1.2-4.4-3.4-4.7c-0.3-0.1-0.7-0.1-1,0L229.3,334.8z" class="st10"/><path d="M303,357.5c-1.1,2-2.2,3.7-3.4,5.4c-1.2,1.8-2.5,3.4-3.9,5.1c-1.4,1.7-2.9,3.2-4.6,4.7 c-0.9,0.8-1.8,1.5-2.7,2.1c-0.5,0.3-1,0.7-1.5,1l-0.8,0.5l-0.6,0.3c-0.3,0.1-0.5,0.2-0.8,0.3c-1.2,0.4-2.5,0.4-3.7,0.1 c-1-0.3-1.9-0.7-2.6-1.3c-1.1-0.9-2-1.9-2.8-3.1c-1.2-1.9-2.2-3.9-3-6c-1.5-3.9-2.5-7.9-3.2-12.1c-0.2-1.2,0.6-2.4,1.9-2.6 c1-0.2,2,0.4,2.4,1.3v0.1c1.5,3.5,3.2,7.1,5,10.4c0.8,1.6,1.8,3,2.9,4.4c0.4,0.5,0.8,0.9,1.3,1.2c0.1,0.1,0.2,0,0,0 c-0.2-0.1-0.5-0.1-0.8,0c0,0-0.1,0-0.1,0c0,0-0.1,0.1,0,0l0.5-0.3c0.3-0.2,0.6-0.5,0.9-0.7c0.6-0.5,1.2-1.1,1.9-1.7 c1.3-1.3,2.4-2.7,3.5-4.1c1.1-1.5,2.2-3,3.3-4.5s2.1-3.2,3-4.7l0.1-0.1c1.2-2.2,4-2.9,6.1-1.7C303.4,352.6,304.2,355.4,303,357.5 L303,357.5z" class="st13"/><path d="M299.5,349.5c-6,0-10.8,11.9-10.8,11.9l9.2,10.4c0,0,4.9-6.9,5.9-10.1S304,349.5,299.5,349.5z" class="st14"/><path d="M266,349.1l2.1-2.3c0.5-0.5,1.3-0.6,1.9-0.1c0,0,0,0,0,0l1.6,1.5c0.6,0.6,1.1,1.4,1.3,2.2l1.1,5.3l-2.9,1.7 c-1.3-1-2.4-2.2-3.2-3.6l-2.1-3C265.5,350.3,265.6,349.6,266,349.1z" class="st13"/><path d="M297.4,338c0,0.8-0.6,1.3-1.4,1.3c-0.8,0-1.3-0.6-1.3-1.4c0-0.7,0.6-1.3,1.3-1.3 C296.7,336.6,297.4,337.2,297.4,338C297.4,337.9,297.4,338,297.4,338z" class="st5"/></g><g id="freepik--character-3--inject-63"><path d="M364.8,258.7c0.6,0.8,1,1.5,1.5,2.3s0.9,1.5,1.3,2.2c0.8,1.5,1.5,3,2.2,4.6s1.3,3.1,1.9,4.8 c0.3,0.8,0.5,1.6,0.8,2.4l0.4,1.2c0.1,0.4,0.2,0.7,0.4,1.5c0.2,1.1,0.2,2.3,0,3.4c-0.2,1-0.4,1.9-0.7,2.8c-0.6,1.7-1.3,3.3-2.1,4.9 c-1.6,3-3.5,5.8-5.7,8.4c-0.6,0.8-1.7,0.9-2.5,0.3c-0.7-0.5-0.9-1.5-0.5-2.3v-0.1c0.7-1.4,1.4-2.9,2-4.3s1.2-2.9,1.8-4.3 c0.5-1.4,0.9-2.8,1.3-4.2c0.3-1.1,0.3-2.2,0.1-3.3l-0.7-1.9c-0.3-0.7-0.6-1.4-0.9-2.1c-0.6-1.4-1.2-2.8-1.9-4.2s-1.4-2.8-2.1-4.1 c-0.4-0.7-0.7-1.3-1.1-2l-1.1-1.9l-0.1-0.2c-1-1.7-0.5-3.9,1.1-4.9C361.5,256.7,363.7,257.1,364.8,258.7L364.8,258.7z" class="st16"/><path d="M363.4,303l1.5-1.2c0.6-0.4,0.9-1.1,0.8-1.8l-0.1-3.3c-0.1-1.3-0.8-2.5-1.9-3.2L363,293 c-2.6,1.8-4.1,5.5-4.1,5.5l-0.5,1c-0.5,0.9-0.2,2,0.7,2.5c0,0,0,0,0,0l2,1.1C361.8,303.6,362.7,303.5,363.4,303z" class="st16"/><path d="M355.3,239.6c-1,3.7-2.2,10.4,0.2,12.9c0,0,1.8,3.4-9,2.9c-7.6-0.4-2.4-2.9-2.4-2.9c4.2-1,4.3-4,3.8-6.9 L355.3,239.6z" class="st16"/><path d="M371.3,393.3l7-2.6c0.7,4.6,1.6,9.2,2.8,13.7l-4.9,2.1C376.2,406.5,372.9,396.6,371.3,393.3z" class="st16"/><path d="M375.1,414.6c3.8-2.8,3.5-2.6,5.5-4.2c1.8-1.4,2.4-1.5,3.8-2.6c1.2-0.9,0.4-2.1-0.9-3.2 c-0.5-0.4-1.1-0.9-1.8-1.5c-0.4-0.4-1-0.4-1.4-0.1l-4.4,3.2c-0.3,0.2-0.5,0.6-0.5,1c0,2.2-1,4.2-2.6,5.6 C371,414.6,373.6,415.7,375.1,414.6z" class="st10"/><path d="M340.9,291.4c0,0,7.4,38.1,13.1,55.9c6,18.6,14.8,39.4,18.8,51.5c1.2,0.2,4.8-1.3,6.5-2.8 c0,0-2.6-31.9-11.7-48.3c0.9-48-8.2-56.3-8.2-56.3H340.9z" class="st17"/><path d="M354.6,305.7l-7.6,14.5c1.7,7.6,3.7,15.5,5.5,22C358.1,326.8,354.6,305.7,354.6,305.7z" class="st8"/><path d="M371.3,396.5c0.2,0.8,0.4,1.7,0.5,2.5c0,0.3,0.3,0.5,0.5,0.4c0,0,0.1,0,0.1,0c2.6-0.8,5.1-2,7.4-3.5 c0.2-0.1,0.3-0.4,0.3-0.6l-0.3-2.4c0-0.3-0.3-0.5-0.6-0.4c0,0-0.1,0-0.1,0l-7.4,3.2C371.4,396,371.3,396.3,371.3,396.5z" class="st10"/><path d="M371.3,396.5c0.2,0.8,0.4,1.7,0.5,2.5c0,0.3,0.3,0.5,0.5,0.4c0,0,0.1,0,0.1,0c2.6-0.8,5.1-2,7.4-3.5 c0.2-0.1,0.3-0.4,0.3-0.6l-0.3-2.4c0-0.3-0.3-0.5-0.6-0.4c0,0-0.1,0-0.1,0l-7.4,3.2C371.4,396,371.3,396.3,371.3,396.5z" class="st18"/><path d="M334.7,396.5l6.7,0.5c-1.1,5.4-2.3,13.9-2.3,13.9h-5.4C333.9,410.9,334.8,400.2,334.7,396.5z" class="st16"/><path d="M328.2,416.2c4.6,0,4.3-0.1,6.9-0.2c2.2-0.1,2.8,0.2,4.6,0.2c1.5,0,1.4-1.5,1-3.1c-0.2-0.6-0.4-1.4-0.7-2.3 c-0.1-0.5-0.6-0.9-1.2-0.9h-5.5c-0.4,0-0.8,0.2-1,0.5c-1.2,1.7-3.1,2.8-5.2,3C324.7,413.8,326.3,416.2,328.2,416.2z" class="st10"/><path d="M335.1,291.4c0,0-0.9,33.2-1.6,53.9s0.9,57.2,0.9,57.2c0.1,1,5.4,0.6,6.3,0c0,0,10.1-29.6,6.2-55.2 c13.5-33.2,9.6-55,9.6-55L335.1,291.4z" class="st17"/><path d="M333.7,399.7c0,0.7-0.1,1.9-0.1,2.8c0,0.3,0.2,0.6,0.5,0.6c2.3,0.2,4.7,0.2,7-0.1c0.2,0,0.4-0.2,0.5-0.4 l0.5-2.5c0.1-0.3-0.2-0.6-0.5-0.7c0,0-0.1,0-0.1,0l-7.2-0.3C334,399.2,333.7,399.4,333.7,399.7 C333.7,399.7,333.7,399.7,333.7,399.7z" class="st10"/><path d="M333.7,399.7c0,0.7-0.1,1.9-0.1,2.8c0,0.3,0.2,0.6,0.5,0.6c2.3,0.2,4.7,0.2,7-0.1c0.2,0,0.4-0.2,0.5-0.4 l0.5-2.5c0.1-0.3-0.2-0.6-0.5-0.7c0,0-0.1,0-0.1,0l-7.2-0.3C334,399.2,333.7,399.4,333.7,399.7 C333.7,399.7,333.7,399.7,333.7,399.7z" class="st18"/><path d="M358.1,285.6c0.1,1.9,0.4,3.9,0.7,5.8h-23.5l-0.2-6C335.1,285.4,353.2,284.4,358.1,285.6z" class="st16"/><path d="M332.9,261.2c-0.1,3.6-0.1,7.2,0.2,10.8c0.2,4.7-0.7,5.9,0,13.6c2.6,1.5,19.5,1.4,27.8,0.4 c-0.5-6.7-1.1-11.2,3.4-26.2c0.9-2.9-0.7-6-3.7-6.9c-0.4-0.1-0.9-0.2-1.3-0.2c-1-0.1-2.1-0.2-3.1-0.2c-3.8-0.3-7.6-0.3-11.4,0 c-1.2,0.1-2.5,0.3-3.8,0.4C336.6,253.4,333.2,256.9,332.9,261.2z" class="st10"/><path d="M304.5,246c0.2,3.8-0.5,7.6-2,11.2c-0.4,0.8-0.3,1.9,0.3,2.6c3.6,4.8,10.3,3.1,13,2.2c0.7-0.3,1.3-0.8,1.5-1.6 c1.1-3.5,2.3-7.8,1.3-12.4c-0.1-0.4-0.2-0.7-0.5-1c-2.2-2.7-7.2-3-10.7-3.6c-1.4-0.2-2.7,0.7-2.9,2 C304.5,245.6,304.5,245.8,304.5,246z" class="st5"/><ellipse cx="317.3" cy="234.3" class="st5" rx="4.1" ry="5.1"/><path d="M300.7,248.7c-2,0.4-2.2,0.7-2.5,3.2c-0.3-2.4-0.6-2.8-2.5-3.2c1.9-0.4,2.2-0.7,2.5-3.1 C298.5,247.9,298.7,248.3,300.7,248.7z" class="st5"/><path d="M314.2,246.8l1,1.6c0.4,0.6,0.5,1.3,0.2,2l-1.2,3.1c-0.5,1.2-1.5,2.1-2.8,2.5l-0.8,0.2 c-1.9-2.5-2.1-6.6-2.1-6.6l-0.2-1.1c-0.2-1,0.4-1.9,1.4-2.1c0,0,0,0,0,0l2.3-0.4C312.9,245.8,313.7,246.1,314.2,246.8z" class="st16"/><path d="M335.6,264c-0.2,0.3-0.3,0.4-0.5,0.5l-0.4,0.4c-0.3,0.3-0.6,0.5-0.8,0.7c-0.6,0.5-1.1,0.9-1.7,1.3 c-1.1,0.8-2.3,1.4-3.6,2c-1.2,0.6-2.5,1.1-3.7,1.5c-1.3,0.4-2.5,0.7-3.8,1l-0.2,0c-0.2,0-0.3,0-0.5,0.1c-0.8,0-1.6-0.1-2.3-0.4 c-0.6-0.2-1.2-0.6-1.7-1c-0.8-0.7-1.5-1.4-2-2.3c-0.9-1.4-1.6-2.9-2.1-4.5c-0.5-1.5-0.9-2.9-1.1-4.5c-0.3-1.5-0.5-3-0.6-4.5 c-0.1-1,0.6-1.9,1.6-1.9c0.8-0.1,1.5,0.4,1.8,1.2v0.1c0.5,1.3,1,2.6,1.5,3.9s1.1,2.5,1.7,3.7c0.6,1.1,1.2,2.1,2,3.1 c0.3,0.3,0.6,0.6,0.9,0.8c0.2,0.1,0.2,0,0,0l-0.7,0.1c1-0.4,2.1-0.8,3.1-1.2s2-0.9,2.9-1.4c0.9-0.5,1.8-1.1,2.7-1.6 c0.4-0.3,0.8-0.6,1.2-0.9c0.2-0.1,0.4-0.3,0.5-0.5l0.2-0.2c0.1,0,0.2-0.2,0.1-0.1c1.2-1.6,3.5-1.8,5.1-0.6c1.6,1.2,1.8,3.5,0.6,5.1 C335.8,263.8,335.7,263.9,335.6,264L335.6,264z" class="st16"/><path d="M342,252.7c-4.7-0.1-9.6,2.6-16.9,8.5c-0.1,3.2,5.5,8.6,5.5,8.6S348.3,260.1,342,252.7z" class="st10"/><path d="M343.4,232.8c-0.2,0.5-0.6,0.8-0.9,0.7s-0.4-0.6-0.2-1s0.6-0.8,0.9-0.7S343.5,232.3,343.4,232.8z" class="st10"/><path d="M343.3,231.8l-1-0.7C342.3,231.1,342.5,232.2,343.3,231.8z" class="st10"/><path d="M343,233.7c-0.8,1-1.8,1.8-2.8,2.6c0.4,0.5,1,0.8,1.6,0.8L343,233.7z" class="st19"/><path d="M344.1,228.8c-0.1,0-0.1-0.1-0.2-0.1c-0.1-0.1,0-0.3,0.1-0.4c0.8-0.5,1.8-0.6,2.7-0.3 c0.1,0.1,0.2,0.2,0.1,0.4c0,0,0,0,0,0c-0.1,0.1-0.2,0.2-0.4,0.1c-0.7-0.2-1.5-0.1-2.2,0.3C344.3,228.8,344.2,228.8,344.1,228.8z" class="st10"/><path d="M359.8,235.5c-2.3,5.6-3.1,8-7,10.1c-5.9,3.2-12.2-0.4-11.7-6.5c0.5-5.4,4.1-13.7,10.5-14.4 c4.2-0.6,8.1,2.3,8.7,6.6C360.6,232.7,360.4,234.2,359.8,235.5z" class="st16"/><path d="M347.7,235.3c-3.3-4.9-0.5-7.4,0.9-8.2c-3.1-0.9-5.3-1.7-5.1-4.6c0.4-2.6,2.9-4.4,5.5-4 c0.2,0,0.3,0.1,0.5,0.1c-0.7,0.6,2.5,4.6,5.1,3.3c3.7-1.4,7.8,0.1,9.8,3.4c2.2,3.9,1.5,11-4.1,14.2c2.1,3.3-4.8,7.8-9.7,6 S343.7,236.9,347.7,235.3z" class="st10"/><path d="M368.1,224.2c1.3,3.6-0.2,6.9-3.4,7.5c-2.9,0.6-6.6-1.1-6.9-4.5c-0.3-2.9,0.8-6.4,3.4-7.5 C364,218.5,366.9,220.7,368.1,224.2z" class="st5"/><path d="M378.8,222.8c0.5,4.9-2.9,9.2-7.8,9.8c-0.7,0.1-1.3,0.1-2,0c-5.4-0.4-11-4.5-9.8-9.8c1-4.5,4.7-9.2,9.8-9.8 C374.6,212.5,378.5,217,378.8,222.8z" class="st10"/><path d="M349.1,235.6c-0.6,1-1.6,1.7-2.7,1.9c-1.4,0.2-1.9-1.4-1.2-2.9c0.6-1.4,2-3.1,3.3-2.7S350,234.3,349.1,235.6z" class="st16"/><path d="M359.5,252.7c4.1,0.6,5.7,1.9,9.1,10.1c-1.5,3.1-8.6,6-8.6,6S355.2,258.2,359.5,252.7z" class="st10"/><path d="M335.1,293.2c8.4,0.9,16.9,0.9,25.3,0c0.3-0.1,0.5-0.4,0.5-0.7c0,0,0-0.1,0-0.1c-0.2-0.5-0.4-1-0.6-1.5 c-0.1-0.2-0.3-0.4-0.5-0.3c-8.1,0.9-16.2,0.9-24.3,0c-0.3,0-0.6,0.2-0.6,0.5c0,0,0,0,0,0l-0.1,1.5 C334.6,292.9,334.8,293.2,335.1,293.2z" class="st10"/></g></svg>