<?xml version="1.0" encoding="utf-8"?>
<!-- Generator: Adobe Illustrator 25.2.0, SVG Export Plug-In . SVG Version: 6.00 Build 0)  -->
<svg version="1.1"
	 id="svg461" sodipodi:docname="Project Stages-pana.svg" xmlns:inkscape="http://www.inkscape.org/namespaces/inkscape" xmlns:sodipodi="http://sodipodi.sourceforge.net/DTD/sodipodi-0.dtd" xmlns:svg="http://www.w3.org/2000/svg"
	 xmlns="http://www.w3.org/2000/svg" xmlns:xlink="http://www.w3.org/1999/xlink" x="0px" y="0px" viewBox="0 0 500 500"
	 style="enable-background:new 0 0 500 500;" xml:space="preserve">
<style type="text/css">
	.st0{fill:#E0E0E0;}
	.st1{fill:#EBEBEB;}
	.st2{fill:#F5F5F5;}
	.st3{fill:#263238;}
	.st4{fill:#FAFAFA;}
	.st5{fill:#0380D6;}
	.st6{opacity:0.3;}
	.st7{fill:#FFFFFF;}
	.st8{fill:#455A64;}
	.st9{fill:#42A2F4;}
	.st10{fill:#FF725E;}
	.st11{fill:#34D353;}
	.st12{fill:#FBDC04;}
	.st13{fill:#FFBE9D;}
	.st14{fill:#EB996E;}
	.st15{opacity:0.6;}
</style>
<sodipodi:namedview  bordercolor="#999999" borderopacity="1" id="namedview463" inkscape:current-layer="freepik--Audience--inject-40" inkscape:cx="271.237" inkscape:cy="240.75086" inkscape:pagecheckerboard="0" inkscape:pageopacity="0" inkscape:pageshadow="0" inkscape:window-height="697" inkscape:window-maximized="1" inkscape:window-width="1366" inkscape:window-x="-8" inkscape:window-y="-8" inkscape:zoom="1.1152608" pagecolor="#ffffff" showgrid="false">
	</sodipodi:namedview>
<g id="freepik--background-complete--inject-40">
	<path id="path2" class="st0" d="M183.2,133.3c0.5-1.3,1-2.6,1.3-3.9c0.4-1.6,0.5-3.2,0.3-4.8c-0.5-8-6.7-14.5-14.7-15.5
		c-1.6-0.2-3.2-0.2-4.8,0.1c-1.7,0.3-3.3,0.8-4.8,1.6c-6.5,3.2-10.2,10.4-9,17.6c0.1,0.8,0.3,1.7,0.6,2.5c0.3,0.8,0.6,1.6,1,2.3
		c0.7,1.5,1.6,2.8,2.7,4c5.5,5.8,14.3,7,21.1,2.8c1.4-0.9,2.6-1.9,3.7-3.1C181.6,135.6,182.4,134.5,183.2,133.3
		c-0.1,0.1-0.1,0.2-0.1,0.3l-0.4,0.7c-0.2,0.4-0.4,0.8-0.7,1.1c-0.3,0.5-0.7,1-1.1,1.4c-1.1,1.3-2.3,2.4-3.7,3.2
		c-4.1,2.6-9.2,3.4-13.9,2c-2.9-0.9-5.6-2.5-7.7-4.7c-1.1-1.2-2.1-2.6-2.8-4.1c-0.8-1.5-1.3-3.2-1.6-4.9c-1.2-7.4,2.5-14.8,9.2-18.1
		c0.8-0.4,1.6-0.7,2.4-1c0.8-0.2,1.6-0.4,2.5-0.6c1.6-0.3,3.3-0.3,4.9-0.1c3,0.4,5.9,1.6,8.4,3.5c3.9,3,6.3,7.6,6.6,12.5
		c0.1,1.6,0,3.3-0.4,4.9c-0.1,0.6-0.3,1.2-0.5,1.7c-0.1,0.4-0.3,0.8-0.5,1.2l-0.4,0.7C183.2,133.2,183.2,133.3,183.2,133.3z"/>
	<path id="path4" class="st0" d="M172.8,141.8c0.1,0,1.8,4.8,3.8,10.8s3.4,10.9,3.3,10.9s-1.8-4.8-3.8-10.8S172.7,141.9,172.8,141.8
		z"/>
	<path id="path6" class="st1" d="M362.8,58.8c0-0.1,0-0.3,0-0.4c0-0.3,0-0.7-0.1-1.1c0-0.2,0-0.5,0-0.8s-0.1-0.6-0.1-1
		c-0.1-0.8-0.3-1.6-0.5-2.4c-0.6-2.2-1.4-4.3-2.6-6.2c-5.8-9.7-17.6-13.9-28.2-10c-1,0.4-2.1,0.8-3,1.3c-1,0.6-2,1.2-2.9,1.9
		c-0.9,0.7-1.8,1.5-2.6,2.3c-0.8,0.9-1.6,1.8-2.3,2.7c-1.4,1.9-2.6,4.1-3.3,6.4c-0.8,2.4-1.2,4.9-1.2,7.4c0,2.5,0.4,5,1.2,7.4
		c0.8,2.3,1.9,4.5,3.3,6.4c0.7,1,1.5,1.9,2.3,2.7c0.8,0.8,1.7,1.6,2.7,2.3c0.9,0.7,1.9,1.3,2.9,1.8c1,0.5,2,1,3,1.3
		c10.6,3.8,22.4-0.4,28.2-10c1.2-1.9,2.1-4,2.6-6.2c0.2-0.8,0.4-1.6,0.5-2.4c0-0.4,0.1-0.7,0.1-1s0-0.6,0-0.8c0-0.5,0.1-0.8,0.1-1.1
		C362.8,59,362.8,58.9,362.8,58.8c0,0.1,0,0.2,0,0.4c0,0.3,0,0.7,0,1.1c0,0.2,0,0.5,0,0.8s-0.1,0.6-0.1,1c-0.1,0.8-0.2,1.7-0.5,2.5
		c-0.5,2.2-1.4,4.4-2.6,6.3c-3.5,5.9-9.3,10-16,11.3c-4.2,0.8-8.5,0.4-12.5-1c-1.1-0.4-2.1-0.8-3.1-1.4c-2.1-1.1-4-2.5-5.6-4.2
		c-0.8-0.9-1.6-1.8-2.4-2.8c-1.5-2-2.6-4.2-3.4-6.6c-1.6-4.9-1.6-10.2,0-15.1c0.8-2.4,1.9-4.6,3.4-6.6c0.7-1,1.5-1.9,2.3-2.8
		c1.7-1.6,3.6-3,5.6-4.2c1-0.5,2.1-1,3.1-1.4c4-1.4,8.3-1.8,12.5-1c6.7,1.3,12.5,5.4,16,11.3c1.2,2,2,4.1,2.5,6.4
		c0.2,0.8,0.4,1.6,0.5,2.5c0,0.4,0.1,0.7,0.1,1s0,0.6,0,0.8v1.1C362.8,58.5,362.8,58.7,362.8,58.8z"/>
	<path id="path8" class="st1" d="M355.9,58.8c-0.1-1.4-0.3-2.7-0.6-4c-0.4-1.6-1-3-1.9-4.4c-4.1-6.8-12.4-9.7-19.8-7
		c-1.5,0.5-2.9,1.3-4.2,2.2c-0.7,0.5-1.3,1-1.9,1.6c-5.7,5.7-6.4,14.8-1.6,21.3c0.5,0.7,1,1.3,1.6,1.9c0.6,0.6,1.2,1.1,1.9,1.6
		c1.3,1,2.7,1.7,4.2,2.2c5.3,1.9,11.1,1,15.6-2.3c1.7-1.3,3.1-2.9,4.2-4.7c0.8-1.4,1.5-2.8,1.9-4.4
		C355.6,61.5,355.8,60.2,355.9,58.8c0,0.1,0,0.2,0,0.3c0,0.2,0,0.5,0,0.8c0,0.4,0,0.9-0.1,1.3c-0.1,0.6-0.2,1.2-0.3,1.7
		c-0.4,1.6-1,3.1-1.8,4.5c-2.4,4.2-6.6,7.1-11.3,8c-3,0.6-6,0.3-8.9-0.7c-1.5-0.5-3-1.3-4.3-2.3c-1.4-1-2.6-2.2-3.6-3.6
		c-4.4-5.9-4.4-14.1,0-20c0.5-0.7,1.1-1.3,1.7-2c0.6-0.6,1.2-1.1,1.9-1.6c1.3-1,2.8-1.8,4.3-2.3c2.8-1,5.9-1.3,8.9-0.7
		c4.7,0.9,8.9,3.8,11.3,8c0.8,1.4,1.4,2.9,1.8,4.5c0.1,0.6,0.3,1.2,0.3,1.7c0.1,0.4,0.1,0.9,0.1,1.3c0,0.3,0,0.6,0,0.8
		C355.9,58.6,355.9,58.7,355.9,58.8z"/>
	<path id="path10" class="st1" d="M338.9,46.6c-0.1,0-0.2-4.6-0.2-10.2s0.1-10.2,0.2-10.2s0.2,4.6,0.2,10.2S339.1,46.6,338.9,46.6z"
		/>
	<path id="path12" class="st1" d="M338.9,88.7c-0.1,0-0.2-4.6-0.2-10.2s0.1-10.2,0.2-10.2s0.2,4.6,0.2,10.2S339.1,88.7,338.9,88.7z"
		/>
	<path id="path14" class="st1" d="M330.4,58.8c0,0.1-4.6,0.2-10.2,0.2S310,58.9,310,58.8s4.6-0.2,10.2-0.2S330.4,58.6,330.4,58.8z"
		/>
	<path id="path16" class="st1" d="M367.9,58.8c0,0.1-4.6,0.2-10.2,0.2s-10.2-0.1-10.2-0.2s4.6-0.2,10.2-0.2S367.9,58.6,367.9,58.8z"
		/>
	<path id="path18" class="st1" d="M325.2,25.7c-0.5,0.1-1,0.1-1.5,0.1l-4.1,0.1c-3.5,0-8.2,0.1-13.5,0.1h-0.3l0.2-0.2
		c0,5.2,0,9.9-0.1,13.3c0,1.6-0.1,3-0.1,4c0,0.5,0,1-0.1,1.5c-0.1-0.5-0.1-1-0.1-1.5c0-1,0-2.4-0.1-4c0-3.4-0.1-8.1-0.1-13.3v-0.2
		h0.5c5.3,0,10,0,13.5,0.1l4.1,0.1C324.2,25.6,324.7,25.7,325.2,25.7z"/>
	<path id="path20" class="st1" d="M306.1,68.8c0.1,0.5,0.1,1,0.1,1.5c0,1,0,2.4,0.1,4.1c0,3.4,0.1,8.2,0.1,13.5v0.3l-0.2-0.2
		c5.2,0,9.9,0,13.3,0.1l4,0.1c0.5,0,1,0,1.5,0.1c-0.5,0.1-1,0.1-1.5,0.1l-4,0.1c-3.4,0-8.1,0.1-13.3,0.1h-0.2v-0.5
		c0-5.3,0-10,0.1-13.5c0-1.7,0.1-3,0.1-4.1C306,69.8,306.1,69.3,306.1,68.8z"/>
	<path id="path22" class="st1" d="M350.3,88.2c0.5-0.1,1-0.1,1.5-0.1l4.1-0.1c3.5,0,8.2-0.1,13.5-0.1h0.3l-0.2,0.2
		c0-5.2,0-9.9,0.1-13.3c0-1.6,0.1-3,0.1-4c0-0.5,0-1,0.1-1.5c0.1,0.5,0.1,1,0.1,1.5c0,1,0,2.4,0.1,4c0,3.4,0.1,8.1,0.1,13.3v0.2
		h-0.5c-5.3,0-10,0-13.5-0.1l-4.1-0.1C351.3,88.3,350.8,88.3,350.3,88.2z"/>
	<path id="path24" class="st1" d="M369.4,45.1c-0.1-0.5-0.1-1-0.1-1.5c0-1,0-2.4-0.1-4.1c0-3.5-0.1-8.2-0.1-13.5v-0.3l0.2,0.2
		c-5.2,0-9.9,0-13.3-0.1l-4-0.1c-0.5,0-1,0-1.5-0.1c0.5-0.1,1-0.1,1.5-0.1l4-0.1c3.4,0,8.1-0.1,13.3-0.1h0.2V26c0,5.3,0,10-0.1,13.5
		c0,1.7-0.1,3-0.1,4.1C369.5,44.1,369.4,44.6,369.4,45.1z"/>
	<rect id="rect26" x="387.7" y="126.9" class="st0" width="5.7" height="353.8"/>
	<rect id="rect28" x="448.3" y="126.7" class="st0" width="5.7" height="353.6"/>
	<rect id="rect30" x="387.7" y="126.9" class="st0" width="64.2" height="4.4"/>
	<rect id="rect32" x="387.7" y="204.8" class="st0" width="66.4" height="4.4"/>
	<rect id="rect34" x="387.7" y="379.9" class="st0" width="65.8" height="4.4"/>
	
		<rect id="rect36" x="369.7" y="339.7" transform="matrix(0.5895 -0.8078 0.8078 0.5895 -103.035 480.979)" class="st0" width="104.1" height="4.4"/>
	
		<rect id="rect38" x="366.1" y="252.7" transform="matrix(0.5653 -0.8249 0.8249 0.5653 -27.3193 457.9973)" class="st0" width="109.4" height="4.4"/>
	
		<rect id="rect40" x="366.1" y="428" transform="matrix(0.5653 -0.8249 0.8249 0.5653 -171.891 534.1873)" class="st0" width="109.4" height="4.4"/>
	
		<rect id="rect42" x="374.1" y="165.4" transform="matrix(0.641 -0.7675 0.7675 0.641 22.7452 383.8679)" class="st0" width="95.4" height="4.4"/>
	<rect id="rect44" x="387.7" y="296.9" class="st0" width="66.4" height="4.4"/>
	<path id="path46" class="st0" d="M416.1,480.4c-0.2,0-0.4-78.6-0.4-175.6s0.2-175.6,0.4-175.6s0.4,78.6,0.4,175.6
		S416.3,480.4,416.1,480.4z"/>
	<path id="path48" class="st0" d="M418.6,480.3c-0.2,0-0.4-78-0.4-174.2s0.2-174.3,0.4-174.3s0.4,78,0.4,174.3
		S418.8,480.3,418.6,480.3z"/>
	<path id="path50" class="st0" d="M430.8,480.5c-0.2,0-0.4-78-0.4-174.3s0.2-174.4,0.4-174.4s0.4,78.1,0.4,174.4
		S431,480.5,430.8,480.5z"/>
	<path id="path52" class="st0" d="M439.9,480.3c-0.2,0-0.4-78-0.4-174.2s0.2-174.3,0.4-174.3s0.4,78,0.4,174.3
		S440.1,480.3,439.9,480.3z"/>
	<path id="path54" class="st0" d="M439.9,159c0,0.2-2,0.4-4.6,0.4s-4.5-0.2-4.5-0.4s2-0.4,4.5-0.4S439.9,158.8,439.9,159z"/>
	<path id="path56" class="st0" d="M439.9,151.4c0,0.2-2,0.4-4.6,0.4s-4.5-0.2-4.5-0.4s2-0.4,4.5-0.4S439.9,151.2,439.9,151.4z"/>
	<path id="path58" class="st0" d="M439.9,143.7c0,0.2-2,0.4-4.6,0.4s-4.5-0.2-4.5-0.4s2-0.4,4.5-0.4S439.9,143.5,439.9,143.7z"/>
	<path id="path60" class="st0" d="M439.9,136.1c0,0.2-2,0.4-4.6,0.4s-4.5-0.2-4.5-0.4s2-0.4,4.5-0.4S439.9,135.9,439.9,136.1z"/>
	<path id="path62" class="st0" d="M439.9,167.6c0,0.2-2,0.4-4.6,0.4s-4.5-0.2-4.5-0.4s2-0.4,4.5-0.4S439.9,167.4,439.9,167.6z"/>
	<path id="path64" class="st0" d="M439.9,176.2c0,0.2-2,0.4-4.6,0.4s-4.5-0.2-4.5-0.4s2-0.4,4.5-0.4S439.9,176,439.9,176.2z"/>
	<path id="path66" class="st0" d="M439.9,184.8c0,0.2-2,0.4-4.6,0.4s-4.5-0.2-4.5-0.4s2-0.4,4.5-0.4S439.9,184.6,439.9,184.8z"/>
	<path id="path68" class="st0" d="M439.9,193.4c0,0.2-2,0.4-4.6,0.4s-4.5-0.2-4.5-0.4s2-0.4,4.5-0.4S439.9,193.2,439.9,193.4z"/>
	<path id="path70" class="st0" d="M439.9,202.1c0,0.2-2,0.4-4.6,0.4s-4.5-0.2-4.5-0.4s2-0.4,4.5-0.4S439.9,201.9,439.9,202.1z"/>
	<path id="path72" class="st0" d="M439.9,210.7c0,0.2-2,0.4-4.6,0.4s-4.5-0.2-4.5-0.4s2-0.4,4.5-0.4S439.9,210.5,439.9,210.7z"/>
	<path id="path74" class="st0" d="M439.9,219.3c0,0.2-2,0.4-4.6,0.4s-4.5-0.2-4.5-0.4s2-0.4,4.5-0.4S439.9,219.1,439.9,219.3z"/>
	<path id="path76" class="st0" d="M439.9,227.9c0,0.2-2,0.4-4.6,0.4s-4.5-0.2-4.5-0.4s2-0.4,4.5-0.4S439.9,227.7,439.9,227.9z"/>
	<path id="path78" class="st0" d="M439.9,236.5c0,0.2-2,0.4-4.6,0.4s-4.5-0.2-4.5-0.4s2-0.4,4.5-0.4S439.9,236.3,439.9,236.5z"/>
	<path id="path80" class="st0" d="M439.9,245.1c0,0.2-2,0.4-4.6,0.4s-4.5-0.2-4.5-0.4s2-0.4,4.5-0.4S439.9,244.9,439.9,245.1z"/>
	<path id="path82" class="st0" d="M439.9,253.7c0,0.2-2,0.4-4.6,0.4s-4.5-0.2-4.5-0.4s2-0.4,4.5-0.4S439.9,253.5,439.9,253.7z"/>
	<path id="path84" class="st0" d="M439.9,262.3c0,0.2-2,0.4-4.6,0.4s-4.5-0.2-4.5-0.4s2-0.4,4.5-0.4S439.9,262.1,439.9,262.3z"/>
	<path id="path86" class="st0" d="M439.9,270.9c0,0.2-2,0.4-4.6,0.4s-4.5-0.2-4.5-0.4s2-0.4,4.5-0.4S439.9,270.7,439.9,270.9z"/>
	<path id="path88" class="st0" d="M439.9,279.5c0,0.2-2,0.4-4.6,0.4s-4.5-0.2-4.5-0.4s2-0.4,4.5-0.4S439.9,279.3,439.9,279.5z"/>
	<path id="path90" class="st0" d="M439.9,288.1c0,0.2-2,0.4-4.6,0.4s-4.5-0.2-4.5-0.4s2-0.4,4.5-0.4S439.9,288,439.9,288.1z"/>
	<path id="path92" class="st0" d="M439.9,296.8c0,0.2-2,0.4-4.6,0.4s-4.5-0.2-4.5-0.4s2-0.4,4.5-0.4S439.9,296.5,439.9,296.8z"/>
	<path id="path94" class="st0" d="M439.9,305.4c0,0.2-2,0.4-4.6,0.4s-4.5-0.2-4.5-0.4s2-0.4,4.5-0.4S439.9,305.2,439.9,305.4z"/>
	<path id="path96" class="st0" d="M439.9,314c0,0.2-2,0.4-4.6,0.4s-4.5-0.2-4.5-0.4s2-0.4,4.5-0.4S439.9,313.8,439.9,314z"/>
	<path id="path98" class="st0" d="M439.9,322.6c0,0.2-2,0.4-4.6,0.4s-4.5-0.2-4.5-0.4s2-0.4,4.5-0.4S439.9,322.4,439.9,322.6z"/>
	<path id="path100" class="st0" d="M439.9,331.2c0,0.2-2,0.4-4.6,0.4s-4.5-0.2-4.5-0.4s2-0.4,4.5-0.4S439.9,331,439.9,331.2z"/>
	<path id="path102" class="st0" d="M439.9,339.8c0,0.2-2,0.4-4.6,0.4s-4.5-0.2-4.5-0.4s2-0.4,4.5-0.4S439.9,339.6,439.9,339.8z"/>
	<path id="path104" class="st0" d="M439.9,348.4c0,0.2-2,0.4-4.6,0.4s-4.5-0.2-4.5-0.4s2-0.4,4.5-0.4S439.9,348.2,439.9,348.4z"/>
	<path id="path106" class="st0" d="M439.9,357c0,0.2-2,0.4-4.6,0.4s-4.5-0.2-4.5-0.4s2-0.4,4.5-0.4S439.9,356.8,439.9,357z"/>
	<path id="path108" class="st0" d="M439.9,365.6c0,0.2-2,0.4-4.6,0.4s-4.5-0.2-4.5-0.4s2-0.4,4.5-0.4S439.9,365.4,439.9,365.6z"/>
	<path id="path110" class="st0" d="M439.9,374.2c0,0.2-2,0.4-4.6,0.4s-4.5-0.2-4.5-0.4s2-0.4,4.5-0.4S439.9,374,439.9,374.2z"/>
	<path id="path112" class="st0" d="M439.9,382.8c0,0.2-2,0.4-4.6,0.4s-4.5-0.2-4.5-0.4s2-0.4,4.5-0.4S439.9,382.6,439.9,382.8z"/>
	<path id="path114" class="st0" d="M439.9,391.5c0,0.2-2,0.4-4.6,0.4s-4.5-0.2-4.5-0.4s2-0.4,4.5-0.4S439.9,391.2,439.9,391.5z"/>
	<path id="path116" class="st0" d="M439.9,400.1c0,0.2-2,0.4-4.6,0.4s-4.5-0.2-4.5-0.4s2-0.4,4.5-0.4S439.9,399.9,439.9,400.1z"/>
	<path id="path118" class="st0" d="M439.9,408.7c0,0.2-2,0.4-4.6,0.4s-4.5-0.2-4.5-0.4s2-0.4,4.5-0.4S439.9,408.5,439.9,408.7z"/>
	<path id="path120" class="st0" d="M439.9,417.3c0,0.2-2,0.4-4.6,0.4s-4.5-0.2-4.5-0.4s2-0.4,4.5-0.4S439.9,417.1,439.9,417.3z"/>
	<path id="path122" class="st0" d="M439.9,425.9c0,0.2-2,0.4-4.6,0.4s-4.5-0.2-4.5-0.4s2-0.4,4.5-0.4S439.9,425.7,439.9,425.9z"/>
	<path id="path124" class="st0" d="M439.9,434.5c0,0.2-2,0.4-4.6,0.4s-4.5-0.2-4.5-0.4s2-0.4,4.5-0.4S439.9,434.3,439.9,434.5z"/>
	<path id="path126" class="st0" d="M439.9,443.1c0,0.2-2,0.4-4.6,0.4s-4.5-0.2-4.5-0.4s2-0.4,4.5-0.4S439.9,442.9,439.9,443.1z"/>
	<path id="path128" class="st0" d="M439.9,451.7c0,0.2-2,0.4-4.6,0.4s-4.5-0.2-4.5-0.4s2-0.4,4.5-0.4S439.9,451.5,439.9,451.7z"/>
	<path id="path130" class="st0" d="M439.9,460.3c0,0.2-2,0.4-4.6,0.4s-4.5-0.2-4.5-0.4s2-0.4,4.5-0.4S439.9,460.1,439.9,460.3z"/>
	<path id="path132" class="st0" d="M439.9,468.9c0,0.2-2,0.4-4.6,0.4s-4.5-0.2-4.5-0.4s2-0.4,4.5-0.4S439.9,468.7,439.9,468.9z"/>
	<path id="path134" class="st0" d="M439.9,477.5c0,0.2-2,0.4-4.6,0.4s-4.5-0.2-4.5-0.4s2-0.4,4.5-0.4S439.9,477.3,439.9,477.5z"/>
	<path id="path136" class="st0" d="M390.5,305.6h-0.4h-1.3l-4.8,0.1l-17.9,0.1l-59.6,0.1l0.4-0.4V318l-0.4-0.4l59.6,0.1l17.9,0.1
		l4.8,0.1h1.3h0.4c-0.1,0-0.3,0-0.4,0h-1.3L384,318l-17.9,0.1l-59.6,0.1h-0.4v-13h0.4l59.6,0.1l17.9,0.1l4.8,0.1h1.3
		C390.2,305.5,390.4,305.5,390.5,305.6z"/>
	<path id="path138" class="st0" d="M387.8,317.2c-0.1,0-0.2-0.1-0.2-0.2l-0.6-0.6l-2.4-2.2c-2.1-2-5.1-4.9-8.9-8.5l0.3-0.1
		c0.2,3.5,0.4,7.4,0.6,11.7v0.7l-0.5-0.5L364,305.8l0.5-0.2c-0.1,3.8-0.1,7.7-0.2,11.8v0.8l-0.5-0.5l-12.2-11.8l0.6-0.2
		c-0.1,3.7-0.1,7.6-0.2,11.6v0.8l-0.6-0.6l-5.8-5.6l-6.1-6l0.6-0.2c0,4,0,7.8,0,11.6v0.9l-0.6-0.6l-12.4-11.6l0.6-0.2
		c0,4.3,0,8.4,0,12.4v0.7l-0.5-0.5l-12.3-12.4l0.4-0.2c0,4.6,0,8.6-0.1,12v0.6l-0.4-0.5l-6.2-8.9l-1.7-2.3l-0.4-0.6l-0.1-0.2
		c0,0,0.1,0,0.2,0.2l0.4,0.6c0.4,0.5,1,1.3,1.7,2.3l6.3,8.8l-0.4,0.1c0-3.4,0-7.4-0.1-12V305l0.4,0.4l12.4,12.3L327,318
		c0-3.9,0-8.1,0-12.4v-0.8l0.6,0.5l12.4,11.5l-0.6,0.3c0-3.8,0-7.6,0-11.6v-0.9l0.6,0.6l6.2,6l5.8,5.6l-0.6,0.2
		c0.1-4,0.2-7.9,0.2-11.6v-0.8l0.6,0.6l12.2,11.8l-0.6,0.2c0.1-4.1,0.1-8,0.2-11.8v-0.7l0.5,0.5l12.1,11.8l-0.4,0.2
		c-0.2-4.4-0.4-8.3-0.5-11.8v-0.5l0.4,0.4l8.8,8.6c1,1,1.8,1.8,2.3,2.3l0.6,0.6C387.7,317,387.7,317.1,387.8,317.2z"/>
	<path id="path140" class="st0" d="M391.9,209.2c-0.1,0-0.3,0-0.4,0h-1.3l-4.8,0.1l-17.9,0.1l-59.6,0.1l0.4-0.4v12.4l-0.4-0.4
		l59.6,0.1l17.9,0.1l4.8,0.1h1.3c0.1,0,0.3,0,0.4,0c-0.1,0-0.3,0-0.4,0h-1.3l-4.8,0.1l-17.9,0.1l-59.6,0.1h-0.4v-12.9h0.4l59.6,0.1
		l17.9,0.1l4.8,0.1h1.3L391.9,209.2z"/>
	<path id="path142" class="st0" d="M389.1,220.8l-0.2-0.2l-0.6-0.6l-2.4-2.2l-8.9-8.5l0.3-0.2c0.2,3.5,0.4,7.4,0.6,11.8v0.6
		l-0.5-0.4l-12.2-11.7l0.5-0.2c-0.1,3.8-0.1,7.7-0.2,11.8v0.8l-0.5-0.5L353,209.5l0.6-0.2c-0.1,3.7-0.1,7.6-0.2,11.6v0.8l-0.6-0.6
		l-5.8-5.6c-2.1-2-4.1-4-6.1-6l0.6-0.3c0,4,0,7.8,0,11.6v0.8l-0.6-0.6c-4.3-4-8.4-7.9-12.4-11.6l0.6-0.2c0,4.3,0,8.5,0,12.4v0.7
		l-0.5-0.5l-12.3-12.4l0.4-0.2c0,4.6,0,8.6-0.1,12v0.6l-0.4-0.5l-6.2-8.9l-1.6-2.4l-0.4-0.6c0-0.1-0.1-0.1-0.1-0.2
		c0.1,0.1,0.1,0.1,0.2,0.2l0.4,0.6c0.4,0.6,1,1.3,1.7,2.3l6.3,8.8l-0.4,0.1c0-3.4,0-7.4-0.1-12v-0.6l0.4,0.4
		c3.7,3.7,7.8,7.8,12.4,12.3l-0.5,0.2c0-3.9,0-8.1,0-12.4v-0.8l0.6,0.5l12.4,11.6l-0.6,0.2c0-3.8,0-7.6,0-11.6v-0.9l0.6,0.6l6.2,6
		l5.8,5.6l-0.6,0.2c0.1-4,0.2-7.9,0.2-11.6v-0.8l0.6,0.6l12.2,11.8l-0.6,0.2c0.1-4.1,0.1-8,0.2-11.8v-0.7l0.5,0.5l12.1,11.8
		l-0.4,0.2c-0.2-4.4-0.4-8.3-0.5-11.8v-0.5l0.4,0.4c3.7,3.7,6.7,6.6,8.8,8.6l2.3,2.3l0.6,0.6C389.1,220.8,389.1,220.8,389.1,220.8z"
		/>
	<path id="path144" class="st1" d="M119.1,137.6c0.7-5.1-6.6-9.4-12-9.8c-2.6-0.2-5.3,0.2-7.8-0.7c-5.3-1.9-7.5-8.8-12.7-11
		c-3.9-1.7-8.4-0.2-12.2,1.7s-7.5,4.3-11.8,4.6c-3.7,0.3-7.7-1.1-10.9,0.7c-2.4,1.3-3.7,4.1-5.9,5.7s-5,1.9-7.7,2.1
		s-5.5,0.2-7.9,1.3s-4.5,3.7-4,6.3L119.1,137.6z"/>
	<path id="path146" class="st2" d="M230.5,44.9c0.6-4.1-5.3-7.5-9.7-7.9c-2.1-0.2-4.3,0.2-6.2-0.5c-4.3-1.5-6-7-10.2-8.8
		c-3.1-1.3-6.7-0.1-9.8,1.4s-6,3.5-9.4,3.7c-2.9,0.2-6.1-0.9-8.7,0.5c-1.9,1.1-2.9,3.3-4.7,4.6s-4,1.5-6.1,1.7
		c-2.2-0.1-4.3,0.3-6.3,1c-2,0.9-3.6,3-3.2,5.1L230.5,44.9z"/>
	<path id="path148" class="st2" d="M180,266.3c0.5-3.9-4.9-7-9-7.4c-2-0.2-4,0.1-5.9-0.5c-4-1.4-5.6-6.6-9.5-8.2
		c-2.9-1.2-6.3-0.1-9.1,1.3s-5.6,3.2-8.8,3.4c-2.8,0.2-5.8-0.8-8.2,0.5c-1.8,1-2.8,3.1-4.4,4.3c-1.7,1.1-3.7,1.6-5.8,1.6
		c-2,0-4,0.3-5.9,1c-1.8,0.8-3.3,2.8-3,4.8L180,266.3z"/>
	<path id="path150" class="st1" d="M463.9,77.1c0.5-4-5.1-7.3-9.4-7.7c-2-0.2-4.1,0.2-6.1-0.5c-4.2-1.4-5.8-6.8-9.9-8.5
		c-3-1.3-6.5-0.1-9.5,1.3s-5.9,3.3-9.1,3.6c-2.9,0.2-6-0.9-8.5,0.5c-1.9,1-2.8,3.2-4.6,4.5c-1.8,1.1-3.9,1.7-6,1.6
		c-2.1-0.1-4.2,0.3-6.1,1c-1.9,0.9-3.5,2.9-3.1,4.9L463.9,77.1z"/>
</g>
<g id="freepik--Floor--inject-40">
	<path id="path153" class="st3" d="M463.8,480.7c0,0.1-96.2,0.3-214.8,0.3s-214.8-0.1-214.8-0.3s96.1-0.3,214.8-0.3
		S463.8,480.5,463.8,480.7z"/>
</g>
<g id="freepik--Rocket--inject-40">
	<path id="path156" class="st3" d="M150.9,480.7c-0.1-0.1,14.9-27.3,33.5-60.9s33.8-60.7,33.9-60.6s-14.9,27.3-33.5,60.9
		S151,480.8,150.9,480.7z"/>
	<path id="path158" class="st3" d="M103.2,480.7l0.4-0.6l1.4-1.8l5.3-6.8l19.8-25.4c17-21.6,40.8-52,68.3-87.2l0.2-0.2l0.2,0.2
		l12.8,11.8l0.5,0.5h-22.6l0.2-0.4c1.9,3.5,4,7.2,6,10.9l5.1,9.3l0.2,0.4h-27.5l0.2-0.4c4.8,8.1,9.4,16,13.9,23.7l0.2,0.4h-0.4
		h-32.5l0.2-0.4l18.1,25.9l0.2,0.3H173l-38.5,0l0.1-0.2l15,24.1l3.9,6.4l1,1.7l0.3,0.6l-0.4-0.5c-0.2-0.4-0.6-0.9-1-1.6
		c-0.9-1.5-2.3-3.6-4-6.4l-15.1-24.1l-0.1-0.2h0.3l38.5-0.1l-0.2,0.3L154.7,415l-0.2-0.4h33l-0.2,0.4c-4.5-7.7-9.1-15.6-13.9-23.7
		l-0.2-0.4h27.5l-0.2,0.4l-5.1-9.3l-6-10.9l-0.2-0.4h22.4l-0.2,0.5l-12.7-11.8h0.4c-27.6,35.1-51.4,65.4-68.4,87l-20,25.2l-5.3,6.8
		l-1.4,1.7C103.3,480.5,103.2,480.7,103.2,480.7z"/>
	<path id="path160" class="st3" d="M377.3,480.2c-0.1,0.1-15.3-27-33.9-60.4s-33.6-60.6-33.5-60.6s15.3,27,33.9,60.4
		S377.5,480.1,377.3,480.2z"/>
	<path id="path162" class="st3" d="M425,480.2c0,0-0.2-0.2-0.5-0.6l-1.4-1.7l-5.4-6.7L397.9,446l-68.5-86.7h0.4L317.1,371l-0.2-0.4
		h22.4l-0.2,0.4l-6.1,11l-5.1,9.2l-0.2-0.4h27.5l-0.2,0.4L341,414.7l-0.2-0.4h33l-0.3,0.4l-18.2,25.8l-0.2-0.3l38.5,0h0.3l-0.1,0.2
		l-15.1,24c-1.8,2.8-3.1,4.9-4,6.3l-1,1.6c-0.2,0.4-0.4,0.5-0.4,0.5s0.1-0.2,0.3-0.6l1-1.6l4-6.4l15-24l0.1,0.2l-38.5,0h-0.4
		l0.2-0.3l18.1-25.8l0.2,0.4h-32.5h-0.4l0.2-0.4c4.5-7.6,9.1-15.5,13.9-23.6l0.2,0.4h-27.6l0.2-0.4l5.1-9.2l6.1-11l0.2,0.4h-22.6
		l0.5-0.5l12.7-11.7l0.2-0.2l0.2,0.2l68.3,86.8l19.9,25.2l5.3,6.8l1.4,1.8C424.9,480,425,480.2,425,480.2z"/>
	<path id="path164" class="st4" d="M381.8,445.5c-8.6-9.5-21.3-14.2-33.9-12.5c1.6-8.8-1.4-17.7-7.9-23.8
		c-6.5-5.9-19.2-8.6-27.5-6.1l0.3-50.4c-1.7-0.1-35.8,0-49.3,0s-47.6-0.1-49.3,0l0.3,50.4c-8.4-2.5-21.1,0.2-27.5,6.1
		c-6.5,6.1-9.5,15-7.9,23.8c-20.8-3-40.1,11.4-43.1,32.1c-0.8,5.2-0.4,10.5,1,15.6H390C393.3,468.4,390.2,455.1,381.8,445.5z"/>
	<path id="path166" class="st3" d="M381.8,445.5c0,0,0.5,0.6,1.6,1.9c1.5,1.9,2.7,3.9,3.8,6.1c1.8,3.5,3,7.3,3.6,11.2
		c0.9,5.4,0.6,10.9-0.8,16.1v0.1H390L136.8,481h-0.2l-0.1-0.2c-1.4-5.3-1.7-10.7-0.8-16.1c0.9-5.5,2.9-10.7,5.9-15.3
		c3.1-4.7,7.2-8.6,12.1-11.5c4.9-2.9,10.3-4.7,16-5.3c3.1-0.3,6.2-0.3,9.2,0.1l-0.3,0.3c-1.8-9.5,1.8-19.2,9.4-25.3
		c3.8-2.7,8.2-4.5,12.7-5.2c4.5-1,9.2-0.9,13.6,0.3l-0.3,0.2c-0.1-17.3-0.2-34.1-0.3-50.4v-0.2h0.2h98.7h0.2v0.2
		c-0.1,18.3-0.2,35.2-0.3,50.4l-0.2-0.2c2.6-0.7,5.4-1,8.1-0.9c2.6,0.1,5.2,0.5,7.8,1.1c4.9,1.3,9.5,3.5,12.8,6.9
		c5.9,6.1,8.5,14.7,7,23l-0.1-0.1c5.4-0.7,10.9-0.3,16.1,1.2c3.8,1.1,7.4,2.8,10.6,5c2,1.3,3.8,2.9,5.6,4.6
		C381.3,444.8,381.9,445.5,381.8,445.5l-0.4-0.4l-1.3-1.3c-1.7-1.7-3.6-3.2-5.6-4.5c-3.3-2.2-6.9-3.8-10.6-4.9
		c-5.2-1.5-10.6-1.9-16-1.2h-0.2v-0.1c1.5-8.2-1.1-16.7-6.9-22.7c-3.2-3.3-7.8-5.5-12.7-6.8c-2.5-0.7-5.1-1-7.7-1.1
		c-2.7-0.1-5.4,0.2-8,0.9l-0.2,0.1v-0.2c0.1-15.2,0.1-32,0.2-50.4l0.2,0.2h-98.6l0.2-0.2c0.1,16.3,0.2,33.1,0.3,50.4v0.3l-0.3-0.1
		c-4.4-1.1-8.9-1.2-13.4-0.3c-4.5,0.8-8.8,2.5-12.5,5.2c-7.4,5.9-11,15.4-9.2,24.7l0.1,0.4l-0.4-0.1c-3-0.4-6.1-0.5-9.1-0.1
		c-5.6,0.6-11,2.4-15.8,5.3c-4.8,2.8-8.9,6.7-12,11.4c-3,4.6-5,9.7-5.8,15.1c-0.9,5.3-0.6,10.7,0.8,15.9l-0.2-0.2l253.2,0.1
		l-0.1,0.1c1.4-5.2,1.7-10.7,0.8-16c-0.6-3.9-1.8-7.6-3.6-11.2c-1.1-2.1-2.3-4.2-3.8-6.1l-1.1-1.4L381.8,445.5z"/>
	<path id="path168" class="st3" d="M324.5,454.3c0-0.1,0-0.2,0-0.3c0-0.2,0-0.5-0.1-0.9c0-0.5-0.1-0.9-0.1-1.4
		c-0.1-0.6-0.2-1.3-0.4-1.9c-1.6-6.9-6.2-12.8-12.6-15.9c-3-1.5-6.3-2.2-9.7-2.2c-3.8,0.1-7.5,1-10.8,2.8c-3.6,1.9-6.7,4.8-8.8,8.3
		l-0.2,0.3l-0.2-0.3c-4.7-5.6-11.4-9.1-18.7-9.7c-3.4-0.3-6.9,0.2-10.1,1.3c-3.1,1.1-6,2.8-8.5,4.9c-4.6,4-7.8,9.4-8.9,15.4
		l-0.1,0.3l-0.3-0.2c-4.9-3.2-10.8-4.3-16.5-3.2c-4.4,0.9-8.4,3.2-11.4,6.5c-2.5,2.7-4.3,5.9-5.3,9.4l-0.1,0.6
		c0,0.1-0.1,0.2-0.1,0.2c0.2-1,0.4-2,0.8-3c1.7-4.7,5-8.7,9.2-11.4c2.1-1.3,4.4-2.2,6.8-2.7c5.8-1.2,11.8,0,16.8,3.2l-0.4,0.1
		c1.1-6.1,4.3-11.7,9-15.7c2.5-2.2,5.5-3.9,8.6-5c3.3-1.1,6.8-1.6,10.3-1.3c7.4,0.6,14.3,4.1,19.1,9.9h-0.4c2.2-3.6,5.3-6.5,9-8.5
		c3.4-1.8,7.2-2.8,11-2.8c3.4,0,6.8,0.7,9.8,2.3c6.4,3.3,11,9.2,12.5,16.2c0.1,0.6,0.2,1.3,0.3,1.9c0.1,0.5,0.1,0.9,0.1,1.4
		c0,0.4,0,0.6,0,0.9C324.5,454.1,324.5,454.2,324.5,454.3z"/>
	<path id="path170" class="st3" d="M273,419.9c0,0-0.1-0.9-0.6-2.3c-0.7-2.1-1.8-4.1-3.2-5.8c-2.1-2.6-5-4.4-8.1-5.3
		c-4-1.1-8.2-0.7-11.9,1.1l-0.3,0.2l-0.1-0.4c-0.2-1.4-0.6-2.7-1.1-4c-1.8-4.3-5.2-7.6-9.5-9.4c-1.9-0.7-3.8-1.1-5.8-1.1
		c-4.3,0-8.5,1.7-11.7,4.6c-1.3,1.2-1.9,2.1-1.9,2c0.1-0.2,0.2-0.4,0.4-0.6c0.4-0.6,0.9-1.1,1.4-1.6c1.9-1.8,4.1-3.2,6.6-4
		c1.7-0.6,3.5-0.9,5.2-0.9c2,0,4.1,0.3,6,1c4.4,1.7,8,5.2,9.8,9.6c0.5,1.3,0.9,2.7,1.1,4.1l-0.4-0.2c3.8-1.9,8.2-2.2,12.3-1.1
		c1.7,0.5,3.4,1.3,4.9,2.3c1.3,0.9,2.4,2,3.4,3.2c1.4,1.7,2.5,3.8,3.1,5.9c0.2,0.6,0.3,1.2,0.4,1.8C273,419.4,273,419.7,273,419.9z"
		/>
	<path id="path172" class="st3" d="M280.5,421.5c-0.1,0-0.3-10.8-0.3-24s0.1-24,0.3-24s0.3,10.8,0.3,24S280.6,421.5,280.5,421.5z"/>
	<path id="path174" class="st3" d="M286.3,398.8c-0.1,0-0.3-7.9-0.3-17.6s0.1-17.6,0.3-17.6s0.3,7.9,0.3,17.6
		S286.4,398.8,286.3,398.8z"/>
	<polygon id="polygon176" class="st2" points="318.3,317.3 318.1,300 261.2,300 211.1,300 211,316.5 197.2,345.4 197.2,363.2 
		267.2,362.2 331.1,363.2 331.1,345.4 	"/>
	<path id="path178" class="st3" d="M318.3,317.3c0,0,0.1,0.1,0.2,0.5s0.4,0.8,0.7,1.4c0.6,1.2,1.4,3.1,2.5,5.5l9.5,20.7v0.1
		c0,5.3,0,11.3,0,17.8v0.2h-0.2l-59.3-0.9l-4.3-0.1l-4.4,0.1l-8.9,0.1l-18.3,0.3l-38.8,0.6h-0.3v-18.2v-0.1l13.8-28.9v0.1
		c0.1-5.6,0.1-11.1,0.2-16.5v-0.2h0.2l107,0.1h0.1v0.1c0,5.6,0.1,10,0.1,12.9c0,1.5,0,2.6,0,3.3S318.3,317.4,318.3,317.3
		c0,0,0-0.3,0-1.1s0-1.9-0.1-3.3c0-2.9-0.1-7.3-0.2-12.9l0.1,0.1l-107,0.1l0.2-0.2c-0.1,5.4-0.1,10.9-0.2,16.5v0.1l0,0
		c-4.4,9.3-9,19-13.8,28.9v-0.1v17.9l-0.3-0.3l38.8-0.6l18.4-0.3l8.9-0.1l4.4-0.1l4.3,0.1l59.3,1l-0.2,0.2c0-6.6,0-12.6,0-17.8v0.1
		c-4.1-8.9-7.2-16-9.4-20.8c-1.1-2.4-1.9-4.2-2.5-5.5c-0.3-0.6-0.5-1.1-0.6-1.4L318.3,317.3z"/>
	<rect id="rect180" x="197.6" y="345.6" class="st0" width="132.8" height="16.9"/>
	<path id="path182" class="st5" d="M209.9,215.1l-0.4,0.3c-20.7,18.2-32.7,45.9-32.8,75l0,0l33.1-6.9L209.9,215.1z"/>
	<rect id="rect184" x="209.7" y="211.8" class="st2" width="109.6" height="75.9"/>
	<path id="path186" class="st5" d="M264.4,40.9c-8.6,0-24.3,24.3-39,65c-1,2.8-1.9,5.3-2.8,7.6v2.5h83.1v-2.2
		c-0.8-2.7-1.5-5.4-2.4-7.9C289.6,65,273,40.9,264.4,40.9"/>
	<path id="path188" class="st3" d="M264.4,40.9h0.4c0.4,0,0.8,0.1,1.2,0.2c1.5,0.5,2.9,1.3,4.1,2.3c3.3,2.6,7.2,7.2,11.3,13.7
		c4.8,7.7,9,15.8,12.6,24.1c2.1,4.8,4.2,9.9,6.2,15.3c1,2.7,2,5.5,3,8.4s1.8,5.8,2.7,8.9v0.1c0,0.7,0,1.5,0,2.2v0.2h-0.2h-41.6
		h-41.5h-0.2v-2.8l0,0c2.2-5.9,4.2-11.6,6.3-16.9s4.2-10.5,6.3-15.2c3.6-8.3,7.8-16.3,12.6-24c4-6.4,7.9-11.2,11.1-13.8
		c1.2-1,2.6-1.8,4.1-2.3c0.4-0.1,0.8-0.2,1.2-0.2L264.4,40.9L264,41c-0.4,0-0.8,0.1-1.2,0.2c-1.5,0.5-2.8,1.3-4,2.4
		c-3.2,2.6-7,7.4-11,13.8c-4.7,7.7-8.8,15.8-12.4,24.1c-2.1,4.7-4.2,9.8-6.3,15.2s-4.1,11.1-6.3,16.9v2.4l-0.2-0.2h83.1l-0.2,0.2
		v-2.2c-0.9-3-1.8-6-2.7-8.8s-2-5.7-3-8.4c-2-5.4-4-10.6-6.1-15.3c-3.5-8.3-7.7-16.4-12.4-24.1c-4-6.4-7.9-11.1-11.1-13.7
		c-1.2-1-2.6-1.8-4.1-2.3c-0.4-0.1-0.8-0.2-1.2-0.2L264.4,40.9z"/>
	<path id="path190" class="st5" d="M319.3,213.2l0.4,0.3c21.2,18.7,33.6,47,33.6,76.9l0,0l-33.9-7.1L319.3,213.2z"/>
	<path id="path192" class="st2" d="M210.3,201.6c0,0-0.5-28,1.1-40.6s6.4-35,6.4-35h93.8c3.5,13.7,5.6,27.6,6.3,41.7
		c0.8,21.7,0.8,34.2,0.8,34.2L210.3,201.6z"/>
	<path id="path194" class="st3" d="M210.3,201.6h0.5h29.9l78.1,0.1l-0.2,0.2c-0.5-21.1,0.1-44.7-5.4-68.6c-0.5-2.4-1.1-4.9-1.7-7.2
		l0.2,0.2h-93.8l0.2-0.3c-2.4,11.3-4.4,21.6-5.8,30.8c-0.4,2.3-0.7,4.5-0.9,6.7c-0.2,2.2-0.3,4.2-0.5,6.2c-0.2,4-0.3,7.7-0.4,11
		c-0.1,6.6-0.1,11.8-0.2,15.4v5.1C210.2,201.4,210.2,201.5,210.3,201.6c0,0,0-0.1,0-0.4s0-0.6,0-1c0-0.9,0-2.3-0.1-4
		c0-3.6-0.1-8.8,0-15.4c0.1-3.3,0.1-7,0.4-11c0.1-2,0.2-4.1,0.4-6.3c0.2-2.2,0.5-4.4,0.9-6.7c1.4-9.2,3.4-19.6,5.8-30.8v-0.2h0.2
		l93.8-0.1h0.2l0,0.2c0.6,2.4,1.2,4.8,1.7,7.3c2.6,11.6,4.1,23.5,4.6,35.4c0.4,11.5,0.7,22.7,0.8,33.3v0.2h-0.2l-78.2-0.3l-22.3-0.1
		l-5.9-0.1h-1.5L210.3,201.6z"/>
	<path id="path196" class="st3" d="M268.8,243.8c0,2.5-1.9,4.8-6.2,4.8c-2,0-4-0.5-5.6-1.6l1.3-2.6c1.2,0.9,2.7,1.4,4.2,1.3
		c1.7,0,2.8-0.7,2.8-1.9s-0.8-1.8-2.8-1.8H261v-2.3l3-3.5h-6.3v-2.8h10.4v2.2l-3.4,3.8C267.4,240,268.8,241.6,268.8,243.8z"/>
	<path id="path198" class="st3" d="M270.5,177.1v2.8h-11.2v-2.2l5.7-5.4c1.3-1.2,1.5-2,1.5-2.7c0-1.2-0.8-1.8-2.4-1.8
		c-1.2,0-2.4,0.5-3.1,1.5l-2.5-1.6c1.4-1.9,3.6-2.9,5.9-2.8c3.3,0,5.5,1.7,5.5,4.4c0,1.4-0.4,2.8-2.5,4.7l-3.4,3.2H270.5z"/>
	<path id="path200" class="st3" d="M270.7,331h-2.4v3.1h-3.4V331h-8v-2.3l7-9.4h3.6l-6.5,8.9h4v-2.8h3.2v2.8h2.4L270.7,331z"/>
	<path id="path202" class="st3" d="M265.1,81.8v14.9h-3.4V84.6h-3v-2.8H265.1z"/>
	<path id="path204" class="st0" d="M312.8,130.6c-0.2,0-0.5,0-0.7,0h-2l-7.5,0.1l-26.2,0.1l0.2-0.1l-9.3,16.7
		c-0.5,0.9-1,1.9-1.5,2.8l-0.1,0.1h-0.2l-37.2-0.1l-11.2-0.1l-3-0.1h-0.8h-0.3c0.1,0,0.2,0,0.3,0h0.8l3-0.1l11.2-0.1l37.2-0.1
		l-0.2,0.1c0.5-0.9,1-1.8,1.5-2.8l9.3-16.7l0.1-0.1h0.1l26.2,0.1l7.5,0.1h2C312.3,130.6,312.5,130.6,312.8,130.6z"/>
	<rect id="rect206" x="222.6" y="163.9" class="st0" width="14.8" height="8"/>
	<polygon id="polygon208" class="st1" points="235.7,213.2 246.7,257.9 269.6,258.3 279.7,287.6 271,287.8 263.3,260.1 243.5,260.1 
			"/>
	<path id="path210" class="st0" d="M235.5,211.8c0,0.1,0.1,0.2,0.1,0.2l0.1,0.7c0.1,0.7,0.3,1.6,0.5,2.8l1.8,10.3
		c1.5,8.7,3.5,20.7,5.7,34v0.2l-0.3-0.2h19.8h0.2l0,0.2c2.2,8.1,4.1,15.1,5.5,20c0.6,2.4,1.2,4.3,1.5,5.7c0.2,0.6,0.3,1.1,0.4,1.5
		c0,0.2,0.1,0.4,0.1,0.5c-0.1-0.2-0.1-0.3-0.2-0.5c-0.1-0.4-0.3-0.9-0.5-1.5c-0.4-1.4-1-3.3-1.6-5.7c-1.4-4.9-3.4-11.8-5.7-19.9
		l0.2,0.2h-19.8h-0.2v-0.2v-0.2c-2.2-13.3-4.1-25.3-5.6-34c-0.7-4.3-1.2-7.8-1.6-10.3c-0.2-1.2-0.3-2.1-0.4-2.8
		c0-0.3-0.1-0.5-0.1-0.7C235.5,212,235.5,211.9,235.5,211.8z"/>
	<path id="path212" class="st0" d="M319.3,249.8c-0.2,0-0.4,0.1-0.6,0.1h-1.9l-6.9,0.1l-23.1,0.1h-0.3V247c0-9.7,0-18.5,0.1-25
		c0-3.1,0.1-5.7,0.1-7.6c0-0.9,0-1.5,0-2.1c0-0.2,0-0.5,0.1-0.7c0,0.2,0,0.5,0,0.7c0,0.5,0,1.2,0,2.1c0,1.8,0,4.4,0.1,7.6
		c0,6.4,0,15.2,0.1,25v2.7l-0.3-0.3l23.1,0.1l6.9,0.1h1.9C318.8,249.6,319.1,249.7,319.3,249.8z"/>
	<path id="path214" class="st0" d="M316.3,150.1H316h-0.9l-3.5,0.1l-12.7,0.1l0.2-0.2c0,6.6,0,14.6,0,23.2c0,7.7,0,14.8,0,20.9
		l-0.2-0.2l14.4,0.1l4,0.1h1.1c0.1,0,0.2,0,0.4,0h-0.4h-1.1l-4,0.1l-14.4,0.1h-0.2V194c0-6.1,0-13.2,0-20.9c0-8.6,0-16.6,0-23.2
		v-0.2h0.2l12.7,0.1l3.5,0.1h0.9C316.1,149.9,316.2,150,316.3,150.1z"/>
	<g id="g218" class="st6">
		<path id="path216" d="M319.3,287.6c-34.5-9.6-71.2-6.1-108.8,0H319.3z"/>
	</g>
	<g id="g222" class="st6">
		<path id="path220" d="M318.8,201.9c-45.2-7.6-71.1-6.4-108.7-0.3L318.8,201.9z"/>
	</g>
	<g id="g226" class="st6">
		<path id="path224" d="M305.7,116c-39.5-7.7-50.3-6.1-83.1,0H305.7z"/>
	</g>
	<rect id="rect228" x="300.3" y="258.3" class="st5" width="3.5" height="15"/>
	<path id="path230" class="st3" d="M198.2,344.6c0-0.1,29.8-0.2,66.5-0.1s66.5,0.2,66.5,0.4s-29.8,0.2-66.5,0.1
		S198.2,344.8,198.2,344.6z"/>
	<path id="path232" class="st3" d="M318.6,316.5c0,0.1-24,0.3-53.7,0.3s-53.7-0.1-53.7-0.3s24-0.3,53.7-0.3S318.6,316.3,318.6,316.5
		z"/>
	<path id="path234" class="st3" d="M318.6,311.8c0,0.1-24,0.3-53.7,0.3s-53.7-0.1-53.7-0.3s24-0.3,53.7-0.3S318.6,311.7,318.6,311.8
		z"/>
	<path id="path236" class="st3" d="M318.6,307.2c0,0.1-24,0.3-53.7,0.3s-53.7-0.1-53.7-0.3s24-0.3,53.7-0.3S318.6,307.1,318.6,307.2
		z"/>
	<path id="path238" class="st3" d="M318.6,302.6c0,0.1-24,0.3-53.7,0.3s-53.7-0.1-53.7-0.3s24-0.3,53.7-0.3S318.6,302.4,318.6,302.6
		z"/>
	<path id="path240" class="st3" d="M331.1,354.6c0,0.1-30,0.3-67,0.3s-67-0.1-67-0.3s30-0.3,67-0.3S331.1,354.5,331.1,354.6z"/>
	<path id="path242" class="st3" d="M331.1,350c0,0.1-30,0.3-67,0.3s-67-0.1-67-0.3s30-0.3,67-0.3S331.1,349.8,331.1,350z"/>
	<path id="path244" class="st7" d="M205,225.2c-0.1,0.2-0.2,0.4-0.4,0.5l-1.1,1.4c-0.5,0.6-1.1,1.4-1.7,2.3s-1.4,1.9-2.2,3.1
		c-1.6,2.3-3.4,5.2-5.3,8.4s-3.7,6.9-5.5,10.8s-3.2,7.8-4.4,11.3c-0.6,1.8-1.1,3.5-1.5,5.1s-0.8,3.1-1.2,4.5s-0.6,2.6-0.8,3.7
		s-0.4,2-0.6,2.8s-0.3,1.3-0.4,1.8c0,0.2-0.1,0.4-0.2,0.6c0-0.2,0-0.4,0.1-0.6c0.1-0.5,0.2-1.1,0.3-1.8s0.3-1.7,0.5-2.9
		s0.4-2.4,0.8-3.7s0.7-2.9,1.1-4.5s0.9-3.3,1.5-5.1c1.2-3.9,2.7-7.7,4.3-11.4c1.7-3.7,3.5-7.3,5.5-10.9c1.9-3.2,3.7-6.1,5.4-8.4
		c0.8-1.2,1.6-2.2,2.3-3.1s1.3-1.7,1.8-2.3l1.2-1.4C204.7,225.5,204.8,225.3,205,225.2z"/>
	<path id="path246" class="st7" d="M263.2,46.5c-0.9,0.3-1.9,0.6-2.7,1.1c-2.2,1.5-4.1,3.4-5.5,5.8c-3.6,5.8-8.1,14-12.7,23.4
		s-8.2,18-10.7,24.4c-1.2,3.2-2.2,5.8-2.9,7.5c-0.3,0.9-0.6,1.5-0.8,2.1c-0.1,0.2-0.2,0.5-0.3,0.7c0.1-0.3,0.1-0.5,0.2-0.7l0.7-2.1
		c0.6-1.8,1.5-4.4,2.7-7.6c2.4-6.4,6-15.1,10.6-24.5c3.9-8,8.2-15.8,12.9-23.3c1.4-2.3,3.4-4.3,5.7-5.7c0.6-0.4,1.3-0.6,2-0.8
		C262.7,46.6,262.9,46.5,263.2,46.5z"/>
	<path id="path248" class="st7" d="M213.1,197.2c0-0.2,0-0.5,0-0.7c0-0.5,0-1.1,0-2c0-1.7,0.1-4.2,0.3-7.2c0.3-6.1,1-14.5,2.2-23.7
		s2.8-17.5,4.1-23.4c0.6-3,1.2-5.4,1.6-7c0.2-0.8,0.4-1.4,0.5-1.9c0-0.2,0.1-0.4,0.2-0.6c0,0.2,0,0.5-0.1,0.7l-0.4,1.9
		c-0.4,1.7-0.9,4.1-1.5,7c-1.2,6-2.7,14.2-3.9,23.4s-2,17.6-2.4,23.6c-0.2,3-0.4,5.5-0.4,7.2c-0.1,0.8-0.1,1.4-0.1,1.9
		C213.2,196.7,213.2,196.9,213.1,197.2z"/>
	<path id="path250" class="st7" d="M213.8,276c-0.1,0-0.3-12.8-0.3-28.7s0.1-28.7,0.3-28.7s0.3,12.8,0.3,28.7S214,276,213.8,276z"/>
	<g id="g254" class="st6">
		<path id="path252" d="M209.8,281.7c0,0,1-44.9,0-66.6c-4,10.5-8.4,22.5-9.2,33.9C199.8,260.6,203.1,272.1,209.8,281.7z"/>
	</g>
	<path id="path256" class="st3" d="M210.2,287.8h0.5h1.5h5.9l22.4-0.1l78.7-0.1l-0.2,0.2c0-23,0-48.8,0-75.9l0.3,0.3h-0.6l-109-0.6
		l0.2-0.2c0,23.3-0.1,42.4-0.1,55.7c0,6.6-0.1,11.9-0.1,15.4c0,1.8,0,3.1,0,4s0,1.4,0,1.4s0-0.5,0-1.4s0-2.3,0-4
		c0-3.6,0-8.8-0.1-15.4c0-13.3,0-32.5-0.1-55.7V211h0.2l109,0.5h0.8v0.3c0,27.1,0,52.9,0,76v0.2h-0.2l-78.7-0.1l-22.4-0.1h-5.9h-1.5
		C210.4,287.8,210.2,287.8,210.2,287.8z"/>
	<path id="path258" class="st3" d="M331.1,359.2c0,0.1-30,0.3-67,0.3s-67-0.1-67-0.3s30-0.3,67-0.3S331.1,359.1,331.1,359.2z"/>
</g>
<g id="freepik--Audience--inject-40">
	<path id="path261" class="st3" d="M398,330.3c-0.3,0-0.5,0-0.8,0l-2.2,0l-8.2,0.1l-27.2,0.1h-7.2l-0.1-0.1l-15.8-15.9l-4.6-4.7
		l-1.2-1.3c-0.1-0.1-0.3-0.3-0.4-0.5c0.2,0.1,0.3,0.3,0.5,0.4l1.3,1.2l4.7,4.6l15.9,15.8l-0.2-0.1h7.1l27.2,0.1l8.2,0.1h2.2
		C397.5,330.2,397.7,330.2,398,330.3z"/>
	<circle id="circle263" class="st3" cx="331.2" cy="308.8" r="3.7"/>
	<circle id="circle265" class="st8" cx="407.2" cy="322.6" r="30"/>
	<path id="path267" class="st9" d="M409.7,323c2.5-1.1,4.2-3.6,4.1-6.4c0.2-3.6-2.5-6.7-6.1-6.9c-3.6-0.2-6.7,2.5-6.9,6.1
		c0,0.2,0,0.5,0,0.7c0,2.8,1.6,5.4,4.2,6.5c-10,1.5-9.5,12.4-9.5,12.4l23.6,0.1C419.1,335.5,419.6,324.5,409.7,323z"/>
</g>
<g id="freepik--Setting--inject-40">
	<path id="path270" class="st3" d="M112.4,168.5c0.1,0,0.2,0,0.2,0h0.7h2.7l10-0.1l33.9-0.2h0.1l0.1,0.1c1.5,1.8,3.2,3.6,4.8,5.5
		l25.4,29.3l7.7,8.9l2.1,2.4l0.5,0.6c0.1,0.1,0.1,0.1,0.2,0.2l-0.2-0.2l-0.6-0.6l-2.1-2.4c-1.9-2.1-4.5-5.1-7.8-8.8l-25.6-29.2
		l-4.8-5.6l0.2,0.1l-33.8-0.1l-10-0.1l-2.7-0.1h-0.7L112.4,168.5z"/>
	<circle id="circle272" class="st3" cx="200.8" cy="215.4" r="3.7"/>
	<circle id="circle274" class="st8" cx="88.5" cy="163.5" r="30"/>
	<path id="path276" class="st10" d="M82.6,153.8c0.9-0.5,1.8-0.9,2.8-1.2l0.6-2.7l4.6-0.1l0.7,2.7c1,0.2,1.9,0.6,2.8,1.1l2.3-1.6
		l3.3,3.2l-1.4,2.4c0.5,0.9,0.9,1.8,1.2,2.8l2.7,0.6l0.1,4.6l-2.7,0.7c-0.2,1-0.6,1.9-1.1,2.8l1.5,2.4l-3.2,3.3l-2.4-1.4
		c-0.9,0.5-1.8,0.9-2.8,1.2l-0.6,2.7l-4.6,0.1l-0.7-2.7c-1-0.2-1.9-0.6-2.8-1.1l-2.3,1.5l-3.3-3.2l1.4-2.4c-0.5-0.9-0.9-1.8-1.2-2.8
		l-2.7-0.6l-0.1-4.6l2.7-0.7c0.2-1,0.6-1.9,1.1-2.8l-1.5-2.3l3.2-3.3L82.6,153.8z M85.1,159.9c-1.9,2-1.9,5.1,0.1,7.1
		c2,1.9,5.1,1.9,7.1-0.1s1.9-5.1-0.1-7.1c0,0,0,0-0.1-0.1C90.1,157.9,87,158,85.1,159.9z"/>
	<path id="path278" class="st10" d="M85.1,159.9c0.3-0.3,0.6-0.6,0.9-0.8c1-0.6,2.1-0.9,3.2-0.8c0.8,0.1,1.5,0.4,2.2,0.8
		c0.8,0.5,1.4,1.2,1.8,2c0.2,0.4,0.4,0.9,0.4,1.4c0.1,0.5,0.1,1,0,1.5c-0.3,2.2-2,4-4.2,4.3c-0.5,0.1-1,0.1-1.5,0
		c-0.5-0.1-1-0.2-1.4-0.4c-0.8-0.4-1.5-1-2.1-1.7c-1.1-1.6-1.2-3.7-0.2-5.4C84.5,160.5,84.7,160.1,85.1,159.9c0-0.1-0.3,0.3-0.7,0.9
		c-0.5,1-0.7,2.1-0.5,3.2c0.1,0.7,0.4,1.5,0.8,2.1c0.5,0.7,1.2,1.3,2,1.6c0.4,0.2,0.9,0.3,1.3,0.4c0.5,0.1,1,0.1,1.4,0
		c2.1-0.3,3.7-2,4-4.1c0.1-0.5,0.1-1,0-1.4c-0.1-0.5-0.2-0.9-0.4-1.3c-0.4-0.8-1-1.4-1.7-1.9c-0.6-0.4-1.3-0.7-2.1-0.8
		c-1.1-0.1-2.2,0.1-3.2,0.7C85.8,159.4,85.4,159.6,85.1,159.9z"/>
	<path id="path280" class="st10" d="M82.6,153.8l-0.2-0.1l-0.5-0.3l-1.8-1.1l0,0l-3.2,3.4v-0.1c0.5,0.7,1,1.5,1.5,2.3l0,0l0,0
		c-0.5,0.9-0.9,1.8-1.1,2.8l0,0h-0.1l-2.7,0.7l0.1-0.1c0,1.5,0.1,3,0.1,4.6l-0.1-0.1l2.7,0.6h0.1v0.1c0.3,1,0.7,1.9,1.2,2.7v0.1v0.1
		l-1.4,2.4v-0.2l3.3,3.2h-0.2l2.3-1.5h0.1H83c0.9,0.5,1.8,0.8,2.8,1.1h0.1v0.1l0.7,2.7l-0.1-0.1l4.6-0.1l-0.1,0.1
		c0.2-0.9,0.4-1.8,0.6-2.7v-0.1h0.1c1-0.3,1.9-0.7,2.7-1.2l0,0h0.1h0.1l2.4,1.4h-0.2l3.2-3.3v0.2l-1.5-2.3v-0.1v-0.1
		c0.5-0.9,0.9-1.8,1.1-2.8V166h0.1l2.7-0.7l-0.1,0.1c0-1.6-0.1-3.1-0.1-4.6l0.1,0.1l-2.7-0.6h-0.1v-0.1c-0.3-1-0.7-1.9-1.2-2.7v-0.1
		v-0.1l1.4-2.4v0.1l-3.3-3.2h0.1l-2.3,1.5l0,0l0,0c-0.9-0.5-1.8-0.9-2.8-1.1h-0.1v-0.1c-0.2-1-0.4-1.9-0.7-2.7l0.1,0.1l-4.6,0.1
		l0.1-0.1c-0.2,1.1-0.4,2-0.6,2.7l0,0l0,0c-0.7,0.2-1.4,0.5-2.1,0.8l-0.5,0.3l-0.2,0.1l0.2-0.1l0.5-0.3c0.7-0.4,1.4-0.6,2.1-0.9l0,0
		l0.6-2.7v-0.1h0l4.6-0.1h0.1v0.1c0.2,0.8,0.4,1.7,0.7,2.7l-0.1-0.1c1,0.2,1.9,0.6,2.8,1.1H94c0.7-0.5,1.5-1,2.3-1.5h0.1l0.1,0.1
		c1.1,1,2.2,2.1,3.3,3.2l0.1,0.1l-0.1,0.1l-1.4,2.4v-0.1c0.5,0.9,0.9,1.8,1.2,2.8l-0.1-0.1l2.7,0.6h0.1v0.4c0,1.5,0,3,0.1,4.6v0.1
		h-0.1l-2.7,0.7l0.1-0.1c-0.2,1-0.6,2-1.1,2.9V169l1.5,2.3l0.1,0.1l-0.1,0.1l-3.2,3.3l-0.1,0.1l-0.1-0.1l-2.4-1.4h0.2
		c-0.9,0.5-1.8,0.9-2.8,1.2l0.1-0.1c-0.2,0.9-0.4,1.9-0.6,2.7v0.1h-0.1l-4.6,0.1h-0.1v-0.1c-0.2-0.9-0.4-1.9-0.7-2.7l0.1,0.1
		c-1-0.3-1.9-0.6-2.8-1.1h0l-2.3,1.5l-0.1,0.1l-0.1-0.1l-3.3-3.2l-0.1-0.1l0.1-0.1c0.5-0.8,1-1.6,1.4-2.4v0.1
		c-0.5-0.9-0.9-1.8-1.2-2.8l0.1,0.1l-2.7-0.6h-0.1v-0.1c0-1.6,0-3.2-0.1-4.6v-0.1h0.1l2.7-0.7l-0.1,0.1c0.2-1,0.6-1.9,1.1-2.8v0
		l-1.5-2.3l0,0l0,0l3.2-3.3l0,0l0,0c0.8,0.5,1.4,0.8,1.8,1.1l0.5,0.3L82.6,153.8z"/>
</g>
<g id="freepik--Chart--inject-40">
	<path id="path283" class="st3" d="M398.1,142c-0.3,0-0.5,0.1-0.8,0.1h-2.2l-8.2,0.1l-27.2,0.1h-7.1l0.2-0.1l-15.9,15.8l-4.7,4.6
		l-1.3,1.2c-0.1,0.1-0.3,0.3-0.5,0.4c0.1-0.2,0.3-0.3,0.4-0.5l1.2-1.3c1.1-1.1,2.7-2.7,4.6-4.7c4-4,9.5-9.6,15.8-15.9l0.1-0.1h7.2
		l27.2,0.1l8.2,0.1l2.2,0.1C397.6,141.9,397.8,142,398.1,142z"/>
	<circle id="circle285" class="st3" cx="331.3" cy="163.5" r="3.7"/>
	<circle id="circle287" class="st8" cx="416.1" cy="138.5" r="30"/>
	<rect id="rect289" x="402.9" y="125.9" class="st11" width="7.4" height="23.1"/>
	<rect id="rect291" x="413.4" y="129.8" class="st11" width="7.4" height="19"/>
	<rect id="rect293" x="424" y="135.7" class="st11" width="7.4" height="13"/>
</g>
<g id="freepik--Idea--inject-40">
	<path id="path296" class="st3" d="M132.3,65.3h0.3h0.7h2.9l10.5-0.1l34.8-0.2h11l0.1,0.1l18.6,20.1l5.4,5.9l1.4,1.6
		c0.2,0.2,0.3,0.4,0.5,0.6c-0.2-0.2-0.4-0.3-0.5-0.5l-1.5-1.5l-5.5-5.8c-4.7-5-11.2-12-18.7-20l0.2,0.1h-10.9l-34.8-0.1l-10.5-0.1
		l-2.9-0.1h-0.7C132.5,65.3,132.4,65.3,132.3,65.3z"/>
	<circle id="circle298" class="st3" cx="217.5" cy="92.6" r="3.7"/>
	<circle id="circle300" class="st8" cx="115.2" cy="61.3" r="30"/>
	<path id="path302" class="st12" d="M126.4,58.1c0-6.4-5.1-11.6-11.5-11.6c-6.4,0-11.6,5.1-11.6,11.5c0,5,3.1,9.4,7.8,11l-0.1,3.7
		l7.9,0.1v-3.8C123.4,67.2,126.4,62.9,126.4,58.1z"/>
	<path id="path304" class="st7" d="M119,74.9c-1.3,0.1-2.7,0.2-4,0.1c-1.3,0-2.7,0-4-0.1c1.3-0.1,2.7-0.2,4-0.1
		C116.3,74.7,117.7,74.8,119,74.9z"/>
	<path id="path306" class="st7" d="M116.3,77.9c-0.5,0.2-0.9,0.2-1.4,0.2c-0.5,0-1-0.1-1.4-0.2C114.5,77.8,115.4,77.9,116.3,77.9z"
		/>
	<path id="path308" class="st8" d="M112.7,72.7c0,0,0,0,0-0.1v-0.4c0-0.4,0-0.9,0-1.5c0-1.3,0.1-3.2,0.1-5.5c0-1.2,0.1-2.4,0.1-3.8
		c0-0.3,0-0.7-0.1-1c-0.1-0.3-0.4-0.5-0.7-0.5c-0.3,0.1-0.6,0.4-0.6,0.7c-0.1,0.3,0,0.7,0.1,1c0.4,0.7,1,1.1,1.8,1.2
		c0.8,0.1,1.6-0.2,2.1-0.8c0.5-0.6,0.9-1.4,0.9-2.3c0-0.4,0-0.8-0.2-1.2c-0.2-0.4-0.6-0.5-1-0.4c-0.4,0.2-0.6,0.6-0.5,1
		c0.1,0.4,0.3,0.8,0.6,1.1c0.5,0.7,1.2,1.2,1.9,1.5c0.4,0.1,0.8,0.2,1.2,0.1c0.4-0.1,0.7-0.2,1.1-0.4c0.3-0.2,0.5-0.5,0.7-0.9
		c0.1-0.3,0.1-0.7-0.1-1c-0.1-0.3-0.4-0.5-0.8-0.5c-0.3,0-0.6,0.2-0.8,0.5c-0.3,0.6-0.5,1.3-0.5,2c-0.1,1.4-0.2,2.6-0.3,3.8
		c-0.2,2.3-0.3,4.2-0.4,5.5c0,0.6-0.1,1.1-0.1,1.5v0.4c0,0,0,0.1,0,0.1c0,0,0,0,0-0.1v-0.4c0-0.4,0-0.9,0.1-1.5
		c0.1-1.3,0.2-3.2,0.3-5.5c0.1-1.2,0.2-2.4,0.3-3.8c0-0.3,0.1-0.7,0.1-1c0.1-0.4,0.2-0.7,0.4-1c0.2-0.3,0.6-0.6,1-0.6
		c0.4,0,0.8,0.3,1,0.7c0.2,0.4,0.2,0.8,0.1,1.2c-0.1,0.4-0.4,0.8-0.7,1c-0.3,0.3-0.7,0.4-1.2,0.5c-0.4,0.1-0.9,0-1.3-0.2
		c-0.8-0.3-1.5-0.9-2-1.6c-0.3-0.3-0.5-0.8-0.6-1.2c-0.2-0.5,0.1-1.1,0.6-1.3s1.1,0.1,1.3,0.6c0.2,0.4,0.3,0.9,0.3,1.3
		c0,0.9-0.4,1.7-0.9,2.4c-0.6,0.7-1.4,1-2.3,0.9c-0.8-0.1-1.6-0.6-2-1.3c-0.2-0.4-0.2-0.8-0.1-1.2c0.1-0.4,0.4-0.7,0.8-0.8
		c0.2,0,0.4,0,0.6,0.1c0.2,0.1,0.3,0.3,0.3,0.5c0.1,0.3,0.2,0.7,0.1,1.1c0,1.4-0.1,2.6-0.1,3.8c-0.1,2.3-0.2,4.2-0.2,5.5
		c0,0.6,0,1.1-0.1,1.5L112.7,72.7C112.7,72.7,112.7,72.7,112.7,72.7z"/>
	<path id="path310" class="st3" d="M117,72.7c0,0,0,0,0-0.2v-0.4l0.1-1.5c0-1.2,0.1-3.2,0.3-5.5c0.1-1,0.1-2,0.2-3.1
		c-0.2,0-0.3-0.1-0.5-0.1c-0.3-0.1-0.6-0.3-0.9-0.5c-0.1,0.3-0.3,0.5-0.5,0.7c-0.5,0.6-1.2,1-2,1h-0.3h-0.3c0,0.4,0,0.7,0,1.1v1
		c-0.1,2.3-0.2,4.2-0.2,5.5c0,0.6,0,1.1-0.1,1.5v0.2c0,0.1,0,0.2,0,0.2s0,0.2,0,0.2l0,0c0,0,0,0,0-0.2v-0.8c0-0.3,0-0.7,0-1.1
		l0.1-5.5L113,63c-0.6-0.2-1.2-0.6-1.5-1.2c-0.2-0.4-0.2-0.8-0.1-1.2c0.1-0.4,0.4-0.8,0.8-0.9c0.2,0,0.4,0,0.6,0.1
		c0.2,0.1,0.3,0.3,0.3,0.5c0.1,0.3,0.2,0.7,0.2,1.1c0,0.5,0,0.9-0.1,1.4h0.3c0.8,0.1,1.6-0.2,2.1-0.8c0.2-0.2,0.3-0.4,0.5-0.7
		c-0.3-0.3-0.6-0.6-0.9-0.9c-0.3-0.3-0.5-0.8-0.6-1.2c-0.1-0.5,0.2-1,0.6-1.2c0.5-0.2,1.1,0.1,1.3,0.5c0.2,0.4,0.3,0.9,0.3,1.3
		c0,0.5-0.1,1-0.3,1.5c0.3,0.2,0.6,0.4,0.9,0.5c0.1,0.1,0.3,0.1,0.4,0.1c0-0.1,0-0.3,0-0.4v-0.3c0-0.2,0.1-0.5,0.1-0.8
		c0.1-0.4,0.2-0.7,0.4-1c0.2-0.3,0.6-0.6,1-0.6l0,0c0.4,0,0.8,0.3,1,0.7c0.2,0.4,0.2,0.8,0.1,1.2c-0.1,0.4-0.4,0.8-0.8,1
		c-0.3,0.3-0.8,0.4-1.2,0.5c-0.2,0-0.4,0-0.5,0c-0.1,1.1-0.2,2.2-0.3,3.1c-0.2,2.3-0.3,4.2-0.4,5.5l0,0c0,0.6-0.1,1.1-0.1,1.5v0.4
		C117,72.7,117,72.7,117,72.7z M117.6,62.1c-0.1,1.1-0.2,2.1-0.2,3.1c-0.2,2.4-0.2,4.3-0.3,5.5v1.5c0-0.4,0-0.8,0.1-1.5l0,0
		c0.1-1.3,0.2-3.2,0.4-5.5c0.1-0.9,0.2-2,0.3-3.1L117.6,62.1z M112.9,63l-0.1,2.2l-0.1,5.5c0,0.4,0,0.8,0,1.1v0.4
		c0-0.3,0-0.8,0.1-1.5c0-1.3,0.1-3.2,0.2-5.5v-1.1C113,63.8,113,63.4,112.9,63L112.9,63z M113.1,63h0.3c0.9,0.1,1.7-0.2,2.3-0.9
		c0.2-0.2,0.4-0.4,0.5-0.7c-0.1,0-0.1-0.1-0.2-0.1c-0.1,0.2-0.3,0.5-0.5,0.7c-0.5,0.5-1.1,0.9-1.8,0.9c-0.1,0-0.2,0-0.3,0l-0.3,0
		C113.1,62.9,113.1,62.9,113.1,63L113.1,63z M112.9,62.9h0.1c0-0.1,0-0.1,0-0.2h-0.1V62.9z M112.2,59.7H112
		c-0.4,0.1-0.7,0.4-0.8,0.8c-0.1,0.4,0,0.8,0.1,1.2c0.3,0.6,0.8,1,1.4,1.2v-0.2c-0.6-0.2-1-0.6-1.3-1.1c-0.2-0.3-0.2-0.7-0.1-1
		c0.1-0.3,0.3-0.6,0.6-0.7c0.3,0,0.7,0.2,0.7,0.5c0.1,0.3,0.2,0.7,0.1,1v1.3l0.1,0c0-0.5,0-0.9,0-1.4c0-0.4,0-0.7-0.1-1.1
		c-0.1-0.2-0.2-0.3-0.3-0.5C112.4,59.8,112.3,59.7,112.2,59.7L112.2,59.7z M112.2,59.9L112.2,59.9c-0.4,0.1-0.6,0.4-0.7,0.7
		c-0.1,0.3,0,0.7,0.1,1c0.3,0.5,0.7,0.9,1.3,1.1v-1.3c0-0.3,0-0.7-0.1-1C112.6,60.1,112.4,59.9,112.2,59.9L112.2,59.9z M117.8,62
		c0.2,0,0.4,0,0.5,0c0.4-0.1,0.8-0.2,1.2-0.5c0.3-0.2,0.6-0.6,0.7-1c0.1-0.4,0.1-0.8-0.1-1.2c-0.2-0.4-0.5-0.6-0.9-0.7l0,0
		c-0.4,0-0.8,0.2-1,0.6c-0.2,0.3-0.3,0.6-0.4,1c0,0.3-0.1,0.5-0.1,0.8v0.3c0,0.1,0,0.3,0,0.4h0.1c0-0.1,0-0.3,0-0.4s0-0.3,0.1-0.4
		c0-0.5,0.2-1.1,0.4-1.6c0.2-0.3,0.5-0.5,0.9-0.5l0,0c0.3,0,0.7,0.2,0.8,0.5c0.2,0.3,0.2,0.7,0.1,1.1c-0.1,0.4-0.4,0.7-0.7,0.9
		c-0.3,0.2-0.7,0.4-1.1,0.5c-0.2,0-0.3,0-0.5,0C117.8,61.9,117.8,62,117.8,62z M117.6,62h0.1c0-0.1,0-0.1,0-0.2h-0.2L117.6,62z
		 M116.2,61.4c0.3,0.2,0.6,0.4,0.9,0.5c0.2,0.1,0.3,0.1,0.5,0.1v-0.2l-0.4-0.1c-0.3-0.1-0.6-0.3-0.9-0.5L116.2,61.4z M117.8,61.8
		c0.2,0,0.3,0,0.5,0c0.4-0.1,0.7-0.2,1-0.4c0.3-0.2,0.5-0.5,0.7-0.9c0.1-0.3,0.1-0.7-0.1-1c-0.1-0.3-0.4-0.5-0.8-0.5l0,0
		c-0.3,0-0.6,0.2-0.8,0.5c-0.3,0.5-0.4,1-0.4,1.5c0,0.1,0,0.3,0,0.4S117.8,61.7,117.8,61.8L117.8,61.8z M116,61.3l0.2,0.1l0.1-0.2
		l-0.2-0.1L116,61.3z M115.4,57.9c-0.6,0-1,0.5-1,1c0,0.1,0,0.1,0,0.2c0.1,0.4,0.3,0.9,0.6,1.2c0.3,0.3,0.6,0.6,0.9,0.9l0.1-0.2
		c-0.3-0.3-0.6-0.5-0.8-0.9c-0.3-0.3-0.5-0.7-0.6-1.1c-0.1-0.4,0.1-0.8,0.5-1c0.4-0.1,0.8,0.1,1,0.4c0.2,0.4,0.3,0.8,0.2,1.2
		c0,0.5-0.1,0.9-0.3,1.3l0.2,0.1c0.2-0.5,0.3-0.9,0.3-1.4c0-0.5-0.1-0.9-0.3-1.3C116.1,58.1,115.7,57.9,115.4,57.9L115.4,57.9z
		 M115.4,58.1c-0.1,0-0.1,0-0.2,0c-0.3,0.2-0.5,0.6-0.5,0.9c0.1,0.4,0.3,0.8,0.6,1.1c0.2,0.3,0.5,0.6,0.7,0.9
		c0.2-0.4,0.3-0.8,0.3-1.3c0-0.4-0.1-0.8-0.2-1.2C115.9,58.3,115.6,58.1,115.4,58.1L115.4,58.1z"/>
	<path id="path312" class="st7" d="M118.3,76.4c-1.1,0.1-2.2,0.2-3.3,0.1c-1.1,0-2.2,0-3.3-0.1c1.1-0.1,2.2-0.2,3.3-0.1
		C116.1,76.3,117.2,76.3,118.3,76.4z"/>
</g>
<g id="freepik--Plant--inject-40">
	<path id="path315" class="st11" d="M435.5,443.7c1.7,0.8,3.1,2.3,3.7,4.1c0.6,1.8,0.8,3.6,0.5,5.5c-0.4,3.5-2.4,7.1-4.6,9.9
		c-3.1-2.6-3.8-7.2-4.1-9.5C430.7,450,432.4,443.1,435.5,443.7"/>
	<path id="path317" class="st11" d="M438.8,469.1c-0.4-2.1,0.3-4.2,1.9-5.6c1.6-1.3,3.8-2,5.9-1.7c1,0,1.9,0.4,2.6,1.2
		c0.5,0.8,0.5,1.8,0.1,2.5c-0.5,0.8-1.1,1.4-1.9,1.8C444.7,468.9,441.8,470,438.8,469.1"/>
	<path id="path319" class="st3" d="M435,479.9c0-0.2,0-0.5,0.1-0.7c0.1-0.5,0.2-1.2,0.4-2c0.3-2.2,1-4.3,2-6.3
		c1.1-2,2.6-3.6,4.5-4.7c0.6-0.3,1.2-0.6,1.9-0.8c0.2-0.1,0.4-0.1,0.5-0.1h0.2c-0.9,0.3-1.7,0.7-2.5,1.1c-1.9,1.2-3.4,2.8-4.4,4.7
		c-1,1.9-1.7,4-2.1,6.2c-0.2,0.8-0.3,1.5-0.4,2C435.1,479.5,435.1,479.7,435,479.9z"/>
	<path id="path321" class="st3" d="M434.8,449c0,0.1,0,0.2,0,0.3c0,0.2,0,0.5,0.1,0.9c0,0.8,0.1,2,0.2,3.4c0.1,2.9,0.2,6.8,0.3,11.1
		s0,8.3-0.1,11.1c0,1.4-0.1,2.6-0.1,3.4c0,0.4,0,0.7,0,0.9c0,0.1,0,0.2,0,0.3c0-0.1,0-0.2,0-0.3v-0.9c0-0.8,0-2,0-3.4
		c0-2.9,0.1-6.8,0-11.1s-0.1-8.3-0.2-11.1c0-1.4-0.1-2.5-0.1-3.4c0-0.4,0-0.7,0-0.9C434.8,449.2,434.8,449.1,434.8,449z"/>
	<path id="path323" class="st11" d="M433.5,471.2c-0.8-4.4-3.7-8.2-7.8-10.1c-1-0.5-2.4-0.8-3.2-0.1s-0.6,2.1-0.2,3.1
		c1.9,4.4,6.3,7.3,11.1,7.4"/>
	<path id="path325" class="st3" d="M426.3,464.4c0.2,0.1,0.4,0.2,0.6,0.3c0.3,0.1,0.5,0.2,0.7,0.4c0.3,0.2,0.6,0.4,0.9,0.6
		c0.4,0.2,0.7,0.5,1.1,0.8c0.4,0.3,0.8,0.6,1.1,1c0.8,0.8,1.6,1.7,2.2,2.7c0.6,1,1.1,2.1,1.5,3.2c0.2,0.5,0.3,1,0.4,1.5
		c0.1,0.4,0.2,0.9,0.2,1.3c0,0.4,0.1,0.7,0.1,1.1c0,0.3,0,0.5,0,0.8c0,0.2,0,0.5-0.1,0.7c-0.1,0,0-1-0.2-2.6
		c-0.1-0.4-0.1-0.9-0.2-1.3c-0.1-0.5-0.2-1-0.4-1.4c-0.4-1.1-0.9-2.1-1.5-3.1c-0.6-1-1.3-1.9-2.1-2.7c-0.4-0.4-0.7-0.7-1.1-1
		c-0.3-0.3-0.7-0.6-1-0.8C427.2,464.9,426.2,464.5,426.3,464.4z"/>
</g>
<g id="freepik--Character--inject-40">
	<path id="path328" class="st13" d="M75.5,233.1v30.1c0,5.1,6.2,14.3,14.2,14h0.7c7-0.8,3-9.2,3-14c0-2.3,0-4.2,0-4.4
		c0,0,7.7-0.7,8.2-8.3c0.3-3.7,0.2-11.3,0.1-18.1c-0.1-7.4-5.9-13.4-13.3-13.9h-0.7C79.7,218.5,75.3,225.2,75.5,233.1z"/>
	<path id="path330" class="st14" d="M93.4,258.9c-3.5-0.2-6.9-1.4-9.7-3.5c0,0,2.1,5.7,9.7,5.5L93.4,258.9z"/>
	<path id="path332" class="st3" d="M88.8,235.7c-0.2,0.2-1-0.5-2.3-0.6s-2.2,0.6-2.3,0.4s0.1-0.4,0.5-0.6c0.6-0.4,1.2-0.6,1.9-0.6
		c0.7,0,1.3,0.2,1.8,0.6C88.7,235.3,88.8,235.6,88.8,235.7z"/>
	<path id="path334" class="st3" d="M88.9,239.2c0,0.6-0.4,1-1,1c0,0,0,0-0.1,0c-0.6,0-1-0.4-1-1c0-0.6,0.4-1,1-1c0,0,0,0,0.1,0
		C88.5,238.2,88.9,238.7,88.9,239.2z"/>
	<path id="path336" class="st3" d="M92,244.5c0.6-0.2,1.3-0.2,1.9-0.2c0.3,0,0.6-0.1,0.7-0.3c0-0.3,0-0.6-0.2-0.9
		c-0.2-0.7-0.5-1.5-0.7-2.3c-0.7-2-1.2-4-1.6-6.1c0.9,1.9,1.6,3.9,2.1,5.9c0.2,0.8,0.5,1.6,0.7,2.3c0.2,0.4,0.2,0.8,0.1,1.2
		c-0.1,0.2-0.3,0.4-0.5,0.4c-0.2,0-0.3,0-0.5,0C93.3,244.6,92.6,244.6,92,244.5z"/>
	<path id="path338" class="st3" d="M88.2,231.6c-0.1,0.3-1.1,0.1-2.3,0.2s-2.2,0.4-2.4,0.1s0.1-0.4,0.5-0.6c0.5-0.3,1.2-0.5,1.8-0.5
		c0.6,0,1.2,0.1,1.8,0.3C88,231.2,88.2,231.4,88.2,231.6z"/>
	<path id="path340" class="st3" d="M100.3,232.6c-0.1,0.2-1.1,0-2.3,0s-2.2,0.1-2.3-0.1s0.1-0.3,0.6-0.5c1.1-0.4,2.4-0.4,3.5,0.1
		C100.1,232.3,100.3,232.5,100.3,232.6z"/>
	<path id="path342" class="st13" d="M75.7,238.8c-0.1-0.1-5.1-1.9-5.3,3.3s5.1,4.3,5.1,4.1S75.7,238.8,75.7,238.8z"/>
	<path id="path344" class="st14" d="M74,244.2c0,0-0.1,0.1-0.2,0.1c-0.2,0.1-0.5,0.1-0.7,0c-0.7-0.4-1-1.2-1-2
		c0-0.4,0.1-0.9,0.3-1.3c0.1-0.3,0.4-0.6,0.7-0.7c0.2-0.1,0.4,0.1,0.5,0.3c0.1,0.1,0,0.2,0,0.3s0.1-0.1,0.1-0.3
		c0-0.1-0.1-0.2-0.2-0.3c-0.1-0.1-0.3-0.2-0.5-0.1c-0.4,0.1-0.8,0.4-1,0.8c-0.2,0.4-0.4,0.9-0.4,1.4c0,1,0.5,1.8,1.4,2.2
		c0.3,0.1,0.6,0,0.8-0.1C74,244.4,74.1,244.3,74,244.2z"/>
	<path id="path346" class="st3" d="M68.7,230.5c1.1-1.9,1.3-4,1.9-6.1s1.7-4.2,3.7-4.9l0,0c1.8-0.9,3.9-0.7,5.5,0.4
		c0.5-2.8,2.6-4.9,5.3-5.6c3.1-0.6,6.4-0.4,9.4,0.6c2,0.8,3.9,2.4,6.2,4.7c1,1,1.9,2.1,2.7,3.2l2.4,7.1l-1.9,3.7
		c-0.1,0.3-0.2,0.5-0.4,0.8l0,0l-1.7,7.9c-0.1-2.1-0.1-9.6-0.2-11.7c-3.2-0.1-6.3-1.4-8.5-3.8c-1.2-1.3-2.1-2.9-3.7-3.6
		c-2-1-4.4-0.2-6.5,0.5l0.1-0.1c-1.1,0.5-2.1,1.3-2.9,2.1c0.5,4.2,0.1,8.5-1.1,12.6c-0.2,0.6-0.7,1.9-1.3,2.1
		c-1.2,0.5-1.5-0.7-2.2-1.3c-0.6-0.4-1.4-0.6-2.1-0.5c-0.6-1.8-1.1-3.6-1.5-5.4c-0.7,0.2-1.5,0.3-2.2,0.2l0.7-1.6
		c-0.3,0.2-0.6,0.4-0.9,0.4c-0.3,0.1-0.7-0.1-0.9-0.4C68.2,231.3,68.5,230.8,68.7,230.5z"/>
	<path id="path348" class="st8" d="M82.2,220.8c-0.3,0.2-0.5,0.5-0.8,0.7c-0.6,0.7-1,1.6-1.1,2.5c-0.1,0.6-0.2,1.3-0.2,1.9
		c0,0.7,0.1,1.4,0.1,2.2c0.1,0.8,0.1,1.7,0.1,2.5c0,0.4-0.1,0.9-0.2,1.3c-0.1,0.5-0.2,0.9-0.5,1.3c-0.3,0.3-0.7,0.4-1.1,0.4
		c-0.4-0.1-0.7-0.3-1-0.5c-0.4-0.6-0.7-1.2-0.8-1.9H77c-0.2,0.6-0.5,1.1-0.9,1.6c-0.4,0.5-0.9,0.8-1.5,0.8c-0.3,0-0.5,0-0.8-0.1
		c-0.2-0.1-0.4-0.3-0.5-0.5c-0.1-0.2-0.2-0.4-0.2-0.7c0-0.2,0.1-0.4,0.2-0.6l0.1,0.1c-0.6,0.7-1.3,1.2-2.1,1.4h-0.2l0.2-0.1
		c0.1,0,0.3-0.1,0.5-0.2c0.6-0.3,1.1-0.7,1.6-1.2l0.1,0.1c-0.2,0.3-0.2,0.8,0,1.1c0.1,0.2,0.3,0.4,0.5,0.5c0.2,0.1,0.5,0.1,0.7,0.1
		c0.5-0.1,1-0.4,1.4-0.8c0.4-0.5,0.7-1,0.9-1.6l0.1-0.2v0.3c0.1,0.7,0.3,1.3,0.7,1.8c0.2,0.2,0.5,0.4,0.9,0.5
		c0.3,0.1,0.7-0.1,0.9-0.3c0.3-0.4,0.4-0.8,0.5-1.2c0.1-0.4,0.1-0.9,0.2-1.3c0-0.8,0-1.6-0.1-2.5c-0.1-0.8-0.1-1.5-0.1-2.2
		c0-0.6,0.1-1.3,0.2-1.9c0.2-0.9,0.6-1.8,1.2-2.6C81.6,221.2,81.9,220.9,82.2,220.8z"/>
	<path id="path350" class="st8" d="M105.8,227.9L105.8,227.9l-0.2,0.2l-0.3,0.2c-0.1,0.1-0.3,0.2-0.5,0.2c-1,0.5-2.1,0.7-3.2,0.6
		c-1.7-0.1-3.3-0.7-4.6-1.6c-1.6-1.2-3-2.7-4-4.5c-0.6-0.9-1-1.9-1.5-2.7c-0.5-0.8-1-1.6-1.7-2.3c-0.6-0.6-1.4-1.1-2.2-1.3
		c-0.4-0.1-0.8-0.1-1.2-0.1c-0.3,0-0.7,0.1-1,0.2c-1,0.4-1.9,1.1-2.4,2.1c-0.2,0.4-0.3,0.7-0.4,1.1c0,0,0,0,0-0.1v-0.2
		c0.1-0.3,0.2-0.6,0.3-0.9c0.2-0.4,0.5-0.8,0.8-1.2c0.5-0.4,1-0.8,1.6-1c0.4-0.1,0.7-0.2,1.1-0.2c0.4,0,0.8,0,1.2,0.1
		c0.9,0.2,1.6,0.7,2.3,1.3c0.7,0.7,1.3,1.5,1.8,2.3c0.5,0.9,1,1.8,1.5,2.7c1,1.7,2.3,3.2,3.9,4.4c1.3,1,2.9,1.5,4.5,1.6
		c1.1,0.1,2.2-0.1,3.2-0.6C105.1,228.3,105.4,228.1,105.8,227.9z"/>
	<path id="path352" class="st3" d="M100.3,236c-0.2,0.2-1-0.5-2.3-0.6s-2.2,0.6-2.3,0.4s0.1-0.4,0.5-0.6c0.6-0.4,1.2-0.6,1.9-0.6
		c0.7,0,1.3,0.2,1.8,0.6C100.3,235.7,100.4,236,100.3,236z"/>
	<path id="path354" class="st3" d="M99.2,239.2c0,0.6-0.4,1-1,1s-1-0.4-1-1c0-0.6,0.4-1,1-1c0,0,0,0,0.1,0
		C98.8,238.3,99.2,238.7,99.2,239.2z"/>
	<path id="path356" class="st3" d="M102.8,222c0.6,0.9,1.6,1.5,2.7,1.5c0.4-0.1,0.8-0.2,1.1-0.3c0.4,0.2,0.3,1.5,0,1.9
		c-0.2,0.3-0.5,0.6-0.8,0.8c1.2,0.7,2.4,0.3,3.7-0.1c-0.3,2.3-1.7,4.3-3.9,5.2c-0.7,0.3-1.4,0.3-2.1,0c-0.5-0.4-0.8-1-0.9-1.6
		c-0.6-2.3-0.9-4.6-0.9-7L102.8,222z"/>
	<path id="path358" class="st3" d="M92.1,247.7c0,0.1-0.2,0.2-0.7,0.3c-1.3,0.2-2.5-0.6-3-1.8c-0.2-0.4-0.1-0.7-0.1-0.8
		s0.4,1.1,1.5,1.7C90.5,247.5,91.3,247.7,92.1,247.7z"/>
	<polygon id="polygon360" class="st13" points="131.6,321.9 99.4,322.6 98.8,311.8 137.7,315 	"/>
	<path id="path362" class="st8" d="M156.1,287.9l0.4,0.8l-13,24.8l-12.6,6.1l-26.5-1.2v-1.6l11.9-6.1l19.3,0.5l10.4-20.5
		c0.3-0.5,0.8-0.9,1.3-1L156.1,287.9z"/>
	<path id="path364" class="st3" d="M130.8,319.5c0.3-0.4,0.6-0.8,0.8-1.2c0.5-0.8,1.1-1.9,1.7-3s1.2-2.3,1.6-3.1
		c0.3-0.4,0.5-0.9,0.6-1.3c-0.3,0.4-0.6,0.8-0.8,1.2c-0.4,0.8-1.1,1.9-1.7,3s-1.2,2.3-1.6,3.1C131.2,318.6,131,319.1,130.8,319.5z"
		/>
	<polygon id="polygon366" class="st3" points="128,316.9 115.2,316.5 124.9,311.4 135.2,311.7 	"/>
	<path id="path368" class="st3" d="M104.3,316.7h0.3h0.8l2.9,0.1c2.5,0.1,5.9,0.2,9.7,0.4s7.2,0.3,9.7,0.3c1.2,0,2.2,0,2.9,0h0.8
		h0.3h-0.3h-0.8l-2.9-0.1c-2.5-0.1-5.9-0.2-9.7-0.4s-7.2-0.3-9.7-0.3c-1.2,0-2.2,0-2.9,0h-0.8C104.4,316.7,104.3,316.7,104.3,316.7z
		"/>
	<path id="path370" class="st13" d="M143.3,309c-0.4-0.4-1.8-1.3-3,2.4c0,0-0.5-0.5-1.6,0.8c-1,1.5-1.8,3-2.5,4.6l-3,1.5l-2.4,1.1
		c0,0,0.6,2.4,0.8,2.3s3.4-0.3,3.4-0.3l0.9-0.4c0,0,2.2,0,2.3-0.6s3.7-3.1,3.7-3.6v-3.4C142,313.5,143.7,309.5,143.3,309z"/>
	<path id="path372" class="st14" d="M140.1,311.4c0,0,0.1,0,0.2,0c0.1,0.1,0.2,0.2,0.2,0.3l0,0c-0.1,0.4-0.3,1.1-0.5,1.9
		s-0.4,1.8-0.7,2.8c-0.2,0.7-0.5,1.3-1,1.8l-1.1,1.4c-0.4,0.4-0.7,0.9-0.9,1.3c0.4-0.4,0.8-0.8,1.1-1.2l1.1-1.4
		c0.2-0.3,0.4-0.6,0.6-0.9c0.2-0.3,0.4-0.7,0.5-1c0.3-0.9,0.5-1.9,0.6-2.9c0.1-0.7,0.3-1.4,0.4-2l0,0l0,0c0-0.2-0.1-0.4-0.3-0.4
		C140.1,311.4,140.1,311.4,140.1,311.4z"/>
	<path id="path374" class="st14" d="M140.6,318.4c0.4-0.8,0.7-1.6,0.9-2.4c0.3-0.8,0.5-1.6,0.6-2.5
		C141.3,315.1,140.9,316.7,140.6,318.4z"/>
	<path id="path376" class="st8" d="M85,453.9l-4.4,15.4c0,0,14.1,9.7,13.6,12.6L64,474.4l5.9-24.3L85,453.9z"/>
	<path id="path378" class="st0" d="M71.5,465.7c-0.6,0-1.2,0.5-1.2,1.2c0,0.6,0.5,1.2,1.2,1.2c0.7,0,1.2-0.6,1.3-1.3
		c-0.1-0.7-0.7-1.2-1.4-1.1"/>
	<g id="g382" class="st15">
		<path id="path380" class="st7" d="M64,474.4l0.7-2.4l28.7,8.1c0,0,1.2,0.9,0.8,1.8L64,474.4z"/>
	</g>
	<path id="path384" class="st3" d="M81,469.3c0,0.1-0.8,0-1.6,0.3s-1.4,0.8-1.5,0.7s0.3-0.9,1.3-1.2S81.1,469.1,81,469.3z"/>
	<path id="path386" class="st3" d="M83.9,471.4c0,0.1-0.7,0.2-1.4,0.7s-1,1.1-1.1,1.1s0-0.9,0.8-1.5S83.9,471.2,83.9,471.4z"/>
	<path id="path388" class="st3" d="M84.7,475.6c-0.1,0-0.2-0.8,0.4-1.5s1.3-0.9,1.4-0.7s-0.5,0.5-1,1.1S84.9,475.6,84.7,475.6z"/>
	<path id="path390" class="st3" d="M81.7,465.6c-0.1,0.1-0.7-0.3-1.6-0.4s-1.6,0-1.6-0.2s0.7-0.5,1.7-0.3S81.8,465.5,81.7,465.6z"/>
	<path id="path392" class="st8" d="M74.4,457.5l-0.7,16c0,0,16,6.1,16.2,9.1l-31.1-0.2l0.1-25L74.4,457.5z"/>
	<path id="path394" class="st0" d="M64.1,472.1c-0.6,0.2-1,0.8-0.9,1.4c0.2,0.6,0.8,1,1.4,0.9c0.7-0.2,1.1-0.9,0.9-1.5
		c-0.2-0.6-0.9-1-1.6-0.8"/>
	<g id="g398" class="st15">
		<path id="path396" class="st7" d="M58.8,482.4l0.1-2.5l29.8,1.2c0,0,1.4,0.6,1.2,1.6L58.8,482.4z"/>
	</g>
	<path id="path400" class="st3" d="M74.2,473.4c0,0.1-0.8,0.2-1.5,0.7s-1.2,1.1-1.3,1.1s0.1-0.9,1-1.5S74.2,473.2,74.2,473.4z"/>
	<path id="path402" class="st3" d="M77.4,474.8c0,0.1-0.6,0.4-1.2,1s-0.7,1.3-0.8,1.3s-0.2-0.9,0.4-1.6S77.4,474.6,77.4,474.8z"/>
	<path id="path404" class="st3" d="M79.3,478.7c-0.1,0-0.3-0.7,0.1-1.6s1.1-1.1,1.2-1s-0.4,0.6-0.7,1.3S79.4,478.7,79.3,478.7z"/>
	<path id="path406" class="st3" d="M73.9,469.7c-0.1,0.1-0.8-0.1-1.6,0s-1.5,0.3-1.6,0.2s0.6-0.7,1.6-0.7S74,469.6,73.9,469.7z"/>
	<path id="path408" class="st3" d="M74.3,469.5c0.1,1.3,0.1,2.6,0,3.9l-0.1-0.2c1.8,0.7,4.2,1.6,6.8,2.8c2.5,1.1,4.8,2.4,7,4
		c0.7,0.5,1.2,1.1,1.7,1.7c0.3,0.5,0.3,0.9,0.2,0.9c-0.1-0.3-0.2-0.5-0.4-0.7c-0.5-0.6-1.1-1.1-1.8-1.6c-2.2-1.5-4.5-2.7-6.9-3.8
		c-2.6-1.2-4.9-2.2-6.7-2.9l-0.1-0.1v-0.1C74,472.1,74.1,470.8,74.3,469.5z"/>
	<path id="path410" class="st3" d="M57.1,350.4v11.5l3.1,44.8c0,0-1.9,21.7-3.1,34c-1,10.6,0.7,29.2,0.7,29.2h18l6.4-61.9l4-38.6
		l6.9-17.6L57.1,350.4z"/>
	<polygon id="polygon412" class="st3" points="105.4,352.4 101,414.9 82.8,461.7 82,464.5 71.2,461.9 79.2,351.2 	"/>
	<path id="path414" class="st8" d="M88.3,369.9c0,0,0,0.1,0,0.3s0,0.4,0,0.8c0,0.7-0.1,1.7-0.1,2.9c-0.1,2.5-0.3,6.2-0.6,10.8
		c-0.7,9.1-1.9,21.6-3.8,35.4s-4,26.3-5.5,35.3c-0.8,4.5-1.4,8.1-1.8,10.7c-0.2,1.2-0.4,2.2-0.5,2.9c-0.1,0.3-0.1,0.6-0.2,0.8
		c0,0.1,0,0.2-0.1,0.2c0-0.1,0-0.2,0-0.3c0-0.2,0.1-0.4,0.1-0.8c0.1-0.7,0.2-1.7,0.4-2.9c0.4-2.5,1-6.2,1.7-10.7
		c1.4-9,3.5-21.5,5.4-35.3s3.2-26.3,3.9-35.4c0.3-4.5,0.6-8.2,0.8-10.8c0.1-1.3,0.1-2.2,0.2-2.9v-0.8
		C88.2,370.1,88.3,370,88.3,369.9z"/>
	<path id="path416" class="st8" d="M87.2,354.3c0.1,0.5-0.3,1-0.8,1c-0.5,0.1-1-0.3-1-0.8c0-0.1,0-0.1,0-0.2c0.1-0.5,0.5-0.9,1-0.8
		C86.8,353.5,87.2,353.8,87.2,354.3z"/>
	<path id="path418" class="st10" d="M54.4,356.4c0,0,2.1-15.8,2.3-17.5s3.7-24.6,3.7-24.6l-3.3-43.4c2.5-2.7,15.4-11.1,15.4-11.1
		l2-5.5l16.2,12.1l2.2,6.6l0.8-10.9l3.5,3.9l0.3,6.6l2.3,3.4l2.4,15.1c0.3,2.1,0.5,4.2,0.6,6.4l0.5,19.1l3.8,42.6l-12.7,4
		c-4.6,1.4-9.5,1.6-14.2,0.6c-6.8-1.5-16.1-3.5-17.8-3.6c-2.7-0.2-5.2,2.8-5.2,2.8C56.6,363,54.1,359.4,54.4,356.4z"/>
	<path id="path420" class="st3" d="M73,259.4c0.2,0.3,0.4,0.6,0.6,0.8c0.4,0.5,1,1.2,1.8,2.1c1.5,1.7,3.8,4,6.3,6.5
		c1.2,1.3,2.3,2.5,3.3,3.6l0.1,0.1l0.1-0.1c1.7-1.6,2.8-3.2,3.8-4.3l1.1-1.2c0.1-0.1,0.3-0.3,0.4-0.4c0,0-0.2,0.1-0.4,0.4
		s-0.7,0.6-1.1,1.2c-1,1-2.2,2.5-3.8,4.1h0.2c-1-1.2-2.1-2.4-3.3-3.7c-2.5-2.5-4.7-4.8-6.3-6.5c-0.8-0.8-1.4-1.5-1.9-2
		C73.5,259.8,73.3,259.6,73,259.4z"/>
	<path id="path422" class="st3" d="M98.3,338.3c0,0,0-0.1,0-0.2s0-0.3,0-0.5c0-0.5-0.1-1.1-0.1-1.9c-0.1-1.7-0.3-4.1-0.5-7
		c-0.4-5.9-1-14.1-1.7-23.1s-1.4-17.2-2-23.1c-0.3-3-0.6-5.3-0.8-7c-0.1-0.8-0.2-1.4-0.3-1.9c0-0.2,0-0.4-0.1-0.5s0-0.2,0-0.2
		s0,0.1,0,0.2v0.5c0,0.5,0.1,1.1,0.2,1.9c0.2,1.7,0.4,4.1,0.6,7c0.5,5.9,1.2,14.1,1.9,23.1s1.4,17.2,1.8,23.1c0.2,2.9,0.4,5.3,0.6,7
		c0.1,0.8,0.1,1.4,0.2,1.9c0,0.2,0,0.4,0,0.5S98.3,338.3,98.3,338.3z"/>
	<g id="g426" class="st6">
		<path id="path424" d="M103.4,320.7c-1.7,0.8-3.6,1.1-5.3,2c-1.2,0.7-2.2,1.5-3.2,2.5c-7.1,6.1-16,10.5-25.4,10.6
			c-3.2,0.1-6.7-0.5-9-2.6c-1.3-1.2-2.2-3-1.7-4.7c0.6-2.1,3-3,5-3.6l19.2-6c4-1.4,8.1-2.4,12.3-3.2c2.8-0.4,5.7-0.6,8.5-0.5"/>
	</g>
	<path id="path428" class="st3" d="M82.2,347.4c0,0.1,4.7-2.4,10.3-5.6s10.2-5.8,10.2-5.9s-4.7,2.4-10.3,5.6S82.1,347.3,82.2,347.4z
		"/>
	<path id="path430" class="st3" d="M96.8,362.4c0-0.3,0-0.6,0-0.9c0-0.6-0.1-1.5-0.1-2.5c-0.1-2.1-0.1-4.9-0.1-8.1s0-6,0-8.1
		c0-1,0-1.8,0-2.5c0-0.3,0-0.6-0.1-0.9c-0.1,0.3-0.1,0.6-0.1,0.9c0,0.6-0.1,1.5-0.1,2.5c-0.1,2.1-0.1,5-0.2,8.1s0,6,0.2,8.1
		c0.1,1,0.2,1.9,0.2,2.5C96.7,361.8,96.8,362.1,96.8,362.4z"/>
	<g id="g434" class="st6">
		<path id="path432" d="M73.1,311.8c-1.6-6.2-1.5-13.3-1.3-19.7c-1.1,4.4-2.4,11.1-3.4,15.7l1.8,4.4L73.1,311.8z"/>
	</g>
	<g id="g438" class="st6">
		<path id="path436" d="M92.9,273C92.9,272.9,93.4,273.6,92.9,273c-0.9-1-1.7-2.1-2.3-3.3c-1.7,1.6-3.4,3.3-4.9,5.1
			c-2.2-2.3-4.5-4.7-6.5-7.2c-1.6-2-3.1-4.2-4.4-6.4l10.4,11.1l5.6-6L92.9,273z"/>
	</g>
	<path id="path440" class="st13" d="M96.7,308l-0.5,8.6c0,0-12.7,5.9-21,8.1s-17.9,1-17.9,1l3.3-13.1L96.7,308z"/>
	<path id="path442" class="st13" d="M121.3,309.8c0.1-0.7-0.3-1.4-0.9-1.8c-1.1-0.7-3.4-2.2-3.4-2.2l-7-0.6L96.7,308l-0.5,8.6
		c0,0,6.7,0.4,8.3,0.3c2-0.3,4-0.8,5.9-1.5c0,0,7.3,0.9,7.7,0.5s0.8-0.9,0.3-1.2s-6.1-1.7-6.1-1.7l3.8-0.3c0,0,5.5,1.2,5.9,1
		s0.9-0.9,0.6-1.4l-0.3-0.5c0.2-0.6,0-1.2-0.6-1.5l-0.5-0.2L121.3,309.8z"/>
	<path id="path444" class="st14" d="M111.3,309.7c0.5,0.2,1.1,0.3,1.7,0.3c1.3,0,2.7,0.1,4,0.4c0.7,0.3,1.4,0.5,2.1,0.9
		c0.6,0.2,1.2,0.5,1.8,0.6c0.5,0.2,1.1,0.3,1.7,0.3c-0.5-0.2-1.1-0.4-1.6-0.6c-0.5-0.2-1.1-0.4-1.7-0.7c-0.7-0.4-1.4-0.7-2.1-0.9
		c-0.7-0.2-1.5-0.3-2.3-0.3c-0.7,0-1.3,0-1.8,0C112,309.8,111.3,309.6,111.3,309.7z"/>
	<path id="path446" class="st14" d="M111.9,307.7c0.5,0.2,1,0.2,1.5,0.2c1.2-0.1,2.4,0,3.5,0.5c1.3,0.5,2.5,1.1,3.4,1.4
		c0.5,0.2,0.9,0.4,1.4,0.5c-0.4-0.3-0.9-0.5-1.3-0.7c-0.8-0.4-2-1-3.3-1.5c-0.6-0.3-1.3-0.4-2-0.5c-0.6,0-1.2,0-1.7,0.1
		C112.5,307.8,111.9,307.7,111.9,307.7z"/>
	<path id="path448" class="st10" d="M57.1,270.9c0,0-4.4,7.5-5,10.3s-1.9,31.6-1.4,32.2c0.5,0.4,1,0.9,1.5,1.2c0,0-3.2,0.7-2.2,2.3
		c0.6,1,1.2,2,1.9,2.9c0,0,1.8,7.3,2.3,7.4s13.8,0.6,13.8,0.6c1-2.4,1.9-4.8,2.5-7.3c0.8-3,3.2-10.2,3.2-10.2l-4.4-1.8l3-21.9
		c0,0,1.3-11.8-3.5-14.9S58.9,267.8,57.1,270.9z"/>
	<path id="path450" class="st14" d="M96.3,316.6c0.3,0.1,0.5,0.1,0.8,0.1l2.2,0.1l3.3,0.2l1.9,0.1c0.3,0,0.7-0.1,1-0.2l1-0.2
		c1.4-0.4,2.8-0.7,4-1h-0.1l4.4,0.4l1.3,0.1c0.2,0,0.3,0,0.5,0c-0.1-0.1-0.3-0.1-0.4-0.1l-1.3-0.2c-1.1-0.1-2.6-0.3-4.4-0.5l0,0
		l-4,1l-1,0.2c-0.3,0.1-0.7,0.1-1,0.2l-1.9-0.1l-3.3-0.1H97C96.8,316.6,96.5,316.6,96.3,316.6z"/>
	<path id="path452" class="st3" d="M68.9,326.7c0-0.4,0.1-0.8,0.3-1.2c0.2-0.9,0.5-2,0.9-3.3c0.8-2.8,1.9-6.6,3.2-10.9l0.3-1
		l0.2,0.3l-4.1-1.9l0.3,0c-2.1,2.2-3.9,4.1-5.2,5.5l-1.5,1.5c-0.2,0.2-0.4,0.4-0.6,0.5c0.1-0.2,0.3-0.4,0.5-0.6l1.4-1.6
		c1.2-1.4,3-3.3,5.1-5.6l0.1-0.1l0.2,0.1l4.1,1.9l0.2,0.1l-0.1,0.2c-0.1,0.3-0.2,0.7-0.3,1c-1.3,4.2-2.4,8.1-3.3,10.8
		c-0.4,1.3-0.8,2.4-1.1,3.3C69.3,325.9,69.1,326.3,68.9,326.7z"/>
	<path id="path454" class="st3" d="M69.7,308c0-1.2,0.1-2.3,0.3-3.5c0.3-2.1,0.7-5.1,1.2-8.3s1-6.2,1.3-8.3c0.1-1.1,0.4-2.3,0.7-3.4
		c0,1.2-0.1,2.3-0.3,3.5c-0.3,2.1-0.7,5.1-1.2,8.3s-1,6.2-1.3,8.3c-0.2,1.1-0.3,1.9-0.4,2.5C69.8,307.4,69.8,307.7,69.7,308z"/>
	<path id="path456" class="st3" d="M59,269.8c0.2-0.2,0.5-0.3,0.8-0.4c0.7-0.2,1.5-0.4,2.2-0.4c5.3-0.4,10.1,3.4,10.9,8.7
		c0.1,0.8,0.2,1.5,0.1,2.3c0,0.3-0.1,0.6-0.2,0.8c0-1-0.1-2-0.3-3c-0.9-5-5.4-8.6-10.5-8.5C61,269.4,60,269.6,59,269.8z"/>
	<path id="path458" class="st3" d="M96.8,272.3c-0.8-2.1-1.4-4.2-1.9-6.3h0.5l-0.1,0.4c-0.4,1.6-0.9,3.1-1.5,4.6
		c-0.2,0.7-0.5,1.3-0.9,1.9c-0.1-0.1,1-3,1.9-6.7l0.1-0.4l0.2-1l0.2,1C96.1,267.9,96.5,270.1,96.8,272.3z"/>
</g>
</svg>
