<?xml version="1.0" encoding="utf-8"?>
<!-- Generator: Adobe Illustrator 25.2.0, SVG Export Plug-In . SVG Version: 6.00 Build 0)  -->
<svg version="1.1"
	 id="svg504" xmlns:inkscape="http://www.inkscape.org/namespaces/inkscape" xmlns:sodipodi="http://sodipodi.sourceforge.net/DTD/sodipodi-0.dtd" xmlns:svg="http://www.w3.org/2000/svg"
	 xmlns="http://www.w3.org/2000/svg" xmlns:xlink="http://www.w3.org/1999/xlink" x="0px" y="0px" viewBox="0 0 500 500"
	 style="enable-background:new 0 0 500 500;" xml:space="preserve">
<style type="text/css">
	.st0{fill:#59FC54;}
	.st1{fill:#FFF200;}
	.st2{fill:#E0E0E0;}
	.st3{fill:#F5F5F5;}
	.st4{fill:#FF9C9C;}
	.st5{fill-rule:evenodd;clip-rule:evenodd;fill:#FFF200;}
	.st6{fill:#FFFFFF;}
	.st7{fill:#FF725E;}
	.st8{opacity:0.3;}
	.st9{fill:#263238;}
	.st10{fill:#FAFAFA;}
	.st11{fill:#004F04;}
	.st12{fill:#147F01;}
	.st13{fill-rule:evenodd;clip-rule:evenodd;fill:#FF725E;}
	.st14{opacity:0.8;}
	.st15{fill-rule:evenodd;clip-rule:evenodd;fill:#FFFFFF;}
	.st16{opacity:0.4;}
	.st17{fill:#FFBE9D;}
	.st18{fill:#EB996E;}
	.st19{fill:#455A64;}
	.st20{fill:#0380D6;}
	.st21{opacity:0.3;enable-background:new    ;}
	.st22{opacity:0.2;}
	.st23{opacity:0.4;enable-background:new    ;}
</style>
<sodipodi:namedview  bordercolor="#999999" borderopacity="1" id="namedview506" inkscape:current-layer="freepik--Character--inject-198" inkscape:cx="210.59602" inkscape:cy="227.65364" inkscape:pagecheckerboard="0" inkscape:pageopacity="0" inkscape:pageshadow="0" inkscape:window-height="697" inkscape:window-maximized="1" inkscape:window-width="1366" inkscape:window-x="-8" inkscape:window-y="-8" inkscape:zoom="0.76212268" pagecolor="#ffffff" showgrid="false">
	</sodipodi:namedview>
<ellipse class="st0" cx="237.7" cy="437.6" rx="227" ry="24"/>
<g id="freepik--background-complete--inject-198">
	<path id="path2" class="st1" d="M423.7,128.5c0.5,0.1,1,0.2,1.5,0.5c2.3,1.1,3.7,3.4,3.6,5.9c0,1.2-0.4,2.3-1,3.3
		c-0.3,0.5-0.7,1-1.2,1.4s-1,0.8-1.6,1c-1.3,0.5-2.7,0.7-4,0.4c-1.4-0.3-2.6-1-3.5-2.1c-0.4-0.5-0.8-1-1-1.6
		c-0.3-0.6-0.4-1.2-0.5-1.8c-0.1-1.2,0-2.3,0.5-3.4c1-2.3,3.3-3.8,5.8-3.8C422.8,128.2,423.3,128.3,423.7,128.5
		c0.1,0-0.5-0.2-1.5-0.1c-1.4,0.1-2.8,0.6-3.8,1.5c-0.7,0.6-1.3,1.4-1.7,2.3c-0.4,1-0.6,2.1-0.4,3.2c0.1,0.6,0.2,1.2,0.5,1.7
		c0.2,0.6,0.6,1.1,1,1.6c0.9,1,2,1.7,3.3,2s2.6,0.2,3.8-0.4c0.6-0.2,1.1-0.6,1.6-1s0.8-0.8,1.2-1.3c0.6-0.9,1-2,1-3.1
		c0.1-2.4-1.2-4.7-3.4-5.8C424.3,128.6,423.7,128.5,423.7,128.5z"/>
	<path id="path4" class="st1" d="M428.8,121.7c0-0.1,0-0.1,0-0.2c0-0.2,0-0.4,0-0.7c0-0.6,0-1.5,0-2.7v0.1l-5.8-1.3l0.1-0.1
		l-1.5,3.2v0.1h-0.1c-1.3,0.1-2.5,0.3-3.8,0.7h-0.1l0,0l-2.6-2.5h0.2l-5,3.2v-0.2l1.2,3.4v0.1l-0.1,0.1c-0.9,0.9-1.6,2-2.2,3.1v0.1
		H409h-3.6l0.1-0.1c-0.4,1.8-0.8,3.8-1.3,5.8l-0.1-0.2l3.2,1.5h0.1v0.1c0.1,1.3,0.3,2.5,0.6,3.8v0.1l-0.1,0.1l-2.5,2.5v-0.4l3.2,5
		l-0.2-0.1l3.4-1.2h0.1l0.1,0.1c0.9,0.9,2,1.6,3.1,2.2l0,0c0,0.1-0.1-0.2,0.1,0.2l0,0v3.6l-0.1-0.2l5.8,1.3l-0.2,0.1
		c0.5-1.1,1-2.2,1.5-3.2V149h0.1c1.3,0,2.5-0.3,3.7-0.6h0.1l0.1,0.1l2.5,2.5h-0.2l5-3.1l-0.1,0.2l-1.2-3.4v-0.1l0.1-0.1
		c0.9-0.9,1.6-2,2.2-3.1v-0.1h3.7h0.1c0.5-2,0.9-3.9,1.3-5.8l0.1,0.2l-3.2-1.5h-0.1v-0.1c0-1.3-0.3-2.5-0.6-3.8l0,0v-0.1
		c0.9-0.9,1.7-1.8,2.5-2.5v0.1l-3.1-5h0.1l-3.4,1.2l0,0l0,0c-0.7-0.7-1.5-1.2-2.3-1.8l-0.6-0.4L428.8,121.7l0.1,0.1l0.6,0.3
		c0.8,0.5,1.6,1.1,2.3,1.7h-0.1l3.4-1.2h0.1v0.1l3.2,5v0.1l-0.1,0.1l-2.4,2.4v-0.1c0.4,1.2,0.6,2.5,0.7,3.8l-0.1-0.1l3.2,1.5
		l0.1,0.1v0.1c-0.4,1.8-0.8,3.7-1.3,5.8v0.1h-3.7l0.1-0.1c-0.6,1.2-1.4,2.2-2.2,3.2v-0.2c0.4,1.1,0.8,2.2,1.2,3.4v0.1l-0.1,0.1
		l-5,3.2l-0.1,0.1l-0.1-0.1l-2.5-2.5h0.2c-1.2,0.4-2.5,0.6-3.8,0.7l0.1-0.1c-0.5,1.1-1,2.1-1.5,3.2l-0.1,0.1h-0.1l-5.6-1.3h-0.1
		v-3.7l0,0c0.2,0.3,0,0.1,0.1,0.2l0,0c-1.2-0.6-2.2-1.4-3.2-2.2h0.2l-3.4,1.2l-0.1,0.1l-0.1-0.1l-3.2-5l-0.1-0.1l0.1-0.1l2.5-2.5
		v0.2c-0.4-1.2-0.6-2.5-0.7-3.8l0.1,0.1l-3.2-1.6l-0.1-0.1v-0.1l1.3-5.8v-0.1h3.7L409,128c0.6-1.2,1.4-2.2,2.2-3.2v0.1l-1.2-3.4
		v-0.2l0.1-0.1l5-3.2h0.1l0.1,0.1l2.5,2.5h-0.1c1.2-0.4,2.5-0.6,3.8-0.7l-0.1,0.1c0.6-1.2,1.1-2.2,1.5-3.2v-0.1h0.1l5.8,1.3l0,0l0,0
		c0,1.2,0,2,0,2.7c0,0.3,0,0.5,0,0.7C428.9,121.5,428.9,121.6,428.8,121.7z"/>
	<path id="path6" class="st2" d="M463.8,409.8c0,0,0-0.4,0-1.1s0-1.8,0-3.2c0-2.8,0-6.8,0-12.1c0-10.4,0-25.5-0.1-43.9l0.2,0.2
		H359.8l0,0l0.2-0.2c0,21.3,0,41.7,0,60.2l-0.2-0.2l74.9,0.1l21.5,0.1h5.7h1.5L463.8,409.8l-1.9-0.1h-5.7l-21.5,0.1l-75,0.1h-0.2
		v-0.2c0-18.6,0-38.9,0-60.2v-0.2h0.2h104.1h0.2v0.2c0,18.5-0.1,33.6-0.1,44c0,5.2,0,9.3,0,12c0,1.4,0,2.4,0,3.1
		S463.8,409.8,463.8,409.8z"/>
	<path id="path8" class="st2" d="M463.8,356.8c0,0.1-23.3,0.2-52,0.2s-52-0.1-52-0.2s23.3-0.2,52-0.2S463.8,356.7,463.8,356.8z"/>
	<rect id="rect10" x="368.6" y="366.7" class="st3" width="32.2" height="32.2"/>
	<path id="path12" class="st2" d="M456.2,372c-0.2,0-0.3,0-0.5,0h-1.4l-5,0.1l-16.5,0.1l-16.5-0.1l-5-0.1h-1.4c-0.2,0-0.3,0-0.5,0
		c0.2,0,0.3,0,0.5,0h1.4l5-0.1l16.5-0.1l16.5,0.1l5,0.1h1.4C455.9,372,456.1,372,456.2,372z"/>
	<path id="path14" class="st2" d="M457.2,379.2c-0.2,0-0.3,0-0.5,0h-1.4l-5,0.1l-16.8,0.1l-16.8-0.1l-5.1-0.1h-1.4
		c-0.2,0-0.3,0-0.5,0c0.2,0,0.3-0.1,0.5,0h1.4l5.1-0.1l16.8-0.1l16.8,0.1l5.1,0.1h1.4C456.9,379.2,457.1,379.2,457.2,379.2z"/>
	<path id="path16" class="st2" d="M457.2,386.4c-0.2,0-0.3,0-0.5,0h-1.4l-5.1,0.1l-16.8,0.1l-16.8-0.1l-5.1-0.1h-1.4
		c-0.2,0-0.3,0-0.5,0c0.2,0,0.3,0,0.5,0h1.4l5.1-0.1l16.8-0.1h16.9l5.1,0.1h1.4C456.9,386.4,457.1,386.4,457.2,386.4z"/>
	<path id="path18" class="st2" d="M457.2,393.6c-0.2,0-0.3,0-0.5,0h-1.4l-5.1,0.1l-16.8,0.1l-16.8-0.1l-5.1-0.1h-1.4
		c-0.2,0-0.3,0-0.5,0c0.2,0,0.3-0.1,0.5,0h1.4l5.1-0.1l16.8-0.1l16.8,0.1l5.1,0.1h1.4C456.9,393.5,457.1,393.6,457.2,393.6z"/>
	<circle id="circle20" class="st4" cx="162.6" cy="80.8" r="43.3"/>
	<path id="path22" class="st2" d="M182.3,82.1c-0.5,0.1-1,0.1-1.5,0.1l-4.2,0.1c-3.6,0-8.5,0.1-14.1,0.1h-0.3v-3.1
		c0-6.3,0-11.9,0.1-16c0-2,0.1-3.6,0.1-4.9c0-0.6,0-1.2,0.1-1.8c0.1,0.6,0.1,1.2,0.1,1.8c0,1.2,0,2.9,0.1,4.9c0,4.1,0.1,9.8,0.1,16
		c0,1,0,1.9,0,2.8l-0.3-0.3c5.6,0,10.6,0,14.1,0.1l4.2,0.1C181.3,82,181.8,82,182.3,82.1z"/>
	<path id="path24" class="st2" d="M162.5,44.6c0.3,1.2,0.4,2.4,0.3,3.6c0.1,1.2,0,2.4-0.3,3.6c-0.3-1.2-0.4-2.4-0.3-3.6
		C162.2,47,162.3,45.8,162.5,44.6z"/>
	<path id="path26" class="st2" d="M182.3,50.4c-0.6,1-1.4,2-2.3,2.7c-0.8,0.9-1.7,1.7-2.7,2.3c0.6-1,1.4-1.9,2.3-2.7
		C180.4,51.9,181.3,51.1,182.3,50.4z"/>
	<path id="path28" class="st2" d="M193.8,63c-0.9,0.8-1.9,1.5-3,2c-1,0.7-2,1.3-3.1,1.7c0.8-0.9,1.8-1.7,2.9-2.2
		C191.5,63.8,192.6,63.3,193.8,63z"/>
	<path id="path30" class="st2" d="M200.5,81.7c-1.7,0.3-3.3,0.4-5,0.3c-1.7,0.1-3.3,0-5-0.3c1.7-0.3,3.3-0.4,5-0.3
		C197.2,81.3,198.9,81.4,200.5,81.7z"/>
	<path id="path32" class="st2" d="M131.8,81.1c-1.5,0.3-3.1,0.4-4.7,0.3c-1.6,0.1-3.1,0-4.7-0.3c1.5-0.3,3.1-0.4,4.7-0.3
		C128.7,80.7,130.2,80.8,131.8,81.1z"/>
	<path id="path34" class="st2" d="M136.7,95c-1.1,1.2-2.2,2.3-3.5,3.2c-1.2,1.1-2.5,2-3.9,2.8c1.1-1.2,2.2-2.3,3.5-3.2
		C133.9,96.7,135.3,95.7,136.7,95z"/>
	<path id="path36" class="st2" d="M148.7,105.7c-0.7,1.4-1.5,2.8-2.4,4.2c-0.7,1.4-1.6,2.8-2.6,4.1c0.5-1.6,1.2-3,2.1-4.4
		C146.5,108.2,147.5,106.9,148.7,105.7z"/>
	<path id="path38" class="st2" d="M162.5,119.6c-0.3-1.7-0.4-3.3-0.3-5c-0.1-1.7,0-3.3,0.3-5c0.3,1.7,0.4,3.3,0.3,5
		C162.9,116.3,162.8,118,162.5,119.6z"/>
	<path id="path40" class="st2" d="M183.9,113c-1.5-0.7-2.9-1.6-4.1-2.8c-1.3-1-2.4-2.3-3.3-3.7c1.3,1,2.5,2.1,3.7,3.2
		C181.5,110.8,182.7,111.9,183.9,113z"/>
	<path id="path42" class="st2" d="M193.9,102.2c-1.2-0.8-2.3-1.8-3.3-2.9c-1.1-1-2.1-2.1-2.9-3.3c1.2,0.8,2.3,1.8,3.3,2.9
		C192.1,99.9,193.1,101,193.9,102.2z"/>
	<path id="path44" class="st2" d="M136.2,67.7c-1.1-0.7-2.1-1.5-2.9-2.5c-1-0.8-1.8-1.8-2.5-2.9c1.1,0.7,2.1,1.5,2.9,2.5
		C134.7,65.7,135.5,66.6,136.2,67.7z"/>
	<path id="path46" class="st2" d="M148.6,54.7c-1.1-0.7-2-1.5-2.9-2.4c-0.9-0.8-1.8-1.8-2.4-2.9c1.1,0.7,2,1.5,2.8,2.4
		C147.1,52.7,147.9,53.6,148.6,54.7z"/>
	<g id="g50">
		<path id="path48" class="st5" d="M398,58.6c2.3,1.2,4.4,2.7,6.3,4.4l6.6-2.4l6.2,9.9l-5,5c0.8,2.4,1.2,5,1.3,7.5l6.4,3l-2.6,11.4
			h-7c-1.2,2.3-2.6,4.4-4.4,6.2l2.4,6.7l-9.9,6.2l-5-5c-2.4,0.8-5,1.2-7.5,1.3l-3,6.4l-11.4-2.6v-7.1c-2.3-1.2-4.4-2.7-6.2-4.4
			l-6.6,2.4l-6.3-9.8l5-5c-0.8-2.4-1.2-4.9-1.3-7.5l-6.4-3l2.6-11.4h7.1c1.2-2.3,2.7-4.4,4.4-6.2l-2.4-6.7l9.9-6.2l5,5
			c2.4-0.8,5-1.2,7.5-1.3l3-6.4l11.4,2.6L398,58.6L398,58.6z M388,72c-6.8-1.5-13.5,2.7-15,9.5s2.7,13.5,9.5,15
			c6.7,1.5,13.4-2.7,15-9.5C399,80.3,394.8,73.6,388,72L388,72z"/>
	</g>
	<path id="path52" class="st3" d="M63,158.9h74c0,0-6.5-11.9-25.6-10.2c-18.2,1.7-19.1-5.9-28.4-6.8S66.1,148.1,63,158.9z"/>
	<path id="path54" class="st3" d="M223.1,293.4H283c0,0-5.3-9.6-20.7-8.2c-14.7,1.3-15.5-4.7-23-5.5S225.6,284.6,223.1,293.4z"/>
</g>
<g id="freepik--Screens--inject-198">
	<rect id="rect60" x="309.9" y="145.1" class="st6" width="145.3" height="97.3"/>
	<path id="path62" class="st7" d="M455.2,242.4c0,0,0-0.6,0-1.8v-5.1c0-4.5,0-11.1-0.1-19.6c0-16.9-0.1-41.2-0.1-70.8l0.2,0.2
		L310,145.4l0,0l0.3-0.3c0,34.7,0,67.6,0,97.3l-0.2-0.2l104.7,0.1l29.9,0.1h8h2.1l0,0h-2h-7.9l-29.9,0.1H310h-0.2v-0.2
		c0-29.7,0-62.6,0-97.3v-0.3h0.3l145.3,0.1h0.2v0.2c0,29.7-0.1,54-0.1,70.9c0,8.4,0,15,0,19.5c0,2.2,0,3.9,0,5.1
		S455.2,242.4,455.2,242.4z"/>
	<path id="path64" class="st7" d="M309.9,153.8c0-0.1,32.5-0.3,72.6-0.3s72.6,0.1,72.6,0.3s-32.5,0.3-72.6,0.3
		S309.9,154,309.9,153.8z"/>
	<g id="g68" class="st8">
		<path id="path66" class="st7" d="M315.6,149.4c0,0.6-0.5,1.2-1.2,1.2c-0.6,0-1.2-0.5-1.2-1.2c0-0.6,0.5-1.2,1.2-1.2l0,0
			C315.1,148.3,315.6,148.8,315.6,149.4L315.6,149.4z"/>
	</g>
	<g id="g72" class="st8">
		<path id="path70" class="st7" d="M319.6,149.4c0,0.6-0.5,1.2-1.2,1.2c-0.6,0-1.2-0.5-1.2-1.2c0-0.6,0.5-1.2,1.2-1.2l0,0
			C319.1,148.3,319.6,148.8,319.6,149.4L319.6,149.4z"/>
	</g>
	<g id="g76" class="st8">
		<path id="path74" class="st7" d="M323.6,149.4c0,0.6-0.5,1.2-1.2,1.2c-0.6,0-1.2-0.5-1.2-1.2c0-0.6,0.5-1.2,1.2-1.2l0,0
			C323,148.3,323.6,148.8,323.6,149.4L323.6,149.4z"/>
	</g>
	<rect id="rect78" x="322.4" y="163.9" class="st7" width="38.8" height="38.8"/>
	<path id="path80" class="st7" d="M435.3,174.9c0,0.1-15.1,0.3-33.8,0.3s-33.8-0.1-33.8-0.3s15.1-0.3,33.8-0.3
		S435.3,174.8,435.3,174.9z"/>
	<path id="path82" class="st7" d="M435.3,182.1c0,0.1-15.1,0.3-33.8,0.3s-33.8-0.1-33.8-0.3s15.1-0.3,33.8-0.3
		S435.3,182,435.3,182.1z"/>
	<path id="path84" class="st7" d="M435.3,189.3c0,0.1-15.1,0.3-33.8,0.3s-33.8-0.1-33.8-0.3s15.1-0.3,33.8-0.3
		S435.3,189.2,435.3,189.3z"/>
	<path id="path86" class="st7" d="M407.7,196.5c-0.5,0.1-1,0.1-1.6,0.1l-4.3,0.1c-3.6,0.1-8.6,0.1-14.1,0.1s-10.5,0-14.1-0.1
		l-4.3-0.1c-0.5,0-1.1,0-1.6-0.1c0.5-0.1,1-0.1,1.6-0.1l4.3-0.1c3.6-0.1,8.6-0.1,14.1-0.1s10.5,0,14.1,0.1l4.3,0.1
		C406.6,196.4,407.1,196.4,407.7,196.5z"/>
	<g id="g90" class="st8">
		<rect id="rect88" x="324.8" y="215.8" class="st7" width="18.2" height="18.2"/>
	</g>
	<rect id="rect92" x="357.9" y="215.8" class="st7" width="18.2" height="18.2"/>
	<rect id="rect94" x="390.9" y="215.8" class="st7" width="18.2" height="18.2"/>
	<rect id="rect96" x="423.9" y="215.8" class="st7" width="18.2" height="18.2"/>
	<g id="g100" class="st8">
		<rect id="rect98" x="322.4" y="163.9" class="st6" width="38.8" height="38.8"/>
	</g>
	<g id="g104" class="st8">
		<rect id="rect102" x="357.9" y="215.8" class="st6" width="18.2" height="18.2"/>
	</g>
	<g id="g108" class="st8">
		<rect id="rect106" x="390.9" y="215.8" class="st6" width="18.2" height="18.2"/>
	</g>
	<g id="g112" class="st8">
		<rect id="rect110" x="423.9" y="215.8" class="st6" width="18.2" height="18.2"/>
	</g>
	<rect id="rect114" x="44.2" y="180.2" class="st6" width="129.4" height="52.6"/>
	<path id="path116" class="st7" d="M173.6,232.7c0,0,0-0.3,0-0.9s0-1.5,0-2.7c0-2.4,0-5.9,0-10.5c0-9.1,0-22.2-0.1-38.4l0.1,0.1
		l-129.4,0.1l0,0l0.2-0.2c0,18.4,0,36.2,0,52.6l-0.2-0.2l92.8,0.1l26.9,0.1h7.2h1.9h-1.8H164l-26.9,0.1L44.2,233H44v-53h0.2
		l129.4,0.1h0.1v0.1c0,16.3-0.1,29.4-0.1,38.5c0,4.5,0,8,0,10.4c0,1.2,0,2.1,0,2.7S173.6,232.7,173.6,232.7z"/>
	<path id="path118" class="st7" d="M44.3,187.3c0-0.1,28.9-0.2,64.6-0.2s64.6,0.1,64.6,0.2s-28.9,0.2-64.6,0.2
		S44.3,187.4,44.3,187.3z"/>
	<g id="g122" class="st8">
		<path id="path120" class="st7" d="M49.8,184.1c0,0.5-0.4,0.9-0.9,0.9s-0.9-0.4-0.9-0.9s0.4-0.9,0.9-0.9S49.8,183.6,49.8,184.1
			L49.8,184.1z"/>
	</g>
	<g id="g126" class="st8">
		<path id="path124" class="st7" d="M53,184.1c0,0.5-0.4,0.9-0.9,0.9s-0.9-0.4-0.9-0.9s0.4-0.9,0.9-0.9S53,183.6,53,184.1L53,184.1z
			"/>
	</g>
	<g id="g130" class="st8">
		<path id="path128" class="st7" d="M56.2,184.1c0,0.5-0.4,0.9-0.9,0.9s-0.9-0.4-0.9-0.9s0.4-0.9,0.9-0.9S56.2,183.6,56.2,184.1
			L56.2,184.1z"/>
	</g>
	<rect id="rect132" x="55.2" y="195.8" class="st7" width="31.3" height="31.3"/>
	<path id="path134" class="st7" d="M164.7,204.2c0,0.1-16.1,0.2-35.9,0.2s-35.9-0.1-35.9-0.2s16.1-0.2,35.9-0.2
		S164.7,204.1,164.7,204.2z"/>
	<path id="path136" class="st7" d="M164.7,210.6c0,0.1-16.1,0.2-35.9,0.2s-35.9-0.1-35.9-0.2s16.1-0.2,35.9-0.2
		S164.7,210.4,164.7,210.6z"/>
	<path id="path138" class="st7" d="M139.1,216.9c-0.2,0-0.3,0-0.5,0h-1.4l-4.9,0.1l-16.4,0.1L99.6,217l-5-0.1h-1.3
		c-0.2,0-0.3,0-0.5,0c0.2,0,0.3,0,0.5,0h1.3l5-0.1l16.3-0.1l16.4,0.1l4.9,0.1h1.4C138.8,216.9,138.9,216.9,139.1,216.9z"/>
	<g id="g142" class="st8">
		<rect id="rect140" x="55.2" y="195.8" class="st3" width="31.3" height="31.3"/>
	</g>
</g>
<g id="freepik--Rocket--inject-198">
	<path id="path145" class="st3" d="M268.7,114.1c-2.2-1.4-5.1-0.6-7.3,0.9s-4,3.4-6.4,4.4c-4.6,1.8-10.6-0.3-14.1,3
		c-2.2,2.1-2.5,5.7-4.2,8.2c-2.9,4.4-9.9,6-10.4,11.2c-0.4,3,2.1,5.9,5,6.8c3,0.7,6.2,0.1,8.7-1.7c3-2,5.3-5,8.7-6.1
		s7.7-0.2,10.5-2.6s2.3-6.9,4.3-9.9c1.2-1.5,2.6-2.9,4.1-4.1c1.5-1.3,2.9-2.8,3.1-4.8S270.1,114.1,268.7,114.1"/>
	<path id="path147" class="st9" d="M212.4,326.6c0.1-0.1,0.5,0.3,0.9,0.9s0.6,1.1,0.5,1.2s-0.5-0.3-0.9-0.9S212.3,326.6,212.4,326.6
		z"/>
	<path id="path149" class="st9" d="M208.1,317.5c0.5,0.7,0.9,1.4,1.2,2.2c0.4,0.7,0.6,1.6,0.7,2.4
		C209.1,320.8,208.4,319.2,208.1,317.5L208.1,317.5z"/>
	<path id="path151" class="st9" d="M205.8,307.8c0.6,1.6,1,3.2,0.9,4.9c-0.4-0.7-0.6-1.6-0.7-2.4
		C205.7,309.5,205.7,308.7,205.8,307.8z"/>
	<path id="path153" class="st9" d="M205.4,297.8c0.3,1.7,0.3,3.4-0.1,5c-0.3-0.8-0.3-1.7-0.2-2.5
		C205.1,299.5,205.2,298.6,205.4,297.8z"/>
	<path id="path155" class="st9" d="M207,288c0.1,0.8,0,1.7-0.3,2.5c-0.1,0.8-0.4,1.7-0.8,2.4c-0.1-0.8,0-1.7,0.3-2.5
		C206.3,289.6,206.6,288.7,207,288z"/>
	<path id="path157" class="st9" d="M210.6,278.6c-0.3,1.6-1,3.2-2,4.6c0.1-0.8,0.4-1.7,0.8-2.4C210,279.5,210.5,278.6,210.6,278.6z"
		/>
	<path id="path159" class="st9" d="M216.1,270.3c-0.3,0.8-0.7,1.5-1.3,2.2c-0.5,0.7-1,1.3-1.7,1.9c-0.1-0.1,0.4-1.1,1.3-2.2
		S216,270.2,216.1,270.3z"/>
	<path id="path161" class="st9" d="M222.9,262.9c0.1,0.1-0.6,1-1.5,2s-1.8,1.7-1.9,1.6s0.6-1,1.5-2S222.8,262.8,222.9,262.9z"/>
	<path id="path163" class="st9" d="M229.9,255.8c0.1,0.1-0.6,1-1.6,2s-1.8,1.7-1.9,1.6s0.6-1,1.6-2S229.8,255.7,229.9,255.8z"/>
	<path id="path165" class="st9" d="M236.5,248.2c-0.3,0.8-0.8,1.5-1.4,2.1c-0.9,1.1-1.7,1.9-1.8,1.8c0.3-0.8,0.8-1.5,1.4-2.1
		C235.6,249,236.4,248.2,236.5,248.2z"/>
	<path id="path167" class="st9" d="M241.6,239.7c-0.1,0.8-0.4,1.7-0.8,2.4c-0.3,0.8-0.8,1.5-1.4,2.1c0.2-0.8,0.5-1.6,1-2.3
		C240.6,241,241,240.3,241.6,239.7z"/>
	<path id="path169" class="st9" d="M244,230c0.2,0.8,0.2,1.7-0.1,2.5c-0.1,0.9-0.3,1.7-0.8,2.4c-0.1-0.8,0-1.7,0.3-2.5
		C243.5,231.6,243.7,230.8,244,230z"/>
	<path id="path171" class="st9" d="M243.3,220.1c0.4,0.7,0.7,1.6,0.7,2.4c0.2,0.8,0.2,1.7,0,2.5c-0.3-0.8-0.5-1.6-0.5-2.4
		C243.3,221.7,243.2,220.9,243.3,220.1z"/>
	<path id="path173" class="st9" d="M239.4,210.9c0.1-0.1,0.9,0.8,1.5,2c0.5,0.7,0.8,1.5,0.9,2.4c-0.6-0.6-1-1.4-1.3-2.1
		C239.9,212.5,239.6,211.7,239.4,210.9z"/>
	<path id="path175" class="st9" d="M232.4,203.8c0.8,0.3,1.6,0.7,2.2,1.3c1.1,0.9,1.8,1.8,1.7,1.9s-1-0.6-2-1.5
		S232.3,203.9,232.4,203.8z"/>
	<path id="path177" class="st9" d="M223.3,199.8c0.9-0.1,1.7,0.1,2.5,0.5c0.8,0.2,1.6,0.6,2.2,1.2c-0.8-0.1-1.7-0.3-2.4-0.7
		C224.8,200.5,224,200.2,223.3,199.8z"/>
	<path id="path179" class="st9" d="M213.4,199.3c0.8-0.4,1.6-0.6,2.5-0.5c0.8-0.1,1.7,0,2.5,0.3c-0.8,0.2-1.7,0.3-2.5,0.3
		C215,199.4,214.2,199.4,213.4,199.3z"/>
	<path id="path181" class="st9" d="M204.1,203c-0.1-0.1,0.8-0.9,2-1.5c0.7-0.5,1.5-0.8,2.4-0.8c-0.7,0.5-1.4,1-2.1,1.3
		C205.7,202.4,204.9,202.8,204.1,203z"/>
	<path id="path183" class="st9" d="M197.3,210.2c0.2-0.8,0.6-1.6,1.2-2.2c0.9-1.1,1.7-1.8,1.8-1.7s-0.6,1-1.4,2.1
		S197.4,210.2,197.3,210.2z"/>
	<path id="path185" class="st9" d="M193.9,219.5c-0.2-0.8-0.1-1.7,0.2-2.5c0.1-0.9,0.5-1.7,1-2.3c0,0.8-0.2,1.7-0.5,2.5
		C194.5,218,194.3,218.8,193.9,219.5z"/>
	<path id="path187" class="st9" d="M195.1,229.4c-0.5-0.7-0.9-1.5-1-2.3c-0.3-0.8-0.4-1.7-0.2-2.5c0.3,0.8,0.6,1.6,0.7,2.4
		C194.9,227.7,195,228.5,195.1,229.4z"/>
	<path id="path189" class="st9" d="M200.1,237.9c-0.1,0.1-0.9-0.7-1.8-1.8c-0.6-0.6-1-1.4-1.2-2.2c0.1-0.1,0.8,0.8,1.6,1.9
		C199.4,236.4,199.8,237.2,200.1,237.9z"/>
	<path id="path191" class="st9" d="M207.5,244.7c-0.8-0.3-1.5-0.7-2.1-1.3c-1.1-0.9-1.8-1.7-1.7-1.8c0.8,0.4,1.5,0.8,2.1,1.4
		C206.8,243.8,207.6,244.6,207.5,244.7z"/>
	<path id="path193" class="st9" d="M216.2,249.6c-1.6-0.4-3.1-1.2-4.5-2.3c0.8,0.1,1.6,0.4,2.4,0.9
		C214.9,248.6,215.6,249.1,216.2,249.6z"/>
	<path id="path195" class="st9" d="M225.7,252.7c-0.8,0.1-1.7,0-2.5-0.3c-0.8-0.1-1.6-0.5-2.3-0.9c0.8,0,1.7,0.2,2.5,0.4
		C224.2,252,225,252.3,225.7,252.7z"/>
	<path id="path197" class="st9" d="M235.7,253.2c-1.6,0.5-3.4,0.5-5,0.1c0.8-0.2,1.7-0.3,2.5-0.2C234,253,234.8,253,235.7,253.2z"/>
	<path id="path199" class="st9" d="M245.3,250.6c-1.4,1-3,1.6-4.7,1.7c0.7-0.5,1.5-0.8,2.3-1C243.6,250.9,244.4,250.7,245.3,250.6z"
		/>
	<path id="path201" class="st9" d="M253.6,245.1c0.1,0.1-0.7,1-1.8,1.8c-0.6,0.6-1.4,1-2.2,1.2c-0.1-0.1,0.8-0.8,1.9-1.7
		C252.2,246,252.9,245.5,253.6,245.1z"/>
	<path id="path203" class="st9" d="M260.1,237.6c-0.2,0.8-0.7,1.6-1.2,2.2c-0.8,1.1-1.7,1.9-1.8,1.8s0.5-1,1.4-2.1
		S260,237.5,260.1,237.6z"/>
	<path id="path205" class="st9" d="M264.5,228.6c0,0.9-0.2,1.7-0.6,2.4c-0.5,1.3-1.1,2.3-1.3,2.2c0.1-0.8,0.4-1.6,0.8-2.4
		C263.6,230,264,229.3,264.5,228.6z"/>
	<path id="path207" class="st9" d="M266.4,218.8c0.2,1.7,0,3.4-0.7,4.9C265.7,222.1,265.9,220.4,266.4,218.8z"/>
	<path id="path209" class="st9" d="M266.1,208.8c0.3,0.8,0.5,1.6,0.5,2.5c0.1,0.8,0.1,1.7-0.1,2.5
		C266.1,212.2,265.9,210.5,266.1,208.8L266.1,208.8z"/>
	<path id="path211" class="st9" d="M264,199.1c0.5,0.7,0.8,1.5,0.9,2.4c0.3,0.8,0.4,1.6,0.4,2.5c-0.5-0.7-0.8-1.5-0.9-2.4
		C264.1,200.7,264,199.9,264,199.1z"/>
	<path id="path213" class="st9" d="M260.1,189.8c0.1-0.1,0.7,0.9,1.3,2.1c0.4,0.7,0.7,1.6,0.8,2.4
		C261.3,193,260.6,191.4,260.1,189.8z"/>
	<path id="path215" class="st9" d="M255.2,181.1c0.1-0.1,0.8,0.8,1.5,2c0.5,0.7,0.8,1.5,1,2.3c-0.6-0.6-1.1-1.2-1.5-2
		C255.7,182.7,255.4,181.9,255.2,181.1z"/>
	<path id="path217" class="st9" d="M250.3,172.4c0.1-0.1,0.8,0.9,1.4,2.1c0.5,0.7,0.8,1.5,1,2.3c-0.6-0.6-1.1-1.3-1.4-2.1
		C250.8,174,250.4,173.2,250.3,172.4z"/>
	<path id="path219" class="st9" d="M246.4,163.2c0.9,1.4,1.5,3,1.8,4.7c-0.5-0.7-0.9-1.4-1.1-2.3
		C246.6,164.9,246.4,164.1,246.4,163.2z"/>
	<path id="path221" class="st9" d="M244.6,153.4c0.3,0.8,0.4,1.6,0.4,2.5c0.2,0.8,0.2,1.7,0.1,2.5c-0.4-0.8-0.6-1.6-0.6-2.4
		C244.4,155.1,244.4,154.2,244.6,153.4z"/>
	<path id="path223" class="st9" d="M245.5,143.4c0.1,0.8,0,1.7-0.2,2.5c0,0.8-0.2,1.7-0.6,2.4c-0.2-0.8-0.2-1.7,0-2.5
		C244.8,145,245,144.2,245.5,143.4z"/>
	<path id="path225" class="st9" d="M248.7,134c-0.1,0.8-0.4,1.6-0.8,2.4c-0.2,0.8-0.6,1.6-1.1,2.2C247,136.9,247.7,135.3,248.7,134
		L248.7,134z"/>
	<path id="path227" class="st9" d="M254.3,125.7c0.1,0.1-0.6,1-1.4,2.1c-0.8,1.1-1.6,2-1.7,1.9c0.2-0.8,0.7-1.6,1.3-2.2
		C253.4,126.4,254.2,125.6,254.3,125.7z"/>
	<path id="path229" class="st9" d="M261.8,119.1c0.1,0.1-0.8,0.8-1.9,1.7c-0.6,0.6-1.3,1-2.1,1.4c-0.1-0.1,0.7-1,1.8-1.8
		C260.3,119.8,261,119.4,261.8,119.1z"/>
	<path id="path231" class="st9" d="M270.7,114.6c-0.7,0.5-1.4,0.9-2.2,1.2c-0.7,0.4-1.5,0.7-2.4,0.8c-0.1-0.1,0.9-0.8,2.2-1.3
		C269,114.9,269.9,114.6,270.7,114.6z"/>
	<path id="path233" class="st9" d="M278,112.8c0,0.1-0.5,0.4-1.2,0.5s-1.2,0.1-1.3,0s0.5-0.4,1.2-0.5S278,112.6,278,112.8z"/>
	<path id="path235" class="st1" d="M298.4,83.3c0,0,11.7-8.4,28-3c0,0,1.3,13.5-11.7,24.2"/>
	<path id="path237" class="st1" d="M261.4,108.2c0.5,0.8,13.2,21.2,13.2,21.2l38.3-23.6c6.3-3.9,8.3-12.1,4.4-18.4
		c-0.2-0.3-0.4-0.6-0.6-0.9l0,0c-4.3-5.8-12.3-7.1-18.2-3.1L261.4,108.2z"/>
	<path id="path239" class="st9" d="M274.6,129.4l-0.9,14.4c0,0,24.8-12,18.6-25.4L274.6,129.4z"/>
	<path id="path241" class="st9" d="M279.1,96.3c0,0-16.8-7.4-30.7,3.5l12.9,8.4L279.1,96.3z"/>
	<path id="path243" class="st9" d="M279,108.2l-23.9,15c0,0,0.8,2.6,1.5,2.4c0.7-0.2,18.5-10.8,24.4-14.2c0.9-0.5,1.1-1.6,0.6-2.5
		c0-0.1-0.1-0.2-0.2-0.2l0,0C280.8,107.9,279.8,107.7,279,108.2z"/>
	<circle id="circle245" class="st10" cx="301" cy="96.9" r="7.7"/>
	<path id="path247" class="st9" d="M308.7,96.8c-0.1,0,0-0.7-0.3-1.8c-0.4-1.6-1.4-3.1-2.8-4.1c-0.9-0.7-2-1.2-3.1-1.4
		c-1.3-0.2-2.7-0.1-3.9,0.3c-1.4,0.5-2.6,1.4-3.5,2.6c-1.9,2.6-1.9,6.2,0,8.8c0.9,1.2,2.1,2.1,3.4,2.6c1.2,0.5,2.6,0.6,3.9,0.3
		c1.1-0.2,2.2-0.7,3.1-1.4c1.4-1,2.4-2.5,2.8-4.1C308.6,97.5,308.6,96.8,308.7,96.8c0,0.2,0,0.3,0,0.5c0,0.5-0.1,0.9-0.2,1.4
		c-0.7,3-3.1,5.3-6.1,5.8c-3,0.6-6-0.6-7.8-3.1c-2.1-2.8-2.1-6.6,0-9.4c0.9-1.3,2.2-2.2,3.7-2.7c2.5-0.9,5.3-0.5,7.4,1.2
		c1.4,1.1,2.4,2.6,2.8,4.4c0.1,0.5,0.2,0.9,0.2,1.4C308.7,96.6,308.7,96.7,308.7,96.8z"/>
	<path id="path249" class="st9" d="M318,102c-0.1,0-0.2-1.5-0.8-3.8c-0.3-1.4-0.8-2.7-1.3-4c-1.3-3.2-3.2-6.1-5.6-8.6
		c-1-1-2-2-3.1-2.9c-1.9-1.5-3.2-2.2-3.1-2.3c0.3,0.1,0.7,0.3,1,0.4c0.4,0.2,0.7,0.4,1.1,0.6c0.4,0.3,0.9,0.6,1.4,0.9
		c1.1,0.8,2.2,1.8,3.2,2.8c2.4,2.5,4.4,5.5,5.7,8.8c0.5,1.3,0.9,2.7,1.2,4.1c0.1,0.6,0.2,1.1,0.3,1.6c0.1,0.4,0.1,0.8,0.1,1.2
		C318,101.3,318,101.6,318,102z"/>
	<path id="path251" class="st9" d="M315.9,103.1c-0.1,0-0.2-1.5-0.8-3.9c-0.4-1.4-0.8-2.7-1.4-4.1c-0.7-1.6-1.5-3.2-2.4-4.6
		c-1-1.5-2-2.8-3.2-4.1c-1-1.1-2-2-3.1-2.9c-1.9-1.5-3.2-2.3-3.2-2.4c0.4,0.1,0.7,0.3,1,0.5c0.4,0.2,0.7,0.4,1.1,0.7
		c0.4,0.3,0.9,0.6,1.4,1c1.2,0.9,2.2,1.8,3.2,2.8c1.2,1.3,2.3,2.7,3.3,4.2c0.9,1.5,1.8,3.1,2.4,4.7c0.5,1.3,1,2.7,1.3,4.2
		c0.1,0.6,0.2,1.2,0.3,1.6c0.1,0.4,0.1,0.8,0.1,1.2C316,102.3,316,102.7,315.9,103.1z"/>
</g>
<g id="freepik--Plant--inject-198">
	<path id="path254" class="st11" d="M81.8,421c-0.9-3.4,1.4-6.8,3.9-9.2s5.5-4.6,6.8-7.9c2.1-5.3-0.7-12.1,3-16.5
		c2.1-2.6,5.9-3.4,7.8-6.2c0.9-1.5,1.5-3.2,1.7-4.9c2-8.8,6.4-16.8,12.6-23.3c0.4,7.8-1.3,15.6-5,22.5c-1.5,2.8-3.3,5.5-3.8,8.5
		c-0.8,5,2,10.2,0.7,15.1c-1.4,5.6-7.8,9.4-8.1,15.1c-0.3,4.9,4,9.2,3.6,14.1c-0.3,2.1-1,4.1-2.2,5.8c-3.9,6.2-9.5,10.6-17.9,10.4
		l-10.3,0.3L81.8,421z"/>
	<g id="g258" class="st8">
		<path id="path256" d="M81.8,421c-0.9-3.4,1.4-6.8,3.9-9.2s5.5-4.6,6.8-7.9c2.1-5.3-0.7-12.1,3-16.5c2.1-2.6,5.9-3.4,7.8-6.2
			c0.9-1.5,1.5-3.2,1.7-4.9c2-8.8,6.4-16.8,12.6-23.3c0.4,7.8-1.3,15.6-5,22.5c-1.5,2.8-3.3,5.5-3.8,8.5c-0.8,5,2,10.2,0.7,15.1
			c-1.4,5.6-7.8,9.4-8.1,15.1c-0.3,4.9,4,9.2,3.6,14.1c-0.3,2.1-1,4.1-2.2,5.8c-3.9,6.2-9.5,10.6-17.9,10.4l-10.3,0.3L81.8,421z"/>
	</g>
	<path id="path260" class="st9" d="M72.6,445.1c-0.9,0.1-1.9,0.1-2.8-0.1c-1.1-0.2-2.3-0.5-3.3-0.9c-1.5-0.5-2.9-1.3-4.1-2.3
		c-0.7-0.6-1.3-1.4-1.7-2.3c-0.3-1-0.5-2-0.5-3.1s-0.1-2.2-0.2-3.4c-0.2-1.2-0.6-2.3-1.2-3.3c-1.2-2.1-3.2-4.2-3.8-7.1s-0.2-6,0.3-9
		s1-6.5-0.2-9.7s-3.3-6.2-4.5-9.8s-0.6-7.6-0.8-11.5c-0.1-2-0.5-3.9-1.3-5.8c-0.8-1.8-2-3.6-2.9-5.5c-1.8-3.9-2.1-8.3-2.6-12.6
		c-0.2-2.2-0.5-4.4-0.7-6.6c-0.1-2.2-0.5-4.5-1.1-6.6c-0.7-2.2-1.5-4.3-2.4-6.4c-0.5-1.1-0.9-2.2-1.2-3.4c-0.2-1.2-0.3-2.4-0.3-3.6
		c-0.1-2.4,0-4.8,0.3-7.1c0.3-2.4,0.7-4.8,1-7.1c0-0.1,0-0.3,0-0.4V317l0.4,0.2c2.2,1.1,4.1,2.7,5.5,4.7c1.4,1.9,2.6,4.1,3.4,6.3
		c1.7,4.5,2.3,9.1,3.1,13.5s1.9,8.8,4.2,12.5c1.1,1.9,2.5,3.5,3.7,5.3c1.3,1.8,2.1,3.8,2.5,5.9c0.6,4.4-1.8,8.2-1.4,12.1
		c0.3,1.9,0.9,3.7,1.9,5.4c0.9,1.7,2,3.2,3.1,4.7s2,3.1,2.8,4.8c0.7,1.6,1.2,3.4,1.3,5.2c0.2,3.5-0.3,6.8,0,9.9
		c0.3,3,1.1,5.9,2.5,8.5c1.2,2.5,2.6,4.9,3.8,7.1c0.6,1.1,1.1,2.2,1.6,3.3c0.4,1.1,0.7,2.2,0.9,3.3c0.3,2,0.3,3.9,0,5.9
		c-0.3,2.7-1.3,5.3-3,7.5c-0.3,0.3-0.5,0.6-0.8,0.9c-0.2,0.2-0.4,0.4-0.7,0.6L72.6,445.1c0.8-0.6,1.4-1.3,2-2
		c1.6-2.2,2.6-4.8,2.8-7.5c0.2-1.9,0.2-3.9-0.1-5.8c-0.2-1.1-0.5-2.2-0.9-3.2c-0.4-1.1-1-2.1-1.6-3.3c-1.2-2.2-2.6-4.5-3.8-7.1
		c-1.4-2.7-2.3-5.6-2.6-8.7c-0.3-3.2,0.2-6.5,0-9.9c-0.1-1.7-0.5-3.4-1.2-5c-0.8-1.6-1.7-3.2-2.7-4.7s-2.1-3.1-3.1-4.8
		c-1-1.7-1.7-3.6-1.9-5.6c-0.5-4.1,1.9-8,1.3-12c-0.4-2-1.2-4-2.5-5.6c-1.2-1.8-2.5-3.5-3.7-5.4c-2.3-3.8-3.4-8.3-4.3-12.7
		s-1.5-9.1-3.1-13.4c-0.8-2.2-1.9-4.3-3.3-6.1c-1.4-1.9-3.2-3.4-5.3-4.5l0.5-0.3v0.4c-0.3,2.4-0.7,4.8-1,7.1c-0.3,2.3-0.4,4.7-0.3,7
		c0.1,1.1,0.1,2.4,0.3,3.5c0.3,1.1,0.7,2.2,1.1,3.2c0.9,2.1,1.8,4.3,2.5,6.5c0.6,2.2,1,4.4,1.1,6.7c0.2,2.2,0.5,4.4,0.7,6.6
		c0.5,4.4,0.8,8.7,2.5,12.5c0.9,1.9,2,3.6,2.9,5.5c0.8,1.9,1.3,3.9,1.4,6c0.2,4-0.3,7.9,0.7,11.4s3.3,6.5,4.4,9.8s0.7,6.9,0.2,10
		s-1,6.1-0.4,8.9s2.5,4.8,3.8,7c0.6,1.1,1.1,2.2,1.3,3.5c0.1,1.1,0.2,2.3,0.2,3.4c0,1,0.1,2,0.4,3c0.3,0.9,0.9,1.6,1.6,2.2
		c1.2,1,2.6,1.8,4,2.3c1.1,0.4,2.2,0.7,3.3,0.9c0.7,0.1,1.4,0.2,2.1,0.2C72.3,445.1,72.6,445.1,72.6,445.1z"/>
	<path id="path262" class="st9" d="M40.6,323.1c0,0.1,0.1,0.2,0.1,0.3c0,0.2,0.1,0.5,0.2,0.9c0.2,0.8,0.4,2,0.8,3.6s1.3,3.3,2.1,5.4
		s1.7,4.6,2.4,7.3s1.5,5.8,2.2,9.1c0.6,3.5,1.7,6.9,3.2,10.2c0.8,1.7,1.8,3.4,2.5,5.2c0.7,1.9,1.2,3.9,1.5,5.9
		c0.5,4.2,1.2,8.4,2.2,12.5c2,8.5,4,16.6,5.7,23.9c1.7,7.3,3.4,13.9,4.8,19.5s2.4,10,3.2,13.2l0.8,3.6c0.1,0.4,0.2,0.7,0.2,0.9
		c0,0.1,0,0.2,0,0.3c-0.1-0.1-0.1-0.2-0.1-0.3l-0.3-0.9c-0.2-0.9-0.6-2-1-3.6L67.7,427c-1.4-5.6-3.1-12.2-4.9-19.5
		s-3.7-15.4-5.8-23.9c-0.9-4.2-1.6-8.4-2.1-12.6c-0.2-2-0.7-3.9-1.4-5.8c-0.7-1.8-1.7-3.5-2.5-5.2c-1.5-3.2-2.6-6.7-3.2-10.2
		c-0.7-3.3-1.3-6.4-2.1-9.1s-1.5-5.2-2.3-7.3s-1.6-3.9-2-5.5s-0.5-2.8-0.7-3.6c-0.1-0.4-0.1-0.7-0.2-1
		C40.6,323.4,40.6,323.3,40.6,323.1z"/>
	<path id="path264" class="st12" d="M70.7,445.1c-6.7-4-8.6-16.2-5.7-23.6s7.8-14,8.6-21.8c0.6-6-1.3-12.2,0.1-18
		c1.9-7.9,9.7-14,9.7-22.2c0-4.6-2.6-8.9-2.4-13.5c0.3-5.6,4.6-10,7.3-14.9c4.1-7.5,4.4-16.5,5.9-24.9s4.7-17.5,12.2-21.6
		c1.1,7.2,2.9,12.1,2.3,21.9c-0.2,3.5-4.3,10.2-4.9,17.8c-0.3,4.6-0.6,9.2-0.9,13.8s-0.6,9-2.2,13.2c-1.2,3.2-3.2,6.1-4.2,9.4
		c-1.8,6.2,0.5,13-1,19.2c-1.2,5.3-4.9,9.9-5.7,15.3c-1.1,7.6,3.8,15.5,1.2,22.8c-1.3,3.6-4.2,6.5-5.1,10.2c-0.7,2.9,0,5.9-0.6,8.8
		c-1,4.7-9.9,8.2-14.7,7.9"/>
	<path id="path266" class="st9" d="M104.6,291.7c0,0.1,0,0.3,0,0.4c0,0.3-0.1,0.7-0.2,1.2c-0.2,1-0.3,2.6-0.7,4.5s-1.4,4.2-2.3,6.9
		s-1.8,5.8-2.5,9.2s-1.4,7.3-2.2,11.4s-1.5,8.6-3.5,12.9c-1,2.1-2,4.3-2.8,6.6c-0.8,2.4-1.3,4.8-1.5,7.3c-0.4,5.3-1.1,10.5-2.1,15.7
		c-2.1,10.6-4.2,20.8-6,30l-5.2,24.4c-1.5,6.9-2.7,12.5-3.5,16.5c-0.4,1.9-0.8,3.4-1,4.5l-0.3,1.2c0,0.1-0.1,0.3-0.1,0.4
		c0-0.1,0-0.3,0-0.4c0.1-0.3,0.1-0.7,0.2-1.2c0.2-1.1,0.5-2.6,0.9-4.5c0.8-3.9,1.9-9.6,3.3-16.5s3.1-15.3,5-24.5l6-30
		c1-5.2,1.7-10.4,2.1-15.7c0.2-2.5,0.7-5,1.5-7.4c0.8-2.3,1.9-4.5,2.9-6.6c2.1-4.2,2.8-8.6,3.6-12.8s1.4-8,2.2-11.4s1.7-6.6,2.6-9.2
		s1.9-4.9,2.3-6.8s0.6-3.5,0.8-4.5c0.1-0.5,0.2-0.9,0.2-1.2C104.5,292,104.5,291.9,104.6,291.7z"/>
</g>
<g id="freepik--Chart--inject-198">
	<rect id="rect269" x="402.5" y="287.8" class="st1" width="7" height="22.5"/>
	<rect id="rect271" x="415.3" y="278.5" class="st1" width="7" height="31.8"/>
	<rect id="rect273" x="429" y="274.2" class="st1" width="7" height="36.1"/>
	<rect id="rect275" x="442.6" y="269.6" class="st1" width="7" height="40.7"/>
</g>
<g id="freepik--Gears--inject-198">
	<path id="path278" class="st9" d="M167.5,317c0.5,0.1,1,0.2,1.5,0.5c2.3,1.1,3.7,3.4,3.6,5.9c0,1.2-0.4,2.3-1,3.3
		c-0.7,1.1-1.7,1.9-2.9,2.5c-2.6,1.2-5.7,0.5-7.5-1.7c-0.4-0.5-0.8-1.1-1-1.6c-0.3-0.6-0.4-1.2-0.5-1.8c-0.1-1.2,0-2.3,0.5-3.4
		c1-2.3,3.3-3.8,5.8-3.8C166.5,316.8,167.1,316.8,167.5,317c0.1,0-0.5-0.1-1.5-0.1c-1.4,0.1-2.8,0.6-3.8,1.5
		c-0.7,0.6-1.3,1.4-1.7,2.3c-0.4,1-0.6,2.1-0.4,3.2c0.1,0.6,0.2,1.2,0.5,1.7c0.2,0.6,0.6,1.1,1,1.6c1.8,2,4.6,2.7,7.1,1.6
		c0.6-0.2,1.1-0.6,1.6-1s0.9-0.8,1.2-1.3c1.9-2.9,1-6.8-1.9-8.6c-0.2-0.1-0.3-0.2-0.5-0.3C168.1,317.1,167.5,317,167.5,317z"/>
	<path id="path280" class="st9" d="M172.6,310.2c0-0.1,0-0.1,0-0.2c0-0.2,0-0.4,0-0.7c0-0.6,0-1.5,0-2.7l0.1,0.1l-5.8-1.3h0.1
		l-1.5,3.2v0.1h-0.1c-1.3,0.1-2.5,0.3-3.8,0.7h-0.1h-0.1l-2.5-2.5l0,0l-5,3.2l0.1-0.2l1.2,3.4v0.1l-0.1,0.1c-0.9,0.9-1.6,2-2.2,3.1
		v0.1l0,0h-3.6l0.1-0.1c-0.4,1.8-0.8,3.8-1.3,5.8l-0.1-0.2l3.2,1.5h0.1v0.1c0.1,1.3,0.3,2.5,0.6,3.8v0.1l-0.1,0.1l-2.5,2.5v-0.2
		l3.2,5l-0.2-0.1l3.4-1.2h0.1l0.1,0.1c0.9,0.9,2,1.6,3.1,2.2l0,0c0.1,0.1-0.1-0.2,0.1,0.2l0,0v3.6l-0.1-0.2l5.8,1.3l-0.2,0.1
		c0.5-1.1,1-2.2,1.5-3.2l0.1-0.1h0.1c1.3,0,2.5-0.3,3.7-0.6h0.1l0.1,0.1l2.5,2.5h-0.2l5-3.1l-0.1,0.2c-0.4-1.1-0.8-2.3-1.2-3.4V333
		l0.1-0.1c0.9-0.9,1.6-2,2.2-3.1v-0.1h3.7l-0.1,0.1c0.5-2,0.9-3.9,1.3-5.8l0.1,0.2l-3.2-1.5h-0.1v-0.1c0-1.3-0.3-2.5-0.6-3.8v-0.1
		l0,0l2.5-2.5v0.1l-3.1-5h0.1l-3.4,1.2l0,0l0,0c-0.7-0.7-1.5-1.2-2.3-1.8l-0.6-0.4L172.6,310.2l0.2,0.2l0.6,0.3
		c0.8,0.5,1.6,1.1,2.3,1.7h-0.1l3.4-1.2h0.1v0.1l3.2,5v0.1l-0.1,0.1l-2.5,2.5v-0.1c0.4,1.2,0.6,2.5,0.7,3.8l-0.1-0.1l3.2,1.5h0.1
		v0.1c-0.4,1.8-0.8,3.7-1.3,5.8v0.1h-3.7l0.1-0.1c-0.6,1.2-1.4,2.2-2.2,3.2V333c0.4,1.1,0.8,2.2,1.2,3.4l0.1,0.1l-0.1,0.1l-5,3.2
		l-0.1,0.1l-0.1-0.1l-2.5-2.5h0.2c-1.2,0.4-2.5,0.6-3.8,0.7l0.1-0.1c-0.5,1.1-1,2.1-1.5,3.2l-0.1,0.1h-0.1l-5.8-1.3h-0.1V336l0,0
		c0.2,0.3,0,0.1,0.1,0.2l0,0c-1.2-0.6-2.2-1.4-3.2-2.2h0.2l-3.4,1.2h-0.1l-0.1-0.1l-3.2-5l-0.1-0.1l0.1-0.1l2.5-2.5v0.2
		c-0.4-1.2-0.6-2.5-0.7-3.8l0.1,0.1l-3.2-1.5l-0.1-0.1v-0.1l1.3-5.8v-0.1h3.8l-0.1,0.1c0.6-1.2,1.4-2.2,2.2-3.2v0.1l-1.2-3.4v-0.1
		l0.1-0.1l5-3.1h0.1l0.1,0.1l2.5,2.5h-0.1c1.2-0.4,2.5-0.6,3.8-0.6l-0.1,0.1l1.6-3.2v-0.1h0.1l5.8,1.3h0.1l0,0c0,1.1,0,2,0,2.6
		c0,0.3,0,0.5,0,0.7C172.7,310,172.7,310.1,172.6,310.2z"/>
	<path id="path282" class="st13" d="M161.7,265.3c1.3,0.7,2.4,1.5,3.5,2.5l3.7-1.3l3.5,5.5l-2.8,2.8c0.4,1.4,0.7,2.8,0.7,4.2
		l3.6,1.7l-1.4,6.3h-3.9c-0.7,1.3-1.5,2.4-2.5,3.5l1.3,3.7l-5.5,3.5l-2.8-2.7c-1.4,0.4-2.8,0.7-4.2,0.7l-1.7,3.6l-6.4-1.4V294
		c-1.3-0.7-2.4-1.5-3.5-2.5l-3.7,1.3l-3.5-5.5l2.8-2.8c-0.4-1.4-0.7-2.8-0.7-4.2l-3.6-1.7l1.4-6.4h3.9c0.7-1.3,1.5-2.4,2.4-3.5
		L141,265l5.5-3.5l2.8,2.8c1.4-0.4,2.8-0.7,4.2-0.7l1.7-3.6l6.4,1.4L161.7,265.3L161.7,265.3z M156.1,272.8
		c-3.8-0.8-7.5,1.5-8.4,5.3c-0.8,3.8,1.5,7.5,5.3,8.4c3.8,0.8,7.5-1.5,8.4-5.3C162.2,277.4,159.9,273.7,156.1,272.8L156.1,272.8z"/>
	<g id="g286" class="st14">
		<path id="path284" class="st15" d="M161.7,265.3c1.3,0.7,2.4,1.5,3.5,2.5l3.7-1.3l3.5,5.5l-2.8,2.8c0.4,1.4,0.7,2.8,0.7,4.2
			l3.6,1.7l-1.4,6.3h-3.9c-0.7,1.3-1.5,2.4-2.5,3.5l1.3,3.7l-5.5,3.5l-2.8-2.7c-1.4,0.4-2.8,0.7-4.2,0.7l-1.7,3.6l-6.4-1.4V294
			c-1.3-0.7-2.4-1.5-3.5-2.5l-3.7,1.3l-3.5-5.5l2.8-2.8c-0.4-1.4-0.7-2.8-0.7-4.2l-3.6-1.7l1.4-6.4h3.9c0.7-1.3,1.5-2.4,2.4-3.5
			L141,265l5.5-3.5l2.8,2.8c1.4-0.4,2.8-0.7,4.2-0.7l1.7-3.6l6.4,1.4L161.7,265.3L161.7,265.3z M156.1,272.8
			c-3.8-0.8-7.5,1.5-8.4,5.3c-0.8,3.8,1.5,7.5,5.3,8.4c3.8,0.8,7.5-1.5,8.4-5.3C162.2,277.4,159.9,273.7,156.1,272.8L156.1,272.8z"
			/>
	</g>
	<path id="path288" class="st13" d="M138.7,302.9c0.7,0.4,1.4,0.9,2,1.4l2.2-0.8l2,3.2l-1.6,1.6c0.2,0.8,0.4,1.6,0.4,2.4l2.1,1
		l-0.7,3.7h-2.3c-0.4,0.7-0.9,1.4-1.4,2l0.8,2.2l-3.2,2l-1.6-1.6c-0.8,0.2-1.6,0.4-2.4,0.4l-1,2.1l-3.7-0.8v-2.3
		c-0.7-0.4-1.4-0.9-2-1.4l-2.2,0.8l-2-3.2l1.6-1.6c-0.2-0.8-0.4-1.6-0.4-2.4l-2.1-1l0.8-3.7h2.2c0.4-0.7,0.9-1.4,1.4-2l-0.8-2.2
		l3.2-2l1.6,1.6c0.8-0.3,1.6-0.4,2.4-0.4l1-2.1l3.7,0.8V302.9L138.7,302.9z M135.4,307.2c-2.2-0.5-4.4,0.9-4.9,3.1s0.9,4.4,3.1,4.9
		c2.2,0.5,4.4-0.9,4.9-3.1l0,0C139,309.9,137.6,307.7,135.4,307.2L135.4,307.2z"/>
	<g id="g292" class="st16">
		<path id="path290" class="st15" d="M138.7,302.9c0.7,0.4,1.4,0.9,2,1.4l2.2-0.8l2,3.2l-1.6,1.6c0.2,0.8,0.4,1.6,0.4,2.4l2.1,1
			l-0.7,3.7h-2.3c-0.4,0.7-0.9,1.4-1.4,2l0.8,2.2l-3.2,2l-1.6-1.6c-0.8,0.2-1.6,0.4-2.4,0.4l-1,2.1l-3.7-0.8v-2.3
			c-0.7-0.4-1.4-0.9-2-1.4l-2.2,0.8l-2-3.2l1.6-1.6c-0.2-0.8-0.4-1.6-0.4-2.4l-2.1-1l0.8-3.7h2.2c0.4-0.7,0.9-1.4,1.4-2l-0.8-2.2
			l3.2-2l1.6,1.6c0.8-0.3,1.6-0.4,2.4-0.4l1-2.1l3.7,0.8V302.9L138.7,302.9z M135.4,307.2c-2.2-0.5-4.4,0.9-4.9,3.1s0.9,4.4,3.1,4.9
			c2.2,0.5,4.4-0.9,4.9-3.1l0,0C139,309.9,137.6,307.7,135.4,307.2L135.4,307.2z"/>
	</g>
</g>
<g id="freepik--Character--inject-198">
	<path id="path295" class="st9" d="M359.5,266.1c4.3-1.2,7.2-5.3,7.1-9.8c-0.1-2-0.9-3.9-0.8-5.8c0.1-3,2.1-5.6,3.7-8.2
		s2.5-6.1,0.8-8.6c-1.1-1.6-3.2-2.3-4.6-3.7s-2-3.3-2.7-5.1s-1.7-3.6-3.4-4.6s-4.2-0.5-4.9,1.3"/>
	<path id="path297" class="st9" d="M341.4,216.7c3-1.9,3.7-6.3,2.1-9.5s-5.1-5.1-8.6-5.6c-5.2-0.8-10.4,0.9-14.1,4.7
		c-1.9,2-3.5,4.6-6.1,5.5c-2.3,0.8-4.9,0.1-7.3,0.4c-3.3,0.6-6.1,2.6-7.7,5.5c-1.5,2.9-2.5,6.1-2.7,9.4c-0.4,3-0.6,6.2-2.6,8.4
		s-5.2,2.6-7.7,4.1c-4.8,3.2-6.2,9.6-3.1,14.4c1,1.4,2.4,2.8,2.5,4.5s-0.9,3-1.4,4.6c-1,3.8,1.3,7.7,5.1,8.7c0.3,0.1,0.6,0.1,1,0.2
		c2.1,0.1,4.3-0.7,6.2,0.2s2.5,3.2,3.7,4.9c2.5,3.4,7,4.5,10.9,2.8c1.5-0.8,3-2,4.7-1.9s3,1.6,4.7,1.9c2.2,0.4,4.3-1.2,5.6-3
		s2.2-3.9,3.9-5.4c2.2-1.9,5.2-2.4,8-3.4c11.8-4.1,18-16.9,13.9-28.7c-0.3-1-0.8-2-1.2-2.9"/>
	<path id="path299" class="st17" d="M348,220.7c2.5,0.3,4.3,2.4,4.3,4.9l0,0l-2.9,64.7c-0.1,7.6-11.3,11.9-19.5,11.7l0,0
		c-8.3-0.2-8.5-4.2-8.6-11.5c-0.2-12.1-0.1-16.7-0.2-16.6s-10.4-1.8-12.6-15.4c-1.1-6.8-0.7-17.9-0.1-26.9c0.5-8.2,6-18.2,14.1-17.3
		L348,220.7z"/>
	<path id="path301" class="st9" d="M311.4,240.3c0,0.9,0.7,1.7,1.7,1.8c0.9,0.1,1.7-0.6,1.8-1.5l0,0c0-0.9-0.7-1.7-1.7-1.8
		C312.3,238.7,311.5,239.3,311.4,240.3L311.4,240.3z"/>
	<path id="path303" class="st9" d="M310.8,237.3c0.2,0.2,1.5-0.8,3.4-0.7s3.2,0.9,3.5,0.7s-0.1-0.5-0.7-0.9
		c-0.8-0.6-1.8-0.9-2.8-0.9s-1.9,0.3-2.7,0.9C310.9,236.8,310.7,237.2,310.8,237.3z"/>
	<path id="path305" class="st9" d="M330.2,240.3c0,0.9,0.7,1.7,1.7,1.8c0.9,0.1,1.7-0.6,1.8-1.5l0,0c0-0.9-0.7-1.7-1.7-1.8
		C331.1,238.7,330.2,239.3,330.2,240.3L330.2,240.3z"/>
	<path id="path307" class="st9" d="M329.3,237.7c0.2,0.2,1.5-0.8,3.4-0.7s3.2,1,3.5,0.7s-0.1-0.5-0.7-0.9c-0.8-0.6-1.8-0.9-2.8-0.9
		s-1.9,0.3-2.7,0.9C329.4,237.1,329.2,237.6,329.3,237.7z"/>
	<path id="path309" class="st9" d="M322.5,251.6c-1-0.3-2-0.5-3-0.6c-0.5-0.1-0.9-0.1-1-0.5c0-0.5,0.1-1,0.3-1.4
		c0.5-1.2,0.9-2.4,1.4-3.6c2-5.2,3.4-9.5,3.2-9.6s-2,4.1-4,9.3c-0.5,1.3-0.9,2.5-1.4,3.7c-0.3,0.6-0.4,1.2-0.3,1.9
		c0.1,0.3,0.4,0.6,0.8,0.7c0.3,0.1,0.5,0.1,0.8,0.1C320.4,251.7,321.4,251.7,322.5,251.6z"/>
	<path id="path311" class="st18" d="M321.1,273.8c6.4,0.1,12.7-1.6,18.2-4.8c0,0-4.6,9.6-18.2,8.3V273.8z"/>
	<path id="path315" class="st9" d="M328,252.9c-0.3,0-0.3,2-2.1,3.5c-1.8,1.5-3.9,1.2-3.9,1.5c0,0.1,0.5,0.4,1.4,0.4
		c1.2,0,2.4-0.4,3.3-1.1s1.5-1.8,1.6-2.9C328.4,253.4,328.1,252.9,328,252.9z"/>
	<path id="path317" class="st9" d="M328.5,234.4c0.2,0.5,2.1,0.3,4.3,0.5s4,0.9,4.3,0.4c0.1-0.2-0.2-0.7-0.9-1.2
		c-1.9-1.2-4.3-1.5-6.5-0.7C328.8,233.7,328.4,234.1,328.5,234.4z"/>
	<path id="path319" class="st9" d="M311.5,231.8c0.3,0.4,1.6,0,3.2,0s2.9,0.3,3.2-0.1c0.1-0.2-0.1-0.6-0.6-1.1
		c-1.6-1-3.6-0.9-5.1,0.1C311.6,231.2,311.4,231.6,311.5,231.8z"/>
	<path id="path321" class="st9" d="M339,216.2c3.1-2.2,7.1-2.9,10.8-2c3.6,1,6.6,4.3,6.8,8c0.1,2.4-1,5,0.1,7.1s3.5,2.9,5.3,4.4
		c2.8,2.5,3.6,6.5,1.9,9.8c-1.5,2.7-4.6,4.7-4.9,7.8c-0.2,2.9,2.2,5.4,2.8,8.2c0.6,3.1-1.1,6.4-3.6,8.5s-5.6,3.2-8.7,4.3
		c-2.4,0.9-5,1.8-7.5,1.2c-3-0.8-5.2-3.3-5.6-6.4c-0.3-3,0.7-6,2.8-8.2c1.8-1.9,4.2-3.6,4.6-6.1c0.6-4-4.1-7.2-3.8-11.2
		c0.1-2.1,1.6-3.8,2.8-5.5s2.3-3.8,1.5-5.8c-1-2.5-4.3-3.2-6.3-5c-1.7-1.6-2.3-4-1.7-6.2c0.7-2.2,2.6-3.8,4.9-4.2"/>
	<path id="path323" class="st9" d="M340.5,213.2c0,5.1-4.1,9.3-9.3,9.4c-0.6,0-1.2,0-1.7-0.2c-2.1-0.4-4.4-1.4-6.2-0.3s-2,4-3.6,5.5
		c-2.4,2.1-6.2,0.1-9.3,1c-2.4,0.7-3.8,2.9-5.4,4.8s-3.9,3.7-6.3,3c0.1-2.1,0.4-4.2,0.9-6.3c0.6-2.1,1.8-3.9,3.6-5.1
		c1-0.5,2-1.1,3-1.8c2-1.6,2.4-4.3,3.6-6.5c1.6-2.9,4.5-4.8,7.8-5.2c2.7-0.3,5.4,0.5,8-0.1c1.9-0.5,3.6-1.7,5.6-2.1
		c3.8-0.7,7.4,2,10.1,4.7"/>
	<path id="path325" class="st19" d="M365.3,245.7c0.3-0.5,0.4-1,0.3-1.6c-0.3-1.5-1.3-2.7-2.8-3.1c-1-0.3-2-0.6-3-0.8
		c-1.2-0.2-2.4-0.7-3.4-1.4c-1.1-0.9-1.7-2.2-1.8-3.6c0-1.4,0.1-2.9,0.2-4.3c0-0.7,0-1.4-0.1-2.1c-0.1-0.6-0.4-1.3-0.8-1.8
		c-0.9-0.9-2-1.6-3.3-1.9c-1.2-0.3-2.3-0.8-3.3-1.4c-0.9-0.5-1.7-1.2-2.5-2c-1.1-1.1-1.9-2.4-2.4-3.9c-0.2-0.4-0.3-0.8-0.4-1.2
		c-0.1-0.3-0.1-0.4-0.1-0.4s0.2,0.6,0.6,1.6c1.5,3.5,4.5,6,8.2,6.9c1.3,0.3,2.6,1,3.5,2c0.5,0.6,0.8,1.3,0.9,2s0.2,1.5,0.1,2.2
		c-0.1,1.4-0.2,2.8-0.2,4.2c0,1.3,0.6,2.5,1.5,3.3c1,0.7,2,1.1,3.2,1.4c1,0.2,2,0.5,3,0.9c0.8,0.3,1.6,0.9,2.1,1.6
		c0.4,0.5,0.6,1.2,0.7,1.9c0,0.4-0.1,0.9-0.2,1.2C365.5,245.6,365.4,245.7,365.3,245.7z"/>
	<path id="path327" class="st19" d="M285.1,254.2l-0.2-0.1c-0.2-0.1-0.4-0.3-0.5-0.5c-0.4-0.9-0.3-1.9,0.3-2.7
		c0.3-0.6,0.8-1.1,1.5-1.4c0.7-0.4,1.4-0.7,2.2-0.9c0.8-0.3,1.6-0.7,2.3-1.3c0.7-0.7,1.1-1.6,1.3-2.6c0.2-1,0.3-2.1,0.5-3.3
		c0.1-1.2,0.6-2.4,1.4-3.4c1.6-2.1,4.2-3.2,6.1-5.1c1-1,1.7-2.3,2.1-3.6c0.5-1.4,0.8-2.9,1-4.4c0.4-3,0.9-6.3,2.9-9.1
		c1-1.4,2.5-2.3,4.1-2.6c1.6-0.2,3.2-0.2,4.7,0.1s2.9,0.4,4.4,0.3c1.4-0.2,2.7-0.8,3.6-1.9c1.9-2,2.9-4.7,5.2-6.1
		c2.1-1.3,4.6-1.6,6.9-0.9c1.9,0.5,3.5,1.8,4.5,3.5c0.8,1.3,1.2,2.7,1.2,4.2c0,0.9-0.1,1.8-0.4,2.7c-0.1,0.3-0.2,0.6-0.4,0.9
		c0,0,0.1-0.3,0.3-0.9c0.3-0.9,0.4-1.8,0.3-2.7c-0.1-1.4-0.5-2.8-1.2-4.1c-1-1.6-2.5-2.8-4.4-3.3c-2.2-0.6-4.6-0.2-6.5,1
		c-1,0.7-1.9,1.6-2.6,2.7c-0.7,1.2-1.6,2.3-2.5,3.3c-0.5,0.5-1.1,1-1.7,1.4c-0.7,0.3-1.4,0.6-2.2,0.7c-1.5,0.1-3.1,0-4.6-0.2
		c-1.5-0.3-3.1-0.3-4.6-0.1c-1.5,0.3-2.9,1.2-3.8,2.5s-1.6,2.7-2,4.3c-0.4,1.5-0.6,3-0.8,4.6c-0.2,1.5-0.5,3-1,4.4s-1.2,2.7-2.3,3.8
		c-2,2-4.6,3.1-6.1,5.1c-0.7,0.9-1.2,2.1-1.3,3.2c-0.2,1.1-0.3,2.3-0.5,3.3s-0.7,2-1.4,2.7c-0.7,0.6-1.5,1.1-2.4,1.3
		c-0.7,0.2-1.5,0.5-2.2,0.9c-0.6,0.3-1.1,0.7-1.4,1.3c-0.5,0.7-0.7,1.7-0.4,2.5C284.7,253.8,284.9,254.1,285.1,254.2z"/>
	<path id="path329" class="st20" d="M251.7,348l24.2-2.2c0,0,14.9-39.1,33.2-48.6l11.9,20.7l-25.4,47.7H246L251.7,348z"/>
	<path id="path331" class="st21" d="M251.7,348l24.2-2.2c0,0,14.9-39.1,33.2-48.6l11.9,20.7l-25.4,47.7H246L251.7,348z"/>
	<path id="path333" class="st10" d="M261.3,359c1.2-2.7,2.7-5.2,4.5-7.6C264.6,354.1,263.1,356.7,261.3,359z"/>
	<path id="path335" class="st10" d="M278.4,358.5c-2.1-2.1-3.9-4.3-5.5-6.8c1.1,1,2.1,2,3,3.2C276.8,356,277.7,357.2,278.4,358.5z"
		/>
	<path id="path337" class="st10" d="M281.4,349.6c-0.3-2.1-0.3-4.2,0-6.3C281.7,345.3,281.7,347.5,281.4,349.6z"/>
	<path id="path339" class="st10" d="M272.9,363.5c-0.8-0.2-1.6-0.6-2.3-1.2c-1.2-0.8-2.1-1.5-2-1.6c0.8,0.2,1.6,0.7,2.3,1.2
		C272,362.7,272.9,363.4,272.9,363.5z"/>
	<path id="path341" class="st10" d="M286.7,327.6c-0.4,1.5-1,3-1.7,4.4c-0.6,1.5-1.3,2.9-2.1,4.1c0.4-1.5,0.9-3,1.7-4.4
		C285.1,330.3,285.9,328.9,286.7,327.6z"/>
	<path id="path343" class="st10" d="M296.5,311.7c0.1,0.1-0.8,0.9-1.9,1.8c-0.7,0.6-1.4,1.1-2.2,1.4c-0.1-0.1,0.8-0.9,1.9-1.8
		C294.9,312.5,295.7,312,296.5,311.7z"/>
	<path id="path345" class="st20" d="M332.6,362.5l12.5-50.3c2.2-8.8,10.8-14.3,19.6-12.7l0,0c9.1,1.7,15.3,10.3,13.9,19.5l-7.6,49.2
		c-1.9,10.3-10.1,18.3-20.4,19.9l-9.9,1.5L332.6,362.5z"/>
	<path id="path347" class="st9" d="M371.9,296.2c-1.3-1.1-2.8-1.8-4.5-2.2c-1.8-0.4-3.6-0.4-5.4,0c-2.1,0.5-4.1,1.6-5.8,3
		c-3.6,3.1-5.6,7-7,9.8c-0.7,1.4-1.2,2.6-1.5,3.4c-0.2,0.4-0.4,0.8-0.6,1.2c0.1-0.4,0.2-0.9,0.4-1.3c0.3-0.8,0.8-2,1.4-3.5
		c0.7-1.7,1.6-3.3,2.6-4.9c1.2-1.9,2.7-3.7,4.4-5.1c1.7-1.5,3.8-2.6,6-3.1c1.8-0.4,3.7-0.4,5.6,0.1c1.2,0.3,2.4,0.9,3.4,1.6
		c0.3,0.2,0.5,0.4,0.8,0.7C371.8,296.1,371.9,296.2,371.9,296.2z"/>
	<path id="path349" class="st9" d="M301.3,307.5c-0.1,0.2-0.2,0.3-0.4,0.5l-1.1,1.3c-0.9,1.1-2.2,2.7-3.7,4.8
		c-4,5.4-6.9,11.5-8.5,18.1c-1.7,7.7-1.8,14.9-2.1,20c-0.1,2.6-0.2,4.7-0.4,6.1c-0.1,0.7-0.1,1.2-0.1,1.7c0,0.2,0,0.4-0.1,0.6
		c0-0.2,0-0.4,0-0.6c0-0.4,0-1,0-1.7c0-1.5,0.1-3.6,0.2-6.1c0.2-5.1,0.2-12.4,2-20.1c1.6-6.6,4.6-12.8,8.7-18.1
		c1.5-2.1,2.9-3.7,3.9-4.8c0.5-0.5,0.9-0.9,1.1-1.2C301.1,307.8,301.2,307.6,301.3,307.5z"/>
	<path id="path351" class="st20" d="M381.1,307.4c-1.4-9-6.3-11.1-11.5-14c-1.7-0.9-9.8-3-16.2-4.6c-0.6-3.9-1.7-10.9-2-12.3
		c-0.3-2.1-32.8,3.1-33.2,3.9c-0.3,0.5-1,8.6-1.5,14l-7.8,2.7l-10,12.9l-5.3,7.5c-3.1,4.3-5.3,9.2-6.5,14.4
		c-1.1,5.7-1.6,11.6-1.5,17.4l-1.6,33l67.9,19.2l5.2-33.5l17.5-23.8C376.2,334.5,382.8,318.5,381.1,307.4z"/>
	<path id="path353" class="st9" d="M323.3,295.4c-0.2-0.7-0.4-1.5-0.5-2.3c-0.2-1.4-0.5-3.4-0.7-5.6c-0.1-1.1-0.2-2.1-0.3-3.1
		c-0.1-0.8-0.2-1.7-0.2-2.5c0-0.6,0.2-1.2,0.5-1.7c0.3-0.3,0.5-0.4,0.5-0.4s-0.1,0.2-0.3,0.5c-0.2,0.5-0.3,1-0.3,1.6
		c0,0.7,0.2,1.5,0.3,2.5s0.2,2,0.4,3.1c0.2,2.2,0.5,4.2,0.6,5.6C323.3,293.9,323.3,294.6,323.3,295.4z"/>
	<path id="path355" class="st9" d="M331.9,293.4c-0.3-0.7-0.6-1.4-0.7-2.1c-0.9-3.5-1.2-7-1-10.6c0-0.7,0.1-1.5,0.3-2.2
		c0.2,0-0.1,3.4,0.3,7.5S332.1,293.3,331.9,293.4z"/>
	<path id="path357" class="st9" d="M348,291c0.2-2.5,0.1-5-0.2-7.5c-0.5-2.4-1.3-4.8-2.3-7.1c0.5,0.6,0.9,1.2,1.2,1.9
		c1.6,3.3,2.2,6.9,1.8,10.5C348.4,289.6,348.3,290.3,348,291z"/>
	<path id="path359" class="st10" d="M302,320.5c1.5-2.9,3.6-5.6,6-7.9C306.1,315.3,304.1,317.9,302,320.5z"/>
	<path id="path361" class="st10" d="M317.2,308c-1.9-1.9-3.6-4.1-5-6.5c1,0.9,1.9,2,2.7,3.1C315.8,305.6,316.6,306.8,317.2,308z"/>
	<path id="path363" class="st10" d="M333.2,300.2c-1,1.2-2,2.2-3.2,3.2c-1,1.1-2.1,2.2-3.3,3.1c0.8-1.3,1.8-2.5,3-3.5
		C330.7,302,331.9,301,333.2,300.2z"/>
	<path id="path365" class="st10" d="M328.7,290.7c-0.9-0.5-1.8-1.1-2.5-1.9c-0.8-0.6-1.6-1.4-2.1-2.3c0.9,0.5,1.8,1.1,2.5,1.9
		C327.4,289.1,328.1,289.8,328.7,290.7z"/>
	<path id="path367" class="st10" d="M342.7,283.2c-1.1,0.5-2.2,0.8-3.4,1c-1.1,0.3-2.3,0.5-3.5,0.5c1.1-0.5,2.2-0.8,3.4-1
		C340.4,283.4,341.5,283.2,342.7,283.2z"/>
	<path id="path369" class="st10" d="M345.5,305.4c-0.3-1.1-0.5-2.3-0.4-3.5c-0.1-1.2-0.1-2.4,0.1-3.5c0.3,1.1,0.5,2.3,0.4,3.5
		C345.7,303,345.7,304.2,345.5,305.4z"/>
	<path id="path371" class="st10" d="M340.4,316c-0.7-1.3-1.3-2.6-1.8-4c-0.6-1.4-1-2.8-1.3-4.2C338.7,310.4,339.7,313.2,340.4,316
		L340.4,316z"/>
	<path id="path373" class="st10" d="M326.5,323.5c-0.8-1.3-1.4-2.8-1.9-4.2c-0.6-1.4-1.1-2.9-1.4-4.4c0.8,1.3,1.4,2.8,1.9,4.2
		C325.7,320.5,326.2,322,326.5,323.5z"/>
	<path id="path375" class="st10" d="M313.5,332.1c-0.9-2.7-1.5-5.6-1.7-8.5c0.5,1.3,0.9,2.8,1.1,4.2
		C313.3,329.2,313.5,330.6,313.5,332.1z"/>
	<path id="path377" class="st10" d="M298,332.4c-1.5-2.4-2.8-5-3.7-7.6C295.8,327.1,297.1,329.7,298,332.4z"/>
	<path id="path379" class="st10" d="M297.7,342.3c-1.3,0.9-2.6,1.7-4.1,2.3c-1.4,0.8-2.8,1.4-4.3,1.8c1.3-0.9,2.6-1.7,4.1-2.3
		C294.7,343.4,296.2,342.8,297.7,342.3z"/>
	<path id="path381" class="st10" d="M297.9,358.1c-0.7-1.1-1.2-2.4-1.4-3.6c-0.4-1.2-0.6-2.5-0.6-3.9c0.5,1.2,0.8,2.4,1.1,3.7
		C297.4,355.5,297.7,356.8,297.9,358.1z"/>
	<path id="path383" class="st10" d="M294.6,369.1c-1.2-0.8-2.3-1.6-3.3-2.6c-1.1-0.9-2.1-1.9-2.9-3c1.2,0.8,2.3,1.6,3.3,2.6
		C292.8,367,293.8,368,294.6,369.1z"/>
	<path id="path385" class="st10" d="M315.1,361.6c0,0.1-2.3,0.8-4.9,2s-4.7,2.4-4.8,2.3c1.4-1.2,2.9-2.1,4.6-2.8
		C311.5,362.3,313.3,361.8,315.1,361.6z"/>
	<path id="path387" class="st10" d="M309.1,356.1c-0.6-1.1-1.1-2.2-1.5-3.4c-0.5-1.1-0.8-2.4-1-3.6c0.6,1.1,1.1,2.2,1.5,3.4
		C308.6,353.6,308.9,354.8,309.1,356.1z"/>
	<path id="path389" class="st10" d="M321.2,342.6c-0.8,1.7-1.7,3.3-2.7,4.8c-0.9,1.6-2,3.2-3.2,4.6C317,348.7,319,345.6,321.2,342.6
		L321.2,342.6z"/>
	<path id="path391" class="st10" d="M334.2,343.9c-1.3-1.3-2.4-2.9-3.3-4.5c-1-1.6-1.9-3.3-2.4-5.1c0.1-0.1,1.3,2.2,2.9,4.8
		S334.4,343.8,334.2,343.9z"/>
	<path id="path393" class="st10" d="M342,331c-1.2,0.5-2.5,0.7-3.8,0.7c-1.3,0.2-2.6,0-3.9-0.3c1.3-0.2,2.5-0.2,3.8-0.2
		C339.4,331,340.7,331,342,331z"/>
	<path id="path395" class="st10" d="M360.5,316.4c-3.2,1.9-6.5,3.5-10,4.8C353.7,319.3,357.1,317.7,360.5,316.4z"/>
	<path id="path397" class="st10" d="M361.8,307.1c1-2.8,2.4-5.5,4-8c-0.4,1.4-1,2.8-1.8,4.1C363.4,304.6,362.7,305.9,361.8,307.1z"
		/>
	<path id="path399" class="st10" d="M373.5,314.4c-0.6-1.5-1.1-3-1.5-4.5c-0.6-1.5-1-3-1.3-4.6C372.2,308.1,373.1,311.2,373.5,314.4
		z"/>
	<path id="path401" class="st10" d="M375.4,324.1c-1.4,0.8-2.9,1.3-4.4,1.6c-1.5,0.5-3.1,0.7-4.6,0.7c1.5-0.5,3-0.9,4.5-1.2
		C372.3,324.7,373.8,324.3,375.4,324.1z"/>
	<path id="path403" class="st10" d="M355.2,335.9c-0.1,0,0.3-2.5,0.4-5.5s-0.1-5.5,0.1-5.5c0.5,1.8,0.6,3.7,0.5,5.5
		C356.1,332.3,355.8,334.1,355.2,335.9z"/>
	<path id="path405" class="st10" d="M351.2,348.1c-2.7-2.1-4.9-4.8-6.5-7.8c0.1-0.1,1.5,1.8,3.2,3.9
		C349.1,345.4,350.2,346.7,351.2,348.1z"/>
	<path id="path407" class="st10" d="M371.4,345.5c-1.3,0.8-2.7,1.5-4.2,2c-1.4,0.7-2.9,1.2-4.4,1.5
		C365.6,347.5,368.4,346.3,371.4,345.5L371.4,345.5z"/>
	<path id="path409" class="st10" d="M364.2,368.4c-0.3-3.7-0.3-7.3,0.1-11C364.6,361.1,364.5,364.7,364.2,368.4z"/>
	<path id="path411" class="st10" d="M348.6,367.1c0.3-3.8,1.2-7.6,2.8-11.1c0.1,0-0.6,2.5-1.4,5.5S348.8,367.1,348.6,367.1z"/>
	<path id="path413" class="st10" d="M349.4,373.1c0,0.1-2.5,0.4-5.5,0.9s-5.5,1.1-5.5,0.9c1.7-0.7,3.6-1.2,5.4-1.4
		C345.6,373.1,347.5,372.9,349.4,373.1z"/>
	<path id="path415" class="st10" d="M332.2,369.2c0.9-1.3,1.9-2.4,3-3.5c1-1.2,2.1-2.2,3.3-3.1c-0.9,1.3-1.9,2.4-3,3.5
		C334.5,367.3,333.4,368.3,332.2,369.2z"/>
	<path id="path417" class="st10" d="M321.1,380c-0.5-1.3-1-2.6-1.4-3.9c-0.5-1.3-1-2.6-1.4-3.9C319.9,374.5,320.9,377.2,321.1,380z"
		/>
	<path id="path419" class="st10" d="M339,386.2c-3.4-1.1-6.7-2.6-9.8-4.4c1.7,0.5,3.4,1.1,5,1.9C335.9,384.5,337.5,385.3,339,386.2z
		"/>
	<path id="path421" class="st10" d="M307.8,384.4c0.1-1.3,0.5-2.5,0.9-3.7c0.3-1.2,0.8-2.4,1.4-3.5c-0.1,1.3-0.5,2.5-0.9,3.7
		C308.9,382.1,308.4,383.3,307.8,384.4z"/>
	<path id="path423" class="st10" d="M328.4,387.9c0,0.1-2.9-0.3-6.4-0.5s-6.4,0-6.4-0.2c2.1-0.4,4.3-0.5,6.5-0.3
		C324.1,386.9,326.3,387.3,328.4,387.9z"/>
	<path id="path425" class="st9" d="M332.6,358.4c0-0.1,0-0.3,0-0.4c0-0.4,0.1-0.8,0.2-1.1c0.2-0.6,0.5-1.2,1.1-1.5
		c0.7-0.4,1.6-0.6,2.4-0.4l-0.2,0.1c1.1-3.8,2.8-9.4,4.6-15.7c1.6-5.9,2.8-11.3,3.5-15.2c0.4-1.9,0.7-3.5,0.9-4.6
		c0.1-0.6,0.2-1.1,0.4-1.7c0,0.6-0.1,1.2-0.2,1.7c-0.2,1.1-0.4,2.7-0.8,4.7c-0.9,5.2-2,10.3-3.4,15.3c-1.8,6.3-3.6,11.9-4.8,15.7
		v0.1h-0.1c-0.8-0.2-1.5-0.1-2.2,0.3c-0.5,0.3-0.9,0.8-1,1.3C332.6,357.9,332.7,358.4,332.6,358.4z"/>
	<path id="path427" class="st9" d="M355.1,372.3c-0.1,0-0.7-1.3-2-3.3c-3.3-5.3-8-9.5-13.6-12.4c-2.1-1.1-3.5-1.6-3.5-1.6
		c0.3,0.1,0.7,0.1,1,0.3c0.9,0.3,1.8,0.6,2.6,1c5.7,2.7,10.5,7,13.8,12.5c0.5,0.8,0.9,1.7,1.3,2.5C354.8,371.6,355,372,355.1,372.3z
		"/>
	<g id="g431" class="st22">
		<path id="path429" d="M336.5,354.2c3.6,0.1,7.1,0.7,10.5,1.9c3.6,1.3,6.9,3.9,8.2,7.5c0.4,0.8,0.4,1.8-0.2,2.6
			c-0.5,0.4-1.3,0.6-1.9,0.3c-0.6-0.3-1.2-0.6-1.7-1.1c-2.2-2-4.5-3.8-6.8-5.8s-5.6-4-8.5-4.5"/>
	</g>
	<path id="path433" class="st9" d="M329.3,347.9c-0.3,0.2-0.6,0.4-1,0.6c-1,0.5-2,0.9-3.1,1.2c-7.2,2-14.9,0-20.1-5.2
		c-0.8-0.8-1.5-1.6-2.1-2.5c-0.2-0.3-0.5-0.6-0.6-1c0.1-0.1,1,1.4,3,3.3c5.3,5,12.7,6.9,19.8,5.1
		C327.8,348.6,329.3,347.8,329.3,347.9z"/>
	<g id="g437" class="st22">
		<path id="path435" d="M302.9,341.6c1.7,3.7,3.7,7.4,6.9,9.8c1.8,1.5,4,2.5,6.3,2.6c3.3,0.1,6.2-2.2,8.8-4.4
			C316.5,351,307.2,347.2,302.9,341.6"/>
	</g>
	<path id="path439" class="st9" d="M339.9,292.6c-0.2,0,0-3.4-0.4-7.6s-1.2-7.5-1.1-7.6c0.3,0.7,0.6,1.4,0.7,2.1
		c0.4,1.8,0.7,3.6,0.9,5.4c0.2,1.8,0.2,3.6,0.1,5.4C340.1,291.1,340,291.9,339.9,292.6z"/>
	<path id="path441" class="st20" d="M221.2,426.4c0,0-10.9,2.4-20.6,0.9c-9.1-1.4-29.5,0-29.5,12c0,13.4,27.2,10.1,37.8,8
		s21.1-4,21.1-4L221.2,426.4z"/>
	<path id="path443" class="st9" d="M196.8,443.6c-0.6-1.5-1-3.1-1.3-4.6c-0.4-1.6-0.7-3.2-0.8-4.8c0.6,1.5,1,3.1,1.3,4.6
		C196.4,440.4,196.7,442,196.8,443.6z"/>
	<path id="path445" class="st9" d="M200.6,443.8c-0.8-3.1-1.2-6.4-1.3-9.6c0.5,1.6,0.8,3.2,0.9,4.8
		C200.5,440.5,200.6,442.1,200.6,443.8z"/>
	<path id="path447" class="st9" d="M204.1,442.4c-0.4-1.4-0.7-2.8-0.8-4.2c-0.3-1.4-0.3-2.8-0.2-4.2
		C203.8,436.7,204.1,439.5,204.1,442.4L204.1,442.4z"/>
	<path id="path449" class="st9" d="M209.8,441c-0.7-1.1-1.2-2.3-1.4-3.6c-0.4-1.2-0.5-2.5-0.4-3.8c0.4,1.2,0.7,2.4,0.9,3.7
		C209.2,438.5,209.5,439.7,209.8,441z"/>
	<path id="path451" class="st9" d="M211,436.1c0.5-0.1,0.9-0.1,1.4-0.1c1.3,0,2.6,0.3,3.8,0.8c0.4,0.2,0.8,0.4,1.2,0.6
		c0.4,0.3,0.7,0.8,0.7,1.3c-0.1,1.1-1,1.9-2.1,1.8c-0.1,0-0.2,0-0.3,0c-1.1-0.3-2.2-1-2.8-2c-2.3-3-2.5-7.1-0.4-10.3
		c0.2-0.2,0.5-0.4,0.8-0.5c0.3,0,0.7,0.1,0.9,0.3c0.4,0.4,0.6,0.9,0.7,1.5c0.1,0.9,0.1,1.8-0.1,2.7c-0.3,1.3-0.9,2.5-1.8,3.4
		c-0.2,0.3-0.5,0.5-0.8,0.7c-0.1,0.1-0.2,0.1-0.3,0.2c0,0,0.4-0.3,1-1c0.8-1,1.4-2.1,1.6-3.4c0.2-0.8,0.2-1.7,0.1-2.6
		c-0.1-0.4-0.2-0.9-0.6-1.2c-0.3-0.2-0.7-0.2-1,0.1c0,0,0,0.1-0.1,0.1c-1.9,3-1.7,6.8,0.4,9.6c0.6,0.9,1.5,1.6,2.5,1.9
		c0.8,0.2,1.7-0.3,1.9-1.1c0-0.1,0-0.1,0-0.2c0-0.4-0.2-0.8-0.6-1c-0.3-0.3-0.7-0.5-1.1-0.6c-1.2-0.5-2.4-0.8-3.7-0.9
		C211.5,436.1,211,436.1,211,436.1z"/>
	<path id="path453" class="st9" d="M229.1,441.5l-0.3,0.1l-0.8,0.2l-3.1,0.7c-2.7,0.6-6.7,1.5-11.7,2.4s-10.8,2-17.5,2.9
		c-3.5,0.6-7,0.7-10.5,0.5c-1.9-0.1-3.7-0.5-5.5-1c-0.9-0.3-1.8-0.7-2.6-1.2c-0.9-0.5-1.7-1.1-2.3-1.9l0,0c-0.4-0.3-0.7-0.7-0.9-1.1
		c-1-1.8-1.2-3.9-0.6-5.9c0.7-1.8,1.9-3.4,3.5-4.6c1.5-1.1,3.2-1.9,4.9-2.5c0.9-0.2,1.7-0.5,2.6-0.7s1.7-0.4,2.6-0.5
		c6.8-1.1,13-0.5,18.2-0.5c2.6,0,4.9,0,6.9-0.1c1.7-0.1,3.5-0.3,5.2-0.7l1.9-0.4l1.4-0.4l0.8-0.2c0.1,0,0.2-0.1,0.3-0.1
		c0,0-0.1,0-0.3,0.1l-0.8,0.3l-1.3,0.4l-1.9,0.5c-1.7,0.3-3.5,0.6-5.2,0.8c-2.1,0.1-4.4,0.2-7,0.2c-5.2,0-11.4-0.5-18.1,0.6
		c-0.8,0.1-1.7,0.4-2.5,0.5s-1.7,0.5-2.5,0.7c-1.7,0.5-3.3,1.3-4.8,2.4s-2.7,2.6-3.3,4.3c-0.6,1.8-0.4,3.8,0.5,5.4
		c0.2,0.4,0.5,0.7,0.9,1l0,0l0,0c0.6,0.7,1.3,1.3,2.1,1.7c0.8,0.5,1.7,0.8,2.5,1.1c1.7,0.6,3.5,0.9,5.4,1c3.5,0.2,7,0.1,10.4-0.5
		c6.6-0.9,12.5-1.9,17.4-2.8s8.9-1.7,11.7-2.2l3.2-0.6l0.8-0.1C228.8,441.4,228.9,441.4,229.1,441.5z"/>
	<path id="path455" class="st9" d="M189.3,448c-0.2-0.9-0.3-1.8-0.3-2.8c-0.1-1.7-0.3-4.1-0.7-6.7s-0.8-4.9-1.1-6.6
		c-0.2-0.9-0.4-1.8-0.5-2.8c0.4,0.9,0.7,1.8,0.8,2.7c0.5,2.2,1,4.4,1.3,6.6s0.5,4.5,0.5,6.7C189.5,446.1,189.4,447.1,189.3,448z"/>
	<polygon id="polygon457" class="st23" points="217.9,427 224.8,444.3 230.1,443.3 219.9,426.4 	"/>
	<path id="path459" class="st9" d="M307.6,379.7c-1.1,0.4-72.3-19.6-101.1-27.7c-7.6-2.1-15.7-0.9-22.3,3.4l-0.4,0.2
		c-9.7,6.3-14.4,17.9-11.8,29.1l0,0c1.7,7.1,6.1,13.3,12.3,17.1c19,11.6,59.1,36.1,60.4,35.6c1.6-0.6,51.8-1.9,51.8-1.9l-60.4-43.4
		l28.7,18.6L307.6,379.7L307.6,379.7z"/>
	<path id="path461" class="st17" d="M248.2,358.1l15.1-7.8l14.8,9.3l55.5,1.8l8,27l-80.4-18.6c0,0-14.6,1.3-15.7-2
		S248.2,358.1,248.2,358.1z"/>
	<path id="path463" class="st9" d="M293.7,401.4l-7.5,24.6l0.9,7.5l0,0c13.6,13.7,35.3,15.2,50.7,3.4l0,0c9.3-7.2,14.8-18.3,14.7-30
		l-0.1-25.7L293.7,401.4z"/>
	<path id="path465" class="st19" d="M249.2,401.6c-0.1,0.1-8.8-6.2-19.4-14.1s-19.2-14.4-19.1-14.5s8.8,6.2,19.4,14.1
		S249.3,401.5,249.2,401.6z"/>
	<path id="path467" class="st18" d="M262.3,355.1c-2.4,1-4.9,1.9-7.4,2.6c-2.5,0.9-5,1.6-7.6,2.1c2.4-1,4.9-1.9,7.4-2.6
		C257.3,356.4,259.8,355.7,262.3,355.1z"/>
	<path id="path469" class="st18" d="M263.5,359.8c-0.8,0.2-1.7,0.4-2.6,0.5c-1.6,0.3-3.8,0.6-6.2,1.2s-4.5,1.2-6.1,1.6
		c-0.8,0.3-1.7,0.5-2.5,0.7c0.8-0.4,1.6-0.8,2.4-1c2-0.7,4-1.3,6.1-1.8c2.1-0.5,4.1-0.8,6.2-1.1
		C261.7,359.8,262.6,359.7,263.5,359.8z"/>
	<path id="path471" class="st18" d="M262.2,364c-2.7,0.8-5.5,1.5-8.3,1.9c-2.8,0.6-5.6,1.1-8.4,1.4c2.7-0.8,5.5-1.4,8.3-1.9
		C256.5,364.8,259.4,364.3,262.2,364z"/>
	<path id="path473" class="st19" d="M242.6,321.8l13.9,45.9c0.2,0.5,0.6,0.9,1.2,0.9l38,2.9c0.7,0,1.2,0.6,1.2,1.3v2.4
		c0,0.7-0.6,1.3-1.3,1.3l0,0l-104-2c-0.5,0-1-0.4-1.2-0.9l-18.3-47.9c-0.3-0.7,0.1-1.5,0.8-1.7c0.1-0.1,0.3-0.1,0.4-0.1l67.9-3.2
		C241.8,320.8,242.4,321.2,242.6,321.8z"/>
	<path id="path475" class="st2" d="M213.3,341.6c-1,0.4-1.8,1.3-2.1,2.3c-0.1,1.1,0.4,2.2,1.4,2.9c1.1,0.8,2.6,0.9,3.8,0.1
		c1.2-0.9,1.6-2.5,1-3.8C216.9,341.8,214.6,340.9,213.3,341.6"/>
	<path id="path477" class="st9" d="M230.1,443.3l-11-18.1l80.8-63.3c5-4.1,11.2-6.6,17.6-7.2l0,0c17.9-1.6,33.7,11.5,35.3,29.4
		c0.2,1.9,0.2,3.7,0,5.6l-1.3,15.5L298,422.4L230.1,443.3z"/>
	<path id="path479" class="st19" d="M333.7,400.4c0,0-0.1,0.1-0.2,0.2l-0.7,0.5l-2.6,2.1l-1.9,1.5c-0.7,0.5-1.5,1-2.3,1.6l-2.7,1.8
		c-0.5,0.3-1,0.7-1.5,1l-1.6,1c-2.2,1.3-4.6,2.8-7.2,4.2c-1.3,0.7-2.7,1.5-4.1,2.2l-4.5,2.1c-6.7,3.1-13.5,5.8-20.4,8.1
		c-14.8,5.1-28.4,8.8-38.2,11.7c-2.4,0.7-4.7,1.4-6.6,2s-3.6,1.1-5,1.6l-3.1,1l-0.8,0.2c-0.1,0-0.2,0.1-0.3,0.1l0.3-0.1l0.8-0.3
		l3.1-1.1c1.3-0.5,3-1,4.9-1.7s4.1-1.3,6.6-2.1c9.8-3.1,23.4-6.8,38.1-11.9c7.4-2.5,14.2-5.3,20.4-8.1l4.5-2.1
		c1.4-0.7,2.8-1.5,4.1-2.1c2.7-1.3,5.1-2.8,7.3-4.1l1.6-1c0.5-0.3,1-0.7,1.5-1l2.8-1.8c0.8-0.6,1.6-1.1,2.3-1.6l1.9-1.4l2.6-2
		l0.7-0.5L333.7,400.4z"/>
	<path id="path481" class="st19" d="M335.7,408.8c-0.2,0.2-0.5,0.3-0.8,0.4c-0.5,0.2-1.3,0.6-2.3,0.9c-2.6,1-5.2,1.7-7.9,2.3
		c-2.7,0.6-5.4,1-8.2,1.2c-1,0.1-1.9,0.1-2.5,0.1c-0.3,0-0.6,0-0.9,0c1.1-0.2,2.3-0.3,3.4-0.4c2.1-0.2,5-0.6,8.1-1.3
		s5.9-1.5,7.9-2.1C333.5,409.4,334.6,409.1,335.7,408.8z"/>
	<path id="path483" class="st19" d="M296.7,364.9c0.1,0.1-17.2,13.7-38.6,30.4s-38.9,30.1-38.9,29.9s17.2-13.7,38.6-30.4
		S296.6,364.8,296.7,364.9z"/>
	<path id="path485" class="st20" d="M292,432.1c-3.9-2.1-8.2-0.8-11.9,0.4c-2.5,0.8-5,2.1-7.5,1.4c-1.8-0.5-3.2-2-4.5-3.2
		c-5.7-5.2-13.2-7.9-20.9-7.5c-2.2,0.1-4.2,1-5.7,2.6c-3.8,4.1-0.9,9.5,2.5,13c6.1,6.2,14.1,10.1,22.7,11c7.1,0.7,16.8-0.2,24-3.3
		c4.4-1.9,6.7-7.1,4.4-11.4C294.3,433.9,293.3,432.8,292,432.1z"/>
	<g id="g489" class="st16">
		<path id="path487" d="M292,435.4c-3.9-2.1-8.2-0.8-11.9,0.4c-2.5,0.8-5,2.1-7.5,1.4c-1.8-0.5-3.2-2-4.5-3.2
			c-5.7-5.2-13.2-7.9-20.9-7.5c-2.2,0.1-4.2,1-5.7,2.6c-0.8,0.8-1.3,1.8-1.6,2.9c0.7,2.6,2.1,4.9,4.1,6.8c6.1,6.2,14.1,10.1,22.7,11
			c7.1,0.7,16.8-0.2,24-3.3c2.6-1.1,4.5-3.4,5.1-6.1C295.2,438.3,293.8,436.5,292,435.4L292,435.4z"/>
	</g>
	<path id="path491" class="st9" d="M295.7,440.3c-0.2-0.8-0.5-1.6-1-2.3c-0.6-0.8-1.3-1.5-2.1-2c-1.1-0.7-2.3-1.2-3.6-1.4
		c-2.9-0.3-6.2,0.9-9.9,1.9c-1.8,0.5-3.8,1.2-6,1c-1.1-0.1-2.2-0.5-3.1-1.1s-1.8-1.3-2.7-2c-3-2.9-6.6-5-10.6-6.3
		c-1.7-0.6-3.5-1-5.3-1.2c-1.6-0.2-3.1-0.2-4.7,0c-1.3,0.2-2.5,0.6-3.6,1.3c-0.8,0.5-1.6,1.1-2.2,1.8c-1,1.2-1.4,2.1-1.4,2.1
		c0.3-0.8,0.7-1.5,1.3-2.2c0.6-0.8,1.4-1.5,2.2-2c1.1-0.7,2.4-1.2,3.7-1.4c1.6-0.2,3.2-0.2,4.8,0c1.8,0.2,3.6,0.6,5.4,1.2
		c1.9,0.6,3.8,1.5,5.6,2.5c0.9,0.5,1.8,1.1,2.7,1.8c0.9,0.7,1.7,1.4,2.5,2.1s1.7,1.4,2.6,2c0.9,0.5,1.9,0.9,2.9,1
		c2,0.3,4-0.4,5.8-0.9c3.7-1,7.1-2.2,10.1-1.8c2.4,0.3,4.4,1.7,5.8,3.6c0.3,0.5,0.6,1.1,0.7,1.8
		C295.7,439.9,295.7,440.1,295.7,440.3z"/>
	<path id="path493" class="st9" d="M295.7,440.3c-0.2-0.8-0.5-1.6-1-2.3c-0.6-0.8-1.3-1.5-2.1-2c-1.1-0.7-2.3-1.2-3.6-1.4
		c-2.9-0.3-6.2,0.9-9.9,1.9c-1.8,0.5-3.8,1.2-6,1c-1.1-0.1-2.2-0.5-3.1-1.1s-1.8-1.3-2.7-2c-3-2.9-6.6-5-10.6-6.3
		c-1.7-0.6-3.5-1-5.3-1.2c-1.6-0.2-3.1-0.2-4.7,0c-1.3,0.2-2.5,0.6-3.6,1.3c-0.8,0.5-1.6,1.1-2.2,1.8c-1,1.2-1.4,2.1-1.4,2.1
		c0.3-0.8,0.7-1.5,1.3-2.2c0.6-0.8,1.4-1.5,2.2-2c1.1-0.7,2.4-1.2,3.7-1.4c1.6-0.2,3.2-0.2,4.8,0c1.8,0.2,3.6,0.6,5.4,1.2
		c1.9,0.6,3.8,1.5,5.6,2.5c0.9,0.5,1.8,1.1,2.7,1.8c0.9,0.7,1.7,1.4,2.5,2.1s1.7,1.4,2.6,2c0.9,0.5,1.9,0.9,2.9,1
		c2,0.3,4-0.4,5.8-0.9c3.7-1,7.1-2.2,10.1-1.8c2.4,0.3,4.4,1.7,5.8,3.6c0.3,0.5,0.6,1.1,0.7,1.8
		C295.7,439.9,295.7,440.1,295.7,440.3z"/>
	<path id="path495" class="st9" d="M247.6,439.4c0.6-0.5,1.3-1,2-1.4c1.7-1,3.4-1.9,5.1-2.7c1.8-0.8,3.6-1.6,5.4-2.2
		c0.7-0.3,1.5-0.5,2.3-0.6c-0.7,0.4-1.4,0.7-2.2,1c-1.4,0.6-3.2,1.4-5.3,2.3s-3.9,1.9-5.2,2.6C249.1,438.8,248.4,439.1,247.6,439.4z
		"/>
	<path id="path497" class="st9" d="M249,443.3c2.4-1.5,5-2.8,7.6-4c2.5-1.3,5.1-2.5,7.8-3.5c-2.4,1.5-5,2.8-7.6,4
		C254.3,441.1,251.7,442.3,249,443.3z"/>
	<path id="path499" class="st9" d="M265,444.9c-0.1,0.1-4.2-2.3-9.2-5.5s-9-5.8-9-6s4.2,2.3,9.2,5.5
		C261,442.2,265.1,444.8,265,444.9z"/>
	<path id="path501" class="st9" d="M267.3,440.9c-0.7-0.4-1.4-0.8-2-1.4c-1.2-0.9-2.9-2.1-4.8-3.4s-3.6-2.5-4.8-3.3
		c-0.7-0.4-1.4-0.9-2-1.4c0.8,0.3,1.5,0.7,2.2,1.1c1.3,0.8,3.1,1.9,5,3.2s3.5,2.6,4.7,3.5C266.2,439.8,266.8,440.3,267.3,440.9z"/>
</g>
</svg>
