<svg xmlns="http://www.w3.org/2000/svg" viewBox="0 0 500 500"><g id="freepik--background-complete--inject-63"><rect y="382.4" width="500" height="0.25" style="fill:#ebebeb"></rect><rect x="324.56" y="389.21" width="33.12" height="0.25" style="fill:#ebebeb"></rect><rect x="428.57" y="391.4" width="8.69" height="0.25" style="fill:#ebebeb"></rect><rect x="358.68" y="398.49" width="19.19" height="0.25" style="fill:#ebebeb"></rect><rect x="206.81" y="395.11" width="43.19" height="0.25" style="fill:#ebebeb"></rect><rect x="191.57" y="395.11" width="6.33" height="0.25" style="fill:#ebebeb"></rect><rect x="77.31" y="390.89" width="93.68" height="0.25" style="fill:#ebebeb"></rect><path d="M237,337.8H43.91a5.71,5.71,0,0,1-5.7-5.71V60.66A5.71,5.71,0,0,1,43.91,55H237a5.71,5.71,0,0,1,5.71,5.71V332.09A5.71,5.71,0,0,1,237,337.8ZM43.91,55.2a5.46,5.46,0,0,0-5.45,5.46V332.09a5.46,5.46,0,0,0,5.45,5.46H237a5.47,5.47,0,0,0,5.46-5.46V60.66A5.47,5.47,0,0,0,237,55.2Z" style="fill:#ebebeb"></path><path d="M453.31,337.8H260.21a5.72,5.72,0,0,1-5.71-5.71V60.66A5.72,5.72,0,0,1,260.21,55h193.1A5.71,5.71,0,0,1,459,60.66V332.09A5.71,5.71,0,0,1,453.31,337.8ZM260.21,55.2a5.47,5.47,0,0,0-5.46,5.46V332.09a5.47,5.47,0,0,0,5.46,5.46h193.1a5.47,5.47,0,0,0,5.46-5.46V60.66a5.47,5.47,0,0,0-5.46-5.46Z" style="fill:#ebebeb"></path><rect x="60.57" y="287.86" width="36.07" height="3.31" style="fill:#ebebeb"></rect><path d="M79.1,277.67h0a3.29,3.29,0,0,1-2.55-3.9L79.84,258a3.29,3.29,0,0,1,3.9-2.55h0a3.3,3.3,0,0,1,2.55,3.9L83,275.12A3.3,3.3,0,0,1,79.1,277.67Z" style="fill:#f0f0f0"></path><path d="M77.12,277.33h0A2.82,2.82,0,0,1,73.91,275l-2.06-13.61a2.83,2.83,0,0,1,2.37-3.21h0a2.83,2.83,0,0,1,3.21,2.37l2,13.61A2.81,2.81,0,0,1,77.12,277.33Z" style="fill:#f0f0f0"></path><polygon points="84.73 287.86 72.47 287.86 69.92 273.26 87.28 273.26 84.73 287.86" style="fill:#e6e6e6"></polygon><rect x="68.98" y="271.18" width="19.23" height="4.17" style="fill:#e0e0e0"></rect><polygon points="100.75 382.4 92.58 291.17 86.14 291.17 98.31 382.4 100.75 382.4" style="fill:#f5f5f5"></polygon><polygon points="56.45 382.4 64.61 291.17 71.06 291.17 58.89 382.4 56.45 382.4" style="fill:#f5f5f5"></polygon><polygon points="74.33 382.4 76.65 291.17 83.09 291.17 76.78 382.4 74.33 382.4" style="fill:#f5f5f5"></polygon><rect x="412.05" y="287.86" width="36.07" height="3.31" transform="translate(860.17 579.03) rotate(180)" style="fill:#ebebeb"></rect><path d="M429.59,277.67h0a3.3,3.3,0,0,0,2.55-3.9L428.85,258a3.29,3.29,0,0,0-3.9-2.55h0a3.3,3.3,0,0,0-2.56,3.9l3.29,15.75A3.31,3.31,0,0,0,429.59,277.67Z" style="fill:#f0f0f0"></path><path d="M431.57,277.33h0a2.83,2.83,0,0,0,3.21-2.37l2.06-13.61a2.83,2.83,0,0,0-2.37-3.21h0a2.82,2.82,0,0,0-3.21,2.37l-2.06,13.61A2.83,2.83,0,0,0,431.57,277.33Z" style="fill:#f0f0f0"></path><polygon points="423.96 287.86 436.21 287.86 438.77 273.26 421.4 273.26 423.96 287.86" style="fill:#e6e6e6"></polygon><rect x="420.47" y="271.18" width="19.23" height="4.17" transform="translate(860.17 546.53) rotate(180)" style="fill:#e0e0e0"></rect><polygon points="407.93 382.4 416.1 291.17 422.54 291.17 410.38 382.4 407.93 382.4" style="fill:#f5f5f5"></polygon><polygon points="452.24 382.4 444.07 291.17 437.63 291.17 449.79 382.4 452.24 382.4" style="fill:#f5f5f5"></polygon><polygon points="434.35 382.4 432.04 291.17 425.59 291.17 431.91 382.4 434.35 382.4" style="fill:#f5f5f5"></polygon><rect x="78.8" y="56.82" width="135.36" height="172.26" transform="translate(289.43 -3.53) rotate(90)" style="fill:#e6e6e6"></rect><rect x="80.77" y="56.82" width="135.36" height="172.26" transform="translate(291.4 -5.49) rotate(90)" style="fill:#f0f0f0"></rect><rect x="73.66" y="86.61" width="149.58" height="110.72" transform="translate(296.9 283.94) rotate(180)" style="fill:#fff"></rect><path d="M200.69,139.73l3.81-23.61a.6.6,0,0,0-.74-.74l-23.61,3.81c-11.88,1.92-23.1,13.15-25,25l-3.81,23.61a.6.6,0,0,0,.74.73l23.61-3.81C187.54,162.83,198.77,151.61,200.69,139.73Z" style="fill:#f0f0f0"></path><path d="M141.76,139.73l3.82-23.61a.61.61,0,0,0-.74-.74l-23.61,3.81c-11.88,1.92-23.1,13.15-25,25L92.4,167.83a.6.6,0,0,0,.73.73l23.61-3.81C128.62,162.83,139.85,151.61,141.76,139.73Z" style="fill:#f0f0f0"></path><path d="M171.23,139.73,175,116.12a.6.6,0,0,0-.74-.74l-23.61,3.81c-11.88,1.92-23.1,13.15-25,25l-3.81,23.61a.6.6,0,0,0,.73.73l23.61-3.81C158.08,162.83,169.31,151.61,171.23,139.73Z" style="fill:#e6e6e6"></path><rect x="286.64" y="109.08" width="98.81" height="203.11" style="fill:#e6e6e6"></rect><rect x="290.35" y="109.08" width="109.05" height="203.11" style="fill:#f0f0f0"></rect><rect x="260.99" y="173.78" width="167.77" height="73.7" transform="translate(555.51 -134.24) rotate(90)" style="fill:#fff"></rect><rect x="299.95" y="190.9" width="89.84" height="39.47" rx="7.04" transform="translate(555.51 -134.24) rotate(90)" style="fill:#f5f5f5"></rect></g><g id="freepik--Shadow--inject-63"><ellipse id="freepik--path--inject-63" cx="250" cy="416.24" rx="193.89" ry="11.32" style="fill:#f5f5f5"></ellipse></g><g id="freepik--Bulb--inject-63"><path d="M374.24,143a107,107,0,0,0-3-12.49l1-.29a111.11,111.11,0,0,1,3,12.61Z" style="fill:#407BFF;opacity:0.30000000000000004"></path><path d="M368.1,121.41a111.72,111.72,0,0,0-12.39-22.79l.82-.58A112.52,112.52,0,0,1,369,121Z" style="fill:#407BFF;opacity:0.30000000000000004"></path><path d="M371.64,181.32A107.83,107.83,0,0,0,283.16,55.79c-57.39-9.53-112.52,28.83-123.52,86a107.77,107.77,0,0,0,35.88,102.47,30.53,30.53,0,0,1,10,28.65l-1.28,7.08a20.45,20.45,0,0,0,16.49,23.75L258,310.42a20.45,20.45,0,0,0,23.75-16.49l1.28-7.09a30.67,30.67,0,0,1,19.55-23.39A107.81,107.81,0,0,0,371.64,181.32Z" style="fill:#407BFF;opacity:0.30000000000000004"></path><circle cx="229.51" cy="105.63" r="28.22" transform="translate(-2.42 5.43) rotate(-1.35)" style="fill:#fff"></circle><circle cx="276.05" cy="92.23" r="10.37" transform="translate(-14.87 83.46) rotate(-16.75)" style="fill:#fff"></circle></g><g id="freepik--character-1--inject-63"><path d="M149.6,154.3c-.45,2.15-.95,4.54-1.39,6.8s-.84,4.58-1.19,6.83-.6,4.46-.71,6.5c-.06,1,0,2,0,2.82s.18,1.49.14,1.57L146,178c-.21-.2-.58-.39-.65-.3s.18.24.62.36a12.63,12.63,0,0,0,4,.18,44.8,44.8,0,0,0,5-.69c1.7-.3,3.52-.74,5.17-1.08l.3-.06a3.63,3.63,0,0,1,3,6.42,40.41,40.41,0,0,1-5.21,3.4,37.3,37.3,0,0,1-5.83,2.6,22,22,0,0,1-7.27,1.28,13.64,13.64,0,0,1-4.86-.93,11.23,11.23,0,0,1-5-3.86,5.08,5.08,0,0,1-.35-.59l-.11-.2A19.57,19.57,0,0,1,133,179a33.2,33.2,0,0,1-.44-4.56,61.49,61.49,0,0,1,.29-8.23c.24-2.65.63-5.23,1.07-7.78s1-5,1.7-7.65a7.21,7.21,0,0,1,14,3.34Z" style="fill:#407BFF"></path><path d="M149.6,154.3c-.45,2.15-.95,4.54-1.39,6.8s-.84,4.58-1.19,6.83-.6,4.46-.71,6.5c-.06,1,0,2,0,2.82s.18,1.49.14,1.57L146,178c-.21-.2-.58-.39-.65-.3s.18.24.62.36a12.63,12.63,0,0,0,4,.18,44.8,44.8,0,0,0,5-.69c1.7-.3,3.52-.74,5.17-1.08l.3-.06a3.63,3.63,0,0,1,3,6.42,40.41,40.41,0,0,1-5.21,3.4,37.3,37.3,0,0,1-5.83,2.6,22,22,0,0,1-7.27,1.28,13.64,13.64,0,0,1-4.86-.93,11.23,11.23,0,0,1-5-3.86,5.08,5.08,0,0,1-.35-.59l-.11-.2A19.57,19.57,0,0,1,133,179a33.2,33.2,0,0,1-.44-4.56,61.49,61.49,0,0,1,.29-8.23c.24-2.65.63-5.23,1.07-7.78s1-5,1.7-7.65a7.21,7.21,0,0,1,14,3.34Z" style="opacity:0.2"></path><path d="M127.21,331s-4.58-5.57-4.36-7.43l-5.29-3L114.1,326l4.32,2.45.82-.21.5,1a25.45,25.45,0,0,0,7.17,3.14A1.33,1.33,0,0,0,127.21,331Z" style="fill:#407BFF"></path><path d="M132.63,261c3.94-28.22,2.66-45.37,6.79-59.28l25.63-2.06S153.69,244.38,148.48,263s-25.19,61.26-25.19,61.26l-7-4S125.69,282.78,132.63,261Z" style="fill:#263238"></path><path d="M153.53,220.48c-1.74,4-5.14,29.91-5.13,42.84,0-.1,0-.2.08-.3,1.83-6.55,4.42-16.33,7-26.27Z"></path><path d="M173.79,330.56S163,329,162.22,327.28h-6.74l.32,6.43h3.75l.61-.59.92.59c3,0,11.68-.84,13.41-2A1.36,1.36,0,0,0,173.79,330.56Z" style="fill:#407BFF"></path><path d="M155.34,261.74c-5.63-38.24-5.63-61.91-5.63-61.91l25.08-.41s-3,45.61-4.06,64.71c-1.09,19.86-7.29,63.57-7.29,63.57H154.7S152.7,286.3,155.34,261.74Z" style="fill:#263238"></path><path d="M151.83,127.87c-1.16,5-2,11.53-3.49,15.25,2.53,2.35,6.63,5.27,12.1,5.19s4.47-3.77,3-5.68c-3.92-2-4.07-4-3.11-5.73Z" style="fill:#7f3e3b"></path><path d="M143.25,144.35a39,39,0,0,1,4.69-3.61c1.38-.69,12-.46,14.43,0s5.46,4.12,5.46,4.12Z" style="fill:#fff"></path><path d="M169.1,127.24c-.12.49.06,1,.38,1s.68-.27.79-.77-.06-.95-.39-1S169.21,126.75,169.1,127.24Z" style="fill:#263238"></path><path d="M168.91,127.93a18,18,0,0,0,1.42,4.73,3,3,0,0,1-2.47-.07Z" style="fill:#630f0f"></path><path d="M170.81,124.4a.31.31,0,0,1-.28,0,2.31,2.31,0,0,0-2.14.08.3.3,0,0,1-.33-.5,2.91,2.91,0,0,1,2.7-.13.31.31,0,0,1,.16.4A.47.47,0,0,1,170.81,124.4Z" style="fill:#263238"></path><path d="M152.7,122.21c-1,6.15-1.88,9.7.5,13.47,3.57,5.68,11.7,4.52,14.51-1.22,2.53-5.17,3.73-14.35-1.69-18.05A8.58,8.58,0,0,0,152.7,122.21Z" style="fill:#7f3e3b"></path><path d="M162.76,131.17c-6.61,4.05-10.56,3.11-12.2.7-2.69-3.94,0-6.15,0-6.15-3.19.11-4.09-5.39-1.87-7.28-2-2-.67-6.66,2.74-5.94-.28-3.44,5.09-6.83,10.26-3.22,4.24-2.22,10.13-.56,11.57,3.33s-.72,5.56-.72,5.56c1.28,1.39-1,5.59-5.06,5.43-.72,2.18-1,3.9-3.61,4C163.26,130.44,163.93,130.17,162.76,131.17Z" style="fill:#263238"></path><path d="M161.17,127.23a5.19,5.19,0,0,0,.38,3.83c.81,1.46,2.4.79,3.16-.79.69-1.42,1.11-3.9-.18-4.8S161.62,125.59,161.17,127.23Z" style="fill:#7f3e3b"></path><path d="M143.6,143.66a110.87,110.87,0,0,1,28.47.44,9.06,9.06,0,0,1,7.44,8.21c1,12.17-1.7,33.44-4,54.86-18.77,6.3-37.83-.09-37.83-.09-.42-4.32,1.91-18.47,3.36-26-1.06-7.8-3.77-16.74-5.3-27.1A9.07,9.07,0,0,1,143.6,143.66Z" style="fill:#407BFF"></path><path d="M169.1,160.7c1.27,7.33,5.33,16.06,9,21.84.51-5.06.94-9.89,1.21-14.33Z" style="opacity:0.2"></path><path d="M216.84,168.31l-1.86-.72a2.32,2.32,0,0,0-2.11.23l-2.93,1.93a4.32,4.32,0,0,0-1.94,3.46l0,.87c3,1.4,7.28.7,7.28.7l1.24-.06a1.94,1.94,0,0,0,1.89-2l-.09-2.46A2.23,2.23,0,0,0,216.84,168.31Z" style="fill:#7f3e3b"></path><path d="M178.39,149.27c1,2,2,4.17,3.06,6.23s2.13,4.14,3.22,6.13,2.26,3.9,3.42,5.59c.58.84,1.18,1.6,1.71,2.23s1,1.08,1.07,1.16l-.85-.35a6.73,6.73,0,0,0,2.92.61,29.66,29.66,0,0,0,4.57-.26c1.64-.2,3.32-.5,5-.84s3.49-.75,5.14-1.08l.28-.06a3.63,3.63,0,0,1,3,6.42,42,42,0,0,1-5,3.36,43.87,43.87,0,0,1-5.51,2.67A31.64,31.64,0,0,1,194,182.9a18.38,18.38,0,0,1-8.08-.26,3.27,3.27,0,0,1-.55-.2l-.3-.15a19.22,19.22,0,0,1-4.78-3.31,31.91,31.91,0,0,1-3.13-3.34,60.68,60.68,0,0,1-4.8-6.69c-1.43-2.24-2.7-4.52-3.9-6.81s-2.29-4.57-3.33-7.1a7.21,7.21,0,0,1,13.15-5.92Z" style="fill:#407BFF"></path><rect x="99.32" y="333.71" width="85.83" height="7.04" style="fill:#263238"></rect><rect x="89.32" y="371.68" width="85.83" height="7.04" style="fill:#263238"></rect><rect x="79.32" y="409.65" width="85.83" height="7.04" style="fill:#263238"></rect><rect x="183.21" y="333.71" width="1.94" height="82.98" style="fill:#263238"></rect><polygon points="160.43 416.69 162.37 416.69 181.31 333.71 179.36 333.71 160.43 416.69" style="fill:#263238"></polygon><rect x="109.74" y="333.71" width="1.94" height="82.98" style="fill:#263238"></rect><polygon points="86.96 416.69 88.9 416.69 107.84 333.71 105.89 333.71 86.96 416.69" style="fill:#263238"></polygon></g><g id="freepik--character-2--inject-63"><path d="M291.4,317.67c-8.78-1-12.48,6.78-6.13,10.6s-11,15.48-2.73,21.65,18.33,19.35,24.08,6.88-9.83-19-2.83-25.06S301.35,308.17,291.4,317.67Z" style="fill:#e0e0e0"></path><path d="M306.62,357.05a.24.24,0,0,1-.21-.12.26.26,0,0,1,.09-.35c1.95-1.14,3.08-2.45,3.44-4,.69-3-1.58-6.38-3.77-9.69-2.66-4-5.41-8.18-2.26-11.21,1.93-1.86,2.54-4.79,1.68-8.06-1-3.88-3.8-7-6.9-7.82-2.56-.65-5.16.32-7.51,2.81a.25.25,0,0,1-.35,0,.25.25,0,0,1,0-.36c3.13-3.31,6.08-3.43,8-2.94,3.28.83,6.19,4.12,7.27,8.17.91,3.45.24,6.56-1.82,8.55-2.85,2.74-.33,6.55,2.33,10.57,2.25,3.4,4.57,6.91,3.83,10.09-.39,1.69-1.59,3.1-3.67,4.32A.31.31,0,0,1,306.62,357.05Z" style="fill:#e0e0e0"></path><path d="M272.23,384.6l18.21,3.34c1.65,9.52-2.49,21.76-18.86,21.76-19.92,0-38.89-3.82-36.07-13C238.92,385.71,272.23,384.6,272.23,384.6Z" style="fill:#263238"></path><path d="M272.23,384.6l18.21,3.34c1.65,9.52-2.49,21.76-18.86,21.76-19.92,0-38.89-3.82-36.07-13C238.92,385.71,272.23,384.6,272.23,384.6Z" style="opacity:0.2"></path><path d="M290.9,401c3.73,3.16,10.35,9.24,9.45,9.95-4.4,3.51-9.1-4.2-13.88-3C287.15,404.51,290.9,401,290.9,401Z" style="fill:#263238"></path><path d="M299.15,387.94c1.65,9.52-2.49,24.92-18.86,24.92-26.84,0-42.51.43-44.69-8.9s36.28-10.38,36.28-10.38a13.08,13.08,0,0,1-1.56-10.89C288.05,383,299.15,387.94,299.15,387.94Z" style="fill:#263238"></path><path d="M280.94,354.12c-1.07,2-2.19,3.68-3.38,5.46a62.57,62.57,0,0,1-3.89,5.07,45.42,45.42,0,0,1-4.61,4.71,29.3,29.3,0,0,1-2.73,2.14c-.48.34-1,.66-1.52,1l-.81.46a8.31,8.31,0,0,1-1.38.6,8.92,8.92,0,0,1-5.18,0,16.16,16.16,0,0,1-3.62-1.55,31.16,31.16,0,0,1-5.36-4.07,57.34,57.34,0,0,1-8.17-9.56,2.24,2.24,0,0,1,3.33-2.95l.07.07a100.63,100.63,0,0,0,9,7.21,27.94,27.94,0,0,0,4.57,2.65,7.73,7.73,0,0,0,2,.61c.55.08.82,0,.74-.06s-.08,0,0,0l.47-.33c.31-.24.63-.47.95-.74.62-.53,1.25-1.1,1.87-1.72a47.58,47.58,0,0,0,3.55-4.09c1.13-1.46,2.24-3,3.29-4.55s2.1-3.22,3-4.71l.07-.11a4.5,4.5,0,0,1,7.8,4.48Z" style="fill:#ffc3bd"></path><path d="M277.28,346.82c-5.93,1.18-10.69,11.28-10.69,11.28l9.25,10.42s4.91-6.9,5.85-10.1S280.68,346.14,277.28,346.82Z" style="fill:#407BFF"></path><path d="M235.18,355.47l.7-2.88a1.28,1.28,0,0,1,1.56-.94l2.08.52a4.05,4.05,0,0,1,2.08,1.28l3.37,3.89-1.66,2.72a12.36,12.36,0,0,1-4.34-1.53l-3.13-1.61A1.28,1.28,0,0,1,235.18,355.47Z" style="fill:#ffc3bd"></path><path d="M277.28,346.82c7.39-1.53,13.13-2.41,21.11,1a10.09,10.09,0,0,1,5.94,11c-1.77,10.45-4.91,19.66-5.18,29.15-18.43,7.62-29.13.82-28.83-5.25,4.35-11.39,1.24-24.37,2.8-30.72C273.92,348.73,274.84,347.33,277.28,346.82Z" style="fill:#407BFF"></path><path d="M292.37,333.5c-.7,3.58-1.57,10.87.93,13.25a88.16,88.16,0,0,0-10.43,9.08c-4-5.91-.7-9.12-.7-9.12,4-1,4.07-4.6,3.37-7.38Z" style="fill:#ffc3bd"></path><path d="M289.59,335.88l-4,3.45a12.5,12.5,0,0,1,.34,2c1.53-.22,3.92-1.52,4.25-3.17A4.71,4.71,0,0,0,289.59,335.88Z" style="opacity:0.2"></path><path d="M300.45,331.84c-3.25,5-4.52,7.23-8.65,8.42-6.22,1.8-11.69-3.3-10-9.19,1.52-5.31,6.58-12.64,12.84-11.85A8.17,8.17,0,0,1,300.45,331.84Z" style="fill:#ffc3bd"></path><path d="M292.07,328.7a1.9,1.9,0,0,1,1.39.72A3.83,3.83,0,0,1,292.07,328.7Z" style="opacity:0.2"></path><path d="M291.94,329.09a1.65,1.65,0,0,1,1.07,1A3.46,3.46,0,0,1,291.94,329.09Z" style="opacity:0.2"></path><path d="M289.81,321.58a12.55,12.55,0,0,1,3.88,2.45A23.3,23.3,0,0,1,289.81,321.58Z" style="opacity:0.2"></path><path d="M290.86,318.38c2.8,6.08,5.84,8.18,7.09,8.8-4.12,2-3.95,7.31.21,8.7s5.34-6.88,5.21-9.92S297.85,316.29,290.86,318.38Z" style="fill:#e0e0e0"></path><path d="M284.78,331.74a49.25,49.25,0,0,1,7.42,1.57c-1,1.14-2.48,1.9-5.24,1.15S284.78,331.74,284.78,331.74Z" style="fill:#fff"></path><path d="M291.36,328.55c-.23.43-.65.64-.93.49s-.31-.63-.07-1.05.66-.64.93-.49S291.6,328.13,291.36,328.55Z" style="fill:#263238"></path><path d="M286.57,325.86c-.24.42-.66.64-.93.48s-.31-.63-.07-1,.65-.64.93-.48S286.81,325.43,286.57,325.86Z" style="fill:#263238"></path><path d="M286.61,324.9l-.85-.87S285.83,325.12,286.61,324.9Z" style="fill:#263238"></path><path d="M287.62,327.45a13.25,13.25,0,0,1-3,1.86c.26.83,1.35,1.13,1.35,1.13Z" style="fill:#ed847e"></path><path d="M299.29,337a4.38,4.38,0,0,1-3.3.51c-1.49-.38-1.47-1.89-.42-2.9s2.86-1.8,4.05-.89A2,2,0,0,1,299.29,337Z" style="fill:#ffc3bd"></path><path d="M293.63,327.91a.29.29,0,0,1-.17-.29,3.4,3.4,0,0,0-1.16-2.45.28.28,0,0,1,0-.4.28.28,0,0,1,.4,0,3.87,3.87,0,0,1,1.36,2.94.28.28,0,0,1-.31.25Z" style="fill:#263238"></path><path d="M286.19,322.73a.29.29,0,0,1-.22-.18.28.28,0,0,1,.17-.37,2.81,2.81,0,0,1,2.59.23.29.29,0,0,1,.07.4.3.3,0,0,1-.4.06,2.26,2.26,0,0,0-2.06-.16A.26.26,0,0,1,286.19,322.73Z" style="fill:#263238"></path><path d="M291.4,327.59l-.85-.86S290.63,327.82,291.4,327.59Z" style="fill:#263238"></path><path d="M229.29,334.82a4.13,4.13,0,0,0-3.6,5.42c3.6,10.51,15.38,17.62,28.67,16.52s23.74-10.07,25.56-21a4.13,4.13,0,0,0-4.45-4.75Z" style="fill:#263238"></path><path d="M303,357.46c-1.08,2-2.19,3.67-3.38,5.44a60.1,60.1,0,0,1-3.88,5.06,45,45,0,0,1-4.58,4.7,30.28,30.28,0,0,1-2.71,2.13c-.48.34-1,.66-1.51,1l-.81.45-.64.33a7.3,7.3,0,0,1-.82.31,6.75,6.75,0,0,1-3.7.07,7.85,7.85,0,0,1-2.64-1.33,13.07,13.07,0,0,1-2.81-3.1,30.56,30.56,0,0,1-3-6,63,63,0,0,1-3.19-12.06,2.24,2.24,0,0,1,4.26-1.26l0,.07c1.53,3.55,3.2,7.15,5,10.42a27.63,27.63,0,0,0,2.91,4.39,5.22,5.22,0,0,0,1.32,1.2c.14.07.19,0,0,0a1.34,1.34,0,0,0-.75,0,1.3,1.3,0,0,0-.13,0s-.11.06,0,0l.48-.32c.31-.24.63-.48.94-.74.63-.54,1.25-1.11,1.87-1.73a47.33,47.33,0,0,0,3.54-4.08c1.12-1.46,2.22-3,3.27-4.53s2.09-3.22,3-4.7l.07-.11a4.5,4.5,0,0,1,7.81,4.48Z" style="fill:#ffc3bd"></path><path d="M299.48,349.5c-6,.05-10.83,11.93-10.83,11.93l9.24,10.43s4.92-6.9,5.86-10.1S304,349.47,299.48,349.5Z" style="fill:#407BFF"></path><path d="M266,349.15l2.1-2.29a1.33,1.33,0,0,1,1.9-.08l1.65,1.52a4.24,4.24,0,0,1,1.26,2.23l1.13,5.26-2.9,1.66a12.93,12.93,0,0,1-3.21-3.59l-2.06-3.05A1.36,1.36,0,0,1,266,349.15Z" style="fill:#ffc3bd"></path><path d="M297.39,338A1.36,1.36,0,1,1,296,336.6,1.35,1.35,0,0,1,297.39,338Z" style="fill:#fff"></path></g><g id="freepik--character-3--inject-63"><path d="M364.84,258.72c.58.82,1,1.5,1.46,2.26s.86,1.48,1.27,2.23c.81,1.5,1.54,3,2.23,4.6s1.31,3.14,1.86,4.76c.29.8.53,1.62.78,2.43l.35,1.23c.11.43.22.74.38,1.5a10.38,10.38,0,0,1,0,3.43,18.74,18.74,0,0,1-.69,2.84,32.25,32.25,0,0,1-2.14,4.88,52,52,0,0,1-5.71,8.38,1.79,1.79,0,0,1-3-1.93l0-.06c.68-1.4,1.39-2.85,2-4.29s1.25-2.88,1.76-4.32a32.67,32.67,0,0,0,1.26-4.25,7.65,7.65,0,0,0,.14-3.34l-.72-1.92c-.3-.71-.56-1.44-.87-2.15-.59-1.42-1.25-2.82-1.91-4.22s-1.4-2.75-2.15-4.1c-.36-.67-.74-1.34-1.13-2l-1.14-1.87-.1-.16a3.59,3.59,0,0,1,6-3.94Z" style="fill:#ce7a63"></path><path d="M363.39,303l1.48-1.16a2.2,2.2,0,0,0,.83-1.82l-.15-3.29a4.06,4.06,0,0,0-1.86-3.24l-.69-.44c-2.58,1.75-4.08,5.55-4.08,5.55l-.54,1a1.82,1.82,0,0,0,.7,2.49l2,1.11A2.1,2.1,0,0,0,363.39,303Z" style="fill:#ce7a63"></path><path d="M355.34,239.59c-1,3.67-2.22,10.4.17,12.86,0,0,1.83,3.44-9,2.89-7.59-.39-2.42-2.89-2.42-2.89,4.17-1,4.29-4,3.79-6.88Z" style="fill:#ce7a63"></path><path d="M371.31,393.28l7-2.59a122.87,122.87,0,0,0,2.82,13.71l-4.92,2.11S372.94,396.59,371.31,393.28Z" style="fill:#ce7a63"></path><path d="M375.07,414.64c3.76-2.75,3.45-2.62,5.52-4.24,1.77-1.39,2.35-1.47,3.78-2.57,1.2-.91.39-2.11-.87-3.24-.48-.44-1.08-.92-1.77-1.55a1.12,1.12,0,0,0-1.42-.07l-4.4,3.22a1.29,1.29,0,0,0-.53,1,7.87,7.87,0,0,1-2.57,5.65C371,414.64,373.57,415.74,375.07,414.64Z" style="fill:#263238"></path><path d="M340.88,291.41s7.4,38.1,13.13,55.85c6,18.65,14.83,39.4,18.82,51.55,1.24.16,4.78-1.32,6.51-2.79,0,0-2.64-31.86-11.66-48.31.91-48-8.22-56.3-8.22-56.3Z" style="fill:#407BFF"></path><path d="M354.62,305.7,347,320.24c1.74,7.64,3.68,15.55,5.52,22C358.07,326.77,354.62,305.7,354.62,305.7Z" style="opacity:0.2"></path><path d="M371.32,396.55a14.89,14.89,0,0,1,.5,2.53.49.49,0,0,0,.64.41,32.9,32.9,0,0,0,7.39-3.46.66.66,0,0,0,.31-.6l-.32-2.44a.5.5,0,0,0-.72-.36l-7.41,3.21A.63.63,0,0,0,371.32,396.55Z" style="fill:#263238"></path><path d="M371.32,396.55a14.89,14.89,0,0,1,.5,2.53.49.49,0,0,0,.64.41,32.9,32.9,0,0,0,7.39-3.46.66.66,0,0,0,.31-.6l-.32-2.44a.5.5,0,0,0-.72-.36l-7.41,3.21A.63.63,0,0,0,371.32,396.55Z" style="fill:#fff;opacity:0.1"></path><path d="M334.73,396.55l6.74.49c-1.1,5.38-2.26,13.88-2.26,13.88h-5.36S334.81,400.23,334.73,396.55Z" style="fill:#ce7a63"></path><path d="M328.19,416.24c4.65,0,4.32-.07,6.94-.16,2.24-.08,2.77.2,4.58.16,1.5,0,1.44-1.47,1-3.13-.18-.63-.43-1.38-.69-2.29a1.21,1.21,0,0,0-1.17-.9h-5.45a1.17,1.17,0,0,0-1,.52,7.17,7.17,0,0,1-5.19,3C324.69,413.82,326.33,416.24,328.19,416.24Z" style="fill:#263238"></path><path d="M335.14,291.41s-.85,33.2-1.6,53.88.86,57.21.86,57.21c.15,1,5.42.61,6.32,0,0,0,10.06-29.61,6.22-55.24,13.47-33.23,9.59-55,9.59-55Z" style="fill:#407BFF"></path><path d="M333.68,399.74c0,.68-.06,1.89-.12,2.79a.56.56,0,0,0,.49.6,38.07,38.07,0,0,0,7-.07.52.52,0,0,0,.46-.42l.47-2.45a.57.57,0,0,0-.54-.67l-7.19-.28A.5.5,0,0,0,333.68,399.74Z" style="fill:#263238"></path><path d="M333.68,399.74c0,.68-.06,1.89-.12,2.79a.56.56,0,0,0,.49.6,38.07,38.07,0,0,0,7-.07.52.52,0,0,0,.46-.42l.47-2.45a.57.57,0,0,0-.54-.67l-7.19-.28A.5.5,0,0,0,333.68,399.74Z" style="fill:#fff;opacity:0.1"></path><path d="M358.15,285.62a49.35,49.35,0,0,0,.72,5.79H335.39l-.25-6S353.24,284.41,358.15,285.62Z" style="fill:#ce7a63"></path><path d="M332.88,261.23a99.86,99.86,0,0,0,.16,10.83c.2,4.7-.7,5.85,0,13.56,2.57,1.5,19.51,1.44,27.83.37-.5-6.67-1.12-11.16,3.39-26.16a5.54,5.54,0,0,0-5-7.17c-1-.1-2.06-.18-3.14-.23a87,87,0,0,0-11.42,0c-1.25.11-2.53.26-3.76.42A9.13,9.13,0,0,0,332.88,261.23Z" style="fill:#263238"></path><path d="M304.46,246a24.73,24.73,0,0,1-2,11.16,2.5,2.5,0,0,0,.26,2.61c3.59,4.84,10.33,3.11,13,2.16a2.53,2.53,0,0,0,1.55-1.59c1.15-3.46,2.27-7.83,1.28-12.35a2.24,2.24,0,0,0-.45-1c-2.23-2.69-7.23-3-10.7-3.57A2.51,2.51,0,0,0,304.46,246Z" style="fill:#fff"></path><ellipse cx="317.29" cy="234.26" rx="4.09" ry="5.07" style="fill:#fff"></ellipse><path d="M300.66,248.68c-2,.41-2.21.74-2.54,3.16-.33-2.42-.6-2.75-2.54-3.16,1.94-.41,2.21-.74,2.54-3.15C298.45,247.94,298.71,248.27,300.66,248.68Z" style="fill:#fff"></path><path d="M314.18,246.84l1,1.57a2.16,2.16,0,0,1,.21,2l-1.2,3.08a4.07,4.07,0,0,1-2.8,2.47l-.79.2c-1.88-2.49-2.09-6.57-2.09-6.57l-.18-1.15a1.81,1.81,0,0,1,1.46-2.13l2.28-.4A2.1,2.1,0,0,1,314.18,246.84Z" style="fill:#ce7a63"></path><path d="M335.56,264c-.24.28-.34.37-.49.53l-.42.41q-.42.38-.84.72c-.56.45-1.12.86-1.69,1.26a28.81,28.81,0,0,1-3.57,2,31.17,31.17,0,0,1-3.73,1.49,37.2,37.2,0,0,1-3.82,1l-.21.05a3.78,3.78,0,0,1-.47.06,6.09,6.09,0,0,1-2.32-.41,6.38,6.38,0,0,1-1.73-1,9.8,9.8,0,0,1-2-2.32,20,20,0,0,1-2.08-4.53,36.87,36.87,0,0,1-1.15-4.45,41.62,41.62,0,0,1-.61-4.5,1.79,1.79,0,0,1,3.46-.78l0,.07c.49,1.27,1,2.61,1.54,3.88s1.11,2.53,1.73,3.7a17.15,17.15,0,0,0,2,3.09,3.62,3.62,0,0,0,.91.82c.25.12.18,0,0,0l-.68.11c1.05-.37,2.08-.76,3.09-1.19s2-.91,2.92-1.42a29.67,29.67,0,0,0,2.69-1.65c.43-.29.84-.59,1.22-.9.2-.15.37-.31.55-.46l.24-.21c.07,0,.18-.17.14-.12a3.6,3.6,0,1,1,5.39,4.76Z" style="fill:#ce7a63"></path><path d="M342,252.72c-4.72-.1-9.56,2.59-16.85,8.55-.15,3.24,5.46,8.63,5.46,8.63S348.29,260.15,342,252.72Z" style="fill:#263238"></path><path d="M343.38,232.76c-.17.48-.56.8-.87.71s-.42-.55-.25-1,.56-.8.87-.71S343.55,232.29,343.38,232.76Z" style="fill:#263238"></path><path d="M343.26,231.81l-1-.66S342.5,232.21,343.26,231.81Z" style="fill:#263238"></path><path d="M343,233.66a14.67,14.67,0,0,1-2.79,2.57,2,2,0,0,0,1.58.79Z" style="fill:#ba4d3c"></path><path d="M344.1,228.8a.26.26,0,0,1-.17-.12.3.3,0,0,1,.11-.4,3.14,3.14,0,0,1,2.74-.31.27.27,0,0,1,.12.38.32.32,0,0,1-.4.15,2.47,2.47,0,0,0-2.16.27A.34.34,0,0,1,344.1,228.8Z" style="fill:#263238"></path><path d="M359.77,235.47c-2.28,5.59-3.13,8-7,10.11-5.85,3.17-12.25-.45-11.69-6.51.5-5.45,4.14-13.68,10.53-14.37A7.73,7.73,0,0,1,359.77,235.47Z" style="fill:#ce7a63"></path><path d="M347.72,235.34c-3.3-4.88-.47-7.43.94-8.18-3.09-.89-5.34-1.74-5.09-4.59a4.81,4.81,0,0,1,6-3.9c-.73.6,2.47,4.55,5.12,3.3a8.1,8.1,0,0,1,9.82,3.45c2.16,3.88,1.5,11-4.14,14.17,2.11,3.26-4.79,7.76-9.68,6S343.72,236.92,347.72,235.34Z" style="fill:#263238"></path><path d="M368.11,224.25c1.27,3.58-.23,6.87-3.39,7.53-2.91.6-6.61-1.08-6.92-4.5-.27-2.94.81-6.39,3.39-7.52C364,218.53,366.87,220.73,368.11,224.25Z" style="fill:#fff"></path><path d="M378.81,222.84a8.84,8.84,0,0,1-9.76,9.77c-5.39-.38-11-4.52-9.77-9.77,1-4.53,4.69-9.21,9.77-9.77C374.56,212.46,378.45,217,378.81,222.84Z" style="fill:#263238"></path><path d="M349.11,235.64a4.14,4.14,0,0,1-2.73,1.94c-1.41.23-1.85-1.41-1.23-2.94.56-1.37,2-3.14,3.27-2.66S350,234.33,349.11,235.64Z" style="fill:#ce7a63"></path><path d="M359.51,252.72c4.09.63,5.74,1.87,9.08,10.1-1.52,3.07-8.63,6-8.63,6S355.25,258.17,359.51,252.72Z" style="fill:#263238"></path><path d="M335.09,293.21a113.49,113.49,0,0,0,25.26,0,.58.58,0,0,0,.43-.81c-.2-.48-.41-1-.61-1.45a.52.52,0,0,0-.54-.33,111.35,111.35,0,0,1-24.28,0,.54.54,0,0,0-.59.5l-.15,1.51A.57.57,0,0,0,335.09,293.21Z" style="fill:#263238"></path></g></svg>