<?xml version="1.0" encoding="UTF-8" standalone="no"?>
<svg
   viewBox="0 0 500 500"
   version="1.1"
   id="svg461"
   sodipodi:docname="Project Stages-pana.svg"
   inkscape:version="1.1 (c68e22c387, 2021-05-23)"
   xmlns:inkscape="http://www.inkscape.org/namespaces/inkscape"
   xmlns:sodipodi="http://sodipodi.sourceforge.net/DTD/sodipodi-0.dtd"
   xmlns="http://www.w3.org/2000/svg"
   xmlns:svg="http://www.w3.org/2000/svg">
  <defs
     id="defs465" />
  <sodipodi:namedview
     id="namedview463"
     pagecolor="#ffffff"
     bordercolor="#999999"
     borderopacity="1"
     inkscape:pageshadow="0"
     inkscape:pageopacity="0"
     inkscape:pagecheckerboard="0"
     showgrid="false"
     inkscape:zoom="1.1152608"
     inkscape:cx="271.237"
     inkscape:cy="240.75086"
     inkscape:window-width="1366"
     inkscape:window-height="697"
     inkscape:window-x="-8"
     inkscape:window-y="-8"
     inkscape:window-maximized="1"
     inkscape:current-layer="freepik--Audience--inject-40" />
  <g
     id="freepik--background-complete--inject-40">
    <path
       d="M183.17,133.27a26.8,26.8,0,0,0,1.32-3.94,16.31,16.31,0,0,0,.34-4.84A16.76,16.76,0,0,0,170.15,109a15.81,15.81,0,0,0-4.8.1,15.41,15.41,0,0,0-4.75,1.56,16.62,16.62,0,0,0-9,17.57,18.48,18.48,0,0,0,.58,2.47,20.2,20.2,0,0,0,1,2.3,15.71,15.71,0,0,0,2.73,4A16.79,16.79,0,0,0,177,139.77a16.45,16.45,0,0,0,3.72-3.12,25.41,25.41,0,0,0,2.42-3.38,1,1,0,0,1-.11.26l-.38.71a7.61,7.61,0,0,1-.69,1.12,13.64,13.64,0,0,1-1.09,1.43,16,16,0,0,1-3.72,3.23,17.07,17.07,0,0,1-13.94,2,17.09,17.09,0,0,1-7.71-4.74,16.21,16.21,0,0,1-2.82-4.05,15.61,15.61,0,0,1-1.59-4.91,17.1,17.1,0,0,1,9.25-18.11,19.43,19.43,0,0,1,2.41-1,20,20,0,0,1,2.49-.59,16.09,16.09,0,0,1,4.94-.09,17.18,17.18,0,0,1,8.36,3.47,17.13,17.13,0,0,1,6.55,12.47,15.72,15.72,0,0,1-.44,4.9,10.74,10.74,0,0,1-.52,1.72,7.49,7.49,0,0,1-.49,1.22l-.36.73C183.23,133.2,183.18,133.28,183.17,133.27Z"
       style="fill:#e0e0e0"
       id="path2" />
    <path
       d="M172.8,141.84c.14,0,1.82,4.78,3.77,10.77s3.4,10.89,3.26,10.93-1.82-4.78-3.76-10.77S172.67,141.89,172.8,141.84Z"
       style="fill:#e0e0e0"
       id="path4" />
    <path
       d="M362.83,58.77a2.91,2.91,0,0,1-.05-.38c0-.28,0-.65-.08-1.12,0-.25,0-.53-.05-.83s-.1-.63-.15-1A18.61,18.61,0,0,0,362,53a22.54,22.54,0,0,0-2.63-6.25,23.45,23.45,0,0,0-28.17-10,24.86,24.86,0,0,0-3.05,1.35A25.81,25.81,0,0,0,325.28,40a26.84,26.84,0,0,0-2.65,2.26,26.22,26.22,0,0,0-2.3,2.72A22.53,22.53,0,0,0,317,51.38a25,25,0,0,0-1.21,7.39A24.64,24.64,0,0,0,317,66.15a22.45,22.45,0,0,0,3.34,6.45,27.43,27.43,0,0,0,2.29,2.72,28.15,28.15,0,0,0,2.66,2.26,24.45,24.45,0,0,0,2.87,1.84,24.86,24.86,0,0,0,3.05,1.35,23.51,23.51,0,0,0,28.17-10A22.71,22.71,0,0,0,362,64.52a18.83,18.83,0,0,0,.5-2.43c.05-.36.12-.69.15-1s0-.58.05-.83c0-.47.06-.84.08-1.12a2.91,2.91,0,0,1,.05-.38,1.83,1.83,0,0,1,0,.38c0,.28,0,.65,0,1.13,0,.25,0,.53,0,.83s-.08.64-.13,1a17.27,17.27,0,0,1-.46,2.46,22.06,22.06,0,0,1-2.58,6.35,23.81,23.81,0,0,1-16,11.28,23.87,23.87,0,0,1-12.54-1,25.86,25.86,0,0,1-3.12-1.36,26.42,26.42,0,0,1-5.64-4.18,26.1,26.1,0,0,1-2.35-2.76,23.39,23.39,0,0,1-3.42-6.58,23.63,23.63,0,0,1,0-15.08A22.88,22.88,0,0,1,320,44.65a26,26,0,0,1,2.34-2.76,26.42,26.42,0,0,1,5.64-4.18,25.86,25.86,0,0,1,3.12-1.36,23.94,23.94,0,0,1,12.53-1,23.83,23.83,0,0,1,16,11.29A22,22,0,0,1,362.18,53a17.13,17.13,0,0,1,.46,2.47c.05.36.11.69.13,1s0,.58,0,.83l0,1.13A1.83,1.83,0,0,1,362.83,58.77Z"
       style="fill:#ebebeb"
       id="path6" />
    <path
       d="M355.87,58.77a26.75,26.75,0,0,0-.61-4.05,15.77,15.77,0,0,0-1.87-4.4,16.51,16.51,0,0,0-19.82-7,15.56,15.56,0,0,0-4.16,2.24,18.6,18.6,0,0,0-1.86,1.59,16.44,16.44,0,0,0-1.62,21.35,17.56,17.56,0,0,0,1.62,1.91A18.6,18.6,0,0,0,329.41,72a15.29,15.29,0,0,0,4.16,2.24,16.5,16.5,0,0,0,15.61-2.33,16.74,16.74,0,0,0,4.22-4.68,15.89,15.89,0,0,0,1.86-4.4,26.75,26.75,0,0,0,.61-4,1.1,1.1,0,0,1,0,.27c0,.21,0,.47,0,.8a7.29,7.29,0,0,1-.11,1.29,11,11,0,0,1-.32,1.74,15.49,15.49,0,0,1-1.81,4.49,16.8,16.8,0,0,1-11.33,8,17,17,0,0,1-8.88-.7,15.93,15.93,0,0,1-4.29-2.3,15.21,15.21,0,0,1-3.58-3.58,16.83,16.83,0,0,1,0-20,18.35,18.35,0,0,1,1.66-1.95,19.49,19.49,0,0,1,1.92-1.63,15.93,15.93,0,0,1,4.29-2.3,16.94,16.94,0,0,1,8.88-.7,16.86,16.86,0,0,1,11.33,8,15.49,15.49,0,0,1,1.81,4.49,12.82,12.82,0,0,1,.32,1.74,7.29,7.29,0,0,1,.11,1.29c0,.33,0,.59,0,.8A1.1,1.1,0,0,1,355.87,58.77Z"
       style="fill:#ebebeb"
       id="path8" />
    <path
       d="M338.93,46.59c-.13,0-.24-4.57-.24-10.19s.11-10.2.24-10.2.25,4.57.25,10.2S339.07,46.59,338.93,46.59Z"
       style="fill:#ebebeb"
       id="path10" />
    <path
       d="M338.93,88.71c-.13,0-.24-4.56-.24-10.19s.11-10.19.24-10.19.25,4.56.25,10.19S339.07,88.71,338.93,88.71Z"
       style="fill:#ebebeb"
       id="path12" />
    <path
       d="M330.37,58.77c0,.14-4.56.25-10.19.25S310,58.91,310,58.77s4.56-.24,10.19-.24S330.37,58.64,330.37,58.77Z"
       style="fill:#ebebeb"
       id="path14" />
    <path
       d="M367.88,58.77c0,.14-4.57.25-10.2.25s-10.19-.11-10.19-.25,4.56-.24,10.19-.24S367.88,58.64,367.88,58.77Z"
       style="fill:#ebebeb"
       id="path16" />
    <path
       d="M325.21,25.72a7.78,7.78,0,0,1-1.5.1l-4.08.08c-3.46,0-8.23.07-13.49.07h-.28l.24-.25c0,5.21,0,9.91-.07,13.31,0,1.63-.06,3-.08,4a9.8,9.8,0,0,1-.09,1.48,7.66,7.66,0,0,1-.1-1.48c0-1,0-2.39-.07-4-.05-3.4-.08-8.1-.08-13.31v-.24h.53c5.26,0,10,0,13.49.07l4.08.08A10,10,0,0,1,325.21,25.72Z"
       style="fill:#ebebeb"
       id="path18" />
    <path
       d="M306.13,68.84a7.9,7.9,0,0,1,.1,1.5c0,1,0,2.43.08,4.09,0,3.45.07,8.22.07,13.49v.28l-.25-.25c5.21,0,9.91,0,13.31.08l4,.07a7.66,7.66,0,0,1,1.48.1,9.8,9.8,0,0,1-1.48.09l-4,.08c-3.4,0-8.1.07-13.31.07h-.24v-.52c0-5.27,0-10,.07-13.49,0-1.66.06-3,.08-4.09A10.11,10.11,0,0,1,306.13,68.84Z"
       style="fill:#ebebeb"
       id="path20" />
    <path
       d="M350.29,88.2a7.78,7.78,0,0,1,1.5-.1l4.08-.08c3.46,0,8.23-.07,13.49-.07h.28l-.24.25c0-5.21,0-9.91.07-13.31,0-1.63.06-3,.08-4a9.8,9.8,0,0,1,.09-1.48,7.66,7.66,0,0,1,.1,1.48c0,1,0,2.39.07,4,.05,3.4.08,8.1.08,13.31v.24h-.53c-5.26,0-10,0-13.49-.07l-4.08-.08A10,10,0,0,1,350.29,88.2Z"
       style="fill:#ebebeb"
       id="path22" />
    <path
       d="M369.37,45.08a7.9,7.9,0,0,1-.1-1.5c0-1,0-2.43-.08-4.09,0-3.45-.07-8.22-.07-13.49v-.28l.25.25c-5.21,0-9.91,0-13.31-.07l-4-.08a7.66,7.66,0,0,1-1.48-.1,9.8,9.8,0,0,1,1.48-.09l4-.08c3.4,0,8.1-.07,13.31-.07h.24V26c0,5.27,0,10-.07,13.49,0,1.66-.06,3-.08,4.09A10.11,10.11,0,0,1,369.37,45.08Z"
       style="fill:#ebebeb"
       id="path24" />
    <rect
       x="387.66"
       y="126.91"
       width="5.71"
       height="353.79"
       style="fill:#e0e0e0"
       id="rect26" />
    <rect
       x="448.33"
       y="126.65"
       width="5.71"
       height="353.64"
       style="fill:#e0e0e0"
       id="rect28" />
    <rect
       x="387.66"
       y="126.91"
       width="64.16"
       height="4.42"
       style="fill:#e0e0e0"
       id="rect30" />
    <rect
       x="387.66"
       y="204.81"
       width="66.38"
       height="4.42"
       style="fill:#e0e0e0"
       id="rect32" />
    <rect
       x="387.66"
       y="379.91"
       width="65.76"
       height="4.42"
       style="fill:#e0e0e0"
       id="rect34" />
    <rect
       x="369.66"
       y="339.64"
       width="104.08"
       height="4.42"
       transform="translate(-103.03 480.99) rotate(-53.88)"
       style="fill:#e0e0e0"
       id="rect36" />
    <rect
       x="366.13"
       y="252.69"
       width="109.44"
       height="4.42"
       transform="translate(-27.3 458) rotate(-55.58)"
       style="fill:#e0e0e0"
       id="rect38" />
    <rect
       x="366.13"
       y="427.93"
       width="109.44"
       height="4.42"
       transform="translate(-171.86 534.2) rotate(-55.58)"
       style="fill:#e0e0e0"
       id="rect40" />
    <rect
       x="374.06"
       y="165.41"
       width="95.41"
       height="4.42"
       transform="translate(22.74 383.87) rotate(-50.13)"
       style="fill:#e0e0e0"
       id="rect42" />
    <rect
       x="387.66"
       y="296.87"
       width="66.38"
       height="4.42"
       style="fill:#e0e0e0"
       id="rect44" />
    <path
       d="M416.06,480.35c-.2,0-.36-78.61-.36-175.55s.16-175.56.36-175.56.36,78.59.36,175.56S416.26,480.35,416.06,480.35Z"
       style="fill:#e0e0e0"
       id="path46" />
    <path
       d="M418.6,480.28c-.2,0-.36-78-.36-174.24s.16-174.26.36-174.26.36,78,.36,174.26S418.8,480.28,418.6,480.28Z"
       style="fill:#e0e0e0"
       id="path48" />
    <path
       d="M430.78,480.45c-.2,0-.36-78.05-.36-174.32s.16-174.35.36-174.35.36,78.05.36,174.35S431,480.45,430.78,480.45Z"
       style="fill:#e0e0e0"
       id="path50" />
    <path
       d="M439.92,480.28c-.2,0-.36-78-.36-174.24s.16-174.26.36-174.26.36,78,.36,174.26S440.12,480.28,439.92,480.28Z"
       style="fill:#e0e0e0"
       id="path52" />
    <path
       d="M439.92,159c0,.2-2,.36-4.56.36s-4.55-.16-4.55-.36,2-.36,4.55-.36S439.92,158.81,439.92,159Z"
       style="fill:#e0e0e0"
       id="path54" />
    <path
       d="M439.92,151.38c0,.2-2,.36-4.56.36s-4.55-.16-4.55-.36,2-.36,4.55-.36S439.92,151.18,439.92,151.38Z"
       style="fill:#e0e0e0"
       id="path56" />
    <path
       d="M439.92,143.74c0,.2-2,.36-4.56.36s-4.55-.16-4.55-.36,2-.36,4.55-.36S439.92,143.54,439.92,143.74Z"
       style="fill:#e0e0e0"
       id="path58" />
    <path
       d="M439.92,136.1c0,.2-2,.37-4.56.37s-4.55-.17-4.55-.37,2-.36,4.55-.36S439.92,135.91,439.92,136.1Z"
       style="fill:#e0e0e0"
       id="path60" />
    <path
       d="M439.92,167.62c0,.2-2,.36-4.56.36s-4.55-.16-4.55-.36,2-.36,4.55-.36S439.92,167.42,439.92,167.62Z"
       style="fill:#e0e0e0"
       id="path62" />
    <path
       d="M439.92,176.23c0,.2-2,.36-4.56.36s-4.55-.16-4.55-.36,2-.36,4.55-.36S439.92,176,439.92,176.23Z"
       style="fill:#e0e0e0"
       id="path64" />
    <path
       d="M439.92,184.84c0,.2-2,.36-4.56.36s-4.55-.16-4.55-.36,2-.36,4.55-.36S439.92,184.64,439.92,184.84Z"
       style="fill:#e0e0e0"
       id="path66" />
    <path
       d="M439.92,193.45c0,.2-2,.36-4.56.36s-4.55-.16-4.55-.36,2-.36,4.55-.36S439.92,193.25,439.92,193.45Z"
       style="fill:#e0e0e0"
       id="path68" />
    <path
       d="M439.92,202.06c0,.2-2,.36-4.56.36s-4.55-.16-4.55-.36,2-.36,4.55-.36S439.92,201.86,439.92,202.06Z"
       style="fill:#e0e0e0"
       id="path70" />
    <path
       d="M439.92,210.67c0,.19-2,.36-4.56.36s-4.55-.17-4.55-.36,2-.37,4.55-.37S439.92,210.47,439.92,210.67Z"
       style="fill:#e0e0e0"
       id="path72" />
    <path
       d="M439.92,219.27c0,.2-2,.36-4.56.36s-4.55-.16-4.55-.36,2-.36,4.55-.36S439.92,219.07,439.92,219.27Z"
       style="fill:#e0e0e0"
       id="path74" />
    <path
       d="M439.92,227.88c0,.2-2,.36-4.56.36s-4.55-.16-4.55-.36,2-.36,4.55-.36S439.92,227.68,439.92,227.88Z"
       style="fill:#e0e0e0"
       id="path76" />
    <path
       d="M439.92,236.49c0,.2-2,.36-4.56.36s-4.55-.16-4.55-.36,2-.36,4.55-.36S439.92,236.29,439.92,236.49Z"
       style="fill:#e0e0e0"
       id="path78" />
    <path
       d="M439.92,245.1c0,.2-2,.36-4.56.36s-4.55-.16-4.55-.36,2-.36,4.55-.36S439.92,244.9,439.92,245.1Z"
       style="fill:#e0e0e0"
       id="path80" />
    <path
       d="M439.92,253.71c0,.2-2,.36-4.56.36s-4.55-.16-4.55-.36,2-.36,4.55-.36S439.92,253.51,439.92,253.71Z"
       style="fill:#e0e0e0"
       id="path82" />
    <path
       d="M439.92,262.32c0,.2-2,.36-4.56.36s-4.55-.16-4.55-.36,2-.36,4.55-.36S439.92,262.12,439.92,262.32Z"
       style="fill:#e0e0e0"
       id="path84" />
    <path
       d="M439.92,270.93c0,.2-2,.36-4.56.36s-4.55-.16-4.55-.36,2-.36,4.55-.36S439.92,270.73,439.92,270.93Z"
       style="fill:#e0e0e0"
       id="path86" />
    <path
       d="M439.92,279.54c0,.2-2,.36-4.56.36s-4.55-.16-4.55-.36,2-.37,4.55-.37S439.92,279.34,439.92,279.54Z"
       style="fill:#e0e0e0"
       id="path88" />
    <path
       d="M439.92,288.14c0,.2-2,.37-4.56.37s-4.55-.17-4.55-.37,2-.36,4.55-.36S439.92,288,439.92,288.14Z"
       style="fill:#e0e0e0"
       id="path90" />
    <path
       d="M439.92,296.75c0,.2-2,.36-4.56.36s-4.55-.16-4.55-.36,2-.36,4.55-.36S439.92,296.55,439.92,296.75Z"
       style="fill:#e0e0e0"
       id="path92" />
    <path
       d="M439.92,305.36c0,.2-2,.36-4.56.36s-4.55-.16-4.55-.36,2-.36,4.55-.36S439.92,305.16,439.92,305.36Z"
       style="fill:#e0e0e0"
       id="path94" />
    <path
       d="M439.92,314c0,.2-2,.36-4.56.36s-4.55-.16-4.55-.36,2-.36,4.55-.36S439.92,313.77,439.92,314Z"
       style="fill:#e0e0e0"
       id="path96" />
    <path
       d="M439.92,322.58c0,.2-2,.36-4.56.36s-4.55-.16-4.55-.36,2-.36,4.55-.36S439.92,322.38,439.92,322.58Z"
       style="fill:#e0e0e0"
       id="path98" />
    <path
       d="M439.92,331.19c0,.2-2,.36-4.56.36s-4.55-.16-4.55-.36,2-.36,4.55-.36S439.92,331,439.92,331.19Z"
       style="fill:#e0e0e0"
       id="path100" />
    <path
       d="M439.92,339.8c0,.2-2,.36-4.56.36s-4.55-.16-4.55-.36,2-.36,4.55-.36S439.92,339.6,439.92,339.8Z"
       style="fill:#e0e0e0"
       id="path102" />
    <path
       d="M439.92,348.41c0,.2-2,.36-4.56.36s-4.55-.16-4.55-.36,2-.36,4.55-.36S439.92,348.21,439.92,348.41Z"
       style="fill:#e0e0e0"
       id="path104" />
    <path
       d="M439.92,357c0,.2-2,.37-4.56.37s-4.55-.17-4.55-.37,2-.36,4.55-.36S439.92,356.82,439.92,357Z"
       style="fill:#e0e0e0"
       id="path106" />
    <path
       d="M439.92,365.62c0,.2-2,.36-4.56.36s-4.55-.16-4.55-.36,2-.36,4.55-.36S439.92,365.42,439.92,365.62Z"
       style="fill:#e0e0e0"
       id="path108" />
    <path
       d="M439.92,374.23c0,.2-2,.36-4.56.36s-4.55-.16-4.55-.36,2-.36,4.55-.36S439.92,374,439.92,374.23Z"
       style="fill:#e0e0e0"
       id="path110" />
    <path
       d="M439.92,382.84c0,.2-2,.36-4.56.36s-4.55-.16-4.55-.36,2-.36,4.55-.36S439.92,382.64,439.92,382.84Z"
       style="fill:#e0e0e0"
       id="path112" />
    <path
       d="M439.92,391.45c0,.2-2,.36-4.56.36s-4.55-.16-4.55-.36,2-.36,4.55-.36S439.92,391.25,439.92,391.45Z"
       style="fill:#e0e0e0"
       id="path114" />
    <path
       d="M439.92,400.06c0,.2-2,.36-4.56.36s-4.55-.16-4.55-.36,2-.36,4.55-.36S439.92,399.86,439.92,400.06Z"
       style="fill:#e0e0e0"
       id="path116" />
    <path
       d="M439.92,408.67c0,.2-2,.36-4.56.36s-4.55-.16-4.55-.36,2-.36,4.55-.36S439.92,408.47,439.92,408.67Z"
       style="fill:#e0e0e0"
       id="path118" />
    <path
       d="M439.92,417.28c0,.2-2,.36-4.56.36s-4.55-.16-4.55-.36,2-.36,4.55-.36S439.92,417.08,439.92,417.28Z"
       style="fill:#e0e0e0"
       id="path120" />
    <path
       d="M439.92,425.89c0,.2-2,.36-4.56.36s-4.55-.16-4.55-.36,2-.37,4.55-.37S439.92,425.69,439.92,425.89Z"
       style="fill:#e0e0e0"
       id="path122" />
    <path
       d="M439.92,434.49c0,.2-2,.37-4.56.37s-4.55-.17-4.55-.37,2-.36,4.55-.36S439.92,434.3,439.92,434.49Z"
       style="fill:#e0e0e0"
       id="path124" />
    <path
       d="M439.92,443.1c0,.2-2,.36-4.56.36s-4.55-.16-4.55-.36,2-.36,4.55-.36S439.92,442.9,439.92,443.1Z"
       style="fill:#e0e0e0"
       id="path126" />
    <path
       d="M439.92,451.71c0,.2-2,.36-4.56.36s-4.55-.16-4.55-.36,2-.36,4.55-.36S439.92,451.51,439.92,451.71Z"
       style="fill:#e0e0e0"
       id="path128" />
    <path
       d="M439.92,460.32c0,.2-2,.36-4.56.36s-4.55-.16-4.55-.36,2-.36,4.55-.36S439.92,460.12,439.92,460.32Z"
       style="fill:#e0e0e0"
       id="path130" />
    <path
       d="M439.92,468.93c0,.2-2,.36-4.56.36s-4.55-.16-4.55-.36,2-.36,4.55-.36S439.92,468.73,439.92,468.93Z"
       style="fill:#e0e0e0"
       id="path132" />
    <path
       d="M439.92,477.54c0,.2-2,.36-4.56.36s-4.55-.16-4.55-.36,2-.36,4.55-.36S439.92,477.34,439.92,477.54Z"
       style="fill:#e0e0e0"
       id="path134" />
    <path
       d="M390.51,305.56l-.42,0-1.26,0-4.84.06-17.86.11-59.63.12.36-.36V318l-.36-.36,59.63.12,17.87.11,4.83.06,1.26,0,.42,0a1.24,1.24,0,0,1-.42,0l-1.26,0-4.83.07-17.87.11-59.63.11h-.36V305.2h.36l59.63.11,17.86.11,4.84.07,1.26,0A1.24,1.24,0,0,1,390.51,305.56Z"
       style="fill:#e0e0e0"
       id="path136" />
    <path
       d="M387.78,317.16a1.1,1.1,0,0,1-.22-.17l-.62-.57-2.38-2.23c-2.1-2-5.11-4.87-8.89-8.49l.34-.15c.19,3.46.4,7.4.63,11.74l0,.66-.47-.46L364,305.78l.53-.22c-.06,3.77-.12,7.72-.18,11.82v.77l-.55-.54-12.21-11.8.6-.25c-.07,3.69-.15,7.59-.22,11.57l0,.82-.59-.57-5.78-5.6-6.15-6,.61-.25c0,3.95,0,7.82,0,11.6V318l-.59-.56L327.12,305.8l.56-.24q0,6.48,0,12.38v.74l-.52-.53-12.34-12.42.43-.17c0,4.58,0,8.57-.06,12v.62l-.35-.5-6.18-8.94L307,306.39l-.4-.62-.12-.21s.07.05.17.18l.44.59c.41.55,1,1.32,1.68,2.3l6.34,8.83-.35.11c0-3.44,0-7.43-.06-12V305l.44.43,12.41,12.34-.52.22q0-5.9,0-12.38v-.77l.56.52L340,316.9l-.59.26q0-5.67,0-11.6v-.85l.61.59,6.16,6,5.77,5.6-.61.25c.08-4,.16-7.87.24-11.56v-.81l.58.56,12.18,11.84-.56.23c.07-4.1.15-8.05.22-11.82v-.71l.51.49,12.09,11.79-.44.2c-.19-4.35-.36-8.29-.52-11.75l0-.53.37.37,8.76,8.62q1.47,1.49,2.31,2.31l.58.61A.87.87,0,0,1,387.78,317.16Z"
       style="fill:#e0e0e0"
       id="path138" />
    <path
       d="M391.85,209.23a2.7,2.7,0,0,1-.42,0l-1.26,0-4.83.07-17.87.11-59.63.11.36-.36v12.4l-.36-.36,59.63.11,17.87.11,4.83.07,1.26,0a1.69,1.69,0,0,1,.42,0,2.24,2.24,0,0,1-.42,0l-1.26,0-4.83.06-17.87.11-59.63.12h-.36V208.87h.36l59.63.11,17.87.12,4.83.06,1.26,0Z"
       style="fill:#e0e0e0"
       id="path140" />
    <path
       d="M389.12,220.84l-.22-.18-.62-.56-2.38-2.24L377,209.38l.34-.16c.19,3.46.4,7.4.63,11.75l0,.65-.47-.45-12.16-11.72.53-.21c-.06,3.76-.12,7.71-.18,11.81v.77l-.55-.53L353,209.48l.6-.24c-.07,3.68-.15,7.59-.22,11.56l0,.83-.59-.58L347,215.46c-2.07-2-4.13-4-6.15-6l.61-.26c0,4,0,7.82,0,11.6v.82l-.59-.56c-4.29-4-8.43-7.92-12.35-11.62l.56-.24c0,4.32,0,8.46,0,12.38v.74l-.52-.52-12.34-12.42.43-.18c0,4.58,0,8.57-.06,12v.61l-.35-.5L310,212.42l-1.61-2.36-.4-.61a2.08,2.08,0,0,1-.12-.22.88.88,0,0,1,.17.19l.44.58c.41.55,1,1.32,1.68,2.3l6.34,8.84-.35.11c0-3.45,0-7.44-.06-12v-.61l.44.43c3.68,3.67,7.84,7.79,12.41,12.34l-.52.22c0-3.92,0-8.06,0-12.38v-.77l.56.53,12.38,11.59-.59.25q0-5.67,0-11.6v-.85l.61.59,6.16,6,5.77,5.59-.61.25c.08-4,.16-7.87.24-11.56v-.81l.58.57,12.18,11.83-.56.23c.08-4.1.15-8,.22-11.81v-.72l.51.5,12.09,11.78-.44.2c-.19-4.35-.36-8.29-.52-11.75l0-.52.37.36c3.73,3.68,6.7,6.59,8.76,8.63l2.31,2.31.58.6C389.07,220.76,389.13,220.83,389.12,220.84Z"
       style="fill:#e0e0e0"
       id="path142" />
    <path
       d="M119.1,137.55c.71-5.15-6.56-9.39-12-9.83-2.61-.21-5.31.19-7.78-.67-5.35-1.86-7.48-8.77-12.7-11-3.9-1.65-8.39-.18-12.17,1.72s-7.52,4.3-11.75,4.57C59,122.6,55,121.24,51.8,123c-2.4,1.33-3.65,4.09-5.86,5.72s-5,1.93-7.66,2.08-5.45.17-7.89,1.29-4.46,3.7-4,6.33Z"
       style="fill:#ebebeb"
       id="path144" />
    <path
       d="M230.54,44.94c.57-4.14-5.27-7.54-9.66-7.9-2.09-.17-4.26.15-6.24-.54-4.3-1.49-6-7-10.2-8.81-3.14-1.32-6.74-.14-9.78,1.39s-6,3.45-9.43,3.66c-2.95.19-6.15-.9-8.74.54-1.92,1.07-2.93,3.29-4.7,4.6s-4,1.55-6.15,1.67a17.33,17.33,0,0,0-6.34,1c-2,.9-3.58,3-3.18,5.09Z"
       style="fill:#f5f5f5"
       id="path146" />
    <path
       d="M180,266.33c.54-3.87-4.93-7.05-9-7.38-2-.16-4,.14-5.85-.51-4-1.4-5.62-6.59-9.54-8.25-2.94-1.23-6.31-.13-9.15,1.3s-5.65,3.23-8.83,3.43c-2.76.18-5.76-.84-8.17.5-1.81,1-2.75,3.08-4.41,4.31a10.47,10.47,0,0,1-5.75,1.56,16.25,16.25,0,0,0-5.94,1c-1.83.84-3.35,2.78-3,4.76Z"
       style="fill:#f5f5f5"
       id="path148" />
    <path
       d="M463.86,77.13c.55-4-5.11-7.32-9.37-7.66-2-.16-4.14.15-6.06-.52-4.16-1.45-5.83-6.84-9.89-8.55-3-1.28-6.54-.14-9.48,1.34s-5.86,3.35-9.15,3.56c-2.86.18-6-.88-8.48.52-1.86,1-2.84,3.19-4.56,4.46a10.89,10.89,0,0,1-6,1.62,16.52,16.52,0,0,0-6.15,1c-1.9.87-3.47,2.88-3.08,4.93Z"
       style="fill:#ebebeb"
       id="path150" />
  </g>
  <g
     id="freepik--Floor--inject-40">
    <path
       d="M463.76,480.68c0,.15-96.16.26-214.75.26s-214.77-.11-214.77-.26,96.14-.26,214.77-.26S463.76,480.54,463.76,480.68Z"
       style="fill:#263238"
       id="path153" />
  </g>
  <g
     id="freepik--Rocket--inject-40">
    <path
       d="M150.88,480.71c-.12-.07,14.86-27.34,33.47-60.89s33.8-60.72,33.93-60.65-14.86,27.33-33.47,60.9S151,480.78,150.88,480.71Z"
       style="fill:#263238"
       id="path156" />
    <path
       d="M103.17,480.71l.45-.61,1.36-1.76,5.29-6.81,19.82-25.38c17-21.63,40.79-52,68.31-87.16l.16-.21.2.18,12.75,11.75.48.45H189.37l.23-.38c1.91,3.47,4,7.18,6,10.93l5.14,9.3.21.39h-27.5l.22-.38q7.15,12.18,13.92,23.69l.22.37h-.43l-32.53,0,.19-.36,18.15,25.91.22.32h-.39l-38.49-.05.12-.23,15,24.14,3.94,6.41,1,1.66.33.57-.37-.55c-.24-.38-.58-.92-1-1.63-.91-1.46-2.26-3.59-4-6.37L134.44,440.8l-.15-.23h.28l38.49-.06-.17.32L154.7,415l-.25-.36h33l-.22.37q-6.75-11.49-13.93-23.68l-.23-.39h27.51l-.22.38-5.15-9.3-6-10.93-.21-.39h22.4l-.17.45-12.74-11.76.37,0c-27.57,35.08-51.45,65.44-68.44,87.05L110.4,471.64l-5.35,6.75-1.39,1.74C103.34,480.52,103.17,480.71,103.17,480.71Z"
       style="fill:#263238"
       id="path158" />
    <path
       d="M377.34,480.2c-.12.07-15.31-27-33.92-60.38s-33.6-60.58-33.47-60.65,15.31,27,33.92,60.39S377.47,480.13,377.34,480.2Z"
       style="fill:#263238"
       id="path160" />
    <path
       d="M425.05,480.2s-.17-.19-.48-.57l-1.39-1.73-5.36-6.73L397.88,446,329.43,359.3l.37,0L317.07,371l-.18-.44H339.3l-.22.39L333,381.93l-5.11,9.2-.23-.39h27.52l-.23.38L341,414.72l-.21-.37h33l-.26.36L355.33,440.5l-.16-.32,38.49.05h.27l-.14.23-15.08,24c-1.75,2.77-3.09,4.9-4,6.34l-1,1.63c-.23.36-.36.54-.36.54s.1-.19.33-.56l1-1.65,3.95-6.38,14.95-24.05.13.23-38.49.05h-.39l.22-.32,18.15-25.8.18.36-32.52,0h-.43l.22-.37q6.75-11.46,13.92-23.6l.22.39H327.23l.22-.38,5.1-9.2,6.08-10.95.23.38H316.23l.49-.45L329.46,359l.2-.18.17.21,68.3,86.8L418,471.07l5.29,6.77,1.35,1.76C424.91,480,425.05,480.2,425.05,480.2Z"
       style="fill:#263238"
       id="path162" />
    <path
       d="M381.84,445.45A38.7,38.7,0,0,0,347.89,433a26,26,0,0,0-7.92-23.8c-6.48-5.87-19.17-8.6-27.54-6.09l.26-50.36c-1.69-.08-35.75,0-49.32,0s-47.64-.07-49.33,0l.26,50.36c-8.37-2.51-21.06.22-27.54,6.09a26,26,0,0,0-7.92,23.8,38,38,0,0,0-42.09,47.75H390A38.72,38.72,0,0,0,381.84,445.45Z"
       style="fill:#fafafa"
       id="path164" />
    <path
       d="M381.84,445.45s.55.62,1.57,1.87a38.89,38.89,0,0,1,3.83,6.09,39.68,39.68,0,0,1,3.62,11.2,38.49,38.49,0,0,1-.77,16.13l0,.08H390L136.75,481h-.19l-.05-.18a38.67,38.67,0,0,1-.82-16.11,39.44,39.44,0,0,1,5.9-15.31,37.27,37.27,0,0,1,12.06-11.47,40.11,40.11,0,0,1,16-5.34,36.94,36.94,0,0,1,9.22.15l-.29.31A26.16,26.16,0,0,1,188,407.78a31.46,31.46,0,0,1,12.74-5.25,29.61,29.61,0,0,1,13.6.3l-.33.24c-.09-17.27-.18-34.09-.26-50.36v-.25H214l98.67,0h.2v.21c-.11,18.34-.21,35.17-.3,50.36l-.22-.16a26.36,26.36,0,0,1,8.13-.91,36.5,36.5,0,0,1,7.76,1.14c4.94,1.3,9.52,3.5,12.78,6.87A26.19,26.19,0,0,1,348,433l-.13-.14A38.59,38.59,0,0,1,364,434.1a40.19,40.19,0,0,1,10.65,5,39.37,39.37,0,0,1,5.56,4.56c1.11,1.18,1.65,1.79,1.65,1.79l-.43-.43-1.26-1.31a41.39,41.39,0,0,0-5.58-4.51,40.18,40.18,0,0,0-10.64-4.93,38.3,38.3,0,0,0-16-1.2l-.16,0,0-.15a26,26,0,0,0-6.92-22.73c-3.23-3.31-7.76-5.48-12.66-6.75a35.94,35.94,0,0,0-7.69-1.12,26.13,26.13,0,0,0-8,.9l-.23.07v-.24c.07-15.2.15-32,.24-50.36l.19.21-98.63,0,.23-.24q.14,24.41.28,50.36v.34l-.33-.09a29.2,29.2,0,0,0-13.35-.29,31,31,0,0,0-12.53,5.17,25.62,25.62,0,0,0-9.25,24.71l.07.36-.36-.06a36.93,36.93,0,0,0-9.1-.14,39.54,39.54,0,0,0-15.79,5.27A36.55,36.55,0,0,0,142,449.65a38.86,38.86,0,0,0-5.83,15.1,38.12,38.12,0,0,0,.8,15.89l-.25-.19,253.23.14-.11.09a38.3,38.3,0,0,0,.82-16,40.2,40.2,0,0,0-3.56-11.18,40.83,40.83,0,0,0-3.76-6.11l-1.15-1.42Z"
       style="fill:#263238"
       id="path166" />
    <path
       d="M324.48,454.34a1.36,1.36,0,0,1,0-.29c0-.21,0-.49-.06-.85a12.44,12.44,0,0,0-.15-1.38,17,17,0,0,0-.35-1.87A23.85,23.85,0,0,0,311.36,434a20.92,20.92,0,0,0-9.67-2.17,23.91,23.91,0,0,0-10.77,2.81,22.51,22.51,0,0,0-8.83,8.28l-.19.31-.22-.28A26.92,26.92,0,0,0,263,433.28a25.13,25.13,0,0,0-10.13,1.26,26.27,26.27,0,0,0-8.48,4.94,26.74,26.74,0,0,0-8.89,15.42l-.06.34-.29-.19a22.19,22.19,0,0,0-16.47-3.22,21.41,21.41,0,0,0-11.42,6.45,22.46,22.46,0,0,0-5.26,9.44l-.15.56c0,.13-.06.19-.07.19a15.74,15.74,0,0,1,.8-3,22.28,22.28,0,0,1,9.25-11.35,21,21,0,0,1,6.77-2.69,22.54,22.54,0,0,1,16.81,3.21l-.36.15a27.06,27.06,0,0,1,9-15.72,26.79,26.79,0,0,1,8.64-5.05A25.31,25.31,0,0,1,263,432.77a27.3,27.3,0,0,1,19.07,9.91l-.41,0a23,23,0,0,1,9-8.45,24.42,24.42,0,0,1,11-2.82,21.24,21.24,0,0,1,9.84,2.26,23.9,23.9,0,0,1,12.52,16.21,16.5,16.5,0,0,1,.3,1.89,8.54,8.54,0,0,1,.11,1.4c0,.35,0,.64,0,.85A1.29,1.29,0,0,1,324.48,454.34Z"
       style="fill:#263238"
       id="path168" />
    <path
       d="M273,419.9c-.05,0-.15-.85-.63-2.34a17.39,17.39,0,0,0-3.19-5.75,16.26,16.26,0,0,0-8.15-5.3,17,17,0,0,0-11.93,1.1l-.32.16-.05-.35a16.37,16.37,0,0,0-1.1-4,17.2,17.2,0,0,0-9.5-9.36,15,15,0,0,0-5.84-1.07,17.6,17.6,0,0,0-11.67,4.58c-1.31,1.22-1.88,2.06-1.93,2a2.83,2.83,0,0,1,.41-.6,12.62,12.62,0,0,1,1.38-1.57,17.16,17.16,0,0,1,6.55-4,17.73,17.73,0,0,1,5.25-.9,15.58,15.58,0,0,1,6,1.05,17.64,17.64,0,0,1,9.81,9.61,16.93,16.93,0,0,1,1.12,4.1l-.37-.2a17.3,17.3,0,0,1,12.28-1.08,16,16,0,0,1,4.89,2.32,17.27,17.27,0,0,1,3.41,3.2,16.75,16.75,0,0,1,3.1,5.92,12,12,0,0,1,.39,1.76A2.49,2.49,0,0,1,273,419.9Z"
       style="fill:#263238"
       id="path170" />
    <path
       d="M280.47,421.47c-.14,0-.26-10.76-.26-24s.12-24,.26-24,.27,10.76.27,24S280.62,421.47,280.47,421.47Z"
       style="fill:#263238"
       id="path172" />
    <path
       d="M286.26,398.78c-.14,0-.26-7.87-.26-17.58s.12-17.57.26-17.57.26,7.86.26,17.57S286.4,398.78,286.26,398.78Z"
       style="fill:#263238"
       id="path174" />
    <polygon
       points="318.32 317.32 318.1 299.96 261.16 299.96 211.13 299.96 210.96 316.48 197.19 345.38 197.19 363.24 267.18 362.19 331.15 363.21 331.15 345.37 318.32 317.32"
       style="fill:#f5f5f5"
       id="polygon176" />
    <path
       d="M318.32,317.32s.08.15.23.47.37.79.66,1.39c.58,1.25,1.43,3.07,2.53,5.45l9.54,20.68v.06c0,5.26,0,11.27,0,17.84v.18h-.18l-59.32-.89-4.29-.07-4.35.06-8.86.14-18.34.28-38.79.59h-.26V345.33l0-.06,13.78-28.9,0,.1q.09-8.45.17-16.51v-.25h.24l107,.14h.11V300c.05,5.63.08,10,.11,12.9,0,1.46,0,2.57,0,3.33s0,1.13,0,1.13,0-.38,0-1.12,0-1.87-.07-3.32c0-2.94-.12-7.28-.21-12.92l.1.11-107,.13.24-.24q-.08,8.07-.16,16.52v.06l0,0c-4.44,9.31-9,19-13.77,28.91l0-.11v17.85l-.26-.26L236,362.4l18.35-.27,8.86-.12,4.35-.06,4.29.08,59.33,1-.18.17c0-6.57,0-12.58,0-17.84l0,.06c-4.06-8.93-7.24-15.95-9.42-20.76-1.08-2.39-1.9-4.22-2.46-5.47-.27-.61-.48-1.08-.63-1.4Z"
       style="fill:#263238"
       id="path178" />
    <rect
       x="197.58"
       y="345.63"
       width="132.85"
       height="16.9"
       style="fill:#e0e0e0"
       id="rect180" />
    <path
       d="M209.88,215.06l-.36.31c-20.71,18.23-32.74,45.85-32.76,75h0l33.07-6.91Z"
       style="fill:#FF725E"
       id="path182" />
    <rect
       x="209.69"
       y="211.8"
       width="109.59"
       height="75.95"
       style="fill:#f5f5f5"
       id="rect184" />
    <path
       d="M264.4,40.86c-8.57,0-24.34,24.32-39,65-1,2.77-1.93,5.27-2.8,7.64V116h83.1v-2.25c-.75-2.74-1.54-5.39-2.38-7.88-13.72-40.86-30.34-65-38.91-65"
       style="fill:#FF725E"
       id="path186" />
    <path
       d="M264.4,40.86l.41,0a5,5,0,0,1,1.21.2,12.56,12.56,0,0,1,4.13,2.31c3.27,2.57,7.22,7.24,11.31,13.66a180.4,180.4,0,0,1,12.6,24.11c2.09,4.77,4.16,9.9,6.17,15.33,1,2.71,2,5.51,3,8.37s1.79,5.85,2.72,8.86v.06c0,.7,0,1.47,0,2.25v.24h-.25l-41.58,0-41.52,0h-.25v-2.85l0,0c2.17-5.87,4.2-11.56,6.31-16.94S232.89,86,235,81.24a199.3,199.3,0,0,1,12.55-24c4-6.43,7.89-11.16,11.12-13.77a12.27,12.27,0,0,1,4.09-2.34,5,5,0,0,1,1.21-.2l.41,0-.41.06a5.93,5.93,0,0,0-1.18.24,12.51,12.51,0,0,0-4,2.39c-3.17,2.63-7,7.36-11,13.8a202.66,202.66,0,0,0-12.44,24.06c-2.11,4.74-4.21,9.82-6.3,15.2s-4.1,11.06-6.27,16.94V116l-.25-.25h83.1l-.25.25v-2.18c-.92-3-1.75-6-2.69-8.84s-1.95-5.65-3-8.36c-2-5.43-4-10.55-6.12-15.32A181.94,181.94,0,0,0,281.2,57.21c-4-6.43-7.94-11.11-11.15-13.7A13,13,0,0,0,266,41.16a6,6,0,0,0-1.19-.24Z"
       style="fill:#263238"
       id="path188" />
    <path
       d="M319.27,213.23l.37.32c21.25,18.71,33.59,47,33.61,76.95h0l-33.92-7.1Z"
       style="fill:#FF725E"
       id="path190" />
    <path
       d="M210.27,201.57s-.48-28,1.15-40.56,6.4-35,6.4-35h93.79a210.11,210.11,0,0,1,6.32,41.71c.84,21.66.83,34.18.83,34.18Z"
       style="fill:#f5f5f5"
       id="path192" />
    <path
       d="M210.27,201.57l.53,0h29.89l78.07.09-.24.24c-.46-21.14.1-44.67-5.43-68.57-.54-2.45-1.1-4.89-1.73-7.25l.25.19-93.79,0L218,126c-2.36,11.28-4.39,21.62-5.83,30.81q-.55,3.43-.9,6.68c-.2,2.16-.34,4.24-.46,6.24-.22,4-.32,7.69-.4,11-.15,6.64-.15,11.84-.16,15.39v5.07c0,.22,0,.35,0,.35s0-.11,0-.35,0-.59,0-1c0-.93,0-2.28-.07-4,0-3.55-.07-8.75,0-15.39.06-3.33.15-7,.36-11q.15-3,.43-6.26c.23-2.17.51-4.4.87-6.7,1.42-9.21,3.42-19.56,5.76-30.85l0-.17h.17l93.79-.05h.2l.05.19c.63,2.38,1.2,4.82,1.74,7.28a204,204,0,0,1,4.62,35.41c.43,11.53.73,22.66.78,33.27v.24h-.24l-78.23-.33-22.32-.12-5.92-.05-1.52,0Z"
       style="fill:#263238"
       id="path194" />
    <path
       d="M268.8,243.83c0,2.5-1.93,4.79-6.16,4.79A10.17,10.17,0,0,1,257,247l1.33-2.63a7.24,7.24,0,0,0,4.25,1.34c1.72,0,2.78-.7,2.78-1.91s-.83-1.83-2.78-1.83H261v-2.27l3.05-3.46h-6.32v-2.76h10.4v2.23l-3.35,3.82C267.44,240,268.8,241.64,268.8,243.83Z"
       style="fill:#263238"
       id="path196" />
    <path
       d="M270.53,177.07v2.8H259.3v-2.23l5.73-5.41c1.31-1.25,1.55-2,1.55-2.74,0-1.16-.81-1.84-2.38-1.84a3.65,3.65,0,0,0-3.08,1.48l-2.5-1.61a6.88,6.88,0,0,1,5.9-2.76c3.31,0,5.52,1.7,5.52,4.39,0,1.45-.41,2.76-2.49,4.7l-3.41,3.22Z"
       style="fill:#263238"
       id="path198" />
    <path
       d="M270.67,331h-2.42v3.12H264.9V331h-8v-2.31l7-9.42h3.61l-6.5,8.93h4v-2.78h3.25v2.78h2.42Z"
       style="fill:#263238"
       id="path200" />
    <path
       d="M265.15,81.84V96.7h-3.43V84.6h-3V81.84Z"
       style="fill:#263238"
       id="path202" />
    <path
       d="M312.76,130.64a4.5,4.5,0,0,1-.69,0l-2,0-7.53.07-26.2.09.21-.12-9.28,16.7c-.52.94-1,1.88-1.53,2.75l-.07.13h-.16l-37.16-.08-11.16-.08-3-.05-.78,0-.27,0a1.39,1.39,0,0,1,.27,0l.78,0,3-.05,11.16-.08,37.16-.08-.22.14c.48-.88,1-1.81,1.53-2.76l9.3-16.68.07-.13h.15l26.2.1,7.53.07,2,0A4.5,4.5,0,0,1,312.76,130.64Z"
       style="fill:#e0e0e0"
       id="path204" />
    <rect
       x="222.59"
       y="163.91"
       width="14.83"
       height="8"
       style="fill:#e0e0e0"
       id="rect206" />
    <polygon
       points="235.7 213.23 246.68 257.9 269.59 258.28 279.66 287.62 271 287.75 263.27 260.1 243.47 260.1 235.7 213.23"
       style="fill:#ebebeb"
       id="polygon208" />
    <path
       d="M235.46,211.8a1,1,0,0,1,.07.25l.15.72q.18,1,.51,2.79l1.79,10.3c1.47,8.73,3.48,20.73,5.71,34l0,.21-.26-.21,19.8,0h.18l.05.17c2.23,8.15,4.13,15.06,5.48,20,.65,2.41,1.16,4.33,1.53,5.7.16.63.28,1.13.38,1.51a4.31,4.31,0,0,1,.11.53,1.81,1.81,0,0,1-.18-.5c-.12-.38-.27-.88-.46-1.5-.4-1.36-.95-3.27-1.65-5.66-1.4-4.91-3.36-11.8-5.67-19.93l.23.17-19.8,0h-.22l0-.22,0-.22c-2.17-13.26-4.14-25.26-5.56-34-.69-4.33-1.24-7.84-1.63-10.32-.18-1.19-.32-2.13-.42-2.81,0-.3-.07-.54-.09-.73A1,1,0,0,1,235.46,211.8Z"
       style="fill:#e0e0e0"
       id="path210" />
    <path
       d="M319.3,249.78a3.26,3.26,0,0,1-.65.05l-1.87,0-6.93.08-23.14.08h-.26v-2.95c0-9.72.05-18.52.07-25,0-3.15.06-5.72.08-7.56,0-.86,0-1.54,0-2.06a3.42,3.42,0,0,1,.06-.72,5.86,5.86,0,0,1,.05.72c0,.52,0,1.2.05,2.06,0,1.84.05,4.41.08,7.56,0,6.43.05,15.23.08,25v2.69l-.26-.26,23.14.08,6.93.08,1.87,0A2.51,2.51,0,0,1,319.3,249.78Z"
       style="fill:#e0e0e0"
       id="path212" />
    <path
       d="M316.33,150.08l-.32,0-.93,0-3.54.06-12.74.09.21-.22c0,6.59,0,14.6.05,23.24,0,7.66,0,14.83,0,20.89l-.22-.23,14.42.1,4,.06,1.07,0a1.26,1.26,0,0,1,.36,0l-.36,0-1.07,0-4,.06-14.42.09h-.23v-.22c0-6.06,0-13.23,0-20.89,0-8.64,0-16.65,0-23.24v-.21h.22l12.74.09,3.54.06.93,0A1.34,1.34,0,0,1,316.33,150.08Z"
       style="fill:#e0e0e0"
       id="path214" />
    <g
       style="opacity:0.30000000000000004"
       id="g218">
      <path
         d="M319.3,287.62c-34.49-9.58-71.23-6.07-108.78,0Z"
         id="path216" />
    </g>
    <g
       style="opacity:0.30000000000000004"
       id="g222">
      <path
         d="M318.76,201.86c-45.24-7.65-71.12-6.36-108.67-.28Z"
         id="path220" />
    </g>
    <g
       style="opacity:0.30000000000000004"
       id="g226">
      <path
         d="M305.69,116c-39.53-7.65-50.3-6.08-83.1,0Z"
         id="path224" />
    </g>
    <rect
       x="300.27"
       y="258.34"
       width="3.47"
       height="14.97"
       style="fill:#FF725E"
       id="rect228" />
    <path
       d="M198.19,344.61c0-.14,29.77-.21,66.48-.14s66.48.23,66.48.37-29.76.21-66.48.15S198.19,344.76,198.19,344.61Z"
       style="fill:#263238"
       id="path230" />
    <path
       d="M318.6,316.48c0,.14-24,.26-53.67.26s-53.68-.12-53.68-.26,24-.26,53.68-.26S318.6,316.33,318.6,316.48Z"
       style="fill:#263238"
       id="path232" />
    <path
       d="M318.6,311.84c0,.14-24,.26-53.67.26s-53.68-.12-53.68-.26,24-.26,53.68-.26S318.6,311.69,318.6,311.84Z"
       style="fill:#263238"
       id="path234" />
    <path
       d="M318.6,307.2c0,.14-24,.26-53.67.26s-53.68-.12-53.68-.26,24-.26,53.68-.26S318.6,307.06,318.6,307.2Z"
       style="fill:#263238"
       id="path236" />
    <path
       d="M318.6,302.56c0,.14-24,.26-53.67.26s-53.68-.12-53.68-.26,24-.26,53.68-.26S318.6,302.42,318.6,302.56Z"
       style="fill:#263238"
       id="path238" />
    <path
       d="M331.15,354.6c0,.15-30,.26-67,.26s-67-.11-67-.26,30-.26,67-.26S331.15,354.46,331.15,354.6Z"
       style="fill:#263238"
       id="path240" />
    <path
       d="M331.15,350c0,.15-30,.27-67,.27s-67-.12-67-.27,30-.26,67-.26S331.15,349.82,331.15,350Z"
       style="fill:#263238"
       id="path242" />
    <path
       d="M205,225.19a3.51,3.51,0,0,1-.36.53l-1.1,1.45c-.5.62-1.08,1.39-1.74,2.3s-1.43,1.93-2.21,3.11c-1.63,2.31-3.41,5.17-5.29,8.4s-3.72,6.91-5.47,10.84-3.17,7.81-4.35,11.35c-.57,1.78-1.11,3.47-1.54,5.08s-.84,3.1-1.18,4.47-.59,2.63-.84,3.72-.43,2.05-.58,2.83-.26,1.32-.35,1.78a2.78,2.78,0,0,1-.16.62,2.71,2.71,0,0,1,.05-.63c.07-.47.16-1.07.26-1.81s.27-1.74.49-2.85.43-2.37.77-3.74.66-2.9,1.12-4.51.94-3.32,1.5-5.11a118.4,118.4,0,0,1,4.33-11.41,121.88,121.88,0,0,1,5.53-10.87c1.92-3.23,3.74-6.08,5.41-8.37.8-1.17,1.6-2.18,2.28-3.07s1.29-1.66,1.81-2.26l1.18-1.39A3.93,3.93,0,0,1,205,225.19Z"
       style="fill:#fff"
       id="path244" />
    <path
       d="M263.2,46.51a11.64,11.64,0,0,0-2.7,1.13,17.92,17.92,0,0,0-5.5,5.75c-3.59,5.77-8.15,14-12.73,23.37s-8.23,18-10.72,24.38c-1.25,3.18-2.22,5.76-2.89,7.54-.32.86-.58,1.54-.77,2.06a4.76,4.76,0,0,1-.31.71,5.4,5.4,0,0,1,.21-.74l.68-2.09c.61-1.81,1.53-4.42,2.73-7.61,2.41-6.39,6-15.12,10.6-24.48a247.81,247.81,0,0,1,12.9-23.35,17.49,17.49,0,0,1,5.7-5.72,8.58,8.58,0,0,1,2.05-.82A3.29,3.29,0,0,1,263.2,46.51Z"
       style="fill:#fff"
       id="path246" />
    <path
       d="M213.11,197.18a2.94,2.94,0,0,1,0-.68c0-.5,0-1.15,0-2,0-1.7.11-4.17.26-7.21.31-6.08,1-14.47,2.2-23.68s2.79-17.49,4.09-23.43c.64-3,1.2-5.38,1.63-7,.2-.79.37-1.42.49-1.9a3,3,0,0,1,.21-.65,3.11,3.11,0,0,1-.11.67l-.39,1.92c-.37,1.66-.87,4.07-1.47,7-1.21,6-2.7,14.23-3.93,23.43s-2,17.57-2.35,23.64c-.2,3-.35,5.49-.43,7.19q-.08,1.2-.12,1.95A2.79,2.79,0,0,1,213.11,197.18Z"
       style="fill:#fff"
       id="path248" />
    <path
       d="M213.84,276c-.14,0-.26-12.84-.26-28.68s.12-28.69.26-28.69.26,12.84.26,28.69S214,276,213.84,276Z"
       style="fill:#fff"
       id="path250" />
    <g
       style="opacity:0.30000000000000004"
       id="g254">
      <path
         d="M209.83,281.68s1-44.91,0-66.62c-4,10.5-8.38,22.52-9.25,33.85A50.71,50.71,0,0,0,209.83,281.68Z"
         id="path252" />
    </g>
    <path
       d="M210.23,287.75l.52,0,1.52,0,5.94,0,22.39-.07,78.67-.09-.23.23c0-23,0-48.8,0-75.95l.26.26h-.56l-109-.64.21-.21c0,23.26-.07,42.39-.09,55.72,0,6.65-.05,11.85-.06,15.41,0,1.76,0,3.11,0,4s0,1.38,0,1.38,0-.47,0-1.38,0-2.27,0-4c0-3.56,0-8.76-.06-15.41,0-13.33,0-32.46-.09-55.72V211h.21l109,.54h.81v.26c0,27.15,0,52.93,0,75.95V288h-.24l-78.67-.09-22.39-.07-5.94,0-1.52,0C210.41,287.77,210.23,287.75,210.23,287.75Z"
       style="fill:#263238"
       id="path256" />
    <path
       d="M331.15,359.24c0,.15-30,.26-67,.26s-67-.11-67-.26,30-.26,67-.26S331.15,359.1,331.15,359.24Z"
       style="fill:#263238"
       id="path258" />
  </g>
  <g
     id="freepik--Audience--inject-40">
    <path
       d="M398,330.27a6.85,6.85,0,0,1-.78.05l-2.25.05-8.24.08-27.19.08h-7.21l-.08-.07-15.75-15.88-4.61-4.72-1.22-1.28a3.83,3.83,0,0,1-.4-.47,3.83,3.83,0,0,1,.47.4l1.28,1.22,4.72,4.61,15.88,15.76-.19-.08h7.11l27.19.07,8.24.08,2.25,0A4,4,0,0,1,398,330.27Z"
       style="fill:#263238"
       id="path261" />
    <circle
       cx="331.18"
       cy="308.76"
       r="3.67"
       style="fill:#263238"
       id="circle263" />
    <circle
       cx="407.23"
       cy="322.57"
       r="29.99"
       transform="translate(-91.37 176.67) rotate(-22.07)"
       style="fill:#455a64"
       id="circle265" />
    <path
       d="M409.67,323a6.91,6.91,0,0,0,4.13-6.4,6.51,6.51,0,1,0-13-.06A6.91,6.91,0,0,0,405,323c-10,1.51-9.54,12.37-9.54,12.37l23.63.11S419.58,324.51,409.67,323Z"
       style="fill:#42a2f4;fill-opacity:1"
       id="path267" />
  </g>
  <g
     id="freepik--Setting--inject-40">
    <path
       d="M112.43,168.46a1.1,1.1,0,0,1,.24,0l.7,0,2.71,0,10-.08L160,168.2h.12l.08.09c1.54,1.78,3.17,3.65,4.83,5.54l25.43,29.31,7.66,8.93,2.06,2.44.53.64a1.5,1.5,0,0,1,.16.23l-.2-.19-.57-.61-2.14-2.38c-1.86-2.11-4.51-5.12-7.78-8.81l-25.55-29.21-4.82-5.55.19.09-33.83-.09-10-.07-2.71-.05-.7,0Z"
       style="fill:#263238"
       id="path270" />
    <circle
       cx="200.82"
       cy="215.38"
       r="3.67"
       style="fill:#263238"
       id="circle272" />
    <circle
       cx="88.52"
       cy="163.54"
       r="29.99"
       style="fill:#455a64"
       id="circle274" />
    <path
       d="M82.61,153.75a11.12,11.12,0,0,1,2.77-1.2l.57-2.74,4.62-.08.67,2.71a11.42,11.42,0,0,1,2.81,1.11L96.39,152l3.33,3.21-1.45,2.39a11.68,11.68,0,0,1,1.2,2.77l2.74.57.08,4.62-2.72.67a11.64,11.64,0,0,1-1.1,2.81L100,171.4l-3.21,3.33-2.4-1.45a11.06,11.06,0,0,1-2.76,1.2l-.57,2.74-4.63.08-.67-2.72a11.57,11.57,0,0,1-2.8-1.1L80.62,175l-3.33-3.21,1.45-2.39a11.28,11.28,0,0,1-1.2-2.77l-2.74-.57-.08-4.63,2.71-.67a11.35,11.35,0,0,1,1.11-2.8L77,155.63l3.22-3.33,2.39,1.45Zm2.47,6.16a5,5,0,1,0,7-.12A5,5,0,0,0,85.08,159.91Z"
       style="fill:#ff725e;fill-opacity:1"
       id="path276" />
    <path
       d="M85.08,159.91a3.92,3.92,0,0,1,.92-.81,4.92,4.92,0,0,1,3.24-.76,5,5,0,0,1,2.2.78,5.11,5.11,0,0,1,1.78,2,4.69,4.69,0,0,1,.45,1.4,4.89,4.89,0,0,1,0,1.53,5.07,5.07,0,0,1-4.19,4.34,4.91,4.91,0,0,1-1.53,0,4.77,4.77,0,0,1-1.41-.4,5,5,0,0,1-2.06-1.71,5,5,0,0,1-.21-5.43,3.84,3.84,0,0,1,.78-1s-.3.33-.69,1a4.93,4.93,0,0,0-.54,3.18,4.74,4.74,0,0,0,.85,2.06,4.88,4.88,0,0,0,2,1.61,4.59,4.59,0,0,0,1.34.37,4.36,4.36,0,0,0,1.44,0,4.79,4.79,0,0,0,4-4.1,4.15,4.15,0,0,0,0-1.45,4.42,4.42,0,0,0-.41-1.32,4.87,4.87,0,0,0-1.68-1.92,4.8,4.8,0,0,0-2.09-.78,4.89,4.89,0,0,0-3.16.66A11.31,11.31,0,0,0,85.08,159.91Z"
       style="fill:#ff725e;fill-opacity:1"
       id="path278" />
    <path
       d="M82.61,153.75l-.15-.08L82,153.4l-1.8-1.06h0l-3.19,3.35v-.09c.46.71,1,1.49,1.54,2.33l0,0,0,0a11.42,11.42,0,0,0-1.09,2.79v0l-.05,0-2.72.67.08-.1c0,1.46.06,3,.09,4.63l-.09-.11,2.74.56.07,0,0,.07a11.16,11.16,0,0,0,1.19,2.73l0,.06,0,.07-1.44,2.39,0-.16,3.33,3.21h-.16l2.33-1.54.07,0,.07,0a11.67,11.67,0,0,0,2.78,1.09l.08,0,0,.08.67,2.72-.14-.11,4.62-.08-.13.11c.18-.87.37-1.8.57-2.74l0-.08.08,0a11.4,11.4,0,0,0,2.73-1.18h0l.08,0,.07,0,2.39,1.45-.18,0,3.22-3.33,0,.17-1.53-2.34,0-.07,0-.07a11.12,11.12,0,0,0,1.1-2.77l0-.08.08,0,2.72-.67-.11.14c0-1.58-.05-3.13-.07-4.63l.1.13-2.74-.58h-.07l0-.08a11.6,11.6,0,0,0-1.19-2.74l0-.06,0-.06,1.45-2.39,0,.14-3.32-3.22.14,0-2.35,1.52,0,0,0,0a11.44,11.44,0,0,0-2.78-1.11h-.06v-.05c-.24-1-.45-1.88-.66-2.72l.09.06-4.63.06.06-.05c-.24,1.09-.43,2-.59,2.74v0h0a11.73,11.73,0,0,0-2.12.81l-.49.26-.17.09.15-.11.49-.28a11.36,11.36,0,0,1,2.11-.86l0,0,.55-2.74v-.05H86l4.62-.1h.07l0,.07c.2.84.43,1.72.67,2.71l-.07-.07a11.43,11.43,0,0,1,2.84,1.11H94c.74-.49,1.52-1,2.34-1.54l.07,0,.06.06c1.06,1,2.16,2.08,3.34,3.2l.07.07-.05.08-1.45,2.39v-.12a11.46,11.46,0,0,1,1.22,2.79l-.1-.09,2.74.57.11,0V161c0,1.5,0,3,.08,4.62v.11l-.11,0-2.72.66.1-.1a11.7,11.7,0,0,1-1.11,2.85V169l1.54,2.34.06.09-.08.08-3.21,3.33-.08.09-.1-.06-2.39-1.45h.15a12,12,0,0,1-2.8,1.22l.1-.11c-.2.94-.39,1.87-.57,2.74l0,.11h-.11l-4.63.08h-.11l0-.11c-.22-.94-.45-1.86-.66-2.72l.1.11a12.19,12.19,0,0,1-2.84-1.12H83l-2.34,1.53-.09.06-.07-.07-3.33-3.22-.07-.07.05-.09c.51-.83,1-1.65,1.45-2.39v.13a11.86,11.86,0,0,1-1.21-2.8l.09.08-2.74-.57-.08,0v-.09c0-1.62,0-3.17-.08-4.63v-.08l.08,0,2.72-.66-.07.07a11.69,11.69,0,0,1,1.12-2.82V158l-1.53-2.34,0,0,0,0,3.24-3.31,0,0,0,0c.77.48,1.36.84,1.76,1.1l.46.28Z"
       style="fill:#ff725e;fill-opacity:1"
       id="path280" />
  </g>
  <g
     id="freepik--Chart--inject-40">
    <path
       d="M398.07,142a4,4,0,0,1-.78.06l-2.24,0-8.24.09-27.19.07h-7.11l.18-.08-15.88,15.76-4.71,4.6-1.29,1.23a3.83,3.83,0,0,1-.47.4,3.83,3.83,0,0,1,.4-.47l1.23-1.28c1.11-1.15,2.67-2.74,4.6-4.72,4-4,9.49-9.56,15.76-15.88l.07-.07h7.22l27.19.08,8.24.08,2.24.05A6.85,6.85,0,0,1,398.07,142Z"
       style="fill:#263238"
       id="path283" />
    <circle
       cx="331.31"
       cy="163.46"
       r="3.67"
       style="fill:#263238"
       id="circle285" />
    <circle
       cx="416.08"
       cy="138.46"
       r="29.99"
       style="fill:#455a64"
       id="circle287" />
    <rect
       x="402.87"
       y="125.9"
       width="7.36"
       height="23.13"
       style="fill:#34d353;fill-opacity:1"
       id="rect289" />
    <rect
       x="413.42"
       y="129.78"
       width="7.36"
       height="19.04"
       style="fill:#34d353;fill-opacity:1"
       id="rect291" />
    <rect
       x="423.96"
       y="135.69"
       width="7.36"
       height="12.96"
       style="fill:#34d353;fill-opacity:1"
       id="rect293" />
  </g>
  <g
     id="freepik--Idea--inject-40">
    <path
       d="M132.28,65.27l.26,0,.74,0,2.87,0,10.54-.08L181.45,65h11l.07.08,18.58,20.07,5.4,5.92,1.44,1.6a5.38,5.38,0,0,1,.47.57,4.89,4.89,0,0,1-.54-.51l-1.5-1.54-5.51-5.82c-4.7-5-11.23-12-18.71-20l.19.09H181.45l-34.76-.07-10.54-.09-2.87-.05-.74,0A.9.9,0,0,1,132.28,65.27Z"
       style="fill:#263238"
       id="path296" />
    <circle
       cx="217.49"
       cy="92.6"
       r="3.67"
       style="fill:#263238"
       id="circle298" />
    <circle
       cx="115.17"
       cy="61.34"
       r="29.99"
       style="fill:#455a64"
       id="circle300" />
    <path
       d="M126.45,58.09A11.59,11.59,0,1,0,111.08,69L111,72.7l7.92.08V68.93A11.57,11.57,0,0,0,126.45,58.09Z"
       style="fill:#fbdc04;fill-opacity:1"
       id="path302" />
    <path
       d="M119,74.89a35.82,35.82,0,0,1-4,.12,33,33,0,0,1-4-.12,33,33,0,0,1,4-.12A33.19,33.19,0,0,1,119,74.89Z"
       style="fill:#fff"
       id="path304" />
    <path
       d="M116.35,77.94a3.2,3.2,0,0,1-1.42.16,3.25,3.25,0,0,1-1.42-.25,28.87,28.87,0,0,1,2.84.09Z"
       style="fill:#fff"
       id="path306" />
    <path
       d="M112.65,72.7s0,0,0-.13v-.39c0-.36,0-.86,0-1.5,0-1.32.08-3.2.13-5.52,0-1.16.06-2.44.1-3.8a2.55,2.55,0,0,0-.13-1,.65.65,0,0,0-.71-.47.94.94,0,0,0-.63.7,1.43,1.43,0,0,0,.13,1,2.33,2.33,0,0,0,1.8,1.2,2.39,2.39,0,0,0,2.1-.84,3.59,3.59,0,0,0,.88-2.26,2.18,2.18,0,0,0-.24-1.19.89.89,0,0,0-1-.42.87.87,0,0,0-.47,1,2.24,2.24,0,0,0,.56,1.09,4.36,4.36,0,0,0,1.94,1.5,2.35,2.35,0,0,0,1.17.14,2.42,2.42,0,0,0,1.06-.44,1.89,1.89,0,0,0,.67-.89,1.34,1.34,0,0,0-.07-1,.9.9,0,0,0-.79-.55,1.15,1.15,0,0,0-.84.5,4.87,4.87,0,0,0-.49,2c-.14,1.36-.24,2.63-.33,3.79-.16,2.31-.28,4.19-.37,5.51,0,.63-.08,1.13-.1,1.49l0,.39a1.11,1.11,0,0,1,0,.13s0,0,0-.13v-.39c0-.36,0-.86.05-1.5.06-1.3.15-3.18.3-5.51.08-1.16.16-2.43.3-3.8,0-.34.08-.69.14-1a2.62,2.62,0,0,1,.38-1,1.34,1.34,0,0,1,1-.6,1.14,1.14,0,0,1,1,.66,1.55,1.55,0,0,1,.08,1.23,2,2,0,0,1-.74,1,2.61,2.61,0,0,1-1.17.5,2.79,2.79,0,0,1-1.28-.15,4.61,4.61,0,0,1-2-1.58,2.58,2.58,0,0,1-.61-1.21,1,1,0,0,1,1.9-.71,2.34,2.34,0,0,1,.28,1.33,3.83,3.83,0,0,1-.94,2.41,2.64,2.64,0,0,1-2.31.91,2.56,2.56,0,0,1-2-1.33,1.69,1.69,0,0,1-.14-1.19,1.13,1.13,0,0,1,.8-.85.73.73,0,0,1,.59.13,1.06,1.06,0,0,1,.35.47,2.85,2.85,0,0,1,.14,1.07c0,1.37-.09,2.65-.13,3.81-.09,2.32-.16,4.19-.21,5.51,0,.64,0,1.14-.06,1.5l0,.39A.6.6,0,0,1,112.65,72.7Z"
       style="fill:#455a64"
       id="path308" />
    <path
       d="M117,72.73s0,0,0-.16v-.39l.06-1.5c0-1.23.14-3.15.29-5.51.07-1,.14-2,.24-3.11a3.18,3.18,0,0,1-.51-.13,3.88,3.88,0,0,1-.9-.47,3.18,3.18,0,0,1-.5.7,2.69,2.69,0,0,1-2,1l-.32,0-.26,0c0,.36,0,.72,0,1.08l0,1c-.09,2.32-.16,4.2-.21,5.52,0,.63,0,1.13-.07,1.49v.18c0,.08,0,.15,0,.21s0,.16,0,.16h0s0,0,0-.16v-.8c0-.31,0-.67,0-1.09l.13-5.52.06-2.19a2.49,2.49,0,0,1-1.49-1.23,1.67,1.67,0,0,1-.14-1.2,1.19,1.19,0,0,1,.81-.88.82.82,0,0,1,.62.14,1,1,0,0,1,.35.48,2.66,2.66,0,0,1,.15,1.08c0,.48,0,.94-.05,1.39l.29,0a2.35,2.35,0,0,0,2.07-.83,3.29,3.29,0,0,0,.47-.68,5.87,5.87,0,0,1-.92-.94,2.66,2.66,0,0,1-.62-1.23,1.15,1.15,0,0,1,.64-1.25,1.12,1.12,0,0,1,1.31.53,2.36,2.36,0,0,1,.29,1.34,4,4,0,0,1-.33,1.46,3.32,3.32,0,0,0,.87.46,3.17,3.17,0,0,0,.44.12c0-.14,0-.27,0-.41l0-.29c0-.24.06-.5.1-.76a2.56,2.56,0,0,1,.39-1,1.31,1.31,0,0,1,1-.61h0a1.17,1.17,0,0,1,1,.67,1.61,1.61,0,0,1,.08,1.24,2.11,2.11,0,0,1-.76,1,2.55,2.55,0,0,1-1.18.5,2.34,2.34,0,0,1-.53,0c-.11,1.11-.19,2.15-.26,3.1-.16,2.29-.28,4.15-.37,5.47v0c0,.63-.07,1.14-.1,1.5l0,.38C117,72.72,117,72.73,117,72.73Zm.61-10.66c-.1,1.06-.17,2.08-.24,3.1-.15,2.36-.24,4.28-.29,5.51l0,1.47c0-.36,0-.85.09-1.46v0c.09-1.31.21-3.18.37-5.47.07-.94.15-2,.26-3.09Zm-4.73.92-.06,2.18-.13,5.51c0,.42,0,.78,0,1.09v.37c0-.35,0-.84.07-1.46,0-1.32.12-3.2.21-5.51l0-1.06c0-.35,0-.71,0-1.09Zm.19,0,.27,0a2.59,2.59,0,0,0,2.28-.9,3.51,3.51,0,0,0,.49-.7.91.91,0,0,1-.16-.11,3.65,3.65,0,0,1-.47.69,2.49,2.49,0,0,1-1.83.87,1.43,1.43,0,0,1-.29,0l-.28-.05C113.07,62.86,113.06,62.92,113.06,63Zm-.19-.06.14,0c0-.06,0-.12,0-.18l-.14,0Zm-.72-3.23H112a1.17,1.17,0,0,0-.78.84,1.7,1.7,0,0,0,.14,1.17,2.46,2.46,0,0,0,1.45,1.2v-.19a2.26,2.26,0,0,1-1.3-1.09,1.43,1.43,0,0,1-.13-1,1,1,0,0,1,.64-.73.67.67,0,0,1,.74.49,2.62,2.62,0,0,1,.14,1l0,1.33.14.05c0-.45,0-.91,0-1.38a2.72,2.72,0,0,0-.14-1.06,1,1,0,0,0-.34-.46A.82.82,0,0,0,112.15,59.7Zm0,.21h-.1a.93.93,0,0,0-.61.69,1.45,1.45,0,0,0,.13,1,2.23,2.23,0,0,0,1.26,1.06l0-1.32a2.51,2.51,0,0,0-.14-1A.64.64,0,0,0,112.15,59.91ZM117.8,62a2.34,2.34,0,0,0,.53,0,2.52,2.52,0,0,0,1.15-.49,2,2,0,0,0,.74-1,1.51,1.51,0,0,0-.08-1.2,1.1,1.1,0,0,0-.94-.65h0a1.26,1.26,0,0,0-1,.58,2.7,2.7,0,0,0-.38,1c0,.26-.07.51-.1.76l0,.28c0,.14,0,.28,0,.42h.14c0-.13,0-.27,0-.41s0-.29.05-.43a3.65,3.65,0,0,1,.44-1.57,1.12,1.12,0,0,1,.86-.51h0a.93.93,0,0,1,.8.55,1.41,1.41,0,0,1,.06,1.07,1.84,1.84,0,0,1-.68.9,2.33,2.33,0,0,1-1.07.45,2.55,2.55,0,0,1-.48,0C117.81,61.92,117.81,62,117.8,62Zm-.19,0,.14,0c0-.06,0-.12,0-.19h-.15Zm-1.45-.6a3.49,3.49,0,0,0,.9.46,2.17,2.17,0,0,0,.5.13v-.18l-.45-.12a3.65,3.65,0,0,1-.87-.46Zm1.66.39a2.43,2.43,0,0,0,.47,0,2.29,2.29,0,0,0,1-.44,1.82,1.82,0,0,0,.66-.87,1.31,1.31,0,0,0-.06-1,.87.87,0,0,0-.75-.53h0a1.07,1.07,0,0,0-.82.49,3.48,3.48,0,0,0-.43,1.55c0,.14,0,.29,0,.43S117.84,61.67,117.82,61.81ZM116,61.27l.16.12.08-.17-.15-.12Zm-.63-3.41a1,1,0,0,0-.92,1.26,2.67,2.67,0,0,0,.6,1.2,6.1,6.1,0,0,0,.91.92l.09-.18a5.28,5.28,0,0,1-.84-.86,2.41,2.41,0,0,1-.57-1.11.93.93,0,0,1,.49-1,.91.91,0,0,1,1,.44,2.21,2.21,0,0,1,.25,1.2,3.9,3.9,0,0,1-.29,1.32l.16.12a4,4,0,0,0,.32-1.43,2.31,2.31,0,0,0-.28-1.31A1.16,1.16,0,0,0,115.33,57.86Zm0,.24a.78.78,0,0,0-.21,0,.86.86,0,0,0-.46.94,2.45,2.45,0,0,0,.55,1.09A6.09,6.09,0,0,0,116,61a4,4,0,0,0,.28-1.29,2.14,2.14,0,0,0-.25-1.18A.92.92,0,0,0,115.32,58.1Z"
       style="fill:#263238"
       id="path310" />
    <path
       d="M118.26,76.41a21.92,21.92,0,0,1-3.28.12,21.84,21.84,0,0,1-3.27-.12,23.56,23.56,0,0,1,3.27-.12A23.65,23.65,0,0,1,118.26,76.41Z"
       style="fill:#fff"
       id="path312" />
  </g>
  <g
     id="freepik--Plant--inject-40">
    <path
       d="M435.54,443.71a7.13,7.13,0,0,1,3.7,4.07,12.14,12.14,0,0,1,.54,5.48c-.38,3.55-2.4,7.11-4.6,9.92-3.08-2.64-3.84-7.2-4.07-9.53-.37-3.69,1.25-10.53,4.43-9.94"
       style="fill:#FF725E"
       id="path315" />
    <path
       d="M438.8,469.08a5.7,5.7,0,0,1,1.88-5.56,8,8,0,0,1,5.87-1.74,3.55,3.55,0,0,1,2.6,1.16,2.48,2.48,0,0,1,.06,2.55,5,5,0,0,1-1.91,1.84c-2.63,1.59-5.49,2.66-8.5,1.75"
       style="fill:#FF725E"
       id="path317" />
    <path
       d="M435,479.93a3.82,3.82,0,0,1,.1-.73c.09-.51.21-1.17.35-2a19.87,19.87,0,0,1,2-6.28A12.34,12.34,0,0,1,442,466.2a8.89,8.89,0,0,1,1.87-.8c.23-.07.42-.1.55-.13l.19,0a13.85,13.85,0,0,0-2.52,1.11,12.75,12.75,0,0,0-4.44,4.72,21.27,21.27,0,0,0-2.06,6.19c-.18.83-.32,1.49-.44,2A3.7,3.7,0,0,1,435,479.93Z"
       style="fill:#263238"
       id="path319" />
    <path
       d="M434.78,449a1.64,1.64,0,0,1,0,.32c0,.24,0,.54.07.91.05.8.11,1.95.17,3.37.13,2.85.24,6.78.27,11.13s0,8.27-.13,11.12c-.05,1.42-.09,2.57-.14,3.36,0,.38,0,.68-.05.92a1,1,0,0,1,0,.31,1.57,1.57,0,0,1,0-.32v-.91c0-.83,0-2,.05-3.37,0-2.85.08-6.77.05-11.12s-.11-8.27-.19-11.11c0-1.4-.06-2.54-.09-3.37,0-.38,0-.68,0-.92A1.57,1.57,0,0,1,434.78,449Z"
       style="fill:#263238"
       id="path321" />
    <path
       d="M433.53,471.19a14.18,14.18,0,0,0-7.78-10.14c-1-.49-2.37-.82-3.2-.08s-.63,2.07-.21,3.11a12.32,12.32,0,0,0,11.12,7.4"
       style="fill:#FF725E"
       id="path323" />
    <path
       d="M426.28,464.42a4.55,4.55,0,0,1,.65.29,4.93,4.93,0,0,1,.74.39,9.7,9.7,0,0,1,.94.58,11,11,0,0,1,1.08.8,13,13,0,0,1,1.15,1,15.77,15.77,0,0,1,2.19,2.73,15,15,0,0,1,1.45,3.16,13.3,13.3,0,0,1,.38,1.47,9.59,9.59,0,0,1,.19,1.29,8.71,8.71,0,0,1,.07,1.08,5.12,5.12,0,0,1,0,.81,3.47,3.47,0,0,1-.07.69c-.06,0,0-1-.16-2.56a11.48,11.48,0,0,0-.23-1.27,13,13,0,0,0-.39-1.44,15.61,15.61,0,0,0-1.45-3.1,17.08,17.08,0,0,0-2.14-2.7,14.52,14.52,0,0,0-1.11-1,13,13,0,0,0-1.05-.81C427.18,464.89,426.25,464.47,426.28,464.42Z"
       style="fill:#263238"
       id="path325" />
  </g>
  <g
     id="freepik--Character--inject-40">
    <path
       d="M75.46,233.14l0,30.12c0,5.13,6.15,14.31,14.25,13.95h.66c7-.84,3-9.17,3-14,0-2.27,0-4.16,0-4.4,0,0,7.67-.71,8.23-8.3.27-3.67.21-11.27.08-18.15a14.18,14.18,0,0,0-13.31-13.87l-.74,0C79.71,218.48,75.26,225.21,75.46,233.14Z"
       style="fill:#ffbe9d"
       id="path328" />
    <path
       d="M93.38,258.87a18.39,18.39,0,0,1-9.72-3.53s2.08,5.7,9.7,5.48Z"
       style="fill:#eb996e"
       id="path330" />
    <path
       d="M88.76,235.68c-.15.16-1-.54-2.31-.56s-2.21.62-2.34.45.08-.35.49-.65a3.24,3.24,0,0,1,1.89-.55,3.1,3.1,0,0,1,1.83.64C88.7,235.32,88.83,235.61,88.76,235.68Z"
       style="fill:#263238"
       id="path332" />
    <path
       d="M88.93,239.22a1,1,0,0,1-1.05,1,1,1,0,0,1-1-1,1,1,0,0,1,1.05-1A1,1,0,0,1,88.93,239.22Z"
       style="fill:#263238"
       id="path334" />
    <path
       d="M92,244.48a7.39,7.39,0,0,1,1.92-.22c.3,0,.59-.06.65-.26a1.48,1.48,0,0,0-.15-.89c-.23-.74-.48-1.52-.74-2.33a38.67,38.67,0,0,1-1.61-6.06,40.22,40.22,0,0,1,2.1,5.92c.24.81.48,1.59.7,2.33a1.74,1.74,0,0,1,.08,1.18.74.74,0,0,1-.51.41,2.46,2.46,0,0,1-.51,0A7.39,7.39,0,0,1,92,244.48Z"
       style="fill:#263238"
       id="path336" />
    <path
       d="M88.16,231.55c-.12.28-1.14.08-2.35.16s-2.22.36-2.36.09.12-.39.53-.65a4,4,0,0,1,1.78-.52,3.78,3.78,0,0,1,1.81.33C88,231.18,88.21,231.42,88.16,231.55Z"
       style="fill:#263238"
       id="path338" />
    <path
       d="M100.26,232.6c-.13.23-1.13,0-2.33,0s-2.2.14-2.33-.1.14-.32.56-.51a4.54,4.54,0,0,1,3.54.1C100.12,232.27,100.31,232.49,100.26,232.6Z"
       style="fill:#263238"
       id="path340" />
    <path
       d="M75.73,238.8c-.12-.07-5.12-1.87-5.28,3.34s5.11,4.28,5.12,4.13S75.73,238.8,75.73,238.8Z"
       style="fill:#ffbe9d"
       id="path342" />
    <path
       d="M74,244.25s-.09.07-.25.13a.92.92,0,0,1-.68,0,2.27,2.27,0,0,1-1-2,3,3,0,0,1,.3-1.29,1,1,0,0,1,.7-.67.45.45,0,0,1,.53.26c.06.15,0,.25,0,.26s.12-.08.08-.3a.63.63,0,0,0-.19-.33.71.71,0,0,0-.5-.15,1.29,1.29,0,0,0-1,.78,3.07,3.07,0,0,0-.36,1.44A2.35,2.35,0,0,0,73,244.62a1,1,0,0,0,.83-.12C74,244.38,74.06,244.26,74,244.25Z"
       style="fill:#eb996e"
       id="path344" />
    <path
       d="M68.72,230.46c1.06-1.85,1.29-4,1.86-6.09s1.68-4.19,3.68-4.93l0,0a5.47,5.47,0,0,1,5.51.45,7.11,7.11,0,0,1,5.32-5.6,17.64,17.64,0,0,1,9.41.63c2,.77,3.87,2.36,6.2,4.7a25.65,25.65,0,0,1,2.69,3.19l2.38,7.06-1.93,3.73a7.6,7.6,0,0,1-.37.76h0l-1.68,7.85c-.14-2.14-.07-9.57-.2-11.7a11.88,11.88,0,0,1-8.53-3.82c-1.19-1.28-2.12-2.89-3.69-3.64-2-1-4.41-.22-6.52.54l.09-.08a9.53,9.53,0,0,0-2.92,2.15,29.63,29.63,0,0,1-1.13,12.55c-.2.6-.72,1.86-1.32,2.09-1.16.47-1.49-.72-2.2-1.34a3.09,3.09,0,0,0-2.13-.5,48.36,48.36,0,0,1-1.49-5.38,4.73,4.73,0,0,1-2.18.17l.65-1.61a2.4,2.4,0,0,1-.93.43.85.85,0,0,1-.89-.38C68.23,231.31,68.5,230.84,68.72,230.46Z"
       style="fill:#263238"
       id="path346" />
    <path
       d="M82.21,220.75a8.45,8.45,0,0,0-.75.71A5.48,5.48,0,0,0,80.32,224a9.63,9.63,0,0,0-.17,1.93c0,.7.07,1.45.13,2.23a20.13,20.13,0,0,1,.09,2.49,8.64,8.64,0,0,1-.16,1.32,2.68,2.68,0,0,1-.52,1.28,1.15,1.15,0,0,1-1.06.37,1.71,1.71,0,0,1-1-.54,3.87,3.87,0,0,1-.76-1.92l.16,0a6.08,6.08,0,0,1-.9,1.6,2.22,2.22,0,0,1-1.47.82,1.38,1.38,0,0,1-.78-.13,1.27,1.27,0,0,1-.54-.51,1.36,1.36,0,0,1-.17-.67,1,1,0,0,1,.24-.6l.08.07a4.55,4.55,0,0,1-2.12,1.45l-.18,0,.17-.07c.11,0,.28-.12.49-.23a5.11,5.11,0,0,0,1.56-1.25l.08.07a1,1,0,0,0,0,1.12,1.09,1.09,0,0,0,.49.46,1.3,1.3,0,0,0,.71.11,2.12,2.12,0,0,0,1.36-.78,6.24,6.24,0,0,0,.87-1.57l.11-.24,0,.26a3.83,3.83,0,0,0,.72,1.84,1.5,1.5,0,0,0,.86.47,1,1,0,0,0,.91-.31,2.65,2.65,0,0,0,.48-1.2,8.12,8.12,0,0,0,.16-1.29,19.77,19.77,0,0,0-.08-2.46c-.06-.79-.12-1.54-.11-2.25A9,9,0,0,1,80.2,224a5.4,5.4,0,0,1,1.21-2.56A3.25,3.25,0,0,1,82.21,220.75Z"
       style="fill:#455a64"
       id="path348" />
    <path
       d="M105.77,227.86l-.07.06-.18.14-.32.21a3.87,3.87,0,0,1-.46.24,6.72,6.72,0,0,1-3.24.63,8.65,8.65,0,0,1-4.6-1.64,14.67,14.67,0,0,1-4-4.49c-.57-.91-1-1.85-1.53-2.71A10.13,10.13,0,0,0,89.66,218a5.07,5.07,0,0,0-2.2-1.3,3.53,3.53,0,0,0-1.15-.12,3.91,3.91,0,0,0-1,.21,4.44,4.44,0,0,0-2.42,2.09,6.19,6.19,0,0,0-.38,1.14.42.42,0,0,1,0-.07l0-.24a4.13,4.13,0,0,1,.28-.86,4.35,4.35,0,0,1,.84-1.16,4.55,4.55,0,0,1,1.59-1,4.68,4.68,0,0,1,1.09-.23,3.79,3.79,0,0,1,1.2.11,5.39,5.39,0,0,1,2.28,1.33,10.35,10.35,0,0,1,1.76,2.32c.51.87,1,1.8,1.53,2.71A14.84,14.84,0,0,0,97,227.36a8.54,8.54,0,0,0,4.51,1.65,6.82,6.82,0,0,0,3.2-.56A9.88,9.88,0,0,0,105.77,227.86Z"
       style="fill:#455a64"
       id="path350" />
    <path
       d="M100.35,236c-.15.16-1-.54-2.31-.55s-2.21.61-2.34.45.08-.36.49-.65a3.15,3.15,0,0,1,1.89-.56,3.1,3.1,0,0,1,1.83.64C100.29,235.67,100.42,236,100.35,236Z"
       style="fill:#263238"
       id="path352" />
    <path
       d="M99.2,239.22a1,1,0,0,1-1,1,1,1,0,0,1-1-1,1,1,0,0,1,1.06-1A1,1,0,0,1,99.2,239.22Z"
       style="fill:#263238"
       id="path354" />
    <path
       d="M102.78,222a3.28,3.28,0,0,0,2.7,1.52,7.51,7.51,0,0,0,1.14-.33c.37.22.28,1.5,0,1.85a6.18,6.18,0,0,1-.8.82c1.25.67,2.39.34,3.72-.14a6.52,6.52,0,0,1-3.88,5.22,2.29,2.29,0,0,1-2.1,0,2.64,2.64,0,0,1-.91-1.63,28.4,28.4,0,0,1-.93-7Z"
       style="fill:#263238"
       id="path356" />
    <path
       d="M92.05,247.74c0,.07-.22.23-.7.3a2.84,2.84,0,0,1-3-1.77c-.17-.44-.14-.74-.08-.76s.44,1.07,1.54,1.72A5.91,5.91,0,0,0,92.05,247.74Z"
       style="fill:#263238"
       id="path358" />
    <polygon
       points="131.64 321.85 99.39 322.57 98.81 311.81 137.66 314.98 131.64 321.85"
       style="fill:#ffbe9d"
       id="polygon360" />
    <path
       d="M156.05,287.86s.36.79.36.79l-13,24.81-12.56,6.09-26.5-1.17v-1.62l11.94-6.14,19.29.48,10.36-20.53a1.89,1.89,0,0,1,1.33-1Z"
       style="fill:#455a64"
       id="path362" />
    <path
       d="M130.81,319.55a6.86,6.86,0,0,0,.8-1.22c.46-.77,1.07-1.85,1.73-3.05s1.24-2.28,1.65-3.08a6.28,6.28,0,0,0,.6-1.33,6.86,6.86,0,0,0-.8,1.22c-.45.77-1.07,1.85-1.73,3.05s-1.24,2.29-1.65,3.09A6.36,6.36,0,0,0,130.81,319.55Z"
       style="fill:#263238"
       id="path364" />
    <polygon
       points="128.01 316.9 115.17 316.48 124.86 311.42 135.24 311.66 128.01 316.9"
       style="fill:#263238"
       id="polygon366" />
    <path
       d="M104.31,316.7l.28,0,.8,0,2.92.09c2.47.08,5.89.23,9.65.4s7.19.28,9.66.3c1.24,0,2.24,0,2.93,0l.8,0,.28,0-.28,0-.8,0-2.92-.09c-2.47-.08-5.88-.23-9.65-.4s-7.19-.28-9.66-.3c-1.24,0-2.24,0-2.93,0l-.8,0C104.41,316.67,104.31,316.68,104.31,316.7Z"
       style="fill:#263238"
       id="path368" />
    <path
       d="M143.32,309.05c-.35-.41-1.84-1.3-3,2.44,0,0-.53-.54-1.6.83a30.51,30.51,0,0,0-2.53,4.63l-3,1.45-2.39,1.15s.65,2.4.83,2.3,3.44-.28,3.44-.28l.89-.42s2.19,0,2.31-.59,3.74-3.09,3.74-3.62V313.5S143.68,309.47,143.32,309.05Z"
       style="fill:#ffbe9d"
       id="path370" />
    <path
       d="M140.06,311.42s.07,0,.16.05a.35.35,0,0,1,.2.34v0c-.14.44-.3,1.11-.48,1.94s-.38,1.81-.68,2.82a5.23,5.23,0,0,1-1,1.81l-1.08,1.4a7.38,7.38,0,0,0-.93,1.34,10,10,0,0,0,1.1-1.2l1.14-1.36a8.56,8.56,0,0,0,.64-.85,4.16,4.16,0,0,0,.47-1.05,26.11,26.11,0,0,0,.65-2.86q.21-1.11.36-1.95v0h0a.42.42,0,0,0-.32-.41C140.12,311.38,140.06,311.41,140.06,311.42Z"
       style="fill:#eb996e"
       id="path372" />
    <path
       d="M140.59,318.4a10.55,10.55,0,0,0,.87-2.41,10.75,10.75,0,0,0,.56-2.49,20.09,20.09,0,0,0-1.43,4.9Z"
       style="fill:#eb996e"
       id="path374" />
    <path
       d="M85,453.9l-4.44,15.4S94.68,479,94.13,481.92L64,474.37l5.94-24.28Z"
       style="fill:#455a64"
       id="path376" />
    <path
       d="M71.51,465.66a1.27,1.27,0,0,0-1.2,1.19,1.23,1.23,0,0,0,1.17,1.21,1.35,1.35,0,0,0,1.27-1.27,1.26,1.26,0,0,0-1.36-1.12"
       style="fill:#e0e0e0"
       id="path378" />
    <g
       style="opacity:0.6000000000000001"
       id="g382">
      <path
         d="M64,474.37l.69-2.42,28.68,8.14s1.19.92.8,1.83Z"
         style="fill:#fff"
         id="path380" />
    </g>
    <path
       d="M81,469.27c0,.15-.79,0-1.64.32s-1.38.82-1.5.72.31-.89,1.34-1.22S81.11,469.14,81,469.27Z"
       style="fill:#263238"
       id="path384" />
    <path
       d="M83.88,471.37c0,.15-.7.24-1.36.74s-1,1.12-1.11,1.08,0-.9.8-1.51S83.91,471.23,83.88,471.37Z"
       style="fill:#263238"
       id="path386" />
    <path
       d="M84.73,475.61c-.14,0-.16-.79.42-1.5s1.35-.87,1.38-.73-.5.47-1,1.06S84.88,475.63,84.73,475.61Z"
       style="fill:#263238"
       id="path388" />
    <path
       d="M81.67,465.65c-.1.12-.72-.26-1.57-.41s-1.56-.05-1.61-.2.71-.51,1.71-.32S81.77,465.55,81.67,465.65Z"
       style="fill:#263238"
       id="path390" />
    <path
       d="M74.38,457.52l-.7,16s16,6.09,16.21,9.06l-31.11-.24.07-25Z"
       style="fill:#455a64"
       id="path392" />
    <path
       d="M64.08,472.12a1.26,1.26,0,0,0-.89,1.44,1.21,1.21,0,0,0,1.42.89,1.33,1.33,0,0,0,.93-1.53,1.26,1.26,0,0,0-1.58-.76"
       style="fill:#e0e0e0"
       id="path394" />
    <g
       style="opacity:0.6000000000000001"
       id="g398">
      <path
         d="M58.78,482.36l.11-2.52L88.67,481s1.38.61,1.22,1.58Z"
         style="fill:#fff"
         id="path396" />
    </g>
    <path
       d="M74.19,473.39c0,.15-.77.21-1.52.69s-1.15,1.12-1.29,1.06.09-.94,1-1.5S74.22,473.25,74.19,473.39Z"
       style="fill:#263238"
       id="path400" />
    <path
       d="M77.44,474.76c0,.15-.63.4-1.15,1s-.67,1.32-.82,1.31-.24-.87.42-1.65S77.44,474.62,77.44,474.76Z"
       style="fill:#263238"
       id="path402" />
    <path
       d="M79.26,478.68c-.14,0-.34-.73.06-1.56s1.11-1.15,1.17-1-.38.57-.7,1.26S79.41,478.67,79.26,478.68Z"
       style="fill:#263238"
       id="path404" />
    <path
       d="M73.94,469.72c-.06.14-.76-.08-1.62,0s-1.53.32-1.6.19.57-.67,1.58-.72S74,469.6,73.94,469.72Z"
       style="fill:#263238"
       id="path406" />
    <path
       d="M74.34,469.54a25.2,25.2,0,0,1,0,3.85l-.12-.19c1.82.69,4.23,1.62,6.8,2.83A36.75,36.75,0,0,1,88,480a7.58,7.58,0,0,1,1.71,1.74c.32.5.28.88.23.86a2.4,2.4,0,0,0-.4-.74,8.77,8.77,0,0,0-1.76-1.56,44.54,44.54,0,0,0-6.89-3.79c-2.55-1.21-4.94-2.18-6.72-2.94l-.13-.06v-.13A26.68,26.68,0,0,1,74.34,469.54Z"
       style="fill:#263238"
       id="path408" />
    <path
       d="M57.1,350.4v11.5l3.09,44.81s-1.92,21.74-3.1,34c-1,10.65.65,29.21.65,29.21h18L82.15,408l4-38.6,6.94-17.57Z"
       style="fill:#263238"
       id="path410" />
    <polygon
       points="105.39 352.44 101.01 414.92 82.82 461.72 81.98 464.54 71.24 461.94 79.23 351.18 105.39 352.44"
       style="fill:#263238"
       id="polygon412" />
    <path
       d="M88.31,369.9s0,.09,0,.26,0,.44,0,.76c0,.69-.07,1.68-.11,2.93-.09,2.55-.31,6.23-.62,10.78-.66,9.08-1.89,21.63-3.8,35.43s-4,26.27-5.49,35.29c-.77,4.49-1.4,8.14-1.83,10.67-.23,1.25-.4,2.22-.52,2.9-.06.32-.11.57-.15.76a.83.83,0,0,1-.06.25,1,1,0,0,1,0-.26c0-.18.06-.44.11-.76.1-.68.25-1.66.44-2.9.4-2.55,1-6.19,1.7-10.69,1.45-9,3.49-21.49,5.37-35.3s3.19-26.33,3.92-35.41c.35-4.54.61-8.22.75-10.76.08-1.26.14-2.24.19-2.93l0-.76A1.11,1.11,0,0,1,88.31,369.9Z"
       style="fill:#455a64"
       id="path414" />
    <path
       d="M87.24,354.26a.93.93,0,1,1-1.85,0,.93.93,0,0,1,1.85,0Z"
       style="fill:#455a64"
       id="path416" />
    <path
       d="M54.39,356.4s2.07-15.75,2.29-17.54,3.71-24.62,3.71-24.62l-3.26-43.38c2.47-2.7,15.41-11.06,15.41-11.06l2-5.53,16.17,12.1L92.86,273l.75-10.85L97.13,266l.28,6.61L99.66,276l2.44,15.13a48.66,48.66,0,0,1,.6,6.38l.51,19.08L107,359.22l-12.73,4a27.76,27.76,0,0,1-14.16.62c-6.76-1.47-16.11-3.46-17.8-3.6C59.6,360,57.08,363,57.08,363,56.58,363,54.12,359.38,54.39,356.4Z"
       style="fill:#FF725E"
       id="path418" />
    <path
       d="M73,259.38a4.61,4.61,0,0,0,.6.82c.41.5,1,1.22,1.79,2.08,1.54,1.74,3.81,4,6.26,6.55,1.21,1.27,2.34,2.49,3.33,3.63l.11.14.13-.13c1.65-1.64,2.84-3.22,3.76-4.26L90.09,267a2.54,2.54,0,0,0,.37-.44s-.17.11-.45.37-.67.65-1.14,1.16c-1,1-2.2,2.55-3.84,4.15l.24,0c-1-1.17-2.11-2.4-3.32-3.67-2.46-2.55-4.74-4.79-6.33-6.47-.8-.84-1.44-1.53-1.88-2A5.48,5.48,0,0,0,73,259.38Z"
       style="fill:#263238"
       id="path420" />
    <path
       d="M98.3,338.28s0-.06,0-.17,0-.3,0-.5c0-.47-.06-1.1-.11-1.91-.11-1.68-.26-4.07-.46-7-.41-5.92-1-14.09-1.72-23.1s-1.42-17.19-2-23.09c-.29-2.95-.56-5.33-.76-7-.11-.8-.19-1.43-.26-1.89,0-.2,0-.36-.07-.49s0-.17,0-.17,0,.06,0,.17l0,.5c0,.46.11,1.1.2,1.9.15,1.68.37,4.06.64,7,.52,5.9,1.19,14.06,1.9,23.08s1.36,17.16,1.83,23.1c.24,2.93.44,5.31.57,7,.08.81.13,1.44.18,1.9,0,.2,0,.37,0,.5S98.29,338.28,98.3,338.28Z"
       style="fill:#263238"
       id="path422" />
    <g
       style="opacity:0.30000000000000004"
       id="g426">
      <path
         d="M103.45,320.67c-1.7.84-3.63,1.14-5.3,2a19,19,0,0,0-3.22,2.45c-7.09,6.11-16,10.49-25.37,10.65-3.21.06-6.65-.47-9-2.62-1.31-1.18-2.25-3-1.74-4.71.62-2.06,3-3,5-3.62l19.18-6a86.71,86.71,0,0,1,12.27-3.18,43.06,43.06,0,0,1,8.49-.51"
         id="path424" />
    </g>
    <path
       d="M82.18,347.41c0,.09,4.68-2.41,10.33-5.57s10.21-5.81,10.16-5.9-4.67,2.41-10.33,5.58S82.13,347.33,82.18,347.41Z"
       style="fill:#263238"
       id="path428" />
    <path
       d="M96.84,362.42a5.23,5.23,0,0,0,0-.91c0-.65-.08-1.47-.13-2.45-.09-2.07-.11-4.93-.07-8.1s0-6,0-8.11q0-1.49,0-2.46a5.79,5.79,0,0,0-.06-.91,3.57,3.57,0,0,0-.08.91c0,.65-.06,1.47-.09,2.45-.06,2.08-.11,5-.15,8.12s0,6,.18,8.11c.07,1,.17,1.88.24,2.46A3.7,3.7,0,0,0,96.84,362.42Z"
       style="fill:#263238"
       id="path430" />
    <g
       style="opacity:0.30000000000000004"
       id="g434">
      <path
         d="M73.08,311.81c-1.62-6.21-1.46-13.33-1.29-19.7-1.14,4.37-2.42,11.06-3.36,15.66l1.81,4.41Z"
         id="path432" />
    </g>
    <g
       style="opacity:0.30000000000000004"
       id="g438">
      <path
         d="M92.86,273c0-.12.59.57,0,0a20.79,20.79,0,0,1-2.32-3.26,51.4,51.4,0,0,0-4.87,5.14c-2.23-2.33-4.47-4.67-6.49-7.19a54.94,54.94,0,0,1-4.41-6.39l10.37,11.07,5.59-6Z"
         id="path436" />
    </g>
    <path
       d="M96.74,308l-.48,8.57s-12.71,5.94-21,8.08-17.89,1-17.89,1l3.28-13.08Z"
       style="fill:#ffbe9d"
       id="path440" />
    <path
       d="M121.32,309.8a1.83,1.83,0,0,0-.93-1.76c-1.1-.68-3.42-2.19-3.42-2.19l-7-.63L96.74,308l-.48,8.57s6.74.37,8.3.32a37.94,37.94,0,0,0,5.92-1.45s7.3.92,7.65.52.81-.87.35-1.16-6.09-1.74-6.09-1.74l3.77-.29s5.5,1.16,5.91,1,.93-.87.58-1.4l-.35-.52a1.17,1.17,0,0,0-.58-1.45l-.52-.17Z"
       style="fill:#ffbe9d"
       id="path442" />
    <path
       d="M111.32,309.69A4.39,4.39,0,0,0,113,310a17,17,0,0,1,4,.35,22.22,22.22,0,0,1,2.07.87,14.89,14.89,0,0,0,1.75.64,5.8,5.8,0,0,0,1.67.34,16,16,0,0,0-1.6-.56c-.49-.18-1.07-.4-1.7-.69a15.22,15.22,0,0,0-2.09-.91,8.18,8.18,0,0,0-2.28-.3c-.7,0-1.33,0-1.85,0C112,309.75,111.33,309.64,111.32,309.69Z"
       style="fill:#eb996e"
       id="path444" />
    <path
       d="M111.93,307.72a3.61,3.61,0,0,0,1.51.19,8.16,8.16,0,0,1,3.53.46c1.31.55,2.49,1.08,3.36,1.43a6.2,6.2,0,0,0,1.44.5,8,8,0,0,0-1.34-.72c-.85-.4-2-1-3.34-1.51a5.5,5.5,0,0,0-2-.45c-.63,0-1.19,0-1.66.06C112.51,307.75,111.94,307.67,111.93,307.72Z"
       style="fill:#eb996e"
       id="path446" />
    <path
       d="M57.13,270.86s-4.4,7.55-5,10.29-1.92,31.65-1.37,32.19a15.28,15.28,0,0,0,1.51,1.24s-3.16.68-2.2,2.33A29,29,0,0,0,52,319.78s1.75,7.28,2.33,7.41,13.84.6,13.84.6a50.43,50.43,0,0,0,2.54-7.3c.75-3,3.2-10.18,3.2-10.18l-4.4-1.81,3-21.85S73.79,274.84,69,271.8,58.92,267.79,57.13,270.86Z"
       style="fill:#FF725E"
       id="path448" />
    <path
       d="M96.26,316.61a3.21,3.21,0,0,0,.81.1l2.2.13,3.27.16,1.93.08a4.81,4.81,0,0,0,1-.17l1-.25c1.42-.35,2.76-.71,4-1h-.06l4.44.37,1.27.08a1.35,1.35,0,0,0,.46,0,1.38,1.38,0,0,0-.45-.09l-1.26-.17c-1.08-.13-2.62-.3-4.43-.49h0l-4,1-1,.25a5.21,5.21,0,0,1-1,.17l-1.93-.06-3.26-.09-2.21,0A4.31,4.31,0,0,0,96.26,316.61Z"
       style="fill:#eb996e"
       id="path450" />
    <path
       d="M68.94,326.69a5.39,5.39,0,0,1,.26-1.23c.24-.89.54-2,.9-3.31.78-2.79,1.9-6.64,3.16-10.88l.29-1,.15.31-4.1-1.9.28-.05c-2.09,2.23-3.9,4.12-5.19,5.45l-1.53,1.53a2.87,2.87,0,0,1-.58.51,3.1,3.1,0,0,1,.47-.62l1.42-1.63c1.23-1.38,3-3.32,5.06-5.57l.11-.13.17.07,4.1,1.87.21.09-.07.22c-.09.33-.19.66-.29,1-1.26,4.24-2.44,8.07-3.31,10.83-.42,1.3-.77,2.39-1.06,3.27A6.55,6.55,0,0,1,68.94,326.69Z"
       style="fill:#263238"
       id="path452" />
    <path
       d="M69.65,308a20.68,20.68,0,0,1,.32-3.45c.27-2.13.69-5.07,1.17-8.31s1-6.16,1.33-8.28a23.27,23.27,0,0,1,.7-3.4,21.55,21.55,0,0,1-.33,3.46c-.28,2.13-.69,5.06-1.18,8.3s-1,6.17-1.33,8.28c-.18,1.06-.33,1.91-.45,2.5A3.42,3.42,0,0,1,69.65,308Z"
       style="fill:#263238"
       id="path454" />
    <path
       d="M59,269.75a2.24,2.24,0,0,1,.76-.35A9.6,9.6,0,0,1,62,269a10.27,10.27,0,0,1,10.89,8.68A9.4,9.4,0,0,1,73,280a2.19,2.19,0,0,1-.17.82,21.74,21.74,0,0,0-.29-3A10.35,10.35,0,0,0,62,269.35,23.22,23.22,0,0,0,59,269.75Z"
       style="fill:#263238"
       id="path456" />
    <path
       d="M96.8,272.31A45.13,45.13,0,0,1,94.92,266h.51l-.09.35A34.06,34.06,0,0,1,93.82,271a7.13,7.13,0,0,1-.91,1.85c-.14-.06,1-3,1.92-6.7l.09-.35.25-1,.25,1A42.32,42.32,0,0,1,96.8,272.31Z"
       style="fill:#263238"
       id="path458" />
  </g>
</svg>
