<?xml version="1.0" encoding="utf-8"?>
<!-- Generator: Adobe Illustrator 25.2.0, SVG Export Plug-In . SVG Version: 6.00 Build 0)  -->
<svg version="1.1" id="Layer_1" xmlns="http://www.w3.org/2000/svg" xmlns:xlink="http://www.w3.org/1999/xlink" x="0px" y="0px"
	 viewBox="0 0 750 500" style="enable-background:new 0 0 750 500;" xml:space="preserve">
<style type="text/css">
	.st0{fill:#A6A6A6;}
	.st1{fill:#263238;}
	.st2{fill:#03CA08;}
	.st3{opacity:0.1;enable-background:new    ;}
	.st4{fill:#F43900;}
	.st5{fill:#EAFC00;}
	.st6{fill:#FFFFFF;}
	.st7{fill:#455A64;}
	.st8{fill:#DBDBDB;}
	.st9{fill:#37474F;}
	.st10{fill:#0380D6;}
	.st11{opacity:0.2;enable-background:new    ;}
	.st12{fill:#D3766A;}
	.st13{fill:#C7C7C7;}
	.st14{fill:#EBEBEB;}
	.st15{fill-rule:evenodd;clip-rule:evenodd;fill:#DBDBDB;}
	.st16{fill:#FF9ABB;}
	.st17{opacity:0.1;fill:#263238;enable-background:new    ;}
	.st18{fill:#F7A9A0;}
	.st19{fill:#AD6359;}
	.st20{opacity:0.2;fill:#0055FF;enable-background:new    ;}
</style>
<g id="freepik--Shadow--inject-59">
	<ellipse class="st0" cx="375" cy="434.9" rx="316.8" ry="26.8"/>
</g>
<g id="freepik--Floor--inject-59">
	<polygon class="st1" points="55,369.3 135,369.1 215,369 375,368.8 535,369 615,369.1 695,369.3 615,369.6 535,369.7 375,369.8 
		215,369.6 135,369.6 	"/>
</g>
<g id="freepik--Plant--inject-59">
	<path class="st1" d="M247.7,225.5c6.6,6.5,7.7,16.5,6.3,25.2c0,0.2-0.3,0.1-0.3,0c0-2,0.1-4,0.1-5.9c0-0.1-0.1-0.2-0.1-0.3
		c-1.8-1.2-3.2-2.8-4.3-4.6c-1.1-2.2-1.5-4.6-2.4-6.9c-0.1-0.2,0.2-0.1,0.3,0c4,3,5.3,6.2,6.5,10.4c0-2.2-0.3-4.5-0.7-6.6
		c-0.8-4.1-2.7-8-5.5-11.1C247.5,225.7,247.5,225.6,247.7,225.5C247.7,225.4,247.6,225.5,247.7,225.5L247.7,225.5z"/>
	<path class="st2" d="M246.5,226.3c-1.1,0-1.9,1.9-2.7,2.4c-0.4,0.3-0.9,0.2-1.2-0.1c0,0,0,0-0.1-0.1c-0.9-1.2,0.3-2.7,1.5-3.6
		c-0.7,0.4-1.5,0.8-2.4,1.1c-0.4,0.1-0.9-0.1-1-0.5v-0.1c-0.4-1.7,1.7-2.4,3.1-2.4c-0.7-0.5-2.7-1.8-1.6-2.4s3.4,1.2,4.2,1.9
		c1.1,0.9,2.5,2.3,2.5,3.7C248.8,227.6,247.3,226.6,246.5,226.3z"/>
	<path class="st3" d="M246.5,226.3c-1.1,0-1.9,1.9-2.7,2.4c-0.4,0.3-0.9,0.2-1.2-0.1c0,0,0,0-0.1-0.1c-0.9-1.2,0.3-2.7,1.5-3.6
		c-0.7,0.4-1.5,0.8-2.4,1.1c-0.4,0.1-0.9-0.1-1-0.5v-0.1c-0.4-1.7,1.7-2.4,3.1-2.4c-0.7-0.5-2.7-1.8-1.6-2.4s3.4,1.2,4.2,1.9
		c1.1,0.9,2.5,2.3,2.5,3.7C248.8,227.6,247.3,226.6,246.5,226.3z"/>
	<path class="st2" d="M246.8,226.6c-1.4-0.7-4.2,0.3-4.5-0.3c-0.5-1.1,1.8-1.9,2.9-2c-1.1-0.3-3.2-0.8-3.2-1.9
		c0.1-1.3,3.3-0.2,4.9,1c2,1.6,2,3.1,1.7,3.4S247,226.7,246.8,226.6z"/>
	<path class="st1" d="M262.8,224.9c-6.9,6.2-8.3,16.2-7.3,25c0,0.2,0.3,0.2,0.3,0c0.1-2,0.1-4,0.2-5.9c0-0.1,0.1-0.2,0.1-0.3
		c1.8-1.1,3.4-2.6,4.5-4.4c1.2-2.1,1.7-4.6,2.6-6.8c0.1-0.2-0.1-0.2-0.3-0.1c-4.1,2.8-5.5,5.9-6.9,10.2c0.1-2.2,0.4-4.4,1-6.6
		c0.9-4.1,3-7.8,5.9-10.8C263,225,262.9,224.8,262.8,224.9z"/>
	<path class="st2" d="M264,225.7c1.1,0.1,1.8,1.9,2.6,2.5c0.4,0.3,0.9,0.3,1.2-0.1c0,0,0,0,0-0.1c0.9-1.2-0.2-2.8-1.3-3.6
		c0.7,0.5,1.5,0.9,2.3,1.2c0.4,0.2,0.9,0,1.1-0.4v-0.1c0.5-1.7-1.6-2.5-3.1-2.6c0.7-0.5,2.8-1.7,1.7-2.4s-3.5,1.1-4.2,1.7
		c-1.2,0.9-2.5,2.2-2.7,3.6C261.6,227,263.1,226,264,225.7z"/>
	<path class="st3" d="M264,225.7c1.1,0.1,1.8,1.9,2.6,2.5c0.4,0.3,0.9,0.3,1.2-0.1c0,0,0,0,0-0.1c0.9-1.2-0.2-2.8-1.3-3.6
		c0.7,0.5,1.5,0.9,2.3,1.2c0.4,0.2,0.9,0,1.1-0.4v-0.1c0.5-1.7-1.6-2.5-3.1-2.6c0.7-0.5,2.8-1.7,1.7-2.4s-3.5,1.1-4.2,1.7
		c-1.2,0.9-2.5,2.2-2.7,3.6C261.6,227,263.1,226,264,225.7z"/>
	<path class="st2" d="M263.6,225.9c1.5-0.6,4.2,0.5,4.5-0.1c0.5-1.1-1.7-1.9-2.9-2.1c1.1-0.3,3.3-0.7,3.2-1.7c0-1.3-3.2-0.3-4.9,0.9
		c-2.1,1.5-2.1,3-1.8,3.3S263.4,226,263.6,225.9z"/>
	<path class="st1" d="M255.8,241.3c-0.5,3.3-1.2,6.6-2.1,9.8c-0.1,0.1-0.2,0.2-0.3,0.1c-0.1,0-0.2-0.1-0.2-0.2c0.4-3,1.3-6,1.7-9
		c0.5-3.1,0.7-6.2,0.5-9.3c-0.3-5.1-1.7-10.5-5-14.5c-0.1-0.1,0.1-0.2,0.2-0.1c6.7,7.8,5.6,17.3,5.6,18.2c0.9-3.2,1.9-6.9,5.5-10.2
		c0.1-0.1,0.3-0.1,0.2,0.2c-0.6,6-2.3,9.1-5.8,12.3C256,239.4,255.9,240.4,255.8,241.3z"/>
	<path class="st2" d="M250.3,219.1c-1.2-0.5-2.9,1-4,1.1c-0.5,0.1-1.1-0.2-1.2-0.8c0,0,0,0,0-0.1c-0.3-1.7,1.7-2.7,3.3-3
		c-1,0.1-2,0.1-3-0.1c-0.5-0.1-0.9-0.6-0.8-1.2l0,0c0.4-1.9,3-1.6,4.5-1c-0.5-0.9-1.9-3.2-0.5-3.4s2.9,3,3.4,4
		c0.7,1.5,1.4,3.6,0.8,5.1C252.1,221.7,251.1,219.9,250.3,219.1z"/>
	<path class="st3" d="M250.3,219.1c-1.2-0.5-2.9,1-4,1.1c-0.5,0.1-1.1-0.2-1.2-0.8c0,0,0,0,0-0.1c-0.3-1.7,1.7-2.7,3.3-3
		c-1,0.1-2,0.1-3-0.1c-0.5-0.1-0.9-0.6-0.8-1.2l0,0c0.4-1.9,3-1.6,4.5-1c-0.5-0.9-1.9-3.2-0.5-3.4s2.9,3,3.4,4
		c0.7,1.5,1.4,3.6,0.8,5.1C252.1,221.7,251.1,219.9,250.3,219.1z"/>
	<path class="st2" d="M250.5,219.6c-1.2-1.4-4.6-1.8-4.5-2.5c0.1-1.4,2.8-1.1,4.1-0.6c-1-0.9-3-2.4-2.4-3.5c0.7-1.3,3.5,1.4,4.5,3.5
		c1.3,2.6,0.6,4.2,0,4.3C251.6,221,250.7,219.8,250.5,219.6z"/>
	<path class="st4" d="M260.1,243.1l2.9,22.5h-17.9c0.4-2,3.7-22.5,3.7-22.5H260.1z"/>
</g>
<g id="freepik--light-bulb--inject-59">
	<path class="st5" d="M403.4,95.5c-2.2,18.7-14.2,22.1-16.2,27c-1,3.1-1.9,6.3-2.5,9.5h-19.5c-0.6-3.2-1.5-6.4-2.5-9.6
		c-2-5-14-8.4-16.1-27.1c-1.4-12.3,7.9-31.6,28.5-31.5S404.9,83.2,403.4,95.5z"/>
	<rect x="366.8" y="102" transform="matrix(0.9835 -0.181 0.181 0.9835 -15.2475 68.4241)" class="st6" width="1" height="31.5"/>
	
		<rect x="366.8" y="117.4" transform="matrix(0.1855 -0.9826 0.9826 0.1855 195.7543 471.9579)" class="st6" width="31.5" height="1"/>
	<path class="st6" d="M375,112.6L375,112.6c-1.5,0-3.1-1.2-4.3-3.4c-0.1-0.1-0.1-0.2-0.2-0.3c-0.4,0.5-1,0.9-1.7,0.9l0,0
		c-2.9,0-4.1-6-4.1-6.3l0.5-0.1c0,0.1,1.1,5.9,3.6,5.9l0,0c0.6-0.1,1.1-0.4,1.4-0.9c-1.2-2.5-1.9-5.8-1-7.4c0.3-0.5,0.8-0.8,1.4-0.8
		l0,0c0.7,0,1.3,0.3,1.6,0.9c0.9,1.5,0.2,4.7-0.9,6.7c-0.1,0.2-0.3,0.4-0.4,0.6c0.1,0.2,0.2,0.3,0.3,0.5c0.7,1.2,2.1,3.2,3.9,3.2
		l0,0c1.2,0,2.4-1,3.4-2.7l0.2-0.4c-0.3-0.3-0.5-0.6-0.7-1c-1.2-2.1-1.5-5.2-0.5-6.8c0.3-0.6,0.9-1,1.6-1l0,0c0.5,0,1,0.3,1.2,0.8
		c0.9,1.5,0.4,5.1-1,7.9c0.5,0.5,1.3,0.8,2,0.8l0,0c1.8,0,3.4-4.3,3.8-5.9l0.5,0.1c-0.1,0.2-1.8,6.3-4.3,6.3l0,0
		c-0.8,0-1.6-0.3-2.2-0.8l-0.2,0.3C378,111,376.8,112.6,375,112.6z M379,100.8c-0.5,0-0.9,0.3-1.1,0.7c-0.8,1.4-0.6,4.4,0.5,6.3
		c0.1,0.3,0.3,0.5,0.5,0.7c1.2-2.6,1.7-5.9,0.9-7.2C379.7,101,379.3,100.8,379,100.8L379,100.8z M370.5,100.8
		c-0.4,0-0.7,0.2-0.9,0.5c-0.7,1.2-0.2,4.1,1,6.7l0.2-0.3c1.1-1.8,1.7-4.8,0.9-6.2C371.5,101,371.1,100.7,370.5,100.8L370.5,100.8z"
		/>
	
		<rect x="372.6" y="121.6" transform="matrix(2.443444e-03 -1 1 2.443444e-03 240.3933 508.2689)" class="st7" width="4.7" height="24.1"/>
	
		<rect x="372.5" y="127" transform="matrix(2.443444e-03 -1 1 2.443444e-03 234.8739 513.6088)" class="st7" width="4.7" height="24.1"/>
	
		<rect x="372.5" y="132.4" transform="matrix(2.268914e-03 -1 1 2.268914e-03 229.55 519.0448)" class="st7" width="4.7" height="24.1"/>
	<path class="st1" d="M376,48.5c0.6,2.6,0.6,5.2-0.1,7.8c-0.3-1.3-0.5-2.6-0.4-3.9C375.4,51.1,375.6,49.8,376,48.5z"/>
	<path class="st1" d="M354.1,53.8c0.9,0.9,1.7,2,2.3,3.2c0.7,1.1,1.2,2.4,1.5,3.6c-0.9-0.9-1.7-2-2.3-3.2
		C355,56.3,354.5,55.1,354.1,53.8z"/>
	<path class="st1" d="M337.9,69.4c2.5,0.7,4.8,2.1,6.7,4C342.1,72.6,339.8,71.2,337.9,69.4z"/>
	<path class="st1" d="M331.6,90.9c2.6-0.6,5.2-0.6,7.8,0.1c-1.3,0.3-2.6,0.5-3.9,0.4C334.2,91.5,332.9,91.3,331.6,90.9z"/>
	<path class="st1" d="M337,112.7c1.9-1.8,4.2-3.1,6.8-3.8C341.9,110.7,339.6,112,337,112.7z"/>
	<path class="st1" d="M412.1,114.4c-2.5-0.7-4.8-2.1-6.7-4C407.9,111.1,410.2,112.5,412.1,114.4z"/>
	<path class="st1" d="M418.4,92.8c-2.6,0.6-5.2,0.6-7.8-0.1c1.3-0.3,2.6-0.5,3.9-0.4C415.8,92.3,417.1,92.4,418.4,92.8z"/>
	<path class="st1" d="M413,71c-0.9,0.9-2,1.7-3.1,2.3c-1.1,0.7-2.4,1.2-3.6,1.5c0.9-0.9,2-1.7,3.1-2.3C410.5,71.8,411.7,71.3,413,71
		z"/>
	<path class="st1" d="M397.5,54.8c-0.7,2.5-2.1,4.8-4,6.7C394.2,58.9,395.6,56.6,397.5,54.8z"/>
</g>
<g id="freepik--Desk--inject-59">
	<polygon class="st8" points="159.7,313.7 161.9,327.3 177.2,409.9 179.7,409.9 168.6,327.3 166.9,313.7 	"/>
	<polygon class="st0" points="166.9,313.7 159.7,313.7 161.9,327.3 168.6,327.3 	"/>
	<polygon class="st8" points="111.6,409.9 114.1,409.9 129.4,327.3 131.6,313.7 124.4,313.7 122.7,327.3 	"/>
	<polygon class="st0" points="124.4,313.7 122.7,327.3 129.4,327.3 131.6,313.7 	"/>
	<polygon class="st8" points="65.7,409.9 68.2,409.9 83.5,327.3 85.7,313.7 78.5,313.7 76.8,327.3 	"/>
	<polygon class="st0" points="76.8,327.3 83.5,327.3 85.7,313.7 78.5,313.7 	"/>
	<polygon class="st8" points="69.6,320.1 181.8,320.1 181.8,308.3 139.8,308.3 125.7,226.2 73.9,226.2 	"/>
	<polygon class="st0" points="69.6,320.1 75.7,320.1 79.7,226.2 73.9,226.2 	"/>
	<rect x="257.4" y="265.6" class="st1" width="70.3" height="157.2"/>
	<rect x="58.7" y="265.6" class="st9" width="70.3" height="157.2"/>
	<rect x="129" y="265.6" class="st7" width="198.7" height="21.8"/>
	<polygon class="st3" points="129.4,276.5 154.2,276.3 179,276.2 228.5,276.1 278.1,276.2 302.9,276.3 327.6,276.5 302.9,276.7 
		278.1,276.7 228.5,276.9 179,276.7 154.2,276.7 	"/>
	<rect x="129" y="265.6" class="st7" width="9.4" height="157.2"/>
	<rect x="318.2" y="265.6" class="st7" width="9.5" height="157.2"/>
</g>
<g id="freepik--character-2--inject-59">
	<path class="st10" d="M493.7,433.2l-143.1,0.6c-34.8-27.3-38.4-67.8-13.6-92.3c15-14.8,34.1-11.8,52.2-14.2l0,0
		c6.4-0.7,12.7-2.5,18.4-5.4c18.7-9.9,29.2-33.1,45-52.7c2-2.5,4-4.8,6.2-7.1c12.9-13.8,38.7-14.3,52.1,5.2
		C545.2,316.5,529.6,389.9,493.7,433.2z"/>
	<path class="st11" d="M493.7,433.2l-143.1,0.6c-34.8-27.3-38.4-67.8-13.6-92.3c15-14.8,34.1-11.8,52.2-14.2l0,0
		c6.4-0.7,12.7-2.5,18.4-5.4c18.7-9.9,29.2-33.1,45-52.7c2-2.5,4-4.8,6.2-7.1c12.9-13.8,38.7-14.3,52.1,5.2
		C545.2,316.5,529.6,389.9,493.7,433.2z"/>
	<path class="st3" d="M496.9,320.3c-3.7,58.7-71.6,80.6-113.9,63c-36.8-15.3-24.8-50.2,6.3-56l0,0c6.4-0.7,12.7-2.5,18.4-5.4
		c18.7-9.9,29.2-33.1,45-52.7C476.1,257,499.6,277.3,496.9,320.3z"/>
	<path class="st12" d="M380.6,437.8c2.1-0.8,48.7-38,49.6-40.6c0.3-1-4.7-8.1-11-16.5c-1.4-1.8-2.8-3.7-4.2-5.6
		c-9.4-12.3-19.7-25.1-19.7-25.1L364,374.8l20.6,24.4l4.5,5.4c0,0-11.5,22.3-12.2,25.2S378.5,438.6,380.6,437.8z"/>
	<path class="st6" d="M380.6,437.8c2.1-0.8,48.7-38,49.6-40.6c0.4-1.2-7.1-11.4-15.3-22.1l-30.4,24.1l4.5,5.4
		c0,0-11.5,22.3-12.1,25.2S378.5,438.6,380.6,437.8z"/>
	<path class="st4" d="M380.6,437.8c2.1-0.8,48.7-38,49.6-40.6c0.3-1-4.7-8.1-11-16.5l-30.2,24c0,0-11.5,22.3-12.1,25.1
		S378.5,438.6,380.6,437.8z"/>
	<path class="st1" d="M379.8,435.4c7.7-6.4,39.2-31.7,47.2-37.5c0.1,0,0.1,0,0,0C419.5,404.4,387.8,429.4,379.8,435.4
		C379.7,435.7,379.6,435.5,379.8,435.4z"/>
	<path class="st1" d="M378.5,425.8c1.7-1.5,4-2.1,6.2-1.8c2,0.2,3.8,1.2,5.1,2.8c0,0,0,0.1-0.1,0.1c-3.1-2.7-7.6-3.1-11.1-0.9
		C378.5,425.9,378.5,425.8,378.5,425.8z"/>
	<path class="st1" d="M386.6,407.9c3.1-2.5,7.6-4.3,11.6-3.3c0.2,0,0.1,0.3,0,0.3c-3.9,0.8-7.7,1.9-11.3,3.5c-0.1,0.1-0.3,0-0.4-0.1
		S386.5,408,386.6,407.9z"/>
	<path class="st1" d="M384.9,410.8c3.1-2.5,7.6-4.3,11.6-3.3c0.2,0,0.1,0.3,0,0.3c-3.9,0.7-7.7,1.9-11.3,3.5c-0.1,0.1-0.3,0-0.4-0.1
		S384.8,410.8,384.9,410.8z"/>
	<path class="st1" d="M383.3,413.6c3.1-2.5,7.6-4.3,11.6-3.3c0.1,0,0.1,0.3,0,0.3c-3.9,0.7-7.7,1.9-11.3,3.5c-0.1,0.1-0.3,0-0.4-0.1
		S383.2,413.7,383.3,413.6z"/>
	<path class="st1" d="M381.6,416.5c3.1-2.5,7.6-4.3,11.6-3.3c0.1,0,0.1,0.2,0,0.3c-3.9,0.7-7.7,1.9-11.3,3.5
		c-0.1,0.1-0.3,0.1-0.4-0.1S381.5,416.6,381.6,416.5z"/>
	<path class="st6" d="M419.1,392.1c3.5-2.8,7.9,2.7,4.4,5.5S415.6,394.9,419.1,392.1z"/>
	<path class="st1" d="M380.5,406.6c3.4,0.8,7.1,0.1,10.6-0.1c0.3,0,0.4-0.3,0.4-0.6v-0.1c0,0,0-0.1,0-0.2l0,0
		c-2.5-2.7-5.7-4.7-9.2-5.7c-2.1-0.6-5.1-0.3-5.6,2.3S378.5,406.1,380.5,406.6z M378.2,404.2c-2.4-3.7,2.8-3.5,4.2-3
		c1,0.3,1.9,0.7,2.8,1.2c1.9,1,3.7,2.1,5.5,3.2c-1.7,0-3.4,0.2-5.1,0.2C383.7,405.9,379.6,406.2,378.2,404.2z"/>
	<path class="st1" d="M400.9,394.8c-1.9-1.8-4.6-0.4-5.9,1.2c-2.3,2.8-3.9,6.3-4.5,9.9c0,0.1,0,0.1,0.1,0.1c0,0.3,0.3,0.5,0.5,0.4
		c0.1,0,0.1,0,0.1,0c3-1.7,6.4-3.2,8.8-5.8C401.5,399.1,402.7,396.5,400.9,394.8z M395.3,402.9c-1.5,0.9-3,1.7-4.4,2.6
		c0.8-2,1.7-3.9,2.8-5.7c0.5-0.9,1.1-1.8,1.7-2.6c1-1.2,5.2-4.2,5.2,0.1C400.6,399.7,397,401.8,395.3,402.9L395.3,402.9z"/>
	<path class="st7" d="M332.4,327.2c2.1,16.2,42.2,63.1,46.8,68.5l1,1.2l33.1-25.4l-0.4-0.5l-29.2-38.2l87-0.5l-33-25.7
		c0,0-2.7,1.5-8.2,0.7c-19.2-2.8-62.5-9-72.7-8.6C343.6,299.2,330.4,312.3,332.4,327.2z"/>
	<path class="st1" d="M373.3,318.6c1.1,1.2,2.1,2.5,3,3.9c1,1.4,2.1,2.7,3.1,4l0,0c-0.2-0.4-0.4-0.8-0.5-1.2c-0.6-1.4-1.2-2.7-1.9-4
		c0-0.1,0.1-0.1,0.1-0.1c0.8,1.3,1.7,2.5,2.4,3.8c0.3,0.6,0.6,1.3,0.9,1.9c0.2,0.4,0.3,0.7,0.5,1.1c0.1,0.2,0.1,0.3,0.2,0.5
		c0.5,0.6,0.9,1.3,1.4,1.9c1,1.4,1.9,2.9,2.8,4.3c0.1,0.1-0.1,0.1-0.1,0.1c-1-1.3-2.1-2.6-3.1-3.9s-2-2.7-3-4.1s-1.9-2.7-2.8-4.1
		c-1-1.3-2-2.7-2.9-4.2C373.2,318.6,373.2,318.6,373.3,318.6L373.3,318.6z"/>
	<path class="st12" d="M455.6,283.1c-7.2,18.5-30.2,40-38,40.7c-9.1,0.8-32.6-9.6-41.7-22.3c-2.1-3,17.1-17.3,20.4-15
		c6.7,4.6,19.3,10.8,20.4,10.9c2.1,0.2,16.5-11,27.9-19C458.7,268.4,458.4,275.7,455.6,283.1z"/>
	<path class="st12" d="M378.7,304.9c0,0-8.3-8.6-9.2-16.7c-0.6-5.6,0-20.5,13.5-30.5c3.2-2.4,9.5-3.5,5.6,2.3
		c-2.7,4.1-5.7,5.9-6.8,8.6c0,0,8.1-0.5,10.4,2.8c2,2.9,3.8,5.9,5.3,9c-0.5,0.4-1,0.8-1.6,1.1c0,0,1.8,3.3,0.6,8.9L378.7,304.9z"/>
	<path class="st0" d="M398.6,251.9l9.2,29.4c0.4,0.9,0,1.6-0.9,1.6l-15.4,0.9c-1,0-1.8-0.6-2.2-1.5l-9.2-29.4
		c-0.4-0.9,0-1.6,0.9-1.6l15.4-0.9C397.3,250.4,398.2,251,398.6,251.9z"/>
	<path class="st13" d="M396.7,252l9.3,29.3c0.4,0.9,0,1.6-0.9,1.6l-15.4,0.9c-1,0-1.8-0.6-2.2-1.5l-9.3-29.4c-0.4-0.9,0-1.6,0.9-1.6
		l15.4-0.9C395.5,250.5,396.4,251.1,396.7,252z"/>
	<path class="st1" d="M392.6,253.6c0.1,0.7,0.7,1.3,1.4,1.2c0.7-0.1,1.3-0.7,1.2-1.4c-0.1-0.7-0.7-1.3-1.4-1.2l0,0
		C393.1,252.2,392.5,252.8,392.6,253.6z"/>
	<path class="st12" d="M370.3,280.2c1.7-2.4,5.4-7.5,9.8-10.6c4.9-3.5,15.4-8.8,17.9-5.1c1.8,2.7-2,5.1-2,5.1s4.8-1.3,5.9,1.5
		c1,2.5-2,4.2-2,4.2s3-0.3,3.6,2.4c0.6,3.2-5.8,3.3-8,7C395,285.5,370.3,280.2,370.3,280.2z"/>
	<path class="st1" d="M382.8,275.4c3.6-3.2,8.2-5.3,13-5.9c0.1,0,0.2,0.1,0.1,0.1C391.3,271,386.9,273,382.8,275.4
		C382.8,275.5,382.8,275.4,382.8,275.4z"/>
	<path class="st1" d="M386.5,280.3c1.9-1.6,7.9-4.9,13.4-5.1c0.1,0,0.2,0.1,0.1,0.1C395.3,276.5,390.8,278.2,386.5,280.3
		L386.5,280.3z"/>
	<path class="st1" d="M396.5,283.4c0,1.8,0,3.5-0.2,5.2c-0.1,0.9-0.2,1.7-0.4,2.6c-0.2,0.9-0.4,1.7-0.7,2.5c1.1-1.5,1.7-3.2,1.9-5
		c0.1-0.9,0.1-1.8,0-2.7C397,285.1,396.8,284.2,396.5,283.4z"/>
	<path class="st13" d="M445.8,302.2l-14.2-15.9c0,0,11.3-9.7,19.5-13.3s9.3,1.6,5.7,9.6S445.8,302.2,445.8,302.2z"/>
	<path class="st0" d="M435.4,290.5l10.4,11.7c0,0,7.4-11.7,11-19.6c2.7-6,2.7-10.5-0.9-10.7L435.4,290.5z"/>
	<path class="st1" d="M435.7,283.9c4.4,4.1,8.5,8.6,12.3,13.3l-0.1,0.1c-3.6-3.4-10.1-10.8-12.3-13.2
		C435.5,284,435.6,283.9,435.7,283.9z"/>
	<path class="st14" d="M489.1,341.8c-0.1,0.1-56.8-12.2-57.3-12.9c-0.7-0.9,9.4-43.5,20-56.2c2.7-3.2,11.2-3,15,0.2
		C485.7,288.8,489.6,341.2,489.1,341.8z"/>
	<path class="st15" d="M456.3,270.6l10.6,2.4c0.4,0.3,0.7,0.6,1.1,1l-13.3-3C455.2,270.8,455.8,270.7,456.3,270.6z M452.1,272.5
		l18.4,4.1c-0.2-0.3-0.5-0.6-0.8-0.9l-16.9-3.8C452.5,272.1,452.3,272.3,452.1,272.5z M450.7,274.3l21.7,4.9
		c-0.2-0.3-0.4-0.6-0.6-0.9l-20.6-4.7C451,273.8,450.8,274,450.7,274.3z M449.5,276.1l24.5,5.5c-0.2-0.3-0.4-0.6-0.5-0.8l-23.6-5.3
		L449.5,276.1z M448.4,277.9l27,6.1l-0.5-0.8l-26.2-5.9L448.4,277.9z M447.4,279.8l29.2,6.6c-0.1-0.3-0.3-0.5-0.4-0.8l-28.5-6.4
		L447.4,279.8z M446.4,281.7l31.3,7.1l-0.4-0.8l-30.6-6.9C446.6,281.2,446.5,281.5,446.4,281.7L446.4,281.7z M445.5,283.6l33.1,7.5
		c-0.1-0.3-0.2-0.5-0.3-0.8l-32.5-7.4C445.7,283.1,445.6,283.4,445.5,283.6L445.5,283.6z M444.7,285.5l34.9,7.9
		c-0.1-0.3-0.2-0.5-0.3-0.8l-34.3-7.8C444.9,285,444.8,285.2,444.7,285.5L444.7,285.5z M443.9,287.4l36.5,8.3
		c-0.1-0.3-0.2-0.5-0.3-0.8l-36-8.1C444,286.9,444,287.2,443.9,287.4L443.9,287.4z M443.1,289.3l38.1,8.6c-0.1-0.3-0.2-0.5-0.3-0.8
		l-37.6-8.5C443.3,288.9,443.2,289.1,443.1,289.3L443.1,289.3z M442.3,291.2l39.6,8.9l-0.2-0.8l-39.1-8.8
		C442.5,290.8,442.4,291,442.3,291.2L442.3,291.2z M441.6,293.2l41,9.3c-0.1-0.3-0.1-0.5-0.2-0.8l-40.5-9.1
		C441.8,292.7,441.7,293,441.6,293.2L441.6,293.2z M440.9,295.1l42.3,9.6c-0.1-0.3-0.1-0.5-0.2-0.8l-41.8-9.5
		C441.1,294.7,441,294.9,440.9,295.1L440.9,295.1z M440.2,297.1l43.6,9.8c-0.1-0.3-0.1-0.5-0.2-0.8l-43.1-9.7L440.2,297.1z
		 M439.6,299l44.8,10.1c0-0.3-0.1-0.5-0.2-0.8l-44.4-10C439.7,298.5,439.6,298.8,439.6,299L439.6,299z M438.9,301l45.9,10.4
		l-0.2-0.8l-45.5-10.3L438.9,301z M438.3,303l47,10.6c-0.1-0.3-0.1-0.5-0.2-0.8l-46.7-10.5C438.4,302.5,438.4,302.7,438.3,303
		L438.3,303z M437.7,305l48.1,10.9c0-0.2-0.1-0.5-0.1-0.8l-47.8-10.9L437.7,305z M437.1,307l49.1,11.1c0-0.2-0.1-0.5-0.1-0.8
		l-48.8-11c-0.1,0-0.1,0.3-0.2,0.5V307z M436.5,309l50.1,11.3c0-0.2-0.1-0.5-0.1-0.8l-49.8-11.2c-0.1,0-0.1,0.2-0.2,0.5V309z
		 M436,311l51,11.3c0-0.2-0.1-0.5-0.1-0.8L436.2,310c-0.1,0.2-0.1,0.5-0.1,0.7L436,311z M435.4,313l52,11.7l-0.1-0.8l-51.6-11.7
		c-0.1,0-0.2,0.2-0.2,0.4L435.4,313z M434.9,315l52.8,11.9l-0.1-0.8L435.1,314c-0.1,0.3-0.1,0.5-0.2,0.7V315z M434.4,317l53.6,11.8
		c0-0.2-0.1-0.5-0.1-0.8l-53.4-12c-0.1,0.2-0.1,0.5-0.2,0.7L434.4,317z M433.9,319l54.4,12l-0.1-0.8L434,318L433.9,319z M433.4,321
		l55.2,12.5c0-0.2-0.1-0.5-0.1-0.7l-55-12.8c-0.1,0.2-0.1,0.4-0.2,0.7L433.4,321z M432.9,323l55.9,12.6c0-0.2,0-0.5-0.1-0.8L433,322
		L432.9,323z M432.5,325l56.5,12.8c0-0.2,0-0.5-0.1-0.7l-56.3-13c-0.1,0.2-0.1,0.4-0.1,0.6V325z M432.1,327l57,12.9
		c0-0.2,0-0.5,0-0.7L432.2,326c-0.1,0.2-0.1,0.4-0.1,0.7V327z M431.8,329l57.4,13c0-0.2,0-0.5,0-0.7L431.9,328
		c0,0.2-0.1,0.5-0.1,0.7V329z"/>
	<path class="st12" d="M454.6,282.5c2.6,0,7.7-5.2,9.5-9.4c0.1-0.3-0.5-3.1-1.2-6.7c-0.4-2.1-0.8-4.5-0.9-6.7l-13.5,4.5
		c1,2.7,1.7,5.5,2,8.3c0,0.3,0,0.6,0,0.9c0,0.1,0,0.1,0,0.2C450.3,275.4,450.5,282.5,454.6,282.5z"/>
	<path class="st1" d="M450.5,273.5c0,0.1,0,0.1,0,0.2c0.5,0,1,0,1.4,0c7.8-0.8,9-10.6,9.1-13.5l-12.6,4.2c1,2.7,1.7,5.5,2,8.4
		C450.5,272.9,450.5,273.2,450.5,273.5z"/>
	<path class="st12" d="M462.4,244.6c1.5,4.9-1.1,19.1-4.6,22.3c-5.1,4.6-13.4,5-17.3-1.1c-3.8-5.9-0.1-24.4,3.9-27.2
		C450.2,234.3,460.2,237.3,462.4,244.6z"/>
	<path class="st1" d="M452,250.2c-0.4-0.2-0.8-0.4-1.1-0.6c-0.4-0.2-0.8-0.5-1-0.8c-0.1-0.3,0-0.6,0.2-0.8c0.5-0.3,1.2-0.3,1.7,0.1
		c0.5,0.2,1,0.7,1.2,1.2c0.1,0.4,0,0.8-0.4,0.9C452.4,250.3,452.2,250.3,452,250.2z"/>
	<path class="st1" d="M442.3,248.8c0.4,0,0.9-0.1,1.3-0.1c0.5,0,0.9-0.1,1.3-0.4c0.2-0.2,0.2-0.6,0.1-0.8c-0.4-0.5-1-0.7-1.6-0.6
		c-0.6,0-1.2,0.3-1.6,0.7c-0.3,0.3-0.2,0.7,0.1,1C442,248.7,442.1,248.8,442.3,248.8z"/>
	<path class="st1" d="M449.7,261.2c-0.3,0.2-0.5,0.5-0.9,0.4s-0.7-0.2-1-0.4c0,0-0.1,0,0,0c0.2,0.4,0.7,0.7,1.1,0.7s0.8-0.3,0.9-0.7
		C449.8,261.2,449.8,261.2,449.7,261.2L449.7,261.2z"/>
	<path class="st1" d="M449.1,258.2c-0.6,0.7-1.5,1.1-2.4,1.1c-0.4,0-0.8,0-1.2-0.1l-0.2-0.1l-0.2-0.1c-0.1,0-0.2-0.1-0.2-0.2l0,0
		v-0.1l0,0v-0.1c0.1-0.7,0.3-1.9,0.3-1.9c-0.3,0.1-1.8,0.5-1.7,0.1c0.6-3.3,1.5-6.6,2.8-9.7l0.1-0.1c0,0,0,0,0.1,0.1
		c-0.5,3.1-1.6,6-2.2,9.1c0.5-0.2,1.1-0.2,1.6-0.2c0.1,0-0.5,2.1-0.5,2.5l0,0c1.2,0.3,2.5,0.1,3.5-0.5
		C449.1,258.1,449.2,258.1,449.1,258.2z"/>
	<path class="st1" d="M446,258.9c0.3,0.6,0.8,1.1,1.4,1.4c0.3,0.2,0.7,0.3,1.1,0.2c0.8-0.1,0.9-0.8,0.9-1.4c0-0.3-0.1-0.7-0.2-1
		C448.2,258.7,447.1,259,446,258.9z"/>
	<path class="st16" d="M447.4,260.4c0.3,0.2,0.7,0.3,1.1,0.2c0.8-0.1,0.9-0.8,0.9-1.4C448.4,259.1,447.6,259.6,447.4,260.4z"/>
	<path class="st1" d="M449.5,252.2C449.5,252.2,449.6,252.2,449.5,252.2c-0.1,1.1-0.1,2.2,0.7,2.6v0.1
		C449.2,254.6,449.2,253.1,449.5,252.2z"/>
	<path class="st1" d="M450.5,251.3c1.6,0.1,1.3,3.2-0.1,3.1S449.2,251.2,450.5,251.3z"/>
	<path class="st1" d="M443.9,251.4L443.9,251.4c-0.1,1.1-0.3,2.1-1.2,2.4l0,0C443.8,253.8,444,252.3,443.9,251.4z"/>
	<path class="st1" d="M443.1,250.3c-1.5-0.2-1.9,2.9-0.5,3.1S444.4,250.5,443.1,250.3z"/>
	<path class="st1" d="M461.4,259.2L461.4,259.2c-0.8-0.1-1.5-2.9-2-3s-1.1-0.6-1.1-0.9c0.2-2.7,0.3-5.3,0.2-8
		c-0.3-2.7-2.4-4.9-5.1-5.1c-2.6-0.1-4.3,2.1-6.1,1.7s-2.2-2.3-3.3-2.2s-2.4,2-3,3.6c1-3.2,2.2-5.7,3.4-6.6c5.8-4.2,15.8-1.2,18,6
		C463.3,247.5,462.7,253.9,461.4,259.2z"/>
	<path class="st2" d="M449.6,257.7c-2.2-0.7-3.4-3.1-2.7-5.3l0,0c0.7-2.2,3.1-3.4,5.3-2.7c2.2,0.7,3.4,3.1,2.7,5.3
		c-0.6,1.8-2.3,3-4.2,2.9C450.3,257.9,450,257.8,449.6,257.7z M447.5,252.6c-0.6,1.9,0.4,3.9,2.3,4.5s3.9-0.4,4.5-2.3
		c0.6-1.9-0.4-3.9-2.3-4.5c-0.3-0.1-0.6-0.2-0.9-0.2C449.5,250,448,251,447.5,252.6L447.5,252.6z"/>
	<path class="st2" d="M441.1,256.1c-1.7-0.2-2.8-2.3-2.5-4.6c0.1-1,0.6-2,1.3-2.8c0.9-1.1,2.5-1.3,3.7-0.4c0.3,0.3,0.6,0.6,0.8,1
		c0.5,0.9,0.6,2,0.5,3c-0.3,2.2-1.8,3.8-3.4,3.8H441.1z M440.3,249.2c-0.6,0.7-1,1.6-1.1,2.5c-0.3,2,0.7,3.7,2,3.9s2.7-1.3,3-3.3
		c0.1-0.9,0-1.8-0.4-2.7c-0.3-0.7-0.9-1.1-1.6-1.2H442C441.3,248.4,440.7,248.7,440.3,249.2L440.3,249.2z"/>
	<path class="st2" d="M447,252.9l0.4-0.4c-0.5-0.6-1.8-1.6-3-0.7l0.3,0.4C445.8,251.5,446.9,252.9,447,252.9z"/>
	<path class="st2" d="M465.1,257.3l0.5-0.2c-0.1-0.2-0.8-2.4-2-2.9s-8.6-1-8.9-1.1v0.6c2.1,0.2,7.9,0.7,8.8,1
		S464.9,256.7,465.1,257.3z"/>
	<path class="st12" d="M459.4,256.1c0,0,3.3-4.5,5.4-3.3s-0.5,7.8-3,8.6c-1.3,0.5-2.7,0-3.3-1.3V260L459.4,256.1z"/>
	<path class="st1" d="M464,254.7L464,254.7c-1.6,0.8-2.8,2.2-3.3,3.9c0.4-0.6,1.2-0.9,1.9-0.5c0.1,0,0.1,0.1,0.2,0.1v0.1
		c-0.6-0.2-1.3,0-1.7,0.5c-0.3,0.4-0.6,0.9-0.8,1.4c-0.1,0.1-0.4,0.1-0.3-0.1l0,0C459.9,257.9,461.6,254.9,464,254.7z"/>
	<path class="st12" d="M471.6,288.7c-3.9,24.1-13.7,39.7-18.3,40.5c-12.3,2-33.2-18.1-39.4-22.9c-2.5-1.9,18-19.1,20.4-16.7
		c5.7,5.5,13.4,14.2,13.8,14.3c0.8,0.2,3.7-5.3,13.6-20.8C469.6,270.5,473.2,278.8,471.6,288.7z"/>
	<path class="st12" d="M402.4,266.3c-1.7,2.6,5.1,6.3,5.1,6.3c-1.3,0-2.6,0.5-3.7,1.4c-1.7,1.6,0,5,0,5c-1.4,0.3-2.6,1-3.6,2
		c-1.5,1.7-0.2,5.4-0.2,5.4c-1.1,1-1.8,2.3-2.1,3.8c-0.8,6.6,13.6,16,18.2,17.8l18.8-17c0,0-7-15.6-12.7-19.6
		C419.1,269.1,405,262.3,402.4,266.3z"/>
	<path class="st1" d="M407.5,272.5c4,1.4,7.8,3.2,11.4,5.6c0,0,0.1,0.1,0,0.1s-0.1,0.1-0.1,0l0,0c-3.5-2.2-7.8-3.5-11.4-5.5
		C407.4,272.6,407.4,272.5,407.5,272.5z"/>
	<path class="st1" d="M404.1,278.7c0.9,0.4,1.7,0.9,2.5,1.4c0.9,0.6,1.7,1.1,2.5,1.7c1.7,1.2,3.3,2.4,4.9,3.7c0.1,0.1,0,0.2-0.1,0.1
		c-1.7-1.2-3.3-2.4-5-3.5l-2.6-1.7c-0.8-0.5-1.6-1-2.4-1.6C403.9,278.9,403.9,278.8,404.1,278.7C404,278.7,404,278.7,404.1,278.7z"
		/>
	<path class="st1" d="M400,286.4c0.8,0.3,1.5,0.8,2.2,1.4l2.2,1.7c1.5,1.1,3,2.2,4.5,3.2c0,0,0.1,0.1,0,0.1s-0.1,0.1-0.1,0l0,0
		c-1.6-1-3.2-2.1-4.7-3.2l-2.3-1.6c-0.8-0.4-1.4-1-2-1.6C399.9,286.5,399.9,286.4,400,286.4C399.9,286.4,400,286.4,400,286.4z"/>
	<path class="st1" d="M398.6,288c-0.7,1-1,2.3-0.9,3.5c0.2,1.2,0.6,2.4,1.4,3.4c1.4,2,3,3.8,4.8,5.4s3.7,3.1,5.7,4.4
		s4.2,2.5,6.4,3.4l0,0c1.4,1.2,2.8,2.3,4.3,3.4c-1.3-1.3-2.7-2.5-4-3.8l0,0l0,0c-2.1-1.1-4.2-2.3-6.2-3.6c-2-1.3-3.8-2.8-5.6-4.4
		c-1.8-1.6-3.4-3.3-4.9-5.2c-0.7-0.9-1.2-2-1.5-3.1C397.9,290.3,398.1,289.1,398.6,288z"/>
	<path class="st13" d="M469.1,308.2l-18.9-9.7c0,0,7.1-13.1,13.4-19.4s9.3-1.8,8.8,6.9S469.1,308.2,469.1,308.2z"/>
	<path class="st1" d="M453.6,294.8c5.6,2.3,11,5,16.2,8c0,0,0,0.1-0.1,0.1c-4.6-1.9-13.3-6.4-16.3-7.9
		C453.4,295,453.5,294.8,453.6,294.8z"/>
	<path class="st12" d="M259.7,395.6c0.8,2.1,38.2,48.6,40.7,49.5c1,0.3,8.1-4.7,16.5-11.1c1.8-1.4,3.7-2.8,5.6-4.3
		c12.2-9.5,25-19.8,25-19.8l-24.9-31.2l-24.3,20.6l-5.4,4.5c0,0-22.3-11.4-25.2-12S258.9,393.5,259.7,395.6z"/>
	<path class="st6" d="M259.7,395.6c0.8,2.1,38.2,48.6,40.7,49.5c1.2,0.4,11.4-7.1,22-15.3l-24.2-30.3l-5.4,4.5
		c0,0-22.3-11.4-25.2-12S258.9,393.5,259.7,395.6z"/>
	<path class="st4" d="M259.7,395.6c0.8,2.1,38.2,48.6,40.7,49.5c1,0.3,8.1-4.7,16.5-11.1l-24-30.1c0,0-22.3-11.4-25.2-12
		S258.9,393.5,259.7,395.6z"/>
	<path class="st1" d="M262.1,394.7c6.5,7.6,31.8,39.1,37.6,47.1c0,0.1,0,0.1,0,0c-6.6-7.4-31.7-39.1-37.7-47
		C261.8,394.7,262,394.6,262.1,394.7z"/>
	<path class="st1" d="M271.7,393.5c1.5,1.7,2.1,4,1.9,6.2c-0.2,2-1.2,3.8-2.8,5.1c0,0-0.1,0-0.1-0.1
		C273.5,401.6,273.8,397,271.7,393.5C271.6,393.5,271.6,393.5,271.7,393.5C271.7,393.4,271.7,393.5,271.7,393.5z"/>
	<path class="st1" d="M289.6,401.5c2.5,3.1,4.4,7.6,3.4,11.6c0,0.2-0.3,0.1-0.3,0c-0.8-3.9-1.9-7.7-3.5-11.3c-0.1-0.1,0-0.3,0.1-0.4
		C289.4,401.3,289.6,401.4,289.6,401.5z"/>
	<path class="st1" d="M286.8,399.8c2.5,3.1,4.4,7.6,3.4,11.6c0,0.1-0.3,0.1-0.3,0c-0.8-3.9-1.9-7.7-3.5-11.3c-0.1-0.1,0-0.3,0.1-0.4
		C286.5,399.7,286.7,399.7,286.8,399.8z"/>
	<path class="st1" d="M283.9,398.2c2.6,3.1,4.4,7.6,3.4,11.6c0,0.1-0.2,0.1-0.3,0c-0.8-3.9-1.9-7.7-3.5-11.3
		c-0.1-0.1-0.1-0.3,0.1-0.4S283.8,398.1,283.9,398.2z"/>
	<path class="st1" d="M281,396.5c2.5,3.1,4.4,7.6,3.4,11.6c0,0.2-0.3,0.1-0.3,0c-0.8-3.9-1.9-7.7-3.5-11.3c-0.1-0.1,0-0.3,0.1-0.4
		C280.8,396.4,280.9,396.4,281,396.5z"/>
	<path class="st6" d="M305.5,433.9c2.8,3.5-2.6,7.9-5.5,4.4S302.7,430.4,305.5,433.9z"/>
	<path class="st1" d="M290.9,395.4c-0.8,3.4-0.1,7.1,0.1,10.5c0,0.3,0.3,0.4,0.5,0.4c0.1,0,0.1,0,0.2-0.1c0,0,0.1,0.1,0.1,0l0,0
		c2.7-2.5,4.6-5.7,5.7-9.3c0.6-2.1,0.2-5.1-2.3-5.6S291.4,393.3,290.9,395.4z M293.4,393.1c3.6-2.4,3.5,2.7,3,4.2
		c-0.3,1-0.7,1.9-1.2,2.8c-1,1.9-2,3.7-3.2,5.5c0-1.7-0.2-3.4-0.3-5.1C291.6,398.5,291.3,394.5,293.4,393.1z"/>
	<path class="st1" d="M302.8,415.8c1.8-1.9,0.4-4.6-1.2-6c-2.9-2.3-6.3-3.9-9.9-4.5c-0.1,0-0.1,0-0.1,0.1c-0.3,0-0.5,0.3-0.4,0.6
		v0.1c1.7,3,3.2,6.4,5.8,8.8C298.5,416.4,301,417.5,302.8,415.8z M294.7,410.2c-0.9-1.5-1.7-3-2.6-4.4c2,0.8,3.9,1.7,5.7,2.7
		c0.9,0.5,1.8,1.1,2.6,1.7c1.2,1,4.3,5.2-0.1,5.2C297.8,415.5,295.8,411.9,294.7,410.2z"/>
	<path class="st7" d="M299.5,394.7l26,35l87.5-60.8l8.5-5.9c0,0,2.4,1.6,6,3.6c5,2.8,12.3,6.3,18.8,7.2c10.9,1.6,29,1.4,38.2-10.8
		c7.7-10.3,3.5-23.8,3.5-23.8l-12-5.1c0,0-28.2-23.5-46.5-24.2c-7.8-0.3-19.1,5.6-29.6,11.7S299.5,394.7,299.5,394.7z"/>
	<path class="st1" d="M421.5,363c0,0,2.4,1.6,6,3.6c6.4-7.6,19.8-21.5,20.2-21.9L421.5,363z"/>
	<path class="st1" d="M465.7,326.3c1.7,1.2,3.3,2.4,5,3.6s3.3,2.3,4.9,3.6s3.1,2.7,4.6,4.1c0.7,0.7,1.4,1.4,2.1,2.1s1.4,1.4,2,2.2
		c0,0.1,0,0.2-0.1,0.1c-0.8-0.6-1.5-1.2-2.3-1.8l-2.4-2c-1.5-1.3-3.1-2.5-4.6-3.8s-2.9-2.7-4.4-4S467.3,327.6,465.7,326.3
		C465.6,326.3,465.7,326.2,465.7,326.3z"/>
	<path class="st1" d="M305.6,393.4c1.7,1.8,3.2,3.8,4.8,5.7s3.1,3.9,4.7,5.8c3.1,3.9,6.2,7.8,9.3,11.7c1.7,2.2,3.3,4.3,4.9,6.6
		c0.1,0.1-0.1,0.2-0.2,0.1c-3.4-3.7-6.4-7.6-9.5-11.5s-6.2-7.8-9.3-11.7c-1.7-2.2-3.4-4.3-4.9-6.6
		C305.4,393.4,305.5,393.3,305.6,393.4z"/>
	<path class="st1" d="M377.5,393.8c4.4-3.4,8.9-6.7,13.4-9.9s9-6.4,13.5-9.5c1.3-0.9,2.6-1.8,4-2.6s2.7-1.7,4-2.6
		c0.1,0,0.1,0.1,0.1,0.1c-1.2,0.9-2.3,1.8-3.5,2.7s-2.2,1.7-3.3,2.5c-2.2,1.6-4.4,3.2-6.6,4.8c-4.5,3.2-9,6.4-13.5,9.5
		c-2.6,1.8-5.2,3.5-7.8,5.2C377.5,394.1,377.3,393.9,377.5,393.8z"/>
	<path class="st1" d="M349.5,357.6c4-3.3,8.4-6.3,12.6-9.4s8.5-6.3,12.8-9.4l12.8-9.2c4.1-3,8.2-6,12.6-8.6c2.4-1.4,4.8-2.8,7.3-4
		c2.4-1.2,5-2.3,7.6-3.1h0.1v0.1c-2.1,1.2-4.4,2.2-6.6,3.4s-4.3,2.4-6.3,3.6c-4.3,2.6-8.4,5.6-12.5,8.5c-8.5,6.1-17,12.3-25.6,18.3
		c-4.8,3.4-9.5,6.9-14.5,10C349.5,358,349.3,357.8,349.5,357.6z"/>
</g>
<g id="freepik--character-3--inject-59">
	<rect x="554.6" y="388.5" class="st13" width="46.3" height="3.4"/>
	<polygon class="st13" points="597.1,276.1 597.3,294.5 598.9,381.4 599,385.3 599.7,436.8 602.3,436.8 603,385.3 603,381.4 
		604.6,294.5 604.8,276.1 	"/>
	<polygon class="st0" points="604.8,276.1 597.1,276.1 597.3,294.5 604.6,294.5 	"/>
	<polygon class="st13" points="550.8,276.1 551,294.5 553.3,436.8 555.9,436.8 556.6,385.3 556.7,381.4 558.2,294.5 558.5,276.1 	
		"/>
	<polygon class="st0" points="550.8,276.1 551,294.5 558.2,294.5 558.5,276.1 	"/>
	<rect x="578.6" y="388.5" class="st13" width="45.5" height="3.4"/>
	<polygon class="st13" points="620.2,276.1 620.5,294.5 622.1,381.4 622.1,385.3 622.8,436.8 625.4,436.8 627.7,294.5 628,276.1 	
		"/>
	<polygon class="st0" points="628,276.1 620.2,276.1 620.5,294.5 627.7,294.5 	"/>
	<polygon class="st13" points="574.7,276.1 575,294.5 576.5,381.4 576.6,385.3 577.3,436.8 579.9,436.8 580.6,385.3 580.7,381.4 
		582.2,294.5 582.5,276.1 	"/>
	<polygon class="st0" points="582.5,276.1 574.7,276.1 575,294.5 582.2,294.5 	"/>
	<rect x="546.7" y="257.6" class="st2" width="84.3" height="20"/>
	<rect x="564.3" y="257.6" class="st17" width="66.7" height="20"/>
	<path class="st1" d="M591.4,128.2c12.6,6,20.5,30.4,14.2,50.3c-6.9,21.5-28.9,25.6-41.5,21c-13.4-4.9-17.5-19.7-11.4-28.6
		c5.9-8.6,15.6-11.1,18.2-18.9c1.2-3.8,1.1-10.7,2.7-16.3C575.4,129.4,583.8,124.6,591.4,128.2z"/>
	<path class="st1" d="M596.3,131.6c5,5.3,8.8,11.5,11.3,18.4c1.9,5.1,2.7,10.6,2.5,16.1c-0.1,1.8-0.3,3.6-0.6,5.4
		c-1.2,7.1-4.1,14.2-9.2,19.5c-2.5,2.7-5.5,4.8-8.7,6.5c-3.3,1.6-6.8,2.6-10.4,3c7.2-1,13.8-4.5,18.7-9.9c4.7-5.4,7.8-12.1,8.8-19.2
		c0.3-1.8,0.5-3.5,0.6-5.3s0.1-3.6-0.1-5.4c-0.3-3.6-1.1-7.1-2.2-10.4c-1.2-3.4-2.7-6.7-4.5-9.8
		C600.7,137.3,598.7,134.4,596.3,131.6z"/>
	<path class="st1" d="M572.3,142.9c-0.1,2-0.4,4-0.8,5.9c-0.5,2-1.3,3.8-2.4,5.6c-1.1,1.7-2.5,3.2-4.2,4.4c-1.6,1.2-3.3,2.3-4.8,3.5
		c-3.2,2.3-5.9,5.3-7.9,8.7c-2,3.5-2.7,7.5-2.1,11.5c-0.4-2-0.5-4-0.3-6c0.1-1,0.4-2,0.7-3s0.7-1.9,1.2-2.8c2-3.5,4.7-6.6,8-9
		c1.6-1.2,3.2-2.4,4.9-3.5c1.6-1.1,3-2.5,4.1-4.2C570.9,150.8,571.8,146.8,572.3,142.9z"/>
	<path class="st18" d="M583.4,176c-5.4,8-29.4,36.7-39.5,35.8c-7.2-0.6-40.7-17.3-45.8-21.9c-2.9-2.6,17.5-21.8,21.8-19.9
		c5.3,2.4,22.7,16.6,26.2,17c1.8,0.2,14-7.8,31-18.2C585.9,163.3,588.1,169,583.4,176z"/>
	<path class="st18" d="M498.1,189.9c-2.7-1.4-14.7-8.9-17.6-11.8s-10.5-11.6-8.6-14s4.4,0,4.4,0s-2.6-4.2-0.5-6.5s5.9,1.6,5.9,1.6
		s-2.4-4.5-0.1-6.6s5.4,2.4,5.4,2.4s-2.4-4,0.3-4.9c3.2-1.1,6.8,6.8,10.2,9.7c0.8,0.7,16.6,12.2,16.6,12.2L498.1,189.9z"/>
	<path class="st1" d="M486.8,154.6c2.6,5.8,4.8,7.9,10.1,11.4c0.1,0.1,0,0.2-0.1,0.2c-5.5-2.9-8.5-5.2-10.3-11.4
		C486.4,154.4,486.7,154.3,486.8,154.6z"/>
	<path class="st1" d="M481.5,158.7c3.3,5.8,5.6,8.1,10.8,12.1c0.1,0.1,0,0.2-0.1,0.1c-5.5-3.5-8.5-5.8-11-12.1
		C481.1,158.7,481.4,158.5,481.5,158.7z"/>
	<path class="st1" d="M476.6,164.3c3.6,5.4,6,8,11.6,11.3c0.1,0,0.1,0.1,0,0.2c0,0-0.1,0.1-0.1,0c-6-2.8-9.1-6-11.6-11.4
		C476.3,164.1,476.4,163.9,476.6,164.3z"/>
	<path class="st18" d="M519.9,170c0,0-4.1-6.9-6.6-9.5s-15.3-9-16.9-6.3c-2,3.5,4.7,8.6,8.3,10.7c0,0-4.6,8.1-0.6,12.8
		S519.9,170,519.9,170z"/>
	<path class="st1" d="M496.2,155.4c0.5,4.5,5.4,6.9,8.8,9.2c0.2,0.1,0.2,0.3,0.1,0.5l-0.1,0.1c-1.7,3.5-3,8.9-1,12.5v0.1h-0.1l0,0
		c-2.7-3.5-1.8-9,0.3-12.7C500.6,162.8,495.8,160.2,496.2,155.4L496.2,155.4z"/>
	<path class="st4" d="M551.9,182.8l21.5,11.1c0,0,9.6-12.1,13.3-20.8c2.8-6.6-0.7-8.7-5.2-7C566.6,171.9,551.9,182.8,551.9,182.8z"
		/>
	<path class="st6" d="M572.2,176.5c-0.8,0-1.5,0.7-1.5,1.5s0.7,1.5,1.5,1.5s1.5-0.7,1.5-1.5l0,0C573.7,177.2,573,176.5,572.2,176.5z
		 M572.2,179.2c-0.7,0-1.2-0.5-1.2-1.2s0.5-1.2,1.2-1.2s1.2,0.5,1.2,1.2l0,0C573.4,178.6,572.8,179.2,572.2,179.2L572.2,179.2z
		 M557.8,178.7c-0.1,0.5-0.6,0.9-1.1,0.9h-0.2l-0.3,0.2c0.2,0.1,0.3,0.1,0.5,0.1c0.8,0,1.4-0.6,1.5-1.4L557.8,178.7z M587.2,167.1
		c-0.6,0.3-1.3,0.1-1.6-0.5c-0.1-0.2-0.1-0.4-0.1-0.6c0-0.1,0-0.2,0-0.3l-0.3-0.1c0,0.1-0.1,0.3-0.1,0.4c0,0.8,0.7,1.5,1.5,1.5
		c0.2,0,0.5-0.1,0.7-0.2L587.2,167.1z M572.9,188.8c-0.8,0-1.5,0.7-1.5,1.5s0.7,1.5,1.5,1.5s1.5-0.7,1.5-1.5l0,0
		C574.4,189.4,573.7,188.8,572.9,188.8L572.9,188.8z M572.9,191.4c-0.7-0.1-1.1-0.6-1.1-1.3c0.1-0.6,0.5-1,1.1-1.1
		c0.7-0.1,1.2,0.4,1.3,1.1c0.1,0.7-0.4,1.2-1.1,1.3C573,191.4,573,191.4,572.9,191.4z M581.2,182.7c-0.8,0-1.5,0.7-1.5,1.5
		c0,0.2,0.1,0.5,0.2,0.6l0.2-0.3c0-0.1-0.1-0.2-0.1-0.4c0-0.6,0.5-1.1,1.1-1.2L581.2,182.7L581.2,182.7z M579.1,171
		c-0.8,0-1.5,0.7-1.5,1.5s0.7,1.5,1.5,1.5s1.5-0.7,1.5-1.5l0,0C580.6,171.7,579.9,171,579.1,171z M579.1,173.7
		c-0.7,0-1.2-0.5-1.2-1.2s0.5-1.2,1.2-1.2s1.2,0.5,1.2,1.2l0,0C580.3,173.2,579.8,173.7,579.1,173.7L579.1,173.7L579.1,173.7z
		 M564.4,183.3c-0.8,0-1.5,0.7-1.5,1.5s0.7,1.5,1.5,1.5s1.5-0.7,1.5-1.5l0,0C565.8,184,565.2,183.4,564.4,183.3L564.4,183.3z
		 M564.4,186c-0.7,0-1.2-0.5-1.2-1.2s0.5-1.2,1.2-1.2s1.2,0.5,1.2,1.2l0,0C565.6,185.5,565.1,186,564.4,186
		C564.4,186.1,564.4,186.1,564.4,186L564.4,186z"/>
	<path class="st1" d="M574.4,190c-5.8-3.5-11.9-6.7-18.1-9.5l-0.1,0.1c4.8,2.9,14.8,7.9,18.1,9.6C574.4,190.3,574.5,190.1,574.4,190
		z"/>
	<path class="st3" d="M586.6,173.1c-3.7,8.7-13.3,20.8-13.3,20.8l-14.3-7.4l27.1-20.5C587.7,167,588.3,169.3,586.6,173.1z"/>
	<path class="st18" d="M517.7,446.7c2.2-0.3,57.2-27.2,58.7-29.5c0.6-0.9-2.9-9.1-7.3-19c-1-2.1-4.8-36.2-4.8-36.2L527,376l6.6,39.4
		c0,0-16.5,19.7-17.8,22.5S515.5,447,517.7,446.7z"/>
	<path class="st14" d="M576.4,417.2c-1.4,2.4-56.4,29.2-58.7,29.5s-3.2-6.1-1.9-8.8s17.8-22.5,17.8-22.5l-1.4-8.2l35.8-15.4
		c0.2,2.1,0.6,4.2,1.1,6.3C573.5,408.1,577,416.3,576.4,417.2z"/>
	<path class="st4" d="M517.7,446.7c2.2-0.3,57.2-27.2,58.7-29.5c0.6-0.9-2.9-9.1-7.3-19l-35.5,17.2c0,0-16.5,19.7-17.8,22.5
		S515.5,447,517.7,446.7z"/>
	<path class="st1" d="M517.5,444.1c9.1-4.7,46.3-22.9,55.7-26.9c0.1,0,0.1,0,0,0c-8.9,4.9-46.2,22.8-55.6,27
		C517.3,444.4,517.3,444.2,517.5,444.1z"/>
	<path class="st1" d="M518.4,434.2c2-1.1,4.4-1.2,6.6-0.4c1.9,0.7,3.5,2.1,4.5,3.9c0,0.1-0.1,0.1-0.1,0.1c-2.5-3.4-6.9-4.8-10.9-3.4
		C518.4,434.3,518.4,434.3,518.4,434.2L518.4,434.2z"/>
	<path class="st1" d="M530.5,418.1c3.7-1.9,8.6-2.6,12.3-0.7c0.2,0.1,0,0.3-0.1,0.3c-4.1-0.1-8.1,0.2-12.1,1c-0.1,0-0.3,0-0.3-0.2
		C530.2,418.3,530.3,418.2,530.5,418.1z"/>
	<path class="st1" d="M528.1,420.6c3.7-1.9,8.6-2.6,12.3-0.7c0.1,0.1,0,0.3-0.1,0.3c-4.1-0.1-8.1,0.2-12.1,1c-0.1,0-0.3,0-0.3-0.2
		C527.9,420.8,528,420.7,528.1,420.6z"/>
	<path class="st1" d="M525.8,423.1c3.7-1.9,8.6-2.6,12.3-0.7c0.2,0.1,0,0.3-0.1,0.3c-4.1-0.1-8.1,0.2-12.1,1c-0.1,0-0.3,0-0.3-0.2
		C525.6,423.3,525.7,423.2,525.8,423.1L525.8,423.1z"/>
	<path class="st1" d="M523.5,425.6c3.7-1.9,8.6-2.6,12.3-0.8c0.2,0.1,0,0.3-0.1,0.3c-4.1-0.1-8.1,0.2-12.1,1c-0.1,0-0.3,0-0.3-0.2
		C523.3,425.8,523.4,425.7,523.5,425.6z"/>
	<path class="st1" d="M566.5,409.6c4.1-2,7.3,4.4,3.1,6.4S562.3,411.6,566.5,409.6z"/>
	<path class="st1" d="M524.6,415.5c3.2,1.6,7.1,1.7,10.6,2.3c0.4,0.1,0.6-0.3,0.5-0.6c0.1,0,0.1-0.1,0.1-0.1l0,0
		c-1.9-3.3-4.7-5.9-8-7.8c-1.9-1-5-1.4-6.1,1S522.7,414.5,524.6,415.5z M522.9,412.5c-1.6-4.2,3.5-2.9,4.9-2.1
		c0.9,0.6,1.8,1.2,2.6,1.8c1.7,1.4,3.2,2.9,4.8,4.5c-1.7-0.4-3.4-0.6-5.2-0.9C528,415.5,523.8,414.8,522.9,412.5L522.9,412.5z"/>
	<path class="st1" d="M547.7,408.2c-1.5-2.3-4.5-1.5-6.2-0.1c-3,2.3-5.3,5.4-6.7,8.9c0,0.1,0,0.1,0.1,0.1l0,0c0,0.3,0.3,0.6,0.6,0.5
		c3.4-1,7.2-1.8,10.1-3.8C547.3,412.6,549.1,410.4,547.7,408.2z M540.3,415c-1.7,0.6-3.3,1-5,1.6c1.3-1.7,2.5-3.5,4-5.1
		c0.7-0.8,1.5-1.5,2.3-2.2c1.2-1,6.1-3.1,5.2,1.3C546.3,413.1,542.3,414.4,540.3,415z"/>
	<path class="st1" d="M572,393.5l-44.6,19.4c0,0-12.2-78.4-9.3-110.2c2-21.6,29.7-50.7,43.1-70.1c0.8-1.1,3.1-13.8,3.1-13.8H601
		l-0.6,27.7c-0.8,16.9-38.7,51-39.1,61.1C561,318.8,572,393.5,572,393.5z"/>
	<path class="st9" d="M528.2,401.6c10.2-5.3,37.8-16.9,39.3-17.3c0.1,0,0.2,0.1,0.1,0.2c-1.1,0.8-27.2,13.2-39.3,17.3
		C528.2,401.8,528.1,401.6,528.2,401.6z"/>
	<path class="st9" d="M591.8,252.9c-0.3,0.7-0.7,1.3-1.1,2c-1.4,2.3-3.1,4.4-4.7,6.5l-5.3,6.9c-3.6,4.6-7.1,9.3-10.6,13.9
		c-3.5,4.5-7,8.9-10.3,13.5c-1.5,2-2.8,4.2-3.8,6.5c-0.9,2.4-1.5,4.9-1.6,7.5c-0.3,5.5,0.8,11,1.4,16.5c0.7,5.7,1.5,11.4,2.3,17.1
		s1.7,11.4,2.6,17.1c0.9,5.6,1.7,11.3,2.9,16.8c0.3,1.4,0.6,2.9,0.8,4.3c0,0.1,0.2,0,0.1,0c-1.7-11.4-3.4-22.8-5-34.2
		c-0.8-5.7-1.5-11.4-2.3-17.1c-0.7-5.5-1.6-11.1-1.9-16.7c-0.2-2.7,0-5.4,0.5-8.1c0.6-2.5,1.8-4.9,3.3-7.1c1.5-2.3,3.2-4.4,4.9-6.5
		c1.8-2.3,3.5-4.6,5.3-6.9c3.5-4.6,7.1-9.2,10.7-13.9c3.4-4.4,6.9-8.8,10.1-13.4c1.5-2.1,2.8-4.4,3.7-6.8c0.9-2.4,1.4-4.9,1.6-7.4
		c0.6-5.5,0.3-11.2,0.2-16.7c0-1.4-0.1-2.8-0.1-4.2c0-0.1-0.2-0.1-0.2,0c-0.3,5.6-0.3,11.3-0.5,16.9c-0.1,2.7-0.4,5.5-1,8.2
		C593.3,249.4,592.6,251.2,591.8,252.9"/>
	<path class="st18" d="M565.2,320.8c-0.3-2.2,11.2-62.3,13-64.4c0.7-0.8,9.6,0.4,20.2,2.1c2.3,0.4,36.2-4.9,36.2-4.9l-3.7,39.7
		l-39.7,4c0,0-14.7,21-17,23S565.5,323.1,565.2,320.8z"/>
	<path class="st14" d="M578.3,256.5c-1.9,2-13.3,62.1-13,64.4s6.7,1.5,9-0.5s17-23,17-23l8.3-0.8L605,258c-2.1,0.3-4.3,0.5-6.4,0.6
		C587.9,256.9,579,255.7,578.3,256.5z"/>
	<path class="st4" d="M565.2,320.8c-0.3-2.2,11.2-62.3,13-64.4c0.7-0.8,9.6,0.4,20.2,2.1l-7.3,38.8c0,0-14.7,21-17,23
		S565.5,323.1,565.2,320.8z"/>
	<path class="st1" d="M567.8,320.4c2.2-10,10-50.7,11.4-60.8c0-0.1,0-0.1-0.1,0c-2.4,9.9-9.8,50.6-11.5,60.8
		C567.6,320.6,567.8,320.6,567.8,320.4z"/>
	<path class="st1" d="M577.2,316.9c0.5-2.3,0-4.6-1.3-6.5c-1.2-1.7-3-2.9-5-3.3c-0.1,0-0.1,0.1,0,0.1
		C574.9,308.7,577.4,312.6,577.2,316.9C577,317,577,317,577.2,316.9C577.1,317,577.1,317,577.2,316.9L577.2,316.9z"/>
	<path class="st1" d="M589.5,301.1c0.8-4,0.3-9-2.5-12.1c-0.1-0.1-0.3,0-0.2,0.2c1.2,3.9,2,7.9,2.3,11.9c0,0.1,0.2,0.2,0.3,0.2
		C589.4,301.2,589.5,301.1,589.5,301.1z"/>
	<path class="st1" d="M587.7,304c0.8-4,0.3-9-2.5-12.1c-0.1-0.1-0.3,0-0.2,0.2c1.2,3.9,1.9,7.9,2.2,11.9c0,0.1,0.2,0.2,0.3,0.2
		S587.7,304.1,587.7,304z"/>
	<path class="st1" d="M585.9,306.8c0.8-4,0.3-9-2.5-12.1c-0.1-0.1-0.3,0-0.2,0.2c1.2,3.9,1.9,7.9,2.3,11.9c0,0.1,0.2,0.2,0.3,0.2
		C585.8,307,585.9,306.9,585.9,306.8z"/>
	<path class="st1" d="M584.1,309.7c0.8-4,0.3-9-2.5-12.1c-0.1-0.1-0.3,0-0.2,0.2c1.2,3.9,1.9,7.9,2.3,11.9c0,0.1,0.1,0.2,0.3,0.2
		C584,309.9,584,309.8,584.1,309.7z"/>
	<path class="st1" d="M588.3,264.1c0.8-4.5-6.2-5.9-7-1.3S587.4,268.6,588.3,264.1z"/>
	<path class="st1" d="M599.4,307.5c2.1-1.7,0.9-4.6-0.6-6.2c-2.7-2.7-6-4.6-9.6-5.6c-0.1,0-0.1,0-0.1,0.1l0,0
		c-0.3,0-0.5,0.2-0.5,0.5c0,0.1,0,0.1,0,0.2c1.4,3.2,2.6,6.9,5,9.6C595,307.6,597.5,309.1,599.4,307.5z M591.8,300.9
		c-0.7-1.6-1.4-3.2-2.2-4.7c1.9,1,3.8,2.2,5.5,3.4c0.9,0.6,1.7,1.3,2.4,2c1.2,1.1,3.8,5.7-0.7,5.3
		C594.4,306.6,592.7,302.8,591.8,300.9L591.8,300.9z"/>
	<path class="st1" d="M589.6,285.3c-1.2,3.4-0.9,7.2-1,10.8c0,0.3,0.2,0.5,0.5,0.5c0.1,0,0.1,0,0.2,0c0,0.1,0.1,0.1,0.1,0.1l0,0
		c3-2.3,5.4-5.3,6.8-8.8c0.8-2,0.8-5.2-1.8-6C592.1,281,590.3,283.4,589.6,285.3z M592.4,283.3c4-2.1,3.3,3.2,2.6,4.7
		c-0.4,1-1,1.9-1.5,2.8c-1.2,1.8-2.5,3.6-3.9,5.2c0.2-1.7,0.2-3.5,0.3-5.2C590,288.7,590.2,284.5,592.4,283.3L592.4,283.3z"/>
	<path class="st1" d="M587.4,218.6h26.8c0,0,1.5,10.2,4.1,11.4c7.5,3.5,39.9,7.9,58.9,18c16.4,8.7,18.3,29.1-3.9,37.6
		c-30.5,11.7-71.6,13.7-71.6,13.7l2.4-44.7c0,0,30.1-3.4,52.9-2.9c0,0-23.2,6.4-49,1.9c-5.9-1-12.4-3.9-18.3-6.1L587.4,218.6z"/>
	<path class="st9" d="M609.8,294.8c0.2-2.5,0.2-5.1,0.3-7.6l0.3-7.6c0.2-5,1.4-22.3,1.7-23.6c0-0.1,0.2-0.1,0.2,0
		c0.2,1.2-0.3,12.5-0.5,15c-0.3,5.1-0.7,10.1-1.1,15.1c-0.1,1.4-0.3,2.9-0.4,4.3s-0.3,2.9-0.4,4.3
		C610,294.9,609.8,294.9,609.8,294.8z"/>
	<path class="st9" d="M668,251.5c-4.8-0.5-9.6-0.8-14.4-0.8c1.8-0.4,3.7-0.7,5.6-1c0.1,0,0.1-0.2,0-0.2c-2.2,0.2-4.3,0.6-6.5,1.2
		c-3.2,0-6.4,0.1-9.6,0.3c-8.3,0.4-16.6,1.2-24.9,2c-4.7,0.5-9.4,0.9-14.2,1.4c-0.2,0-0.4,0.2-0.4,0.4c0,1.2,0.1,2.5,0.1,3.7
		c0,0.1,0.1,0.2,0.2,0.2c0.1,0,0.2-0.1,0.2-0.2c0-1.1,0.1-2.2,0.2-3.3c8.2-0.7,16.4-1.4,24.6-2.1s16.6-1.2,25-1.4
		c4.7-0.1,9.3-0.1,14,0C668.1,251.7,668.1,251.5,668,251.5z"/>
	<path class="st9" d="M669.7,254.6c-7.3,0-14.5,0.2-21.8,0.7s-14.3,1.2-21.5,2.2c-2,0.3-3.9,0.6-5.9,0.9s-4,0.7-6,1.1
		c-0.1,0-0.1,0.1,0,0.1c3.6-0.5,7.2-0.9,10.8-1.3s7.1-0.8,10.6-1.2c7.2-0.7,14.3-1.3,21.5-1.7c4.1-0.2,8.1-0.5,12.2-0.6
		C669.8,254.7,669.8,254.7,669.7,254.6C669.8,254.6,669.8,254.6,669.7,254.6z"/>
	<path class="st9" d="M584,245c4,1.2,7.8,2.8,11.5,4.7c0.2,0.1,0.1,0.3-0.1,0.2c-3.9-1.4-7.8-2.8-11.6-4.5c-0.1-0.1-0.2-0.2-0.1-0.3
		C583.8,245,583.9,245,584,245z"/>
	<path class="st9" d="M581.5,218.9c0-0.1,0.2-0.2,0.2,0c0.2,4.5,0.7,8.5,1.3,12.7c0.3,1.9,2.4,12.7,5.7,11.8
		c0.6-0.2,0.8-0.7,0.9-1.6c-0.1-1.1-0.3-2.2-0.6-3.3c-0.5-2.2-0.9-4.5-1.2-6.8c-0.6-4.3-0.8-8.6-0.5-12.9c0-0.1,0.1-0.1,0.1-0.1
		c0.1,0,0.1,0,0.1,0.1c0.2,5.9,0.9,11.8,1.9,17.7c0.6,2.8,2.2,7-0.7,7.6s-5.2-6.4-5.7-8.4C581.8,230.2,581.3,224.5,581.5,218.9z"/>
	<path class="st9" d="M588.7,243.6c0.3,0.7,0.6,1.5,0.9,2.2c0.3,0.6,0.4,1.2,0.4,1.8c0,0.1-0.2,0.1-0.2,0.1
		c-0.4-0.5-0.7-1.1-0.9-1.8c-0.3-0.7-0.6-1.4-0.9-2c-0.1-0.2,0-0.4,0.2-0.5S588.6,243.4,588.7,243.6z"/>
	<path class="st4" d="M566.5,203.4l-3.9,16.5l50-0.3c0,0-5.2-38.5-13.9-49.1c-5.9-7.2-13.3-7.1-18.3-2.6
		c-1.3,1.2-14.5,14.7-16.4,21.8C562.3,195.9,566.5,203.4,566.5,203.4z"/>
	<path class="st1" d="M574.8,173.8c-1.5,1.6-3,3.2-4.5,4.9c0.6-1,1.2-1.9,1.9-2.8c0,0,0-0.1,0,0c-0.6,0.7-1.1,1.3-1.5,2.1
		c-0.3,0.5-0.6,0.9-0.8,1.4c-0.5,0.6-0.9,1.1-1.4,1.7c-0.9,1.2-1.8,2.6-2.6,3.9c-0.7,1.4-1.3,2.8-1.8,4.2c0,0.1,0.1,0.1,0.1,0
		c0.6-1.4,1.4-2.7,2.2-4s1.7-2.6,2.6-3.9C570.8,178.8,572.8,176.3,574.8,173.8C574.9,173.8,574.8,173.8,574.8,173.8z"/>
	<path class="st6" d="M572.5,176.5l-0.2,0.3c0.7,0,1.2,0.6,1.1,1.3c0,0.7-0.6,1.2-1.3,1.1c-0.5,0-1-0.4-1.1-0.9l-0.2,0.3
		c0.3,0.8,1.2,1.1,1.9,0.8s1.1-1.2,0.8-1.9C573.4,177,573,176.6,572.5,176.5L572.5,176.5z M598.7,205.5c-0.8,0-1.5,0.7-1.5,1.5
		s0.7,1.5,1.5,1.5s1.5-0.7,1.5-1.5l0,0C600.2,206.2,599.6,205.5,598.7,205.5L598.7,205.5L598.7,205.5z M598.7,208.2
		c-0.7,0-1.2-0.5-1.2-1.2s0.5-1.2,1.2-1.2s1.2,0.5,1.2,1.2l0,0C599.9,207.6,599.4,208.2,598.7,208.2L598.7,208.2z M582,217.3
		c-0.8,0-1.5,0.7-1.5,1.5c0,0.4,0.1,0.7,0.4,1h0.5c-0.3-0.2-0.6-0.6-0.6-1c0-0.7,0.5-1.2,1.2-1.2s1.2,0.5,1.2,1.2
		c0,0.4-0.2,0.8-0.6,1h0.5c0.6-0.6,0.5-1.5-0.1-2.1C582.7,217.4,582.4,217.3,582,217.3L582,217.3z M582,206.1
		c-0.8,0-1.5,0.7-1.5,1.5s0.7,1.5,1.5,1.5s1.5-0.7,1.5-1.5S582.8,206.1,582,206.1z M582,208.8c-0.7,0-1.2-0.5-1.2-1.2
		s0.5-1.2,1.2-1.2s1.2,0.5,1.2,1.2C583.2,208.2,582.7,208.8,582,208.8L582,208.8L582,208.8z M595,170.5c-0.8,0-1.5,0.7-1.5,1.5
		s0.7,1.5,1.5,1.5s1.5-0.7,1.5-1.5l0,0C596.5,171.1,595.8,170.5,595,170.5L595,170.5z M595,173.2c-0.7,0.1-1.2-0.4-1.3-1.1
		c-0.1-0.7,0.4-1.2,1.1-1.3c0.1,0,0.1,0,0.2,0c0.7,0.1,1.1,0.6,1.1,1.3C596,172.7,595.6,173.1,595,173.2z M595.5,182
		c-0.8,0-1.5,0.7-1.5,1.5s0.7,1.5,1.5,1.5s1.5-0.7,1.5-1.5l0,0C597,182.7,596.4,182,595.5,182L595.5,182L595.5,182z M595.5,184.7
		c-0.7,0-1.2-0.5-1.2-1.2s0.5-1.2,1.2-1.2s1.2,0.5,1.2,1.2l0,0C596.7,184.2,596.2,184.7,595.5,184.7L595.5,184.7L595.5,184.7z
		 M587.3,164.7c-0.6,0-1.1,0.1-1.7,0.3c-0.3,0.3-0.5,0.7-0.5,1.1c0,0.8,0.7,1.5,1.5,1.5s1.5-0.7,1.5-1.5
		C588.2,165.5,587.8,165,587.3,164.7L587.3,164.7z M586.7,167.2c-0.7,0-1.2-0.5-1.2-1.2s0.5-1.2,1.2-1.2s1.2,0.5,1.2,1.2
		S587.4,167.3,586.7,167.2C586.7,167.3,586.7,167.3,586.7,167.2L586.7,167.2z M572.9,188.7c-0.8,0-1.5,0.7-1.5,1.5s0.7,1.5,1.5,1.5
		s1.5-0.7,1.5-1.5l0,0C574.4,189.4,573.7,188.8,572.9,188.7L572.9,188.7z M572.9,191.4c-0.7-0.1-1.1-0.6-1.1-1.3
		c0.1-0.6,0.5-1,1.1-1.1c0.7-0.1,1.2,0.4,1.3,1.1c0.1,0.7-0.4,1.2-1.1,1.3C573,191.4,573,191.4,572.9,191.4z M580.7,195.1
		c-0.8,0-1.5,0.7-1.5,1.5s0.7,1.5,1.5,1.5s1.5-0.7,1.5-1.5l0,0C582.1,195.8,581.5,195.2,580.7,195.1L580.7,195.1z M580.7,197.8
		c-0.7,0-1.2-0.5-1.2-1.2s0.5-1.2,1.2-1.2s1.2,0.5,1.2,1.2S581.4,197.8,580.7,197.8C580.7,197.9,580.7,197.9,580.7,197.8
		L580.7,197.8z M589,200.6c-0.8,0-1.5,0.7-1.5,1.5s0.7,1.5,1.5,1.5s1.5-0.7,1.5-1.5l0,0C590.4,201.3,589.8,200.7,589,200.6
		L589,200.6z M589,203.3c-0.7,0-1.2-0.5-1.2-1.2s0.5-1.2,1.2-1.2s1.2,0.5,1.2,1.2l0,0C590.2,202.7,589.7,203.3,589,203.3L589,203.3
		L589,203.3z M572.2,211.3c-0.8,0-1.5,0.7-1.5,1.5s0.7,1.5,1.5,1.5s1.5-0.7,1.5-1.5l0,0C573.6,212,573,211.3,572.2,211.3
		L572.2,211.3z M572.2,214c-0.7,0-1.2-0.5-1.2-1.2s0.5-1.2,1.2-1.2s1.2,0.5,1.2,1.2l0,0C573.4,213.4,572.9,214,572.2,214L572.2,214
		L572.2,214z M587.6,176.4c-0.8,0-1.5,0.7-1.5,1.5s0.7,1.5,1.5,1.5s1.5-0.7,1.5-1.5l0,0C589.1,177.1,588.4,176.5,587.6,176.4
		L587.6,176.4z M587.6,179.1c-0.7,0-1.2-0.5-1.2-1.2s0.5-1.2,1.2-1.2s1.2,0.5,1.2,1.2l0,0C588.8,178.6,588.3,179.1,587.6,179.1
		C587.7,179.2,587.6,179.2,587.6,179.1L587.6,179.1z M581.2,182.7c-0.8,0-1.5,0.7-1.5,1.5s0.7,1.5,1.5,1.5s1.5-0.7,1.5-1.5l0,0
		C582.7,183.3,582,182.7,581.2,182.7L581.2,182.7z M581.2,185.3c-0.7-0.1-1.1-0.6-1.1-1.3c0.1-0.6,0.5-1,1.1-1.1
		c0.7-0.1,1.2,0.4,1.3,1.1c0.1,0.7-0.4,1.2-1.1,1.3C581.4,185.4,581.3,185.4,581.2,185.3z M572.7,200.6c-0.8,0-1.5,0.7-1.5,1.5
		s0.7,1.5,1.5,1.5s1.5-0.7,1.5-1.5l0,0C574.1,201.3,573.5,200.6,572.7,200.6L572.7,200.6z M572.7,203.3c-0.7,0-1.2-0.5-1.2-1.2
		s0.5-1.2,1.2-1.2s1.2,0.5,1.2,1.2l0,0C573.9,202.8,573.4,203.3,572.7,203.3L572.7,203.3L572.7,203.3z M564.1,216.6
		c-0.3,0-0.5,0.1-0.8,0.2l-0.1,0.5c0.2-0.2,0.5-0.4,0.9-0.4c0.7,0,1.2,0.5,1.2,1.2s-0.5,1.2-1.2,1.2c-0.5,0-1-0.3-1.2-0.8l-0.1,0.4
		c0.3,0.4,0.7,0.7,1.2,0.7c0.8,0,1.5-0.7,1.5-1.5S565,216.6,564.1,216.6L564.1,216.6z M597.4,194.8c-0.8,0-1.5,0.7-1.5,1.5
		s0.7,1.5,1.5,1.5s1.5-0.7,1.5-1.5l0,0C598.8,195.5,598.2,194.8,597.4,194.8L597.4,194.8z M597.4,197.5c-0.7,0-1.2-0.5-1.2-1.2
		s0.5-1.2,1.2-1.2s1.2,0.5,1.2,1.2l0,0C598.6,197,598.1,197.5,597.4,197.5L597.4,197.5L597.4,197.5z M606.4,198.9
		c-0.8,0-1.5,0.7-1.5,1.5s0.7,1.5,1.5,1.5l0,0c0.8,0,1.5-0.7,1.5-1.5S607.2,198.9,606.4,198.9z M606.4,201.6c-0.7,0-1.2-0.5-1.2-1.2
		s0.5-1.2,1.2-1.2s1.2,0.5,1.2,1.2C607.6,201,607.1,201.6,606.4,201.6L606.4,201.6L606.4,201.6z M592.3,211.7
		c-0.8,0-1.5,0.7-1.5,1.5s0.7,1.5,1.5,1.5s1.5-0.7,1.5-1.5l0,0C593.8,212.3,593.1,211.7,592.3,211.7L592.3,211.7z M592.3,214.4
		c-0.7,0.1-1.2-0.4-1.3-1.1c-0.1-0.7,0.4-1.2,1.1-1.3c0.1,0,0.1,0,0.2,0c0.7,0.1,1.1,0.6,1.1,1.3
		C593.4,213.9,592.9,214.3,592.3,214.4z M608.8,210.4c-0.8,0-1.5,0.7-1.5,1.5s0.7,1.5,1.5,1.5s1.5-0.7,1.5-1.5l0,0
		C610.2,211,609.5,210.4,608.8,210.4L608.8,210.4z M608.8,213c-0.7,0.1-1.2-0.4-1.3-1.1c-0.1-0.7,0.4-1.2,1.1-1.3c0.1,0,0.1,0,0.2,0
		c0.7,0.1,1.1,0.6,1.1,1.3C609.8,212.5,609.3,213,608.8,213z M579.1,171c-0.8,0-1.5,0.7-1.5,1.5s0.7,1.5,1.5,1.5s1.5-0.7,1.5-1.5
		l0,0C580.7,171.7,580,171,579.1,171C579.2,171,579.1,171,579.1,171L579.1,171z M579.1,173.7c-0.7,0-1.2-0.5-1.2-1.2
		s0.5-1.2,1.2-1.2s1.2,0.5,1.2,1.2l0,0C580.3,173.2,579.8,173.7,579.1,173.7L579.1,173.7L579.1,173.7z M564.4,195
		c-0.2,0-0.4,0-0.6,0.1c0,0.1,0,0.2,0,0.3c0.2-0.1,0.4-0.1,0.5-0.1c0.7-0.1,1.2,0.4,1.3,1.1c0.1,0.7-0.4,1.2-1.1,1.3
		c-0.1,0-0.1,0-0.2,0h-0.1l0.1,0.3c0.8,0,1.5-0.7,1.5-1.5S565.2,195,564.4,195L564.4,195z M602.8,178.1L602.8,178.1
		c0-0.1-0.1-0.1-0.1-0.2c-0.1-0.2-0.2-0.5-0.3-0.7c0,0.1,0,0.2,0,0.4c0,0.5,0.3,1,0.7,1.3C603,178.6,602.9,178.3,602.8,178.1
		L602.8,178.1z M589,188.8c-0.8,0-1.5,0.7-1.5,1.5s0.7,1.5,1.5,1.5s1.5-0.7,1.5-1.5S589.8,188.8,589,188.8z M589,191.4
		c-0.7,0-1.2-0.5-1.2-1.2s0.5-1.2,1.2-1.2s1.2,0.5,1.2,1.2l0,0C590.2,190.9,589.7,191.4,589,191.4L589,191.4L589,191.4z
		 M603.9,187.4c-0.8,0-1.5,0.7-1.5,1.5s0.7,1.5,1.5,1.5s1.5-0.7,1.5-1.5l0,0C605.4,188.1,604.8,187.4,603.9,187.4L603.9,187.4
		L603.9,187.4z M603.9,190.1c-0.7,0-1.2-0.5-1.2-1.2s0.5-1.2,1.2-1.2s1.2,0.5,1.2,1.2l0,0C605.1,189.6,604.6,190.1,603.9,190.1
		L603.9,190.1L603.9,190.1z M600.4,217.8c-0.8,0-1.5,0.7-1.5,1.5c0,0.1,0,0.3,0,0.4h0.3c0-0.1-0.1-0.2-0.1-0.4
		c-0.1-0.7,0.4-1.2,1.1-1.3c0.7-0.1,1.2,0.4,1.3,1.1c0,0.1,0,0.1,0,0.2c0,0.1,0,0.2-0.1,0.4h0.3c0-0.1,0-0.2,0-0.4
		C601.8,218.5,601.1,217.8,600.4,217.8C600.3,217.8,600.3,217.8,600.4,217.8L600.4,217.8z"/>
	<path class="st1" d="M574.8,200.1c2.3,0.1,4.5,0.3,6.7,0.8c1.1,0.2,2.2,0.5,3.3,0.8c0.5,0.1,1.1,0.3,1.6,0.4
		c0.6,0.1,1.1,0.2,1.7,0.2 M588.1,202.4c-0.5,0.1-1.1,0.1-1.7,0.1c-0.5,0-1.1-0.1-1.6-0.2c-1.1-0.2-2.2-0.5-3.3-0.7
		c-2.2-0.5-4.5-0.9-6.8-1.2c-0.1,0-0.1-0.2,0-0.2L588.1,202.4z"/>
	<path class="st1" d="M569.3,202.4c1.8-0.3,3.7-0.5,5.5-0.6c0.9,0,1.8,0,2.8,0l1.3,0.1c0.5,0,1,0.1,1.5,0.2v0.1
		c-0.5,0-0.9,0-1.4,0.1h-1.4l-2.8,0.1C573,202.3,571.2,202.4,569.3,202.4C569.2,202.5,569.2,202.4,569.3,202.4z"/>
	<polygon class="st14" points="548.1,265 587,261.1 563.9,213 525,216.9 	"/>
	<polygon class="st0" points="545.4,265.2 584.3,261.4 561.2,213.3 522.3,217.1 	"/>
	<path class="st0" d="M557.1,213.7c0.4,0.8,1,1.5,1.9,1.9c0.4,0.2,0.4-0.3,0-0.5c-0.5-0.2-1-0.6-1.2-1.2c0-0.1-0.1-0.2-0.1-0.3
		c-0.1-0.3-0.2-0.6-0.2-0.9c0-0.1,0.1-0.3,0.2-0.4l0,0l0,0h0.1c0.1,0,0.2,0,0.3,0c0.2,0,0.3,0.1,0.5,0.2c0.2,0.1,0.3,0.3,0.4,0.5
		c0.1,0.1,0.1,0.2,0.2,0.3v0.1c0,0,0,0.1,0.1,0.1c0,0,0,0,0,0.1l0.5-0.1c-0.2-0.3-0.4-0.6-0.6-0.9c-0.4-0.5-1-0.8-1.6-0.8
		c-0.5,0-0.8,0.4-0.8,0.9C556.8,213,556.9,213.4,557.1,213.7z"/>
	<path class="st0" d="M554.1,214c0.4,0.8,1,1.5,1.9,1.9c0.4,0.2,0.4-0.3,0.1-0.5c-0.5-0.2-1-0.6-1.3-1.2c0-0.1-0.1-0.2-0.1-0.3
		c-0.1-0.3-0.2-0.6-0.2-0.9c0-0.1,0.1-0.3,0.2-0.4l0,0l0,0h0.1c0.1,0,0.2,0,0.3,0c0.2,0,0.3,0.1,0.5,0.2c0.2,0.1,0.3,0.3,0.4,0.5
		l0.2,0.3v0.1v0.1c0,0,0,0,0,0.1l0.6-0.1c-0.2-0.3-0.4-0.6-0.6-0.9c-0.4-0.5-1-0.8-1.6-0.8c-0.5,0-0.8,0.4-0.8,0.9
		C553.7,213.3,553.8,213.7,554.1,214z"/>
	<path class="st0" d="M551,214.3c0.3,0.8,1,1.5,1.9,1.9c0.4,0.2,0.5-0.3,0.1-0.5c-0.5-0.2-1-0.6-1.3-1.2c0-0.1-0.1-0.2-0.1-0.3
		c-0.1-0.3-0.2-0.6-0.2-0.9c0-0.1,0.1-0.3,0.2-0.4l0,0l0,0h0.1c0.1,0,0.2,0,0.3,0c0.2,0,0.3,0.1,0.5,0.2c0.2,0.1,0.3,0.3,0.4,0.5
		l0.2,0.3v0.1c0,0,0,0.1,0.1,0.1c0,0,0,0,0,0.1l0.5-0.1c-0.2-0.3-0.4-0.6-0.6-0.9c-0.4-0.5-1-0.8-1.6-0.8c-0.5,0-0.8,0.4-0.8,0.9
		C550.7,213.6,550.8,214,551,214.3z"/>
	<path class="st0" d="M548,214.6c0.4,0.8,1,1.5,1.9,1.9c0.4,0.2,0.4-0.3,0-0.5c-0.5-0.2-1-0.6-1.2-1.2c0-0.1-0.1-0.2-0.1-0.3
		c-0.1-0.3-0.2-0.6-0.2-0.9c0-0.1,0.1-0.3,0.2-0.4l0,0l0,0h0.1c0.1,0,0.2,0,0.3,0c0.2,0,0.3,0.1,0.5,0.2c0.2,0.1,0.3,0.3,0.4,0.5
		c0.1,0.1,0.1,0.2,0.2,0.3v0.1c0,0,0,0.1,0.1,0.1c0,0,0,0,0,0.1l0.5-0.1c-0.2-0.3-0.4-0.6-0.6-0.9c-0.4-0.5-1-0.8-1.6-0.8
		c-0.5,0-0.8,0.4-0.8,0.9C547.6,213.9,547.8,214.3,548,214.6z"/>
	<path class="st0" d="M544.9,214.9c0.4,0.8,1,1.5,1.9,1.9c0.4,0.2,0.4-0.3,0.1-0.5c-0.5-0.2-1-0.6-1.3-1.2c0-0.1-0.1-0.2-0.1-0.3
		c-0.1-0.3-0.2-0.6-0.2-0.9c0-0.1,0.1-0.3,0.2-0.4l0,0l0,0h0.1c0.1,0,0.2,0,0.3,0c0.2,0,0.3,0.1,0.5,0.2c0.2,0.1,0.3,0.3,0.4,0.5
		c0.1,0.1,0.1,0.2,0.2,0.3v0.1v0.1v0.1l0.5-0.1c-0.2-0.3-0.4-0.6-0.6-0.9c-0.4-0.5-1-0.8-1.6-0.8c-0.5,0-0.8,0.4-0.8,0.9
		C544.6,214.2,544.7,214.6,544.9,214.9z"/>
	<path class="st0" d="M541.9,215.2c0.4,0.8,1,1.5,1.9,1.9c0.4,0.2,0.4-0.3,0-0.5c-0.5-0.2-1-0.6-1.2-1.2c0-0.1-0.1-0.2-0.1-0.3
		c-0.1-0.3-0.2-0.6-0.2-0.9c0-0.1,0.1-0.3,0.2-0.4l0,0l0,0h0.1c0.1,0,0.2,0,0.3,0c0.2,0,0.3,0.1,0.5,0.2c0.2,0.1,0.3,0.3,0.4,0.5
		c0.1,0.1,0.1,0.2,0.2,0.3v0.1c0,0,0,0.1,0.1,0.1c0,0,0,0,0,0.1l0.5-0.1c-0.1-0.3-0.3-0.7-0.5-1c-0.4-0.5-1-0.8-1.6-0.8
		c-0.5,0-0.8,0.4-0.8,0.9C541.6,214.5,541.7,214.8,541.9,215.2z"/>
	<path class="st0" d="M538.8,215.5c0.4,0.8,1,1.5,1.9,1.9c0.4,0.2,0.4-0.3,0.1-0.5c-0.5-0.2-1-0.6-1.3-1.2c0-0.1-0.1-0.2-0.1-0.3
		c-0.1-0.3-0.2-0.6-0.2-0.9c0-0.1,0.1-0.3,0.2-0.4l0,0l0,0h0.1c0.1,0,0.2,0,0.3,0c0.2,0,0.3,0.1,0.5,0.2c0.2,0.1,0.3,0.3,0.4,0.5
		c0.1,0.1,0.1,0.2,0.2,0.3v0.1c0,0,0,0.1,0.1,0.1v0.1l0.5-0.1c-0.2-0.3-0.4-0.6-0.6-0.9c-0.4-0.5-1-0.8-1.6-0.8
		c-0.5,0-0.8,0.4-0.8,0.9C538.5,214.8,538.6,215.2,538.8,215.5z"/>
	<path class="st0" d="M535.8,215.8c0.4,0.8,1,1.5,1.9,1.9c0.4,0.2,0.4-0.3,0.1-0.5c-0.5-0.2-1-0.6-1.3-1.2c0-0.1-0.1-0.2-0.1-0.3
		c-0.1-0.3-0.2-0.6-0.2-0.9c0-0.1,0.1-0.3,0.2-0.4l0,0l0,0h0.1c0.1,0,0.2,0,0.3,0c0.2,0,0.3,0.1,0.5,0.2c0.2,0.1,0.3,0.3,0.4,0.5
		c0.1,0.1,0.1,0.2,0.2,0.3v0.1l0.1,0.1c0,0,0,0,0,0.1l0.5-0.1c-0.2-0.3-0.4-0.6-0.6-0.9c-0.4-0.5-1-0.8-1.6-0.8
		c-0.5,0-0.8,0.4-0.8,0.9C535.5,215.1,535.6,215.5,535.8,215.8z"/>
	<path class="st0" d="M532.7,216.1c0.4,0.8,1,1.5,1.9,1.9c0.4,0.2,0.4-0.3,0-0.5c-0.5-0.2-1-0.6-1.2-1.2c0-0.1-0.1-0.2-0.1-0.3
		c-0.1-0.3-0.2-0.6-0.2-0.9c0-0.1,0.1-0.3,0.2-0.4l0,0l0,0h0.1c0.1,0,0.2,0,0.3,0c0.2,0,0.3,0.1,0.5,0.2c0.2,0.1,0.3,0.3,0.4,0.5
		c0.1,0.1,0.1,0.2,0.2,0.3v0.1c0,0,0,0.1,0.1,0.1c0,0,0,0,0,0.1l0.5-0.1c-0.2-0.3-0.4-0.6-0.6-0.9c-0.4-0.5-1-0.8-1.6-0.8
		c-0.5,0-0.8,0.4-0.8,0.9C532.4,215.4,532.5,215.8,532.7,216.1z"/>
	<path class="st0" d="M529.7,216.4c0.4,0.8,1,1.5,1.9,1.9c0.4,0.2,0.4-0.3,0.1-0.5c-0.5-0.2-1-0.6-1.3-1.2c0-0.1-0.1-0.2-0.1-0.3
		c-0.1-0.3-0.2-0.7-0.2-1c0-0.1,0.1-0.3,0.2-0.4l0,0l0,0h0.1c0.1,0,0.2,0,0.3,0c0.2,0,0.3,0.1,0.5,0.2c0.2,0.1,0.3,0.3,0.4,0.5
		c0.1,0.1,0.1,0.2,0.2,0.3v0.1v0.1c0,0,0,0,0,0.1l0.6-0.1c-0.2-0.3-0.4-0.6-0.6-0.9c-0.4-0.5-1-0.8-1.6-0.8c-0.5,0-0.8,0.4-0.8,0.9
		C529.3,215.7,529.5,216.1,529.7,216.4z"/>
	<path class="st0" d="M526.7,216.7c0.3,0.8,1,1.5,1.9,1.9c0.4,0.2,0.5-0.3,0.1-0.5c-0.5-0.2-1-0.6-1.3-1.2c0-0.1-0.1-0.2-0.1-0.3
		c-0.1-0.3-0.2-0.6-0.2-0.9c0-0.1,0.1-0.3,0.2-0.4l0,0l0,0h0.1c0.1,0,0.2,0,0.3,0c0.2,0,0.3,0.1,0.5,0.2c0.2,0.1,0.3,0.3,0.4,0.5
		c0.1,0.1,0.1,0.2,0.2,0.3v0.1c0,0,0,0.1,0.1,0.1c0,0,0,0,0,0.1l0.5-0.1c-0.2-0.3-0.4-0.6-0.6-0.9c-0.4-0.5-1-0.8-1.6-0.8
		c-0.5,0-0.8,0.4-0.8,0.9C526.3,216,526.5,216.4,526.7,216.7z"/>
	<path class="st0" d="M523.6,217c0.4,0.8,1,1.5,1.9,1.9c0.4,0.2,0.4-0.3,0-0.5c-0.5-0.2-1-0.6-1.2-1.2c0-0.1-0.1-0.2-0.1-0.3
		c-0.1-0.3-0.1-0.6-0.1-0.9c0-0.1,0.1-0.3,0.2-0.4l0,0l0,0h0.1c0.1,0,0.2,0,0.3,0c0.2,0,0.3,0.1,0.5,0.2c0.2,0.1,0.3,0.3,0.4,0.5
		c0.1,0.1,0.1,0.2,0.2,0.3v0.1c0,0,0,0.1,0.1,0.1c0,0,0,0,0,0.1l0.5-0.1c-0.2-0.3-0.4-0.6-0.6-0.9c-0.4-0.5-1-0.8-1.6-0.8
		c-0.5,0-0.8,0.4-0.8,0.9C523.3,216.3,523.4,216.7,523.6,217z"/>
	<path class="st18" d="M599.8,170.7c13.4,11.8,42.7,39.1,37.9,48c-7.8,14.7-31.2,31.4-38.7,35.7c-3.3,1.9-21.6-20.7-18.8-23.5
		c3.4-3.4,26.4-19.2,26.3-20.4s-8.9-17.7-13.6-31C587,162.8,594.2,165.8,599.8,170.7z"/>
	<path class="st18" d="M592.5,226.1c0,0-11.4-0.7-18.8-0.8c-4.2-0.1-11.3,0.5-14.4,1.9c-4.6,2-22.5,13.5-19.8,17.9
		c2.4,4,16.6-7.8,16.6-7.8s-15.3,10.6-11.5,14.9s18-11.2,18-11.2s-15.6,11.3-11,15c3.5,2.9,17.2-10.4,17.2-10.4s-13.3,9.8-9.8,12.9
		c3.8,3.4,17.2-8,17.2-8c10.1,6.4,17.5,5.8,22.8,3.9C600.2,253.9,592.5,226.1,592.5,226.1z"/>
	<path class="st1" d="M560.4,233.8c-11.9,7-15.6,14-15.5,13.9c3.2-4,9.4-8.9,11.1-10.2S558.7,235.2,560.4,233.8
		C560.5,233.8,560.4,233.8,560.4,233.8z"/>
	<path class="st1" d="M566.1,239.4c-4.9,2.6-9.3,6.1-13.1,10.2c-0.1,0.2,0,0.2,0.1,0C555.3,247.9,563.9,241.1,566.1,239.4
		C566.1,239.5,566.1,239.4,566.1,239.4z"/>
	<path class="st1" d="M571.3,244c-3.8,2.1-7.1,4.9-9.9,8.2c-0.1,0.2,0,0.2,0.2,0C564.8,249.4,567.3,247.2,571.3,244
		C571.4,244,571.3,243.9,571.3,244z"/>
	<path class="st4" d="M622,188.4l-23,7.3c0,0-7.4-13.5-9.5-22.7c-1.7-7,2.2-8.5,6.3-6C609.4,175.2,622,188.4,622,188.4z"/>
	<path class="st6" d="M620.6,187c-0.2,0.3-0.6,0.4-0.9,0.4c-0.7,0-1.2-0.5-1.2-1.2c0-0.3,0.1-0.7,0.4-0.9l-0.2-0.2
		c-0.6,0.6-0.6,1.5-0.1,2.1s1.5,0.6,2.1,0.1l0.1-0.1L620.6,187z M595,170.5c-0.8,0-1.5,0.7-1.5,1.5s0.7,1.5,1.5,1.5s1.5-0.7,1.5-1.5
		l0,0C596.5,171.1,595.8,170.5,595,170.5z M595,173.2c-0.7,0.1-1.2-0.4-1.3-1.1c-0.1-0.7,0.4-1.2,1.1-1.3c0.1,0,0.1,0,0.2,0
		c0.7,0.1,1.1,0.6,1.1,1.3C596,172.7,595.6,173.1,595,173.2z M595.5,182c-0.8,0-1.5,0.7-1.5,1.5s0.7,1.5,1.5,1.5s1.5-0.7,1.5-1.5
		l0,0C597,182.7,596.4,182,595.5,182L595.5,182L595.5,182z M595.5,184.7c-0.7,0-1.2-0.5-1.2-1.2s0.5-1.2,1.2-1.2s1.2,0.5,1.2,1.2
		l0,0C596.7,184.2,596.2,184.7,595.5,184.7L595.5,184.7L595.5,184.7z M611.4,180.7c-0.8,0-1.5,0.7-1.5,1.5s0.7,1.5,1.5,1.5
		s1.5-0.7,1.5-1.5S612.2,180.7,611.4,180.7z M611.4,183.4c-0.7,0-1.2-0.5-1.2-1.2s0.5-1.2,1.2-1.2s1.2,0.5,1.2,1.2l0,0
		C612.6,182.9,612.1,183.4,611.4,183.4L611.4,183.4z M603.9,176.1c-0.8,0-1.5,0.7-1.5,1.5s0.7,1.5,1.5,1.5s1.5-0.7,1.5-1.5l0,0
		C605.4,176.7,604.8,176.1,603.9,176.1C603.9,176,603.9,176,603.9,176.1L603.9,176.1z M603.9,178.7c-0.7,0-1.2-0.5-1.2-1.2
		s0.5-1.2,1.2-1.2s1.2,0.5,1.2,1.2C605.1,178.2,604.6,178.7,603.9,178.7L603.9,178.7z M603.9,187.4c-0.8,0-1.5,0.7-1.5,1.5
		s0.7,1.5,1.5,1.5s1.5-0.7,1.5-1.5l0,0C605.4,188.1,604.8,187.4,603.9,187.4L603.9,187.4L603.9,187.4z M603.9,190.1
		c-0.7,0-1.2-0.5-1.2-1.2s0.5-1.2,1.2-1.2s1.2,0.5,1.2,1.2l0,0C605.1,189.6,604.6,190.1,603.9,190.1L603.9,190.1L603.9,190.1z"/>
	<path class="st1" d="M598.6,191.7c6.4-2.5,12.9-4.6,19.5-6.3c0,0,0.1,0.1,0,0.1c-5.2,2-15.9,5.3-19.5,6.3
		C598.6,191.9,598.5,191.7,598.6,191.7z"/>
	<path class="st1" d="M598.8,195.8c-0.9-1.7-1.7-3.6-2.5-5.4c-0.3-0.5-0.7-0.9-1-1.4c-0.4-0.6-0.7-1.2-1-1.9c0,0,0-0.1,0,0
		c0.2,0.3,0.3,0.6,0.5,0.9l0.5,0.9c0.2,0.3,0.4,0.6,0.6,0.9c-0.8-1.8-1.5-3.5-2.2-5.4c-1-2.7,0-0.1,0.1,0c1,1.8,1.9,3.6,2.8,5.5
		s1.7,3.7,2.5,5.5c0.3-0.1,0.7-0.2,1-0.2h0.1v0.1c-0.3,0.2-0.7,0.3-1.1,0.5C598.9,196,598.8,195.9,598.8,195.8z"/>
	<path class="st6" d="M584,164.1c-6.4,2.6-7.2,13.2-7.2,13.2l5.1-2.7l4.3,5.2c0,0,4.8-5.8,4.8-12C591,163.9,589.1,162,584,164.1z"/>
	<path class="st18" d="M590.3,167.1c-0.3,1.4-4.1,7.4-8.3,6.9c-2.2-0.2-1.6-7.9-1.6-7.9l-0.1-0.6l-0.9-7.9l11.1-5.5
		C590.5,152.2,590.4,166.8,590.3,167.1z"/>
	<path class="st1" d="M590.5,157.6c-2.1,4-5.8,6.9-10.2,8l-0.9-7.9l11.2-5.5C590.5,152.2,590.5,154.7,590.5,157.6z"/>
	<path class="st18" d="M569.3,144.9c-2.3,13.8,5.7,16.8,8.7,17.3c2.7,0.4,12,1.6,15.7-11.9s-2-19-8.1-20.3S571.6,131,569.3,144.9z"
		/>
	<path class="st1" d="M572,142c0.3,0,0.7,0,1-0.1c0.4,0,0.7-0.1,1-0.3c0.1-0.2,0.2-0.4,0.1-0.6c-0.3-0.3-0.7-0.5-1.2-0.4
		c-0.5,0-0.9,0.2-1.2,0.5c-0.2,0.2-0.2,0.5,0,0.7C571.8,141.9,571.9,142,572,142z"/>
	<path class="st1" d="M581.3,143.1c-0.3-0.1-0.6-0.2-0.9-0.3c-0.3-0.1-0.7-0.2-0.9-0.5c-0.1-0.2-0.1-0.4,0.1-0.6
		c0.4-0.3,0.8-0.3,1.2-0.2s0.8,0.4,1.1,0.8c0.2,0.3,0.1,0.6-0.2,0.7C581.6,143.1,581.4,143.1,581.3,143.1z"/>
	<path class="st1" d="M579.1,146.4C579.1,146.4,579.2,146.4,579.1,146.4c-0.1,1-0.1,2.1,0.7,2.6v0.1
		C578.8,148.7,578.8,147.2,579.1,146.4z"/>
	<path class="st1" d="M580,145.5c1.5,0.1,1.3,3.1-0.2,3.1S578.8,145.4,580,145.5z"/>
	<path class="st1" d="M580.6,145.7c0.2,0.2,0.5,0.5,0.8,0.6s0.7-0.2,1-0.5c0,0,0.1,0,0,0c0,0.6-0.3,1.2-1,1.2s-1-0.5-1-1.1
		C580.4,145.8,580.5,145.6,580.6,145.7z"/>
	<path class="st1" d="M573.4,145.7C573.4,145.7,573.3,145.7,573.4,145.7c-0.1,1-0.3,2.1-1.2,2.4v0.1
		C573.3,148.1,573.5,146.6,573.4,145.7z"/>
	<path class="st1" d="M572.7,144.6c-1.5-0.2-1.9,2.8-0.5,3S573.9,144.8,572.7,144.6z"/>
	<path class="st1" d="M572,144.8c-0.3,0.1-0.5,0.4-0.8,0.4s-0.5-0.4-0.7-0.7l0,0c-0.1,0.6,0,1.2,0.6,1.4s0.9-0.3,1.2-0.9
		C572.2,144.9,572.1,144.7,572,144.8z"/>
	<path class="st1" d="M578.5,153.8c-0.2,0.2-0.4,0.6-0.7,0.7c-0.3,0-0.7,0-1-0.1c0,0-0.1,0,0,0.1c0.3,0.3,0.8,0.5,1.3,0.4
		c0.4-0.2,0.6-0.5,0.6-0.9C578.6,153.8,578.5,153.8,578.5,153.8z"/>
	<path class="st1" d="M574.5,150.1c0,0-0.3,1.4-0.4,2.1c1.2,0.4,2.6,0.2,3.6-0.7c0.1,0,0-0.1-0.1-0.1c-0.9,0.5-2,0.7-3,0.5
		c0-0.2,0.7-2.4,0.6-2.4c-0.5,0-1.1,0.1-1.6,0.2c0.6-2.9,1.7-5.8,2.3-8.7c0,0,0-0.1-0.1-0.1s-0.1,0-0.1,0.1l0,0
		c-1.3,3-2.2,6.1-2.9,9.2C572.8,150.5,574.2,150.1,574.5,150.1z"/>
	<path class="st1" d="M575,152.1c0.3,0.5,0.8,0.9,1.3,1.2c0.3,0.2,0.7,0.2,1,0.1c0.7-0.1,0.8-0.8,0.7-1.3c0-0.3-0.1-0.6-0.2-0.9
		C576.9,151.9,576,152.2,575,152.1z"/>
	<path class="st16" d="M576.3,153.3c0.3,0.2,0.7,0.2,1,0.1c0.7-0.1,0.8-0.8,0.7-1.3C577.2,152.1,576.5,152.6,576.3,153.3z"/>
	<path class="st1" d="M594.2,130.8c-1.2-0.4-2.3-7.2,2.1-10.4s10.1,0.5,7.7,6C602.5,129.8,596.8,131.7,594.2,130.8z"/>
	<path class="st1" d="M602.5,120c1.3,1.1,2.2,2.6,2.5,4.3c0.4,1.6-0.2,3.2-1.3,4.3c-1.2,1.1-2.8,1.8-4.4,2.1
		c-0.8,0.2-1.7,0.3-2.5,0.3c-0.9,0.1-1.7,0-2.5-0.3c0.8,0.4,1.6,0.7,2.5,0.8s1.8,0.1,2.7,0c1.8-0.2,3.6-1,4.9-2.2
		c1.4-1.3,2-3.3,1.4-5.2C605.3,122.4,604.1,120.9,602.5,120z"/>
	<path class="st1" d="M593,149.8c-2.6,0.2-3-5.9-3-5.9s-11-2.6-11.4-11.7c-1.6,3.6-4.6,6.4-8.2,7.9c0,0,1-9.9,9-11.4
		c0,0,10-3,15,5.1S594.8,149.6,593,149.8z"/>
	<path class="st1" d="M578.6,131.6c-0.2,1.4-0.1,2.8,0.2,4.2c0.4,1.4,1,2.7,1.9,3.8c0.2,0.3,0.5,0.6,0.7,0.8l0.4,0.4
		c0.1,0.1,0.3,0.2,0.4,0.3s0.5,0.5,0.8,0.7s0.6,0.4,0.9,0.6c0.2,0.1,0.3,0.2,0.5,0.3l0.5,0.2l1,0.4c0.7,0.2,1.3,0.4,2,0.6
		c-0.6-0.3-1.3-0.6-1.9-0.9l-0.9-0.5l-0.5-0.2c-0.1-0.1-0.3-0.2-0.4-0.3l-0.8-0.6c-0.3-0.2-0.5-0.4-0.8-0.7l-0.4-0.3l-0.3-0.4
		c-0.2-0.2-0.5-0.5-0.7-0.8c-0.8-1.1-1.5-2.3-1.9-3.5c-0.2-0.7-0.4-1.3-0.5-2C578.7,132.9,578.6,132.2,578.6,131.6z"/>
	<path class="st18" d="M591.4,149.1c0,0,3.4-4.1,5.3-2.9s-0.9,7.4-3.3,8.1c-1.2,0.4-2.6-0.2-3-1.4v-0.1L591.4,149.1z"/>
	<path class="st1" d="M595.8,148C595.8,148,595.8,148.1,595.8,148c-1.6,0.7-2.8,2-3.4,3.6c0.4-0.6,1.2-0.8,1.8-0.4
		c0.1,0,0.1,0.1,0.2,0.1v0.1c-0.6-0.2-1.2-0.1-1.6,0.4c-0.3,0.4-0.6,0.8-0.9,1.2c-0.1,0.1-0.3,0-0.3-0.1l0,0
		C591.7,150.8,593.6,148,595.8,148z"/>
	<path class="st7" d="M593.1,153.8c-0.1,0.3-0.5,0.5-0.8,0.4l0,0c-0.3-0.1-0.5-0.5-0.4-0.8s0.5-0.5,0.8-0.4
		C593.1,153.1,593.3,153.5,593.1,153.8z"/>
	<path class="st1" d="M592.8,153.7c0,0.1-0.2,0.2-0.3,0.2l0,0c-0.1-0.1-0.2-0.2-0.2-0.4c0.1-0.1,0.2-0.2,0.4-0.2l0,0
		C592.8,153.4,592.9,153.5,592.8,153.7L592.8,153.7z"/>
	<path class="st7" d="M594.2,153.1c-0.1,0.2-0.3,0.3-0.5,0.3c-0.2-0.1-0.3-0.3-0.3-0.6s0.3-0.3,0.5-0.3
		C594.2,152.7,594.3,152.9,594.2,153.1z"/>
</g>
<g id="freepik--character-1--inject-59">
	<path class="st1" d="M192,142.9c-3.6-0.9-13,1.6-16.2,6.4s-3,12.6-1.4,13.4s8.5,0.3,13.3-2.2S193.8,143.4,192,142.9z"/>
	<path class="st1" d="M192,143c0.1,0,0.1-0.2,0-0.2c-3.2-0.1-6.6,0.9-9.6,1.7c-2.5,0.5-4.9,1.6-7,3.1c-1.9,1.6-3.1,3.9-3.2,6.4
		c-0.2,3,0.3,6,1.6,8.7c0,0.1,0.2,0.1,0.1,0c-1.4-5.3-2.6-11.8,2.7-15.3C181.2,144.3,186.9,144,192,143z"/>
	<path class="st1" d="M174.9,161.4c-3.2,0.4-11.5,6.3-13,12.3s3.3,15,4.8,15.7s8.6-5,11-9.2c1.6-2.8,0.4-6.1-0.2-9.4
		C176.6,165.8,175.4,161.3,174.9,161.4z"/>
	<path class="st1" d="M179.7,179.4c1-6.1-2.4-12.3-4.4-17.9c0-0.1-0.1,0-0.1,0c1.1,5.4,4.2,10.2,4.2,15.8c0.1,3.3-1.3,6.5-3.9,8.5
		c-2.4,1.7-5.4,2.5-8.1,3.4c-0.2,0.1-0.1,0.3,0.1,0.3C173,187.8,178.6,185.7,179.7,179.4z"/>
	<path class="st1" d="M174.2,161.9c0.2-0.1,0.1-0.3-0.1-0.2c-4.5,2.1-10,5.1-12.5,9.6c-2.7,4.9-0.1,10.1,2.1,14.6c0,0.1,0.1,0,0.1,0
		c-2.2-4.6-4.6-10.2-1.5-15C164.9,166.8,170,164,174.2,161.9z"/>
	<path class="st1" d="M167.4,188.6c2.1,1.1,5.2,4.7,5.9,9c1.2,7.3,4,5.9,11.9,7.8c6.7,1.6,8.1,9.2,4.5,12.9c0,0,2.1-4.6-2.4-6.9
		c-5.4-2.7-17.8,2.9-24-4.7C155.4,196.7,167.4,188.6,167.4,188.6z"/>
	<path class="st1" d="M170.3,192c-0.1-0.1,0.1-0.2,0.2-0.1c0.9,0.9,1.7,2,2.2,3.2c0.7,1.5,0.7,3.2,1.3,4.8c1.4,4,6.3,3.9,9.8,4.1
		c4.7,0.3,8.4,3.2,8.7,8.1c0,0.1-0.1,0.1-0.1,0c-0.2-3.1-2.1-5.8-5-7.1c-2.7-1.2-5.8-0.6-8.7-1.2c-2-0.5-3.9-1.3-4.8-3.2
		c-0.4-1.1-0.7-2.2-0.9-3.3C172.5,195.3,171.6,193.5,170.3,192z"/>
	<path class="st1" d="M166.2,189.5C166.2,189.5,166.3,189.5,166.2,189.5c-2.6,2.7-5.4,5.3-6.2,9.2c-0.8,4.1,1.3,8.3,4.5,10.8
		c3.6,2.8,7.5,1.5,11.6,0.7c2.9-0.6,5.9-0.9,8.8,0.1c0.1,0,0,0.2,0,0.2c-4.6-1.1-8.9,0.3-13.4,1c-3.4,0.6-6.9-0.8-9-3.6
		C157.1,201.4,160.4,194.1,166.2,189.5z"/>
	<path class="st2" d="M189.3,139.6c-1-1.3-3,0.3-2,1.6S190.3,140.9,189.3,139.6z"/>
	<path class="st2" d="M190.2,141.7c-1-1.3-3,0.3-2,1.6S191.2,143,190.2,141.7z"/>
	<path class="st2" d="M191.6,143.7c-1-1.3-3,0.3-2,1.6S192.6,145,191.6,143.7z"/>
	<path class="st2" d="M193.1,145.4c-1-1.3-3,0.3-2,1.6S194.1,146.7,193.1,145.4z"/>
	<path class="st2" d="M194.9,146.9c-1-1.3-3,0.3-2,1.6S195.9,148.2,194.9,146.9z"/>
	<path class="st2" d="M196.9,148c-1-1.3-3,0.3-2,1.6c0.5,0.5,1.3,0.6,1.8,0.1C197.2,149.3,197.3,148.5,196.9,148z"/>
	<path class="st19" d="M185.9,339.8l-30.2,24.5c-5.8,4.6-10.8,8.8-13.2,11.2l0,0c-0.9,0.9-1.4,1.5-1.5,1.9c0,0,0,0,0,0.1
		c0.2,2.7,36,50.1,37.8,51.4s5.5-3.8,5.6-6.8s-5.5-27.3-5.5-27.3l30-24.7L185.9,339.8z"/>
	<path class="st19" d="M181.5,407.5c1.4,6.4,2.7,13.1,2.7,14.6c-0.1,3-3.8,8-5.6,6.8s-37.6-48.7-37.8-51.4c0,0,0,0,0-0.1
		c0-0.3,0.6-1,1.5-1.9l0,0c1.9-2,5.6-5.1,10-8.6c1-0.8,2.1-1.7,3.2-2.6l30.2-24.5l22.9,30.3l-30,24.7
		C178.7,394.8,180.1,401,181.5,407.5L181.5,407.5z"/>
	<path class="st1" d="M184.2,422c-0.1,3-3.8,8-5.6,6.8s-37.6-48.7-37.8-51.4c0,0,0,0,0-0.1c0-0.3,0.6-1,1.5-1.9l0,0
		c1.9-2,5.6-5.1,10-8.6c6.6,13.2,24.6,48.9,28.2,48.6c1.3-0.1,1.2-4.2,0.9-8C182.9,413.8,184.2,420.5,184.2,422z"/>
	<path class="st9" d="M202.2,310.6c-2.1,10.6-46,52.8-46,52.8l30.6,35.3c0,0,62.3-62.2,59.1-85.6C243,292.8,212.6,211,212.6,211
		h-35.1C177.5,211.1,204.3,300.2,202.2,310.6z"/>
	<path class="st9" d="M202.2,310.6c-2.1,10.6-46,52.8-46,52.8l30.6,35.3c0,0,62.3-62.2,59.1-85.6C243,292.8,212.6,211,212.6,211
		h-35.1C177.5,211.1,204.3,300.2,202.2,310.6z"/>
	<path class="st1" d="M190.3,390.4c-4.1-5.1-2.8-3.7-6.9-8.7c-2-2.5-15.3-18.6-17.6-20.5c-0.1,0-0.1,0-0.1,0.1
		c1.5,2.6,15.1,18.5,17.1,20.9c4.2,4.9,3.1,3.5,7.3,8.4C190.2,390.6,190.3,390.5,190.3,390.4z"/>
	<path class="st1" d="M206.6,305.5c-0.5-2.6-1.1-5.3-1.6-7.9c-1.1-5.4-2.3-10.7-3.6-16.1c-2.5-10.6-5.3-21.1-8.2-31.6
		c-3-10.5-6.2-21-9.8-31.3c-0.4-1.3-0.9-2.5-1.4-3.8c0-0.1-0.2-0.1-0.2,0.1c3.2,10.3,6.4,20.6,9.4,31s5.7,20.7,8.2,31.2
		c1.3,5.2,2.5,10.5,3.7,15.8c0.6,2.6,1.1,5.2,1.7,7.8c0.7,2.6,1.2,5.3,1.5,8c0.1,2.6-0.6,5.1-2.1,7.2c-1.3,2.1-2.9,4.2-4.4,6.2
		c-3,4.1-31.6,35.9-32.5,36.8c-0.1,0.1,0,0.2,0.1,0.1c3.8-3.5,28.1-29.7,31.2-33.8c1.5-2,3-4,4.5-6.1c1.5-1.9,2.6-3.9,3.5-6.1
		C207.1,310.5,207.2,307.9,206.6,305.5z"/>
	<path class="st1" d="M206.5,211.1l-6.4,83.7c-6.1-28.6-22.7-83.7-22.7-83.7L206.5,211.1L206.5,211.1z"/>
	<path class="st19" d="M194.4,383.4l7.6,36.9c0.1,7.4,0.3,14,0.8,17.3l0,0c0,0.8,0.2,1.6,0.6,2.3l0,0c2.2,1.5,61.7,2.4,63.7,1.7
		s0.4-6.6-1.9-8.5s-24.9-12.4-24.9-12.4l-8-36.9L194.4,383.4z"/>
	<path class="st1" d="M267.1,441.7c-2.1,0.7-61.5-0.2-63.7-1.7l0,0c-0.4-0.7-0.6-1.5-0.6-2.3l0,0c-0.3-2.7-0.6-7.4-0.7-12.9
		c15.1,2.9,53,10,55,7c0.8-1.1-3-3.8-6.4-6c6.3,3,13.3,6.5,14.5,7.5C267.5,435.1,269.2,441.1,267.1,441.7z"/>
	<path class="st9" d="M212.2,211.1c-1.4,5.8-2.4,11.6-3,17.5c-0.7,7.4-1.6,13.9-2.6,14.7s-6.7,4.5-8.5,5.6c0,0,17.3,52.4,21.8,69.9
		c6.5,25.3,22,101.4,22,101.4h-41.3c0,0-12.6-72.4-18-96.5c-4.7-20.7-22.7-82.8-22.7-82.8c-3.9-9.7-3.3-20.6,1.5-29.8
		C161.2,211.1,212.2,211.1,212.2,211.1z"/>
	<path class="st1" d="M240.3,412.2c-6.5,0-4.6-0.1-11.1-0.1c-3.2,0-24.1,0.2-27,0.7c-0.1,0-0.1,0.1,0,0.1c3,0.4,23.8-0.1,27-0.1
		c6.5-0.2,4.6-0.2,11.1-0.4C240.3,412.4,240.3,412.3,240.3,412.2L240.3,412.2z"/>
	<path class="st1" d="M209.5,241.2c-4,2.2-7.8,4.8-11.4,7.6c-0.1,0-0.1,0.1,0,0.2c0,0.1,0.1,0.1,0.2,0l0,0c3.9-2.4,7.8-4.8,11.5-7.4
		c0.1-0.1,0.2-0.3,0.1-0.4S209.6,241.1,209.5,241.2L209.5,241.2z"/>
	<path class="st1" d="M206.3,212.7c0-0.1-0.3-0.1-0.3,0c0.7,4.6,1.2,9.3,1.4,13.9c0.1,2.2,0.3,14.2-3.6,13.9
		c-0.6-0.1-1.1-0.6-1.3-1.5c-0.2-1.2-0.2-2.5-0.1-3.7c0-2.5,0-5.1-0.2-7.6c-0.3-4.7-1.1-9.4-2.3-13.9c0-0.1-0.1-0.1-0.1-0.1
		c-0.1,0-0.1,0.1-0.1,0.1c1.1,6.4,1.7,12.9,1.9,19.4c0,3.1-0.8,8,2.5,8s4.2-8.1,4.3-10.3C208.5,224.8,207.8,218.7,206.3,212.7z"/>
	<path class="st1" d="M204.1,240.9c-0.2,0.8-0.4,1.7-0.4,2.6c-0.1,0.7-0.1,1.4,0,2.1c0,0.1,0.2,0.1,0.3,0c0.3-0.7,0.5-1.4,0.6-2.1
		c0.2-0.8,0.3-1.6,0.5-2.4c0-0.2-0.1-0.5-0.3-0.5S204.1,240.6,204.1,240.9L204.1,240.9z"/>
	<path class="st1" d="M195.6,389.4c-0.1-1-0.2-1.9-0.4-2.9c-0.3-1.8-0.6-3.6-0.9-5.5c-0.6-3.7-1.2-7.3-1.9-11
		c-1.3-7.3-2.8-14.6-4.4-21.8c-0.9-4.1-1.9-8.1-3-12.2c-0.1-0.3-0.5-0.1-0.4,0.1c0.7,3.7,1.3,7.4,2.1,11.1s1.5,7.3,2.2,11
		c1.4,7.3,2.8,14.5,4.2,21.8c0.4,2,0.8,4.1,1.2,6.2c0.2,1,0.4,2,0.6,3.1s0.5,2,0.7,3c0,0.1,0.2,0,0.1,0
		C195.8,391.4,195.8,390.4,195.6,389.4z"/>
	<path class="st1" d="M224.1,334.5c-1.4-6.9-3.2-13.6-5.1-20.4c-3.8-13.5-8.2-26.9-12.6-40.3c-1.3-3.9-2.5-7.7-3.8-11.5
		c-0.6-1.9-3.8-12.3-4.1-13.3l-0.1-0.1l-0.1,0.1c0.9,3.5,2.1,8.7,3.1,12.2s2.1,6.9,3.2,10.3c2.1,6.8,4.3,13.5,6.3,20.3
		c4.1,13.4,8.1,26.8,11.4,40.4c0.9,3.8,1.8,7.6,2.7,11.5s1.6,7.7,2.4,11.5c0,0.1,0.2,0.1,0.2,0C226.9,348.3,225.5,341.4,224.1,334.5
		z"/>
	<path class="st1" d="M198.4,370.4c-2.3-13.1-5-26.1-8-39s-6.4-25.9-10.1-38.7s-7.8-25.5-12.3-38.1c-2.2-5.9-4.1-12-5.6-18.1
		c-1.4-6.1-2.1-12.7-0.6-18.9c0.4-1.6,0.8-3.1,1.4-4.6c0-0.1-0.1-0.2-0.1-0.1c-5,11.6-1.8,24.2,2,35.6c2.1,6.2,4.3,12.5,6.3,18.7
		c2.1,6.4,4.1,12.9,6,19.4c3.8,12.9,7.4,25.8,10.5,38.8s6,26.1,8.5,39.3s4.6,26.5,6.7,39.8c0.3,1.7,0.5,3.5,0.7,5.2
		c0,0.1,0.2,0.1,0.1,0C202.4,396.5,200.7,383.4,198.4,370.4z"/>
	<path class="st19" d="M194.5,173.7c8.9,18.4,20.2,38.2,30.8,41.4c10.1,3,35-21.5,39.4-29.8c1.5-2.9-19.2-16.1-21.9-14
		c-5.2,3.9-14.8,16.1-16.4,15.8s-14.7-12.9-26.6-23.4C192.4,157.2,188.3,161,194.5,173.7z"/>
	<path class="st19" d="M255.7,191.7c0,0,9.4-2.8,15.4-4.9c3.4-1.2,9-3.7,11.1-5.7c3.1-3,14.2-17.5,10.8-20.3
		c-3.1-2.5-11.1,11.2-11.1,11.2s9.2-13.1,4.9-15.4s-11.3,14.3-11.3,14.3s9.2-13.7,4.4-15.4c-3.7-1.3-10.8,13.5-10.8,13.5
		s7.8-11.8,4.1-13.3c-4.1-1.6-11.5,11.6-11.5,11.6c-7.4-1.6-15.2,0.4-20.8,5.5C240,173.4,255.7,191.7,255.7,191.7z"/>
	<path class="st1" d="M279.4,176.1c7.5-9.1,8.5-15.9,8.4-15.7c-1.4,4.1-4.9,9.9-5.9,11.5S280.3,174.4,279.4,176.1
		C279.3,176.1,279.4,176.1,279.4,176.1z"/>
	<path class="st1" d="M273.1,173.2c3.2-3.6,5.8-7.6,7.6-12.1c0.1-0.2,0-0.2-0.1,0C279.4,163.1,274.4,171.1,273.1,173.2L273.1,173.2z
		"/>
	<path class="st1" d="M267.6,171c2.4-2.8,4.3-6,5.6-9.5c0.1-0.2-0.1-0.1-0.2,0c-1.8,3.2-3.2,5.7-5.5,9.4
		C267.5,171,267.5,171.1,267.6,171z"/>
	<path class="st2" d="M237.9,174.3l19.2,21.7c0,0-21.8,22.9-31.6,20.1s-27.6-30.1-33-47.2c-3.8-11.9,2.7-9.8,9.4-3.8
		s24.1,20.8,24.9,20.6S237.9,174.3,237.9,174.3z"/>
	<path class="st3" d="M192.6,168.9c5.4,17.1,23.2,44.5,33,47.2c4.3,1.2,11-2.6,17.1-7.2l0,0c-9.7-10.7-35.7-36.7-47.4-48.4
		C191.9,159.4,190.2,161.3,192.6,168.9z"/>
	<path class="st1" d="M250.6,199.3c-2.8-3-13.8-15.7-15.9-18.6c-0.1-0.2-0.1-0.4,0.1-0.2c5.6,5.9,11,12.2,15.9,18.7
		C250.8,199.3,250.7,199.4,250.6,199.3z"/>
	<path class="st6" d="M161.2,210.2l52.5,0.9l-4.1-15.7c2.8-4,3.7-9,2.4-13.7c-1.3-4.6-7.2-11.6-10.9-16c-8.9-10.7-16.7-5.9-19.1-3.1
		C172.5,173.1,161.2,210.2,161.2,210.2z"/>
	<path class="st2" d="M186,159.6c0,0,5.1,13.7,7.2,16.8s7.9,8.7,7.9,8.7s0.7-8.1,0-12.7s-4.6-11.2-4.6-11.2c1,0.5,2,1.3,2.8,2.2
		c4.4,4.5,12.2,13.4,13.3,19.5c0.9,4.3,0,8.7-2.4,12.3l5.9,18.9l-8.3,2.6l-4.1-4.8l-4.2,5.4l-42-5.9l7-13.2c0,0,10-26,13.9-31.6
		C183,160.1,186,159.6,186,159.6z"/>
	<path class="st1" d="M195.5,194.4c2.2-0.2,4.5-0.2,6.8-0.1c1.1,0.1,2.2,0.2,3.3,0.4c0.6,0.1,1.1,0.1,1.7,0.2c0.6,0.1,1.2,0.1,1.7,0
		c0.1,0,0.1,0.1,0,0.1c-0.5,0.1-1.1,0.2-1.6,0.3c-0.5,0-1.1,0-1.6,0c-1.1-0.1-2.3-0.2-3.4-0.3c-2.3-0.2-4.6-0.3-6.9-0.3
		C195.5,194.6,195.5,194.6,195.5,194.4C195.5,194.5,195.5,194.4,195.5,194.4z"/>
	<path class="st1" d="M190.4,197.4c1.8-0.5,3.6-0.9,5.4-1.3c0.9-0.1,1.8-0.2,2.8-0.3c0.4,0,0.9-0.1,1.3-0.1s1,0,1.5,0 M201.4,195.8
		c-0.5,0-0.9,0.2-1.4,0.2l-1.4,0.2c-0.9,0.1-1.8,0.3-2.8,0.4c-1.8,0.3-3.7,0.6-5.5,0.9c-0.1,0-0.1-0.1,0-0.2L201.4,195.8z"/>
	<path class="st19" d="M187.3,160.2c0.1,1,3.6,7.6,7.8,8.1c1.4,0.1,2.5-7.4,2.5-7.4l0.2-0.5l2.9-7.5l-8.3-7.3l-1.2-1
		c0,0-0.7,2.1-1.5,4.8l-0.1,0.4c-0.1,0.1-0.1,0.3-0.1,0.4c-0.1,0.4-0.2,0.8-0.4,1.2s-0.2,0.6-0.3,0.9l-0.3,1
		C188.1,155.5,187.6,157.8,187.3,160.2z"/>
	<path class="st1" d="M189.8,149.3c0.9,4.7,3.8,8.7,8,11l2.9-7.5l-8.3-7.3l-1.2-1C191.3,144.5,190.6,146.7,189.8,149.3z"/>
	<path class="st19" d="M213.7,139.9c2.6,13.9-5.4,17.1-8.4,17.6c-2.7,0.5-12.1,1.9-16.1-11.7s1.6-19.2,7.8-20.7
		S211.1,125.9,213.7,139.9z"/>
	<path class="st1" d="M211.4,139.1c-0.3,0-0.7,0-1-0.1c-0.4,0-0.7-0.1-1-0.3c-0.2-0.2-0.2-0.4-0.1-0.6c0.3-0.4,0.7-0.5,1.2-0.4
		c0.5,0,0.9,0.2,1.2,0.5c0.2,0.2,0.2,0.6,0,0.8C211.6,139,211.5,139.1,211.4,139.1z"/>
	<path class="st1" d="M201.9,139.8c0.3-0.1,0.6-0.2,0.9-0.3c0.3-0.1,0.7-0.2,0.9-0.5c0.1-0.2,0.1-0.5-0.1-0.6
		c-0.4-0.3-0.8-0.3-1.3-0.1c-0.4,0.1-0.8,0.4-1.1,0.8c-0.2,0.3-0.1,0.6,0.2,0.7C201.6,139.8,201.8,139.9,201.9,139.8z"/>
	<path class="st1" d="M204.3,142.3C204.3,142.3,204.2,142.3,204.3,142.3c0.1,1.1,0.1,2.2-0.7,2.6c0,0,0,0.1,0,0
		C204.6,144.7,204.6,143.2,204.3,142.3z"/>
	<path class="st1" d="M203.3,141.4c-1.6,0.1-1.2,3.2,0.2,3.1S204.6,141.3,203.3,141.4z"/>
	<path class="st1" d="M202.7,141.6c-0.2,0.2-0.5,0.5-0.8,0.6s-0.7-0.2-1-0.5l0,0c0,0.6,0.3,1.2,1,1.2s1-0.5,1-1.1
		C202.9,141.7,202.8,141.6,202.7,141.6z"/>
	<path class="st1" d="M209.6,141.3C209.6,141.3,209.7,141.3,209.6,141.3c0.1,1.1,0.4,2.1,1.3,2.4v0.1
		C209.8,143.7,209.5,142.2,209.6,141.3z"/>
	<path class="st1" d="M210.3,140.2c1.5-0.3,1.9,2.8,0.5,3.1S209.1,140.4,210.3,140.2z"/>
	<path class="st1" d="M211,140.3c0.3,0.1,0.6,0.4,0.8,0.4s0.6-0.4,0.7-0.7h0.1c0.1,0.6,0,1.2-0.6,1.4s-1-0.3-1.2-0.9
		C210.8,140.5,210.9,140.3,211,140.3z"/>
	<path class="st1" d="M205.1,150.4c0.2,0.2,0.5,0.5,0.8,0.5c0.4,0,0.7-0.1,1-0.3c0,0,0.1,0,0.1,0.1c-0.3,0.4-0.7,0.6-1.2,0.6
		c-0.4-0.1-0.7-0.4-0.8-0.8C205,150.4,205,150.4,205.1,150.4z"/>
	<path class="st1" d="M208.7,146.5c0,0,0.4,1.4,0.4,2.1c0,0.1-0.2,0.1-0.4,0.1l0,0c-1.2,0.3-2.4,0-3.3-0.9c0-0.1,0-0.1,0.1-0.1
		c0.9,0.5,2,0.7,3,0.5c0-0.2-0.7-2.4-0.6-2.4c0.5,0,1.1,0.1,1.6,0.2c-0.7-3-1.8-5.8-2.4-8.8c0-0.1,0.1-0.2,0.2-0.1
		c1.3,3,2.3,6.1,3,9.3C210.4,146.9,209,146.6,208.7,146.5z"/>
	<path class="st1" d="M208.6,148.5c-0.3,0.6-0.8,1.1-1.3,1.5c-0.3,0.2-0.6,0.3-1,0.2c-0.8-0.1-0.9-0.8-0.9-1.4c0-0.3,0.1-0.7,0.2-1
		C206.5,148.4,207.6,148.6,208.6,148.5z"/>
	<path class="st16" d="M207.3,150c-0.3,0.2-0.6,0.3-1,0.2c-0.8-0.1-0.9-0.8-0.9-1.4C206.2,148.8,207,149.2,207.3,150z"/>
	<path class="st1" d="M189.2,146.6c1.8-1,3-2.8,3.1-4.9c2.4-1.2,4.5-3,6-5.2c-0.1,0.3-0.7,2.4-1,3.5c9-2,11.5-9,11.5-9
		c1.8,1.5,3.2,3.4,4.1,5.6c0,0-0.1-5.5-3.1-9.1c-2-2.6-5.2-3.9-8.4-3.4c-4.6-0.9-9.3,0.7-12.3,4.3
		C183.6,134.9,189.2,146.6,189.2,146.6z"/>
	<path class="st1" d="M204.1,138.2c-1.4,0.8-3,1.5-4.6,1.9l0,0c2.5-0.8,4.8-2.3,6.5-4.2c0.7-0.9,1.3-1.8,1.8-2.8
		c0.6-1.1,0.9-2.3,1.1-3.5c0-0.1,0.1-0.1,0.1,0c0,1.2-0.2,2.4-0.6,3.6c-0.4,1.1-1.1,2.2-1.9,3.1C205.9,137,205.1,137.7,204.1,138.2"
		/>
	<path class="st19" d="M191.8,145.2c0,0-3.5-4.1-5.4-2.8s1.1,7.5,3.5,8.1c1.3,0.4,2.6-0.3,3-1.5v-0.1L191.8,145.2z"/>
	<path class="st1" d="M187.2,144.2c1.6,0.6,2.9,1.9,3.5,3.5c-0.4-0.6-1.2-0.7-1.8-0.3c-0.1,0-0.1,0.1-0.2,0.1c0,0,0,0.1,0.1,0.1
		c0.6-0.3,1.2-0.1,1.7,0.4c0.3,0.4,0.6,0.8,0.9,1.2c0.1,0.1,0.4,0,0.3-0.1l0,0C191.4,146.9,189.5,144.1,187.2,144.2L187.2,144.2z"/>
	<path class="st19" d="M178.8,165.7c-12,20.6-29.8,68-33.1,74.8c-2.2,4.6,21.8,16.7,22.9,13.4c1.3-4.3,18-59.4,19.1-84
		C188.1,158.4,182.6,159.1,178.8,165.7z"/>
	<path class="st19" d="M169.2,251.5c-0.6,4.2-3.4,12.6-5.5,13.8s-13.2,1-18.7,1s-6.7-1.5-6.6-3.5s11.8-2.3,11.8-2.3
		s-15.6,4.5-19.6,5.2s-13,3-14.3-0.2c-0.6-1.5,1.9-3,1.9-3s-3.8,1.1-4.4-0.8c-0.7-2.1,2.3-3.3,2.3-3.3s-2.4,0.5-2.4-1.3
		c-0.1-3.9,14.7-5.8,14.7-5.8s-11.4,5.5-11.7,2.3c-0.5-4.4,22.8-9.3,25.2-11.2c1.8-1.5,3.4-3.1,4.9-4.8L169.2,251.5z"/>
	<path class="st1" d="M138.5,263.9c-0.1-0.6,0.1-1.1,0.5-1.5s0.9-0.7,1.4-0.9c1-0.4,2.1-0.8,3.2-1c2.2-0.6,4.4-1,6.7-1.5
		c-2.3,0-4.6,0.2-6.9,0.8c-1.1,0.3-2.2,0.7-3.3,1.3c-0.5,0.3-1,0.7-1.4,1.2C138.4,262.7,138.3,263.3,138.5,263.9z"/>
	<path class="st1" d="M118.2,262.6c1.6-0.4,3.2-0.9,4.8-1.3s3.2-0.9,4.7-1.4l4.7-1.5c1.6-0.5,3.1-1,4.7-1.5
		c-1.6,0.2-3.3,0.5-4.9,0.9c-1.6,0.4-3.2,0.8-4.8,1.3s-3.1,1-4.7,1.6S119.7,261.9,118.2,262.6z"/>
	<path class="st1" d="M133.4,253.1c-1.5,0.1-3,0.3-4.5,0.6s-3,0.7-4.4,1.1c-1.5,0.4-2.9,1-4.3,1.6s-2.7,1.3-4,2.1
		c1.4-0.5,2.8-1,4.3-1.5s2.8-1,4.3-1.4s2.9-0.9,4.3-1.3C130.5,253.8,131.9,253.5,133.4,253.1z"/>
	<path class="st1" d="M131.1,249.3c-4.9,0.4-9.6,2-13.8,4.7c2.3-0.8,4.6-1.7,6.8-2.5S128.8,250.1,131.1,249.3z"/>
	<path class="st2" d="M144.3,239.4l26.4,12.9c0,0,15.3-59.3,17-78.5s-5.7-14.7-10.7-5.7C170,180.3,144.3,239.4,144.3,239.4z"/>
	<path class="st1" d="M170,245.6c-3.6-1.5-18.1-7.9-21.1-9.6c-0.2-0.1-0.2-0.3,0-0.2c7.2,2.8,14.2,6,21.1,9.6
		C170.2,245.5,170.1,245.6,170,245.6z"/>
	<path class="st1" d="M179.9,214.5c0.4-2.8,0.9-5.6,1.4-8.4s1.1-5.6,1.6-8.4s1.2-5.6,1.8-8.3l1-4.1c0.4-1.4,0.7-2.8,1.1-4.1
		c-0.2,1.4-0.4,2.8-0.6,4.2l-0.7,4.2c-0.5,2.8-1.1,5.6-1.6,8.4s-1.2,5.6-1.8,8.3S180.6,211.8,179.9,214.5z"/>
	<path class="st1" d="M185.3,188.4c0.2-0.7,0.5-1.4,0.9-2.1c0.3-0.7,0.8-1.3,1.2-1.9c-0.2,0.7-0.5,1.4-0.8,2.1
		C186.2,187.1,185.7,187.8,185.3,188.4z"/>
	<path class="st1" d="M185.7,159.9c-0.5,3.6-1.1,7.3-1.7,10.9l-0.2-0.3c2.1,0.6,4.3,1.2,6.4,1.8l0.4,0.1l-0.2,0.3
		c-0.6,1.4-1.3,2.8-1.9,4.2l-0.1-0.4c2.3,2,4.6,3.9,6.8,5.9s4.5,4,6.7,6c-2.4-1.9-4.7-3.7-7-5.6s-4.6-3.9-6.9-5.8l-0.2-0.1l0.1-0.2
		c0.6-1.4,1.3-2.8,1.9-4.2l0.2,0.4c-2.1-0.6-4.2-1.2-6.4-1.9l-0.2-0.1v-0.2C184.2,167.1,184.9,163.5,185.7,159.9z"/>
	<path class="st1" d="M197.6,162c1.2,1.2,2,2.1,3.2,3.4s2.3,2.5,3.4,3.8l0.2,0.3l-0.3,0.2l-2.2,1.4l0.1-0.5c0.9,0.9,1.8,1.8,2.7,2.8
		l0.1,0.1v0.2c-0.5,2.5-0.9,5-1.4,7.4s-1,4.9-1.5,7.4c0.3-2.5,0.7-5,1.1-7.5s0.8-5,1.2-7.5l0.1,0.3c-0.9-0.9-1.8-1.8-2.7-2.8
		l-0.3-0.3l0.3-0.2l2.2-1.3l-0.1,0.4c-1.1-1.3-2.2-2.6-3.3-3.9S198.6,163.4,197.6,162z"/>
	<path class="st1" d="M201.8,188.4c0.3,1.2,0.6,2.4,0.9,3.6s0.6,2.4,0.8,3.6l0,0l0,0c0.1,2.7,0.1,5.4,0.2,8.1s0,5.4,0,8.1
		c-0.2-2.7-0.3-5.4-0.4-8.1s-0.2-5.4-0.2-8.1l0,0c-0.2-1.2-0.5-2.4-0.7-3.6S202,189.6,201.8,188.4z"/>
	<path class="st1" d="M201.1,191.6c0,0.4-0.3,0.8-0.7,0.9c-0.2,0-0.5,0-0.7-0.2s-0.3-0.4-0.3-0.7s0.1-0.5,0.3-0.7s0.5-0.2,0.7-0.2
		C200.8,190.8,201.1,191.2,201.1,191.6z M201.1,191.6c0-0.2-0.1-0.4-0.2-0.5c-0.2-0.2-0.6-0.1-0.7,0.1c-0.1,0.1-0.1,0.2-0.1,0.3
		c0,0.2,0.1,0.5,0.4,0.5c0.2,0,0.3,0,0.5-0.1C201,192,201.1,191.8,201.1,191.6z"/>
	<path class="st1" d="M202.2,199.4c0,0.4-0.3,0.8-0.7,0.9c-0.2,0-0.5,0-0.7-0.2s-0.3-0.4-0.3-0.7s0.1-0.5,0.3-0.7s0.5-0.2,0.7-0.2
		C201.9,198.6,202.2,199,202.2,199.4z M202.2,199.4c0-0.2-0.1-0.4-0.2-0.5c-0.1-0.1-0.3-0.1-0.5-0.1c-0.2,0.1-0.4,0.3-0.4,0.5
		s0.1,0.5,0.4,0.5c0.2,0,0.3,0,0.5-0.1C202.1,199.8,202.2,199.6,202.2,199.4z"/>
	<path class="st1" d="M202.5,206.6c0,0.4-0.3,0.8-0.7,0.9c-0.5,0.1-0.9-0.2-1-0.7c-0.1-0.3,0.1-0.7,0.3-0.9s0.5-0.2,0.7-0.2
		C202.3,205.8,202.5,206.2,202.5,206.6z M202.5,206.6c0-0.2-0.1-0.4-0.2-0.5c-0.1-0.1-0.3-0.1-0.5-0.1c-0.2,0.1-0.4,0.3-0.4,0.5
		s0.1,0.5,0.4,0.5c0.2,0,0.3,0,0.5-0.1C202.5,207,202.5,206.8,202.5,206.6z"/>
</g>
<g id="freepik--Device--inject-59">
	<rect x="237.9" y="263.1" class="st13" width="54.2" height="2.4"/>
	<rect x="264.8" y="263.1" class="st0" width="27.3" height="2.4"/>
	<polygon class="st13" points="267.7,265.6 320.5,265.6 327.4,229.7 274.6,229.7 	"/>
	<path class="st14" d="M294.3,247.6c-0.2,1.6,1,3,2.5,3.2c0.1,0,0.3,0,0.4,0c1.8,0,3.3-1.4,3.5-3.2c0.2-1.6-1-3-2.6-3.2
		c-0.1,0-0.2,0-0.4,0C296,244.5,294.5,245.8,294.3,247.6z"/>
</g>
<g id="freepik--speech-bubbles--inject-59">
	<path class="st6" d="M364.7,214.4c0,18.4,14.9,33.4,33.3,33.4c7.2,0,14.2-2.3,19.9-6.6l16.4,4.2l-6.8-15.2
		c8.7-16.3,2.6-36.5-13.7-45.2s-36.5-2.6-45.2,13.7C366,203.5,364.7,208.9,364.7,214.4L364.7,214.4z"/>
	<path class="st1" d="M364.7,214.4c0,6.2,1.8,12.2,5,17.5c0.8,1.3,1.7,2.6,2.7,3.8s2.1,2.3,3.2,3.3c0.6,0.5,1.1,1.1,1.7,1.5l1.9,1.4
		c0.6,0.5,1.3,0.8,2,1.2l1,0.6c0.3,0.2,0.7,0.3,1,0.5l2.1,1l2.2,0.8c0.7,0.3,1.5,0.5,2.2,0.6c0.7,0.2,1.5,0.4,2.2,0.5
		c1.5,0.3,3,0.4,4.5,0.5s3.1,0.1,4.6-0.1c6.1-0.5,12-2.8,16.9-6.5l0.1-0.1h0.2l16.4,4.1l-0.5,0.6l-6.9-15.2l-0.1-0.2l0.1-0.2
		c4.8-8.9,5.2-19.6,1.1-28.9c-2-4.6-5.1-8.6-8.9-11.9c-3.8-3.3-8.3-5.6-13.2-6.9c-17.7-4.6-35.8,6.1-40.4,23.9
		C365,208.9,364.7,211.7,364.7,214.4L364.7,214.4z M364.7,214.4c0-10.3,4.7-20,12.8-26.4c8.1-6.4,18.7-8.8,28.8-6.3
		c5,1.2,9.6,3.5,13.5,6.8c8,6.7,12.5,16.7,12.1,27.1c-0.2,5.2-1.5,10.2-4,14.7V230l6.8,15.2l0.4,0.8l-0.9-0.2l-16.3-4.2l0.3-0.1
		c-5,3.7-11,5.9-17.2,6.4c-1.5,0.1-3.1,0.1-4.6,0s-3.1-0.3-4.6-0.6c-0.8-0.1-1.5-0.4-2.2-0.6c-0.8-0.2-1.5-0.4-2.2-0.7l-2.2-0.8
		l-2.1-1c-0.3-0.2-0.7-0.3-1-0.5l-1-0.6c-0.6-0.4-1.3-0.8-2-1.2l-1.8-1.4c-0.6-0.5-1.2-1-1.7-1.5c-1.1-1-2.2-2.2-3.2-3.3
		c-1-1.2-1.8-2.5-2.6-3.8C366.4,226.7,364.7,220.6,364.7,214.4z"/>
	<path class="st1" d="M402.6,199c0,3-2.4,5.4-5.4,5.4s-5.4-2.4-5.4-5.4s2.4-5.4,5.4-5.4C400.1,193.6,402.6,196,402.6,199L402.6,199z
		"/>
	<rect x="391.4" y="203.6" class="st1" width="11.5" height="1.7"/>
	<rect x="391.4" y="203.6" class="st3" width="11.5" height="1.7"/>
	<rect x="385.5" y="226.5" class="st1" width="23.3" height="1.7"/>
	<rect x="385.5" y="226.5" class="st3" width="23.3" height="1.7"/>
	<rect x="385.5" y="231.1" class="st1" width="23.3" height="1.7"/>
	<rect x="385.5" y="231.1" class="st3" width="23.3" height="1.7"/>
	<rect x="386.4" y="228.1" class="st1" width="21.6" height="3"/>
	<rect x="392.5" y="205.3" class="st1" width="9.4" height="1.7"/>
	<path class="st1" d="M406.7,226.5h-19.1c0,0,4.4-4.4,5.3-9.6c0.8-4.4,1.1-10,1.1-10h6.3c0,0,0.4,5.6,1.1,10
		C402.3,222.1,406.7,226.5,406.7,226.5z"/>
	<path class="st20" d="M171.8,100.2c0,10.7,8.6,19.3,19.3,19.3c4.1,0,8.2-1.3,11.5-3.8l9.5,2.4l-3.9-8.8c5-9.4,1.5-21.1-7.9-26.2
		s-21.1-1.5-26.2,7.9C172.6,93.9,171.8,97.1,171.8,100.2z"/>
	<path class="st1" d="M171.8,100.2c0,3.6,1,7.1,2.9,10.1c0.5,0.8,1,1.5,1.5,2.2c0.6,0.7,1.2,1.3,1.9,1.9c1.3,1.2,2.8,2.2,4.4,3
		c1.6,0.8,3.3,1.3,5,1.7c0.9,0.1,1.7,0.2,2.6,0.3c0.9,0.1,1.8,0.1,2.6,0c3.5-0.3,6.8-1.7,9.6-3.8l0.1-0.1h0.2l9.5,2.3l-0.5,0.6
		l-4-8.8l-0.1-0.2l0.1-0.2c1.3-2.5,2.1-5.3,2.3-8.2c0.1-2.9-0.4-5.7-1.6-8.3c-1.2-2.6-2.9-5-5.1-6.8c-2.2-1.9-4.8-3.3-7.6-4
		c-10.2-2.7-20.6,3.4-23.3,13.6C172.1,97,171.9,98.6,171.8,100.2L171.8,100.2z M171.8,100.2c0-5.9,2.7-11.6,7.4-15.2
		c8.5-6.7,20.8-5.3,27.5,3.2c4.8,6.1,5.6,14.5,1.9,21.4v-0.4l3.9,8.8l0.4,0.8l-0.9-0.2l-9.4-2.5l0.3-0.1c-2.9,2.1-6.4,3.4-10,3.7
		c-0.9,0.1-1.8,0.1-2.7,0c-0.9,0-1.8-0.2-2.7-0.3c-1.7-0.4-3.4-1-5-1.8s-3.1-1.9-4.4-3.1c-0.7-0.6-1.3-1.2-1.9-1.9
		c-0.6-0.7-1.1-1.4-1.5-2.2C172.9,107.4,171.9,103.9,171.8,100.2z"/>
	<path class="st1" d="M183.6,101.1c0,0.9-0.8,1.7-1.7,1.7s-1.7-0.8-1.7-1.7c0-0.9,0.8-1.7,1.7-1.7l0,0
		C182.9,99.4,183.6,100.1,183.6,101.1L183.6,101.1z"/>
	<path class="st1" d="M192.6,101.1c0,0.9-0.8,1.7-1.7,1.7s-1.7-0.8-1.7-1.7c0-0.9,0.8-1.7,1.7-1.7l0,0
		C191.8,99.4,192.6,100.1,192.6,101.1L192.6,101.1z"/>
	<path class="st1" d="M201.5,101.1c0,0.9-0.8,1.7-1.7,1.7s-1.7-0.8-1.7-1.7c0-0.9,0.8-1.7,1.7-1.7l0,0
		C200.7,99.4,201.5,100.1,201.5,101.1L201.5,101.1z"/>
	<path class="st11" d="M478.6,193.5c0,10.7-8.6,19.3-19.3,19.3c-4.1,0-8.2-1.3-11.5-3.8l-9.5,2.4l3.9-8.8c-5-9.4-1.5-21.1,7.9-26.2
		s21.1-1.5,26.2,7.9C477.8,187.2,478.6,190.4,478.6,193.5z"/>
	<path class="st1" d="M478.6,193.5c0,3.6-1,7.1-2.9,10.1c-0.9,1.5-2,2.9-3.4,4.1c-1.3,1.2-2.8,2.3-4.4,3.1s-3.3,1.4-5,1.8
		c-0.9,0.2-1.8,0.3-2.7,0.3c-0.9,0.1-1.8,0.1-2.7,0c-3.6-0.3-7.1-1.6-10-3.7l0.3,0.1l-9.4,2.5l-0.9,0.2l0.4-0.8l3.9-8.8v0.4
		c-5.1-9.5-1.6-21.4,7.9-26.5s21.4-1.6,26.5,7.9C477.8,187.1,478.6,190.3,478.6,193.5L478.6,193.5z M478.6,193.5
		c0-5.9-2.8-11.5-7.5-15.1c-2.3-1.8-5-3-7.9-3.6c-2.8-0.6-5.8-0.5-8.6,0.3c-2.8,0.7-5.4,2.1-7.6,4s-3.9,4.2-5.1,6.9
		c-1.1,2.6-1.7,5.5-1.6,8.3c0.1,2.9,0.9,5.7,2.2,8.2l0.1,0.2l-0.1,0.2l-4,8.8l-0.5-0.6l9.5-2.3l0.2-0.1l0.1,0.1
		c2.8,2.1,6.1,3.4,9.6,3.8c0.9,0.1,1.8,0.1,2.6,0c0.9,0,1.8-0.1,2.6-0.3c1.7-0.3,3.4-0.9,5-1.6c1.6-0.8,3.1-1.8,4.4-3
		c0.7-0.6,1.3-1.2,1.9-1.9s1.1-1.4,1.5-2.2C477.6,200.6,478.6,197.1,478.6,193.5z"/>
	<path class="st1" d="M466.8,194.4c0,0.9,0.8,1.7,1.7,1.7c0.9,0,1.7-0.8,1.7-1.7s-0.8-1.7-1.7-1.7S466.8,193.4,466.8,194.4
		L466.8,194.4z"/>
	<path class="st1" d="M457.9,194.4c0,0.9,0.8,1.7,1.7,1.7c0.9,0,1.7-0.8,1.7-1.7s-0.8-1.7-1.7-1.7l0,0
		C458.7,192.7,457.9,193.4,457.9,194.4z"/>
	<path class="st1" d="M449,194.4c0,0.9,0.8,1.7,1.7,1.7c0.9,0,1.7-0.8,1.7-1.7s-0.8-1.7-1.7-1.7l0,0
		C449.8,192.7,449,193.4,449,194.4z"/>
	<path class="st6" d="M493.6,108.6c0,18.4,14.9,33.4,33.4,33.4c7.2,0,14.2-2.3,19.9-6.6l16.4,4.2l-6.8-15.2
		c8.7-16.3,2.6-36.5-13.7-45.2s-36.5-2.6-45.2,13.7C494.9,97.7,493.6,103.1,493.6,108.6L493.6,108.6z"/>
	<path class="st1" d="M493.6,108.6c0,6.2,1.8,12.2,5,17.5c0.8,1.3,1.7,2.6,2.7,3.8s2.1,2.3,3.2,3.3c0.6,0.5,1.1,1,1.7,1.5l1.9,1.4
		c0.6,0.4,1.3,0.8,2,1.2l1,0.6c0.3,0.2,0.7,0.3,1,0.5l2.1,1l2.2,0.8c0.7,0.3,1.5,0.5,2.2,0.6c0.7,0.2,1.5,0.4,2.2,0.5
		c1.5,0.3,3,0.4,4.5,0.5s3.1,0.1,4.6-0.1c6.1-0.6,11.9-2.8,16.8-6.5l0.1-0.1h0.2l16.4,4.1l-0.5,0.6l-6.8-15.2l-0.1-0.2l0.1-0.2
		c4.8-8.9,5.2-19.6,1.1-28.9c-2-4.6-5.1-8.6-8.9-11.9c-3.8-3.3-8.4-5.6-13.2-6.8c-4.9-1.3-10-1.4-14.9-0.4
		C504.7,79.3,493.6,92.9,493.6,108.6L493.6,108.6z M493.6,108.6c0-10.3,4.7-20,12.8-26.4c8.1-6.4,18.7-8.7,28.8-6.3
		c5,1.2,9.6,3.5,13.5,6.8c8,6.7,12.5,16.7,12.1,27.1c-0.2,5.1-1.5,10.2-4,14.7v-0.4l6.8,15.2l0.4,0.8l-0.9-0.2l-16.3-4.3l0.3-0.1
		c-5,3.7-11,5.9-17.2,6.4c-1.5,0.1-3.1,0.1-4.6,0s-3.1-0.3-4.6-0.6c-0.8-0.1-1.5-0.4-2.2-0.5c-0.8-0.2-1.5-0.4-2.2-0.7l-2.2-0.8
		l-2.1-1c-0.3-0.2-0.7-0.3-1-0.5l-1-0.6c-0.6-0.4-1.3-0.8-2-1.2l-1.8-1.4c-0.6-0.5-1.2-1-1.7-1.5c-1.1-1-2.2-2.2-3.2-3.3
		c-1-1.2-1.8-2.5-2.6-3.8C495.2,120.9,493.6,114.8,493.6,108.6z"/>
	<path class="st7" d="M526,107.8c-5-2.3-7.2-8.2-4.9-13.3c2.3-5,8.2-7.2,13.3-4.9c5,2.3,7.2,8.2,4.9,13.3c-1.5,3.3-4.6,5.5-8.2,5.8
		C529.4,108.9,527.6,108.6,526,107.8z M536,86.1c-7-3.2-15.2-0.1-18.4,6.9c-2.8,6.2-0.8,13.5,4.9,17.3l-2,4.4l5.8,2.7l2.2-4.8
		c7.6,1,14.5-4.4,15.5-12C544.7,94.4,541.5,88.6,536,86.1z"/>
	<path class="st1" d="M526.3,117.6l-6.2-2.9l2-4.4c-6.4-4.5-8-13.3-3.5-19.7s13.3-8,19.7-3.5s8,13.3,3.5,19.7c-3,4.3-8.1,6.6-13.2,6
		L526.3,117.6z M520.7,114.5l5.3,2.5l2.2-4.7h0.2c7.5,1,14.3-4.2,15.3-11.7c0.8-6-2.4-11.7-7.9-14.2l0,0c-6.8-3.1-14.9-0.1-18.1,6.7
		c-2.8,6.1-0.7,13.2,4.8,17l0.2,0.1L520.7,114.5z M530.2,109c-1.5,0-2.9-0.3-4.3-0.9l0,0c-0.9-0.4-1.6-0.9-2.4-1.5
		c-4.3-3.7-4.9-10.1-1.2-14.5c1.1-1.3,2.6-2.4,4.2-3c2.5-1,5.4-0.9,7.8,0.3c5.2,2.4,7.4,8.4,5.1,13.6c-1.5,3.3-4.7,5.6-8.4,6
		C530.8,109,530.5,109,530.2,109L530.2,109z M526.2,107.6c4.9,2.3,10.7,0.1,13-4.8s0.1-10.7-4.8-13c-4.9-2.3-10.7-0.1-13,4.8
		c-1.8,4-0.8,8.7,2.6,11.5C524.6,106.7,525.3,107.2,526.2,107.6z"/>
	<polygon class="st1" points="527.3,117.8 520.9,131.7 512.7,128 519.2,114 520.4,114.6 526.2,117.3 	"/>
	<path class="st1" d="M521,132.1l-8.6-3.9l6.7-14.4l8.6,4L521,132.1z M513,127.9l7.7,3.5l6.3-13.5l-7.7-3.6L513,127.9z"/>
	<path class="st1" d="M524.2,96.6l-0.5-0.2c1.5-3.5,5.3-5.4,9-4.5l-0.1,0.5C529.2,91.5,525.6,93.3,524.2,96.6z"/>
	<path class="st6" d="M294.3,106c0,18.4-14.9,33.4-33.3,33.4c-7.2,0-14.2-2.3-19.9-6.6l-16.3,4.2l6.8-15.2
		c-8.7-16.3-2.6-36.5,13.7-45.2s36.5-2.6,45.2,13.7C292.9,95.1,294.3,100.5,294.3,106z"/>
	<path class="st1" d="M294.3,106c0,6.2-1.7,12.3-5,17.5c-0.8,1.3-1.7,2.6-2.6,3.8c-1,1.2-2.1,2.3-3.2,3.3c-0.6,0.5-1.1,1.1-1.7,1.5
		l-1.9,1.4c-0.6,0.5-1.3,0.8-1.9,1.2l-1,0.6c-0.3,0.2-0.7,0.3-1,0.5l-2.1,1l-2.2,0.8c-0.7,0.3-1.5,0.5-2.2,0.7
		c-0.8,0.2-1.5,0.4-2.2,0.6c-1.5,0.3-3.1,0.5-4.6,0.6s-3.1,0.1-4.6,0c-6.2-0.5-12.2-2.7-17.2-6.4l0.3,0.1l-16.3,4.2l-0.9,0.2
		l0.4-0.8l6.8-15.2v0.4c-2.5-4.5-3.8-9.6-4-14.7c-0.4-10.4,4.1-20.4,12.1-27.1c8-6.6,18.6-9.2,28.7-7c5,1.1,9.6,3.3,13.6,6.5
		C289.5,86,294.3,95.7,294.3,106z M294.3,106c0-18.3-14.8-33.1-33.1-33.2c-2.8,0-5.6,0.4-8.4,1.1c-4.9,1.2-9.4,3.6-13.2,6.8
		c-3.8,3.3-6.8,7.4-8.9,11.9c-4.1,9.3-3.7,19.9,1.1,28.8l0.1,0.2l-0.1,0.2l-6.9,15.2l-0.5-0.6l16.4-4.1h0.2l0.1,0.1
		c4.9,3.7,10.7,5.9,16.8,6.4c1.5,0.1,3,0.2,4.6,0.1c1.5-0.1,3-0.2,4.5-0.5c0.8-0.1,1.5-0.4,2.2-0.5c0.7-0.2,1.5-0.4,2.2-0.6l2.2-0.8
		l2.1-1c0.4-0.2,0.7-0.3,1-0.5l1-0.6c0.6-0.4,1.3-0.8,2-1.2l1.9-1.4c0.6-0.5,1.2-1,1.7-1.5c1.1-1,2.2-2.1,3.2-3.3s1.9-2.4,2.7-3.8
		C292.5,118.2,294.2,112.2,294.3,106z"/>
	<path class="st12" d="M253.2,88.2c0,0-2.5-4.8-6.3-2.3s-0.4,6.6-0.4,6.6L253.2,88.2z"/>
	<polygon class="st7" points="267.1,123.8 273.8,119.5 253.1,88 246.4,92.3 	"/>
	<polygon class="st1" points="246.6,93.7 254.4,88.8 253.6,87.5 245.7,92.5 	"/>
	<polygon class="st1" points="247.5,95.1 255.3,90.1 254.5,88.9 246.6,93.9 	"/>
	<path class="st14" d="M267,123.8l5.1,2.3l1.7,0.8V125v-5.5l-1.2-0.4c0,0-0.1,1.2-0.2,1.2l-1.2-0.3l-0.1,1.2l-1.2-0.4l-0.2,1.2
		l-1.2-0.4l-0.2,1.2l-1.2-0.4C267.2,122.6,267.1,123.8,267,123.8z"/>
	<polygon class="st9" points="272.1,126.1 273.8,126.8 273.8,125 	"/>
	<path class="st1" d="M267.6,120.7c-1.6-2.1-3.1-4.2-4.5-6.3s-2.9-4.3-4.4-6.4s-2.8-4.4-4.2-6.6s-2.7-4.4-4-6.7
		c1.6,2.1,3.1,4.2,4.5,6.3c1.4,2.1,2.9,4.3,4.3,6.4s2.8,4.3,4.2,6.6S266.4,118.4,267.6,120.7z"/>
	<path class="st1" d="M270.6,118.7c-1.6-2.1-3.1-4.2-4.5-6.3s-2.9-4.3-4.3-6.4s-2.8-4.3-4.2-6.6s-2.7-4.4-4-6.7
		c1.6,2.1,3.1,4.2,4.5,6.3s2.9,4.3,4.3,6.4s2.8,4.4,4.2,6.6S269.4,116.4,270.6,118.7z"/>
</g>
</svg>
