<?xml version="1.0" encoding="utf-8"?>
<!-- Generator: Adobe Illustrator 25.2.0, SVG Export Plug-In . SVG Version: 6.00 Build 0)  -->
<svg version="1.1"
	 id="svg532" inkscape:version="1.1 (c68e22c387, 2021-05-23)" sodipodi:docname="Startup life-amico.svg" xmlns:inkscape="http://www.inkscape.org/namespaces/inkscape" xmlns:sodipodi="http://sodipodi.sourceforge.net/DTD/sodipodi-0.dtd" xmlns:svg="http://www.w3.org/2000/svg"
	 xmlns="http://www.w3.org/2000/svg" xmlns:xlink="http://www.w3.org/1999/xlink" x="0px" y="0px" viewBox="0 0 500 500"
	 style="enable-background:new 0 0 500 500;" xml:space="preserve">
<style type="text/css">
	.st0{opacity:0.7;fill:#F0F0F0;enable-background:new    ;}
	.st1{fill:#E0E0E0;}
	.st2{fill:#37474F;}
	.st3{fill:#455A64;}
	.st4{fill:#263238;}
	.st5{fill:#FAFAFA;}
	.st6{fill:#EA4335;}
	.st7{opacity:0.9;fill:#FFFFFF;enable-background:new    ;}
	.st8{opacity:0.8;fill:#FFFFFF;enable-background:new    ;}
	.st9{opacity:0.3;fill:#FFFFFF;enable-background:new    ;}
	.st10{opacity:0.1;fill:#BA68C8;enable-background:new    ;}
	.st11{opacity:0.5;fill:#FFFFFF;enable-background:new    ;}
	.st12{opacity:0.7;fill:#FFFFFF;enable-background:new    ;}
	.st13{opacity:0.15;enable-background:new    ;}
	.st14{opacity:0.25;fill:#FFFFFF;enable-background:new    ;}
	.st15{opacity:0.2;fill:#BA68C8;enable-background:new    ;}
	.st16{opacity:0.6;fill:#FFFFFF;enable-background:new    ;}
	.st17{opacity:0.2;fill:#FFFFFF;enable-background:new    ;}
	.st18{opacity:0.15;fill:#BA68C8;enable-background:new    ;}
	.st19{fill:#FFFFFF;}
	.st20{opacity:0.85;fill:#FFFFFF;enable-background:new    ;}
	.st21{opacity:0.3;enable-background:new    ;}
	.st22{opacity:0.1;fill:#FFFFFF;enable-background:new    ;}
	.st23{opacity:0.35;fill:#FFFFFF;enable-background:new    ;}
	.st24{fill:#0F9D58;}
	.st25{opacity:0.2;enable-background:new    ;}
	.st26{fill:#FBBC04;}
	.st27{opacity:0.6;fill:#FBBC04;enable-background:new    ;}
	.st28{fill:#FFA8A7;}
	.st29{fill:#2A6CFF;}
	.st30{opacity:0.25;enable-background:new    ;}
	.st31{fill:#F28F8F;}
	.st32{fill:#4285F4;}
	.st33{opacity:0.1;enable-background:new    ;}
</style>
<sodipodi:namedview  bordercolor="#999999" borderopacity="1" id="namedview534" inkscape:current-layer="svg532" inkscape:cx="275.6467" inkscape:cy="217.4202" inkscape:object-paths="true" inkscape:pagecheckerboard="0" inkscape:pageopacity="0" inkscape:pageshadow="0" inkscape:snap-intersection-paths="true" inkscape:snap-smooth-nodes="true" inkscape:window-height="697" inkscape:window-maximized="1" inkscape:window-width="1366" inkscape:window-x="-8" inkscape:window-y="-8" inkscape:zoom="0.80719269" pagecolor="#ffffff" showgrid="false">
	</sodipodi:namedview>
<g id="freepik--Floor--inject-378">
	<g id="g3">
		<ellipse id="freepik--floor--inject-378" class="st0" cx="250" cy="344.1" rx="228.5" ry="132"/>
	</g>
</g>
<g id="freepik--Shadows--inject-378">
	<ellipse id="freepik--Shadow--inject-378" class="st1" cx="371.8" cy="393.1" rx="55.8" ry="32.2"/>
	<path id="freepik--shadow--inject-378" class="st1" d="M442.9,396.2l13.1-7.6c0.7-0.2,1-0.9,0.8-1.6c-0.1-0.4-0.4-0.7-0.8-0.8
		l-43.2-25c-1.3-0.7-2.9-0.7-4.2,0l-13.1,7.6c-0.7,0.2-1,1-0.8,1.6c0.1,0.4,0.4,0.7,0.8,0.8l43.2,25
		C440.1,396.8,441.6,396.8,442.9,396.2z"/>
	<path id="path8" class="st1" d="M154.3,411L35.9,342.6c-4.5-2.6-4.5-6.9,0-9.4l179.8-103.8c2.1-1.1,4.6-1.1,6.7,0L348,301.9
		c0.3,0.1,0.5,0.4,0.4,0.8c-0.1,0.2-0.2,0.3-0.4,0.4L161,411C158.9,412.1,156.4,412.1,154.3,411z"/>
</g>
<g id="freepik--Device--inject-378">
	<g id="freepik--Laptop--inject-378">
		<path id="path11" class="st2" d="M50.1,337.8c0.2,3.1,1.9,5.9,4.6,7.6l99.4,57.4c2.9,1.4,6.3,1.4,9.1,0l175-101
			c4.2-2.2,5.8-7.4,3.6-11.6c-0.8-1.5-2-2.8-3.6-3.6l-99.4-57.4c-2.9-1.5-6.3-1.5-9.1,0l-175,101C52.1,331.9,50.4,334.7,50.1,337.8z
			"/>
		<path id="path13" class="st3" d="M54.7,335.5l99.4,57.4c2.9,1.5,6.3,1.5,9.1,0l175-101c2.5-1.5,2.5-3.8,0-5.3l-99.4-57.4
			c-2.9-1.5-6.3-1.5-9.1,0l-175,101C52.2,331.7,52.2,334.1,54.7,335.5z"/>
		<path id="path15" class="st4" d="M158.6,394v9.9c-1.6,0-3.2-0.3-4.6-1.1l-99.4-57.4c-4.2-2.2-5.8-7.4-3.6-11.6
			c0.7-1.4,1.8-2.5,3.1-3.3c-2,1.5-1.9,3.6,0.5,5l99.4,57.4C155.5,393.7,157,394,158.6,394z"/>
		<path id="path17" class="st2" d="M45.9,330.4c-2.4-1.4-2.2-3.7-2.2-6.6V186.6c0.2-3.2,1.9-6.2,4.6-7.9l174.9-101
			c2.8-1.5,6-1.5,8.9-0.2c2.4,1.4,2.2,3.7,2.2,6.6v137.2c-0.2,3.2-1.9,6.2-4.6,7.9l-175,101C51.9,331.7,48.7,331.8,45.9,330.4z"/>
		<path id="path19" class="st3" d="M234.2,84.1c0-2.9-2-4.1-4.6-2.6l-175,101c-1.3,0.8-2.5,2-3.2,3.4l-6.5-3.8l0,0
			c0.8-1.4,1.9-2.6,3.2-3.4l174.9-101c2.8-1.5,6-1.5,8.8-0.2C234.3,78.9,234.2,81.2,234.2,84.1z"/>
		<path id="path21" class="st4" d="M54.2,330.5c-2.6,1.2-5.7,1.2-8.3-0.1c-2.4-1.4-2.2-3.7-2.2-6.6V186.6c0.1-1.6,0.5-3.1,1.4-4.5
			l6.5,3.8l0,0c-0.8,1.4-1.3,2.9-1.3,4.5v137.2C50.1,330.3,51.9,331.5,54.2,330.5z"/>
		<path id="path23" class="st5" d="M57.2,187.8l168.7-97.4c1.5-0.9,2.7-0.2,2.7,1.6v119.8c-0.1,1.9-1.1,3.7-2.7,4.7L57.2,313.9
			c-1.5,0.9-2.7,0.2-2.7-1.6V192.5C54.5,190.6,55.5,188.8,57.2,187.8z"/>
		<path id="path25" class="st4" d="M67.3,330.5l162.4-93.8c1.4-0.7,3.1-0.7,4.6,0l2.7,1.5c0.7,0.2,1.1,1,0.9,1.8
			c-0.1,0.4-0.5,0.7-0.9,0.9L74.6,334.6c-1.4,0.7-3.1,0.7-4.6,0l-2.7-1.5c-0.7-0.2-1.1-1-0.9-1.8C66.6,331,66.9,330.7,67.3,330.5z"
			/>
		<path id="path27" class="st4" d="M80.1,338.1l162.4-93.8c1.3-0.7,2.8-0.8,4.2-0.2l42.3,24.4c1,0.6,0.9,1.7-0.4,2.4l-162.2,93.6
			c-1.3,0.7-2.8,0.8-4.2,0.2l-42.4-24.3C78.6,339.9,78.8,338.8,80.1,338.1z"/>
		<path id="path29" class="st3" d="M220.8,283.7l5.1-2.9c0.2-0.1,0.2-0.3,0-0.4l-4.9-2.8c-0.2-0.1-0.5-0.1-0.7,0l-5.1,2.9
			c-0.2,0.1-0.2,0.3-0.1,0.4l4.9,2.8C220.2,283.9,220.5,283.9,220.8,283.7z M213.4,273.6l-5.1,2.9c-0.2,0.1-0.2,0.3,0,0.4l4.9,2.8
			c0.2,0.1,0.5,0.1,0.7,0l5.1-2.9c0.2-0.1,0.2-0.3,0.1-0.4l-4.9-2.8C213.9,273.4,213.6,273.4,213.4,273.6z M196.9,283l-8.6,5
			c-0.2,0.1-0.2,0.3,0,0.4l4.9,2.8c0.2,0.1,0.5,0.1,0.7,0l8.6-5c0.2-0.1,0.2-0.3,0-0.4l-4.9-2.9C197.4,282.9,197.2,282.9,196.9,283
			L196.9,283z M205.9,277.8l-5.1,2.9c-0.2,0.1-0.2,0.3-0.1,0.4l4.9,2.8c0.2,0.1,0.5,0.1,0.7,0l5.1-2.9c0.2-0.1,0.2-0.3,0.1-0.4
			l-4.9-2.8C206.4,277.7,206.2,277.7,205.9,277.8L205.9,277.8z M186,289.4l-5.1,2.9c-0.2,0.1-0.2,0.3,0,0.4l4.9,2.8
			c0.2,0.1,0.5,0.1,0.7,0l5.1-2.9c0.2-0.1,0.2-0.3,0-0.4l-4.9-2.8C186.5,289.3,186.2,289.3,186,289.4z M178.6,293.7l-5.1,2.9
			c-0.2,0.1-0.2,0.3,0,0.4l4.9,2.8c0.2,0.1,0.5,0.1,0.7,0l5.1-2.9c0.2-0.1,0.2-0.3,0.1-0.4l-4.9-2.8
			C179.1,293.5,178.8,293.5,178.6,293.7L178.6,293.7z M197.6,305.1l5.1-2.9c0.2-0.1,0.2-0.3,0-0.4l-4.9-2.8c-0.2-0.1-0.5-0.1-0.7,0
			l-5.1,2.9c-0.2,0.1-0.2,0.3,0,0.4l4.9,2.8C197.1,305.3,197.4,305.2,197.6,305.1L197.6,305.1z M190.2,309.4l5.1-2.9
			c0.2-0.1,0.2-0.3,0.1-0.4l-4.9-2.8c-0.2-0.1-0.5-0.1-0.7,0l-5.1,2.9c-0.2,0.1-0.2,0.3,0,0.4l4.9,2.8
			C189.7,309.5,190,309.5,190.2,309.4L190.2,309.4z M182.8,313.7l5.1-2.9c0.2-0.1,0.2-0.3,0-0.4l-4.9-2.8c-0.2-0.1-0.5-0.1-0.7,0
			l-5.1,2.9c-0.2,0.1-0.2,0.3,0,0.4l4.9,2.8C182.3,313.8,182.5,313.8,182.8,313.7L182.8,313.7z M175.3,318l5.1-2.9
			c0.2-0.1,0.2-0.3,0-0.4l-4.9-2.8c-0.2-0.1-0.5-0.1-0.7,0l-5.1,2.9c-0.2,0.1-0.2,0.3,0,0.4l4.9,2.8
			C174.8,318.1,175.1,318.1,175.3,318z M213.3,288l5.1-2.9c0.2-0.1,0.2-0.3,0-0.4l-4.9-2.8c-0.2-0.1-0.5-0.1-0.7,0l-5.1,2.9
			c-0.2,0.1-0.2,0.3,0,0.4l4.9,2.8C212.8,288.1,213.1,288.1,213.3,288L213.3,288z M205,300.8l11.3-6.5c0.2-0.1,0.2-0.3,0.1-0.4
			l-11.8-6.9c-0.2-0.1-0.5-0.1-0.7,0l-5.9,3.5c-0.2,0.1-0.2,0.3,0,0.4l6.2,3.6c0.2,0.1,0.2,0.3,0,0.4l-4.7,2.7
			c-0.2,0.1-0.2,0.3,0,0.4l4.9,2.8C204.6,300.9,204.8,300.9,205,300.8z M171.1,298l-5.1,2.9c-0.2,0.1-0.2,0.3,0,0.4l4.9,2.8
			c0.2,0.1,0.5,0.1,0.7,0l5.1-2.9c0.2-0.1,0.2-0.3,0.1-0.4l-4.9-2.8C171.6,297.8,171.3,297.9,171.1,298z M163.7,302.3l-5.1,2.9
			c-0.2,0.1-0.2,0.3,0,0.4l4.9,2.8c0.2,0.1,0.5,0.1,0.7,0l5.1-2.9c0.2-0.1,0.2-0.3,0-0.4l-4.9-2.8
			C164.2,302.2,163.9,302.1,163.7,302.3L163.7,302.3z M122.6,348.1c0.2,0.1,0.5,0.1,0.7,0l5.1-2.9c0.2-0.1,0.2-0.3,0-0.4l-4.9-2.8
			c-0.2-0.1-0.5-0.1-0.7,0l-5.1,2.9c-0.2,0.1-0.2,0.3,0,0.4L122.6,348.1z M104.2,336.6l-5.1,2.9c-0.2,0.1-0.2,0.3,0,0.4l4.9,2.8
			c0.2,0.1,0.5,0.1,0.7,0l5.1-2.9c0.2-0.1,0.2-0.3,0-0.4l-4.8-2.9C104.8,336.4,104.5,336.4,104.2,336.6L104.2,336.6z M113.7,345.2
			c0.2,0.1,0.5,0.1,0.7,0l5.1-2.9c0.2-0.1,0.2-0.3,0-0.4l-4.8-2.9c-0.2-0.1-0.5-0.1-0.7,0l-5.1,2.9c-0.2,0.1-0.2,0.3,0,0.4
			L113.7,345.2z M134.2,349.8l5.1-2.9c0.2-0.1,0.2-0.3,0-0.4l-4.9-2.8c-0.2-0.1-0.5-0.1-0.7,0l-5.1,2.9c-0.2,0.1-0.2,0.3,0,0.4
			l4.9,2.8C133.7,349.9,133.9,349.9,134.2,349.8L134.2,349.8z M126,354.1c0.2,0.1,0.5,0.1,0.7,0l5.1-2.9c0.2-0.1,0.2-0.3,0.1-0.4
			l-4.9-2.8c-0.2-0.1-0.5-0.1-0.7,0l-5.1,2.9c-0.2,0.1-0.2,0.3,0,0.4L126,354.1z M111.7,332.3l-5.1,2.9c-0.2,0.1-0.2,0.3,0,0.4
			l4.9,2.8c0.2,0.1,0.5,0.1,0.7,0l5.1-2.9c0.2-0.1,0.2-0.3,0-0.4l-4.9-2.8C112.2,332.2,111.9,332.2,111.7,332.3L111.7,332.3z
			 M148.8,310.8l-5.1,2.9c-0.2,0.1-0.2,0.3-0.1,0.4l4.9,2.8c0.2,0.1,0.5,0.1,0.7,0l5.1-2.9c0.2-0.1,0.2-0.3,0-0.4l-4.9-2.8
			C149.3,310.7,149,310.7,148.8,310.8L148.8,310.8z M119.1,328l-5.1,2.9c-0.2,0.1-0.2,0.3,0,0.4l4.9,2.8c0.2,0.1,0.5,0.1,0.7,0
			l5.1-2.9c0.2-0.1,0.2-0.3,0-0.4l-4.9-2.8C119.6,327.9,119.3,327.9,119.1,328z M156.2,306.5l-5.1,2.9c-0.2,0.1-0.2,0.3,0,0.4
			l4.8,2.8c0.2,0.1,0.5,0.1,0.7,0l5.1-2.9c0.2-0.1,0.2-0.3,0.1-0.4l-4.9-2.8C156.8,306.4,156.5,306.4,156.2,306.5L156.2,306.5z
			 M141.4,315.1l-5.1,2.9c-0.2,0.1-0.2,0.3-0.1,0.4l4.9,2.8c0.2,0.1,0.5,0.1,0.7,0l5.1-2.9c0.2-0.1,0.2-0.3,0-0.4l-4.9-2.8
			C141.9,315,141.6,315,141.4,315.1L141.4,315.1z M134,319.4l-5.1,2.9c-0.2,0.1-0.2,0.3,0,0.4l4.9,2.8c0.2,0.1,0.5,0.1,0.7,0
			l5.1-2.9c0.2-0.1,0.2-0.3,0-0.4l-4.9-2.8C134.5,319.3,134.2,319.3,134,319.4z M126.6,323.7l-5.1,2.9c-0.2,0.1-0.2,0.3,0,0.4
			l4.9,2.8c0.2,0.1,0.5,0.1,0.7,0l5.1-2.9c0.2-0.1,0.2-0.3,0-0.4l-4.9-2.8C127.1,323.6,126.8,323.6,126.6,323.7L126.6,323.7z
			 M160.5,326.6l5.1-2.9c0.2-0.1,0.2-0.3,0-0.4l-4.9-2.8c-0.2-0.1-0.5-0.1-0.7,0l-5.1,2.9c-0.2,0.1-0.2,0.3-0.1,0.4l4.9,2.8
			C160,326.7,160.2,326.7,160.5,326.6L160.5,326.6z M229.8,264.1l-5.1,2.9c-0.2,0.1-0.2,0.3,0,0.4l4.9,2.8c0.2,0.1,0.5,0.1,0.7,0
			l5.1-2.9c0.2-0.1,0.2-0.3,0-0.4l-4.9-2.8C230.3,264,230,264,229.8,264.1L229.8,264.1z M220.8,269.3l-5.1,2.9
			c-0.2,0.1-0.2,0.3,0,0.4l4.9,2.8c0.2,0.1,0.5,0.1,0.7,0l5.1-2.9c0.2-0.1,0.2-0.3,0-0.4l-4.9-2.8
			C221.3,269.1,221,269.1,220.8,269.3L220.8,269.3z M237.2,259.8l-5.1,2.9c-0.2,0.1-0.2,0.3,0,0.4l4.8,2.9c0.2,0.1,0.5,0.1,0.7,0
			l5.1-2.9c0.2-0.1,0.2-0.3,0-0.4l-4.8-2.9C237.7,259.6,237.5,259.6,237.2,259.8L237.2,259.8z M196.1,298l5.1-2.9
			c0.2-0.1,0.2-0.3,0.1-0.4l-4.9-2.8c-0.2-0.1-0.5-0.1-0.7,0l-5.1,2.9c-0.2,0.1-0.2,0.3-0.1,0.4l4.9,2.8
			C195.6,298.1,195.9,298.1,196.1,298z M245.4,255.5c-0.2-0.1-0.5-0.1-0.7,0l-5.1,2.9c-0.2,0.1-0.2,0.3-0.1,0.4l4.9,2.8
			c0.2,0.1,0.5,0.1,0.7,0l5.1-2.9c0.2-0.1,0.2-0.3,0-0.4L245.4,255.5z M167.9,322.3l5.1-2.9c0.2-0.1,0.2-0.3,0-0.4l-4.9-2.8
			c-0.2-0.1-0.5-0.1-0.7,0l-5.1,2.9c-0.2,0.1-0.2,0.3-0.1,0.4l4.9,2.8C167.4,322.4,167.7,322.4,167.9,322.3L167.9,322.3z M259,269.7
			l5.1-2.9c0.2-0.1,0.2-0.3,0-0.4l-4.9-2.8c-0.2-0.1-0.5-0.1-0.7,0l-5.1,2.9c-0.2,0.1-0.2,0.3,0,0.4l4.9,2.8
			C258.5,269.8,258.8,269.8,259,269.7z M244.6,270l5.1-2.9c0.2-0.1,0.2-0.3,0-0.4l-4.9-2.8c-0.2-0.1-0.5-0.1-0.7,0l-5.1,2.9
			c-0.2,0.1-0.2,0.3-0.1,0.4l4.9,2.9C244.1,270.1,244.4,270.1,244.6,270L244.6,270z M252.3,259.5c-0.2-0.1-0.5-0.1-0.7,0l-5.1,2.9
			c-0.2,0.1-0.2,0.3,0,0.4l4.9,2.8c0.2,0.1,0.5,0.1,0.7,0l5.1-2.9c0.2-0.1,0.2-0.3,0-0.4L252.3,259.5z M253.9,258.6l11.8,6.8
			c0.2,0.1,0.5,0.1,0.7,0l5.1-2.9c0.2-0.1,0.2-0.3,0-0.4l-11.8-6.8c-0.2-0.1-0.5-0.1-0.7,0l-5.1,2.9
			C253.7,258.3,253.7,258.5,253.9,258.6L253.9,258.6z M236.7,268.1l-5.1,2.9c-0.2,0.1-0.2,0.3,0,0.4l4.9,2.8c0.2,0.1,0.5,0.1,0.7,0
			l5.1-2.9c0.2-0.1,0.2-0.3,0-0.4l-4.9-2.8C237.2,268,237,268,236.7,268.1L236.7,268.1z M180.8,300.4l-5.1,2.9
			c-0.2,0.1-0.2,0.3-0.1,0.4l4.9,2.8c0.2,0.1,0.5,0.1,0.7,0l5.1-2.9c0.2-0.1,0.2-0.3,0-0.4l-4.9-2.8
			C181.3,300.3,181,300.3,180.8,300.4z M250.8,274c0.2,0.1,0.5,0.1,0.7,0l5.1-2.9c0.2-0.1,0.2-0.3,0-0.4l-4.9-2.8
			c-0.2-0.1-0.5-0.1-0.7,0l-5,2.9c-0.2,0.1-0.2,0.3,0,0.4L250.8,274z M188.2,296.1l-5,2.9c-0.2,0.1-0.2,0.3-0.1,0.4l4.9,2.8
			c0.2,0.1,0.5,0.1,0.7,0l5.1-2.9c0.2-0.1,0.2-0.3,0-0.4l-4.9-2.8C188.7,296,188.4,296,188.2,296.1L188.2,296.1z M130,343.8
			c0.2,0.1,0.5,0.1,0.7,0l5.1-2.9c0.2-0.1,0.2-0.3,0-0.4l-4.8-2.8c-0.2-0.1-0.5-0.1-0.7,0l-5.1,2.9c-0.2,0.1-0.2,0.3,0,0.4
			L130,343.8z M121.4,334.7l-5.1,2.9c-0.2,0.1-0.2,0.3,0,0.4l4.9,2.8c0.2,0.1,0.5,0.1,0.7,0l5.1-2.9c0.2-0.1,0.2-0.3,0-0.4l-4.9-2.8
			C121.9,334.6,121.6,334.6,121.4,334.7L121.4,334.7z M138.2,339.4l5.1-2.9c0.2-0.1,0.2-0.3,0-0.4l-4.9-2.8c-0.2-0.1-0.5-0.1-0.7,0
			l-5.1,2.9c-0.2,0.1-0.2,0.3,0,0.4l4.9,2.8C137.7,339.6,137.9,339.6,138.2,339.4L138.2,339.4z M145.6,335.1l5.1-2.9
			c0.2-0.1,0.2-0.3,0-0.4l-4.8-2.8c-0.2-0.1-0.5-0.1-0.7,0l-5.1,2.9c-0.2,0.1-0.2,0.3,0,0.4l4.9,2.8
			C145.1,335.3,145.4,335.3,145.6,335.1L145.6,335.1z M153,330.9l5.1-2.9c0.2-0.1,0.2-0.3,0-0.4l-4.9-2.8c-0.2-0.1-0.5-0.1-0.7,0
			l-5.1,2.9c-0.2,0.1-0.2,0.3-0.1,0.4l4.9,2.8C152.5,331,152.8,331,153,330.9L153,330.9z M128.8,330.4l-5.1,2.9
			c-0.2,0.1-0.2,0.3,0,0.4l4.9,2.8c0.2,0.1,0.5,0.1,0.7,0l5.1-2.9c0.2-0.1,0.2-0.3,0-0.4l-4.9-2.8
			C129.3,330.3,129,330.3,128.8,330.4L128.8,330.4z M136.2,326.1l-5.1,2.9c-0.2,0.1-0.2,0.3,0,0.4l4.9,2.8c0.2,0.1,0.5,0.1,0.7,0
			l5.1-2.9c0.2-0.1,0.2-0.3,0-0.4l-4.8-2.8C136.8,326,136.5,326,136.2,326.1L136.2,326.1z M165.9,309l-5.1,2.9
			c-0.2,0.1-0.2,0.3,0,0.4l4.9,2.8c0.2,0.1,0.5,0.1,0.7,0l5.1-2.9c0.2-0.1,0.2-0.3,0-0.4l-4.9-2.8
			C166.4,308.9,166.2,308.9,165.9,309z M158.5,313.3l-5.1,2.9c-0.2,0.1-0.2,0.3,0,0.4l4.9,2.8c0.2,0.1,0.5,0.1,0.7,0l5.1-2.9
			c0.2-0.1,0.2-0.3,0-0.4l-4.9-2.8C159,313.2,158.7,313.1,158.5,313.3L158.5,313.3z M173.4,304.7l-5.1,2.9c-0.2,0.1-0.2,0.3,0,0.4
			l4.9,2.8c0.2,0.1,0.5,0.1,0.7,0l5.1-2.9c0.2-0.1,0.2-0.3,0-0.4l-4.9-2.8C173.9,304.6,173.6,304.6,173.4,304.7L173.4,304.7z
			 M143.7,321.9l-5.1,2.9c-0.2,0.1-0.2,0.3,0,0.4l4.9,2.8c0.2,0.1,0.5,0.1,0.7,0l5.1-2.9c0.2-0.1,0.2-0.3,0-0.4l-4.9-2.8
			C144.2,321.7,143.9,321.7,143.7,321.9L143.7,321.9z M151.1,317.6l-5.1,2.9c-0.2,0.1-0.2,0.3,0,0.4l4.9,2.8c0.2,0.1,0.5,0.1,0.7,0
			l5.1-2.9c0.2-0.1,0.2-0.3,0-0.4l-4.9-2.8C151.6,317.4,151.3,317.4,151.1,317.6L151.1,317.6z M141.6,345.5l5.1-2.9
			c0.2-0.1,0.2-0.3,0-0.4l-4.9-2.8c-0.2-0.1-0.5-0.1-0.7,0l-5.1,2.9c-0.2,0.1-0.2,0.3,0,0.4l4.9,2.8
			C141.1,345.6,141.4,345.6,141.6,345.5L141.6,345.5z M102.4,343.7l-4.9-2.8c-0.2-0.1-0.5-0.1-0.7,0l-5.1,2.9
			c-0.2,0.1-0.2,0.3,0,0.4l4.8,2.8c0.2,0.1,0.5,0.1,0.7,0l5.1-2.9C102.6,343.9,102.6,343.8,102.4,343.7L102.4,343.7z M112.1,346.1
			l-4.9-2.8c-0.2-0.1-0.5-0.1-0.7,0l-7.8,4.5c-0.2,0.1-0.2,0.3,0,0.4l4.9,2.8c0.2,0.1,0.5,0.1,0.7,0l7.8-4.5
			C112.3,346.4,112.3,346.2,112.1,346.1L112.1,346.1z M95.1,338.1l-4.9-2.8c-0.2-0.1-0.5-0.1-0.7,0l-6.2,3.6
			c-0.2,0.1-0.2,0.3-0.1,0.4l4.9,2.8c0.2,0.1,0.5,0.1,0.7,0l6.2-3.6C95.3,338.4,95.3,338.2,95.1,338.1L95.1,338.1z M99.9,335.3
			c0.2,0.1,0.5,0.1,0.7,0l5.1-2.9c0.2-0.1,0.2-0.3,0-0.4l-4.8-2.9c-0.2-0.1-0.5-0.1-0.7,0l-5.1,2.9c-0.2,0.1-0.2,0.3,0,0.4
			L99.9,335.3z M121,349l-4.9-2.8c-0.2-0.1-0.5-0.1-0.7,0l-9.8,5.6c-0.2,0.1-0.2,0.3-0.1,0.4l4.9,2.8c0.2,0.1,0.5,0.1,0.7,0l9.8-5.6
			C121.2,349.2,121.2,349.1,121,349z M124.4,355l-4.9-2.8c-0.2-0.1-0.5-0.1-0.7,0l-6.2,3.6c-0.2,0.1-0.2,0.3,0,0.4l4.9,2.8
			c0.2,0.1,0.5,0.1,0.7,0l6.2-3.6C124.6,355.3,124.6,355.1,124.4,355z M155.2,303.4c0.2,0.1,0.5,0.1,0.7,0l5.1-2.9
			c0.2-0.1,0.2-0.3,0-0.4l-4.9-2.8c-0.2-0.1-0.5-0.1-0.7,0l-5.1,2.9c-0.2,0.1-0.2,0.3,0,0.4L155.2,303.4z M140.3,312
			c0.2,0.1,0.5,0.1,0.7,0l5.1-2.9c0.2-0.1,0.2-0.3,0-0.4l-4.9-2.8c-0.2-0.1-0.5-0.1-0.7,0l-5.1,2.9c-0.2,0.1-0.2,0.3,0,0.4
			L140.3,312z M107.3,331c0.2,0.1,0.5,0.1,0.7,0l5.1-2.9c0.2-0.1,0.2-0.3,0-0.4l-4.9-2.8c-0.2-0.1-0.5-0.1-0.7,0l-5.1,2.9
			c-0.2,0.1-0.2,0.3,0,0.4L107.3,331z M147.7,307.7c0.2,0.1,0.5,0.1,0.7,0l5.1-2.9c0.2-0.1,0.2-0.3,0-0.4l-4.9-2.8
			c-0.2-0.1-0.5-0.1-0.7,0l-5.1,2.9c-0.2,0.1-0.2,0.3,0,0.4L147.7,307.7z M132.9,316.3c0.2,0.1,0.5,0.1,0.7,0l5.1-2.9
			c0.2-0.1,0.2-0.3,0.1-0.4l-4.9-2.8c-0.2-0.1-0.5-0.1-0.7,0L128,313c-0.2,0.1-0.2,0.3,0,0.4L132.9,316.3z M128,355.3
			c-0.2-0.1-0.5-0.1-0.7,0l-7.8,4.5c-0.2,0.1-0.2,0.3,0,0.4l4.9,2.8c0.2,0.1,0.5,0.1,0.7,0l7.8-4.5c0.2-0.1,0.2-0.3,0-0.4L128,355.3
			z M122.2,322.4c0.2,0.1,0.5,0.1,0.7,0l5.1-2.9c0.2-0.1,0.2-0.3,0-0.4l-4.9-2.8c-0.2-0.1-0.5-0.1-0.7,0l-5.1,2.9
			c-0.2,0.1-0.2,0.3,0,0.4L122.2,322.4z M114.8,326.7c0.2,0.1,0.5,0.1,0.7,0l5.1-2.9c0.2-0.1,0.2-0.3,0-0.4l-4.9-2.8
			c-0.2-0.1-0.5-0.1-0.7,0l-5,3c-0.2,0.1-0.2,0.3,0,0.4L114.8,326.7z M265.7,275.8c-0.2-0.1-0.5-0.1-0.7,0l-12.5,7.2
			c-0.2,0.1-0.2,0.3,0,0.4l4.9,2.8c0.2,0.1,0.5,0.1,0.7,0l12.5-7.2c0.2-0.1,0.2-0.3,0-0.4L265.7,275.8z M249.3,285.3
			c-0.2-0.1-0.5-0.1-0.7,0l-5.1,2.9c-0.2,0.1-0.2,0.3-0.1,0.4l4.9,2.8c0.2,0.1,0.5,0.1,0.7,0l5.1-2.9c0.2-0.1,0.2-0.3,0-0.4
			L249.3,285.3z M149,341.2l5.1-2.9c0.2-0.1,0.2-0.3,0-0.4l-4.8-2.8c-0.2-0.1-0.5-0.1-0.7,0l-5.1,3c-0.2,0.1-0.2,0.3,0,0.4l4.9,2.8
			C148.5,341.3,148.8,341.3,149,341.2z M234.4,293.9c-0.2-0.1-0.5-0.1-0.7,0l-5.1,2.9c-0.2,0.1-0.2,0.3,0,0.4l4.9,2.8
			c0.2,0.1,0.5,0.1,0.7,0l5.1-2.9c0.2-0.1,0.2-0.3,0-0.4L234.4,293.9z M273.2,271.5c-0.2-0.1-0.5-0.1-0.7,0l-5.1,2.9
			c-0.2,0.1-0.2,0.3,0,0.4l4.9,2.8c0.2,0.1,0.5,0.1,0.7,0l5.1-2.9c0.2-0.1,0.2-0.3,0-0.4L273.2,271.5z M285.5,270l-11.8-6.8
			c-0.2-0.1-0.5-0.1-0.7,0l-5.1,2.9c-0.2,0.1-0.2,0.3,0,0.4l11.8,6.8c0.2,0.1,0.5,0.1,0.7,0l5.1-2.9
			C285.6,270.3,285.7,270.1,285.5,270z M206.7,309.9c-0.2-0.1-0.5-0.1-0.7,0l-6.3,3.6c-0.2,0.1-0.2,0.3,0,0.4l4.9,2.8
			c0.2,0.1,0.5,0.1,0.7,0l6.3-3.6c0.2-0.1,0.2-0.3,0-0.4L206.7,309.9z M225.5,299c-0.2-0.1-0.5-0.1-0.7,0l-7.8,4.5
			c-0.2,0.1-0.2,0.3,0,0.4l4.9,2.8c0.2,0.1,0.5,0.1,0.7,0l7.8-4.5c0.2-0.1,0.2-0.3,0.1-0.4L225.5,299z M189.5,319.8
			c-0.2-0.1-0.5-0.1-0.7,0L146.9,344c-0.2,0.1-0.2,0.3,0,0.4l4.9,2.8c0.2,0.1,0.5,0.1,0.7,0l41.8-24.2c0.2-0.1,0.2-0.3,0-0.4
			L189.5,319.8z M145.3,345.3c-0.2-0.1-0.5-0.1-0.7,0l-6.2,3.7c-0.2,0.1-0.2,0.3,0,0.4l4.9,2.8c0.2,0.1,0.5,0.1,0.7,0l6.3-3.6
			c0.2-0.1,0.2-0.3,0-0.4L145.3,345.3z M198.1,314.8c-0.2-0.1-0.5-0.1-0.7,0l-6.3,3.6c-0.2,0.1-0.2,0.3-0.1,0.4l4.9,2.8
			c0.2,0.1,0.5,0.1,0.7,0l6.2-3.6c0.2-0.1,0.2-0.3,0-0.4L198.1,314.8z M136.7,350.3c-0.2-0.1-0.5-0.1-0.7,0l-6.2,3.7
			c-0.2,0.1-0.2,0.3,0,0.4l4.9,2.8c0.2,0.1,0.5,0.1,0.7,0l6.3-3.6c0.2-0.1,0.2-0.3,0-0.4L136.7,350.3z M215.3,304.9
			c-0.2-0.1-0.5-0.1-0.7,0l-6.2,3.6c-0.2,0.1-0.2,0.3-0.1,0.4l4.9,2.8c0.2,0.1,0.5,0.1,0.7,0l6.3-3.6c0.2-0.1,0.2-0.3,0-0.4
			L215.3,304.9z M241.9,289.5c-0.2-0.1-0.5-0.1-0.7,0l-5.1,2.9c-0.2,0.1-0.2,0.3,0,0.4l4.9,2.8c0.2,0.1,0.5,0.1,0.7,0l5.1-2.9
			c0.2-0.1,0.2-0.3,0-0.4L241.9,289.5z M258.5,278l5.1-2.9c0.2-0.1,0.2-0.3,0-0.4l-4.9-2.8c-0.2-0.1-0.5-0.1-0.7,0l-5,2.9
			c-0.2,0.1-0.2,0.3,0,0.4l4.9,2.8C258.1,278.1,258.3,278.1,258.5,278z M228.2,279.5l5.1-2.9c0.2-0.1,0.2-0.3,0.1-0.4l-4.9-2.8
			c-0.2-0.1-0.5-0.1-0.7,0l-5.1,2.9c-0.2,0.1-0.2,0.3,0,0.4l4.9,2.8C227.7,279.6,228,279.5,228.2,279.5L228.2,279.5z M208.5,306.9
			l14.9-8.6c0.2-0.1,0.2-0.3,0-0.4l-4.9-2.8c-0.2-0.1-0.5-0.1-0.7,0l-14.9,8.6c-0.2,0.1-0.2,0.3,0,0.4l4.9,2.8
			C208,307,208.2,307,208.5,306.9L208.5,306.9z M250.4,282.3c0.2,0.1,0.5,0.1,0.7,0l5.1-2.9c0.2-0.1,0.2-0.3,0-0.4l-4.9-2.8
			c-0.2-0.1-0.5-0.1-0.7,0l-5.1,2.9c-0.2,0.1-0.2,0.3,0,0.4L250.4,282.3z M244.1,278.3l5.1-2.9c0.2-0.1,0.2-0.3,0-0.4l-4.9-2.8
			c-0.2-0.1-0.5-0.1-0.7,0l-5,2.9c-0.2,0.1-0.2,0.3,0,0.4l4.9,2.8C243.7,278.3,243.9,278.3,244.1,278.3L244.1,278.3z M201,311.2
			l5.1-2.9c0.2-0.1,0.2-0.3,0-0.4l-4.8-2.8c-0.2-0.1-0.5-0.1-0.7,0l-5.1,3c-0.2,0.1-0.2,0.3,0,0.4l4.9,2.8
			C200.6,311.3,200.8,311.3,201,311.2z M233.9,291.8c0.2,0.1,0.5,0.1,0.7,0l5.1-2.9c0.2-0.1,0.2-0.3,0-0.4l-4.9-2.8
			c-0.2-0.1-0.5-0.1-0.7,0l-5.1,2.9c-0.2,0.1-0.2,0.3-0.1,0.4L233.9,291.8z M163.8,332.6l5.1-2.9c0.2-0.1,0.2-0.3,0-0.4l-4.9-2.8
			c-0.2-0.1-0.5-0.1-0.7,0l-5.1,2.9c-0.2,0.1-0.2,0.3-0.1,0.4l4.9,2.8C163.3,332.8,163.6,332.8,163.8,332.6L163.8,332.6z
			 M171.3,328.3l5.1-2.9c0.2-0.1,0.2-0.3,0-0.4l-4.9-2.8c-0.2-0.1-0.5-0.1-0.7,0l-5.1,2.9c-0.2,0.1-0.2,0.3,0,0.4l4.9,2.8
			C170.8,328.4,171.1,328.4,171.3,328.3L171.3,328.3z M156.4,336.9l5.1-2.9c0.2-0.1,0.2-0.3,0-0.4l-4.9-2.8c-0.2-0.1-0.5-0.1-0.7,0
			l-5.1,2.9c-0.2,0.1-0.2,0.3,0,0.4l4.9,2.8C155.9,337,156.2,337,156.4,336.9L156.4,336.9z M186.1,319.7l5.1-2.9
			c0.2-0.1,0.2-0.3,0.1-0.4l-4.9-2.8c-0.2-0.1-0.5-0.1-0.7,0l-5.1,2.9c-0.2,0.1-0.2,0.3,0,0.4l4.9,2.8
			C185.7,319.9,185.9,319.9,186.1,319.7L186.1,319.7z M178.8,324l5.1-2.9c0.2-0.1,0.2-0.3,0-0.4l-4.8-2.8c-0.2-0.1-0.5-0.1-0.7,0
			l-5.1,2.9c-0.2,0.1-0.2,0.3-0.1,0.4l4.9,2.8C178.2,324.1,178.5,324.1,178.8,324z M193.6,315.4l5.1-2.9c0.2-0.1,0.2-0.3,0.1-0.4
			l-4.9-2.8c-0.2-0.1-0.5-0.1-0.7,0l-5.1,2.9c-0.2,0.1-0.2,0.3,0,0.4l4.9,2.8C193.1,315.5,193.4,315.5,193.6,315.4L193.6,315.4z
			 M234.2,255.7c0.2,0.1,0.5,0.1,0.7,0l5.1-2.9c0.2-0.1,0.2-0.3,0.1-0.4l-1.3-0.8c-0.2-0.1-0.5-0.1-0.7,0l-5.1,2.9
			c-0.2,0.1-0.2,0.3,0,0.4L234.2,255.7z M197.2,279.1c0.2,0.1,0.5,0.1,0.7,0l5.1-2.9c0.2-0.1,0.2-0.3,0-0.4l-4.8-2.8
			c-0.2-0.1-0.5-0.1-0.7,0l-5.1,2.9c-0.2,0.1-0.2,0.3,0,0.4L197.2,279.1z M212.1,270.5c0.2,0.1,0.5,0.1,0.7,0l5.1-2.9
			c0.2-0.1,0.2-0.3,0-0.4l-4.9-2.8c-0.2-0.1-0.5-0.1-0.7,0l-5.1,2.9c-0.2,0.1-0.2,0.3-0.1,0.4L212.1,270.5z M188.2,284.4
			c0.2,0.1,0.5,0.1,0.7,0l5.1-2.9c0.2-0.1,0.2-0.3,0.1-0.4l-4.9-2.8c-0.2-0.1-0.5-0.1-0.7,0l-5.1,2.9c-0.2,0.1-0.2,0.3,0,0.4
			L188.2,284.4z M204.7,274.8c0.2,0.1,0.5,0.1,0.7,0l5.1-2.9c0.2-0.1,0.2-0.3,0-0.4l-4.9-2.8c-0.2-0.1-0.5-0.1-0.7,0l-5.1,2.9
			c-0.2,0.1-0.2,0.3-0.1,0.4L204.7,274.8z M173.3,293c0.2,0.1,0.5,0.1,0.7,0l5.1-2.9c0.2-0.1,0.2-0.3,0-0.4l-4.9-2.8
			c-0.2-0.1-0.5-0.1-0.7,0l-5.1,2.9c-0.2,0.1-0.2,0.3,0,0.4L173.3,293z M180.7,288.7c0.2,0.1,0.5,0.1,0.7,0l5.1-2.9
			c0.2-0.1,0.2-0.3,0.1-0.4l-4.9-2.8c-0.2-0.1-0.5-0.1-0.7,0l-5.1,2.9c-0.2,0.1-0.2,0.3,0,0.4L180.7,288.7z M219.3,264.4
			c0.2,0.1,0.5,0.1,0.7,0l5.1-2.9c0.2-0.1,0.2-0.3,0-0.4l-1.3-0.7c-0.2-0.1-0.5-0.1-0.7,0l-5.1,2.9c-0.2,0.1-0.2,0.3-0.1,0.4
			L219.3,264.4z M241.6,251.5c0.2,0.1,0.5,0.1,0.7,0l5.1-2.9c0.2-0.1,0.2-0.3,0.1-0.4l-1.3-0.8c-0.2-0.1-0.5-0.1-0.7,0l-5.1,2.9
			c-0.2,0.1-0.2,0.3,0,0.4L241.6,251.5z M251.8,257.4c0.2,0.1,0.5,0.1,0.7,0l5.1-2.9c0.2-0.1,0.2-0.3,0-0.4l-4.9-2.8
			c-0.2-0.1-0.5-0.1-0.7,0l-5.1,2.9c-0.2,0.1-0.2,0.3-0.1,0.4L251.8,257.4z M266,273.7l5.1-2.9c0.2-0.1,0.2-0.3,0-0.4l-4.9-2.8
			c-0.2-0.1-0.5-0.1-0.7,0l-5.1,2.9c-0.2,0.1-0.2,0.3,0,0.4l4.9,2.8C265.5,273.8,265.8,273.8,266,273.7z M226.8,260.1
			c0.2,0.1,0.5,0.1,0.7,0l5.1-2.9c0.2-0.1,0.2-0.3,0-0.4l-1.3-0.7c-0.2-0.1-0.5-0.1-0.7,0l-5.1,2.9c-0.2,0.1-0.2,0.3,0,0.4
			L226.8,260.1z M165.9,297.3c0.2,0.1,0.5,0.1,0.7,0l5.1-2.9c0.2-0.1,0.2-0.3,0-0.4l-4.9-2.8c-0.2-0.1-0.5-0.1-0.7,0L161,294
			c-0.2,0.1-0.2,0.3,0,0.4L165.9,297.3z"/>
		<polygon id="polygon31" class="st2" points="187.9,335.6 188.9,336.2 216.6,352.2 265.8,323.7 266.9,323.2 238.1,306.6 		"/>
		<polygon id="polygon33" class="st4" points="188.9,336.2 216.6,352.2 265.8,323.7 238.1,307.8 		"/>
	</g>
</g>
<g id="freepik--Rocket--inject-378">
	<g id="freepik--rocket--inject-378">
		<ellipse id="ellipse51" class="st6" cx="187.9" cy="313.2" rx="41.9" ry="17.2"/>
		<ellipse id="ellipse53" class="st6" cx="187.9" cy="313.2" rx="41.9" ry="17.2"/>
		<ellipse id="ellipse55" class="st7" cx="191.3" cy="313.2" rx="45.3" ry="18.6"/>
		<path id="path57" class="st6" d="M145.2,304.3c0.2-10.3,8.8-18.4,19-18.2c9.9,0.2,17.9,8.2,18.2,18.2c0,0.2,0,0.3,0,0.5
			c0,0.2,0,0.3,0,0.5c-0.2,2.6-2,5.1-5.4,7.1c-7.3,4.2-19,4.2-26.3,0c-3.4-2-5.2-4.5-5.4-7.1c0-0.2,0-0.3,0-0.5
			C145.2,304.7,145.2,304.5,145.2,304.3z"/>
		<path id="path59" class="st8" d="M145.2,304.3c0.2-10.3,8.8-18.4,19-18.2c9.9,0.2,17.9,8.2,18.2,18.2c0,0.2,0,0.3,0,0.5
			c0,0.2,0,0.3,0,0.5c-0.2,2.6-2,5.1-5.4,7.1c-7.3,4.2-19,4.2-26.3,0c-3.4-2-5.2-4.5-5.4-7.1c0-0.2,0-0.3,0-0.5
			C145.2,304.7,145.2,304.5,145.2,304.3z"/>
		<path id="path61" class="st9" d="M155.8,288.1L155.8,288.1c9.2-4.5,20.3-0.6,24.8,8.6c1.2,2.4,1.8,5,1.9,7.6c0,0.2,0,0.3,0,0.5
			c0,0.2,0,0.3,0,0.5c-0.2,2.6-2,5.1-5.4,7.1c-2.9,1.6-6.1,2.6-9.3,2.9c4.8-0.8,8-6.2,6.5-12.2C172.4,296.3,165.4,286.3,155.8,288.1
			z"/>
		<path id="path63" class="st10" d="M145.2,305.4c0-0.2,0-0.3,0-0.5c0-0.2,0-0.3,0-0.5c0.1-5.2,2.4-10,6.3-13.4
			c-2,2.1-6.5,9.9-1.6,15.9c3.2,3.9,18.5,9.5,31,2.3c-1.1,1.4-2.5,2.5-4,3.4c-7.3,4.2-19,4.2-26.3,0
			C147.3,310.5,145.4,307.9,145.2,305.4z"/>
		<path id="path65" class="st11" d="M164,290.4c-0.8,1.9,0.8,4.4,3.6,5.7s5.8,0.7,6.6-1.2s-0.8-4.4-3.6-5.7S164.9,288.5,164,290.4z"
			/>
		<path id="path67" class="st11" d="M174.8,298.1c-0.3,1.3,0.6,2.6,1.9,2.9c1,0.2,1.9-0.2,2.5-1c0.3-1.3-0.6-2.6-1.9-2.9
			C176.3,297,175.4,297.3,174.8,298.1z"/>
		<path id="path69" class="st6" d="M223,304c-0.2-8.7-7.5-15.6-16.2-15.4c-8.4,0.2-15.2,7-15.4,15.4c0,0.1,0,0.3,0,0.4s0,0.3,0,0.4
			c0.2,2.2,1.7,4.3,4.6,6c6.2,3.6,16.2,3.6,22.4,0c2.9-1.7,4.4-3.8,4.6-6c0-0.1,0-0.3,0-0.4S223,304.2,223,304z"/>
		<path id="path71" class="st8" d="M223,304c-0.2-8.7-7.5-15.6-16.2-15.4c-8.4,0.2-15.2,7-15.4,15.4c0,0.1,0,0.3,0,0.4s0,0.3,0,0.4
			c0.2,2.2,1.7,4.3,4.6,6c6.2,3.6,16.2,3.6,22.4,0c2.9-1.7,4.4-3.8,4.6-6c0-0.1,0-0.3,0-0.4S223,304.2,223,304z"/>
		<path id="path73" class="st9" d="M214.1,290.2L214.1,290.2c-7.8-3.8-17.3-0.5-21.1,7.3c-1,2-1.5,4.2-1.6,6.5c0,0.1,0,0.3,0,0.4
			s0,0.3,0,0.4c0.2,2.2,1.7,4.3,4.6,6c2.5,1.4,5.2,2.2,8,2.5c-4.1-0.7-6.8-5.3-5.5-10.3C199.9,297.2,205.9,288.7,214.1,290.2z"/>
		<path id="path75" class="st10" d="M223,304.9c0-0.1,0-0.3,0-0.4s0-0.3,0-0.4c-0.1-4.4-2.1-8.5-5.4-11.4c1.7,1.8,5.5,8.4,1.4,13.5
			c-2.7,3.3-15.7,8.1-26.3,2c0.9,1.2,2.1,2.1,3.4,2.8c6.2,3.6,16.2,3.6,22.4,0C221.3,309.2,222.8,307.1,223,304.9z"/>
		<path id="path77" class="st11" d="M207,292.2c0.7,1.6-0.7,3.8-3,4.8s-4.9,0.6-5.6-1s0.6-3.8,3-4.8S206.3,290.6,207,292.2z"/>
		<path id="path79" class="st11" d="M197.9,298.8c0.7,0.9,0.5,2.2-0.5,2.9c-0.9,0.7-2.2,0.5-2.9-0.5c-0.7-0.9-0.5-2.2,0.5-2.9
			c0.1-0.1,0.2-0.2,0.4-0.2C196.3,297.6,197.4,297.9,197.9,298.8z"/>
		<path id="path81" class="st6" d="M238.4,305.9c0-5.8-4.7-10.4-10.4-10.4s-10.4,4.7-10.4,10.4c0,0.2,0,0.4,0,0.6
			c0.1,1.5,1.1,2.9,3.1,4c4.7,2.3,10.1,2.3,14.8,0c1.9-1.1,2.9-2.5,3-4C238.4,306.2,238.4,306,238.4,305.9L238.4,305.9z"/>
		<path id="path83" class="st7" d="M238.4,305.9c0-5.8-4.7-10.4-10.4-10.4s-10.4,4.7-10.4,10.4c0,0.2,0,0.4,0,0.6
			c0.1,1.5,1.1,2.9,3.1,4c4.7,2.3,10.1,2.3,14.8,0c1.9-1.1,2.9-2.5,3-4C238.4,306.2,238.4,306,238.4,305.9L238.4,305.9z"/>
		<path id="path85" class="st11" d="M232.5,296.7L232.5,296.7c-5.2-2.5-11.4-0.4-13.9,4.8c-0.7,1.3-1,2.8-1.1,4.3c0,0.2,0,0.4,0,0.6
			c0.1,1.5,1.1,2.9,3.1,4c1.6,0.9,3.4,1.4,5.2,1.6c-2.7-0.5-4.5-3.5-3.6-6.8C223.2,301.3,227.1,295.7,232.5,296.7z"/>
		<path id="path87" class="st10" d="M238.4,306.4c0-0.2,0-0.4,0-0.6c-0.1-2.9-1.4-5.6-3.5-7.5c1.1,1.2,3.7,5.6,0.9,8.9
			c-1.8,2.2-10.4,5.4-17.4,1.3c0.6,0.8,1.4,1.4,2.2,1.9c4.7,2.3,10.1,2.3,14.8,0C237.3,309.3,238.3,307.9,238.4,306.4z"/>
		<path id="path89" class="st11" d="M227.9,298c0.5,1.1-0.4,2.5-2,3.2s-3.2,0.4-3.7-0.7s0.4-2.5,2-3.2S227.4,297,227.9,298z"/>
		<path id="path91" class="st11" d="M221.8,302.4c0.2,0.6-0.1,1.3-0.8,1.5c-0.6,0.1-1.2-0.3-1.3-0.9c-0.1-0.6,0.3-1.2,0.9-1.3
			C221.1,301.6,221.6,301.9,221.8,302.4z"/>
		<path id="path93" class="st6" d="M260.7,310.4c-0.2-7.8-6.7-14-14.6-13.8c-7.5,0.2-13.6,6.3-13.8,13.8c0,0.1,0,0.3,0,0.4
			s0,0.3,0,0.4c0.2,2,1.6,3.9,4.2,5.4c5.5,3.2,14.5,3.2,20.1,0c2.6-1.5,4-3.4,4.1-5.4c0-0.1,0-0.3,0-0.4S260.7,310.5,260.7,310.4z"
			/>
		<path id="path95" class="st12" d="M260.7,310.4c-0.2-7.8-6.7-14-14.6-13.8c-7.5,0.2-13.6,6.3-13.8,13.8c0,0.1,0,0.3,0,0.4
			s0,0.3,0,0.4c0.2,2,1.6,3.9,4.2,5.4c5.5,3.2,14.5,3.2,20.1,0c2.6-1.5,4-3.4,4.1-5.4c0-0.1,0-0.3,0-0.4S260.7,310.5,260.7,310.4z"
			/>
		<path id="path97" class="st9" d="M252.6,298L252.6,298c-7.1-3.4-15.6-0.4-19,6.6c-0.9,1.8-1.3,3.8-1.4,5.8c0,0.1,0,0.3,0,0.4
			s0,0.3,0,0.4c0.2,2,1.6,3.9,4.2,5.4c2.2,1.2,4.6,2,7.1,2.2c-3.7-0.6-6.1-4.8-4.9-9.3C239.9,304.3,245.3,296.6,252.6,298z"/>
		<path id="path99" class="st10" d="M260.7,311.2c0-0.1,0-0.3,0-0.4s0-0.3,0-0.4c-0.1-3.9-1.9-7.7-4.8-10.2c1.5,1.6,5,7.6,1.2,12.1
			c-2.4,3-14.1,7.3-23.7,1.8c0.8,1,1.8,1.9,3,2.6c5.5,3.2,14.5,3.2,20.1,0C259.1,315.1,260.5,313.1,260.7,311.2z"/>
		<path id="path101" class="st11" d="M246.3,299.8c0.6,1.4-0.6,3.4-2.7,4.3s-4.4,0.5-5-0.9s0.6-3.4,2.7-4.3S245.7,298.3,246.3,299.8
			z"/>
		<path id="path103" class="st11" d="M238.1,305.7c0.6,0.8,0.4,2-0.4,2.6c-0.8,0.6-2,0.4-2.6-0.4c-0.6-0.8-0.4-2,0.4-2.6
			c0.1-0.1,0.2-0.1,0.3-0.2C236.6,304.6,237.6,304.9,238.1,305.7z"/>
		<path id="path105" class="st6" d="M204.9,279.6c0,5-2.2,9.7-6,12.9c-2.5,2.1-4,5.2-4,8.4v34.5c-0.1,1.2-0.9,2.3-2,2.9
			c-0.8,0.4-1.7,0.8-2.6,0.9c-1.6,0.3-3.2,0.3-4.8,0c-0.9-0.2-1.8-0.5-2.6-0.9c-1.1-0.5-1.9-1.6-2-2.9v-34.6c0-3.2-1.5-6.3-4-8.3
			c-3.8-3.2-6-8-6-13.1c0-9.4,7.7-17,17.1-16.9s17,7.7,16.9,17.1L204.9,279.6z"/>
		<path id="path107" class="st11" d="M204.9,279.6c0,5-2.2,9.7-6,12.9c-2.5,2.1-4,5.2-4,8.4v34.5c-0.1,1.2-0.9,2.3-2,2.9
			c-0.8,0.4-1.7,0.8-2.6,0.9c-1.6,0.3-3.2,0.3-4.8,0c-0.9-0.2-1.8-0.5-2.6-0.9c-1.1-0.5-1.9-1.6-2-2.9v-34.6c0-3.2-1.5-6.3-4-8.3
			c-3.8-3.2-6-8-6-13.1c0-9.4,7.7-17,17.1-16.9s17,7.7,16.9,17.1L204.9,279.6z"/>
		<path id="path109" class="st13" d="M204.9,279.6c0,5-2.2,9.7-6,12.9c-2.5,2.1-4,5.2-4,8.4v34.5c-0.1,1.2-0.9,2.3-2,2.9
			c-0.8,0.4-1.7,0.8-2.6,0.9c-1.6,0.3-3.2,0.3-4.8,0c-0.9-0.2-1.8-0.5-2.6-0.9c-1.1-0.5-1.9-1.6-2-2.9v-34.6c0-3.2-1.5-6.3-4-8.3
			c-3.8-3.2-6-8-6-13.1c0-9.4,7.7-17,17.1-16.9s17,7.7,16.9,17.1L204.9,279.6z"/>
		<path id="path111" class="st6" d="M197.4,279.6c0,3.1-1.5,5.9-4,7.7c-2,1.5-3.1,3.8-3.1,6.3v42.8c0,1.3-1,2.4-2.4,2.4h-0.1
			c-1.3,0-2.4-1.1-2.4-2.4v-43c0-2.4-1.1-4.7-3.1-6.2c-2.6-1.8-4.1-4.8-4-8c0.1-5.2,4.4-9.4,9.6-9.3S197.4,274.3,197.4,279.6
			L197.4,279.6L197.4,279.6z"/>
		<path id="path113" class="st14" d="M197.4,279.6c0,3.1-1.5,5.9-4,7.7c-2,1.5-3.1,3.8-3.1,6.3v42.8c0,1.3-1,2.4-2.4,2.4h-0.1
			c-1.3,0-2.4-1.1-2.4-2.4v-43c0-2.4-1.1-4.7-3.1-6.2c-2.6-1.8-4.1-4.8-4-8c0.1-5.2,4.4-9.4,9.6-9.3S197.4,274.3,197.4,279.6
			L197.4,279.6L197.4,279.6z"/>
		<circle id="circle115" class="st12" cx="196.5" cy="287.7" r="3.6"/>
		<circle id="circle117" class="st12" cx="195" cy="277" r="2.7"/>
		<path id="path119" class="st12" d="M187.1,272.7c0-0.7,0.6-1.3,1.3-1.3s1.3,0.6,1.3,1.3c0,0.7-0.6,1.3-1.3,1.3l0,0
			C187.7,274,187.1,273.5,187.1,272.7z"/>
		<path id="path121" class="st12" d="M176.4,274.3c0-2,1.7-3.6,3.7-3.6c2,0,3.6,1.7,3.6,3.7c0,2-1.7,3.6-3.7,3.6
			C178,278,176.4,276.4,176.4,274.3C176.4,274.3,176.4,274.3,176.4,274.3z"/>
		<path id="path123" class="st12" d="M175.8,280.9c-0.1,0.9,0.6,1.8,1.6,1.8c0.9,0.1,1.8-0.6,1.8-1.6c0-0.1,0-0.2,0-0.3
			c-0.1-0.9-0.9-1.6-1.8-1.6C176.5,279.4,175.8,280,175.8,280.9z"/>
		<path id="path125" class="st12" d="M176,287.4c0-1.8,1.5-3.3,3.3-3.3s3.3,1.5,3.3,3.3c0,1.8-1.5,3.3-3.3,3.3c0,0,0,0,0,0
			C177.5,290.7,176,289.2,176,287.4z"/>
		<path id="path127" class="st12" d="M183.3,292.2c0-1.3,1-2.3,2.3-2.3s2.3,1,2.3,2.3s-1,2.3-2.3,2.3l0,0
			C184.3,294.5,183.3,293.5,183.3,292.2z"/>
		<circle id="circle129" class="st12" cx="173.7" cy="277" r="1.2"/>
		<circle id="circle131" class="st12" cx="199.4" cy="272.2" r="1.5"/>
		<path id="path133" class="st12" d="M199.4,279.7c0-0.9,0.7-1.5,1.5-1.5c0.9,0,1.5,0.7,1.5,1.5c0,0.9-0.7,1.5-1.5,1.5
			S199.4,280.6,199.4,279.7L199.4,279.7z"/>
		<path id="path135" class="st12" d="M183.4,281c0-0.9,0.7-1.6,1.5-1.6c0.9,0,1.6,0.7,1.6,1.5c0,0.9-0.7,1.6-1.5,1.6c0,0,0,0,0,0
			C184.1,282.5,183.4,281.9,183.4,281L183.4,281z"/>
		<path id="path137" class="st6" d="M276.7,312.9c0-4.8-3.9-8.6-8.7-8.6c-4.8,0-8.6,3.9-8.6,8.6c0,0.1,0,0.2,0,0.2
			c0,0.1,0,0.2,0,0.2c0.2,1.4,1.2,2.7,2.5,3.3c3.8,1.9,8.4,1.9,12.2,0c1.3-0.6,2.3-1.8,2.5-3.3V312.9z"/>
		<path id="path139" class="st11" d="M276.7,312.9c0-4.8-3.9-8.6-8.7-8.6c-4.8,0-8.6,3.9-8.6,8.6c0,0.1,0,0.2,0,0.2
			c0,0.1,0,0.2,0,0.2c0.2,1.4,1.2,2.7,2.5,3.3c3.8,1.9,8.4,1.9,12.2,0c1.3-0.6,2.3-1.8,2.5-3.3V312.9z"/>
		<path id="path141" class="st11" d="M271.8,305.3L271.8,305.3c-4.3-2.1-9.5-0.3-11.5,4c-0.5,1.1-0.8,2.3-0.9,3.5c0,0.1,0,0.2,0,0.2
			c0,0.1,0,0.2,0,0.2c0.2,1.4,1.2,2.7,2.5,3.3c1.3,0.7,2.8,1.2,4.3,1.4c-2.2-0.4-3.7-2.9-3-5.7C264.1,309.1,267.3,304.5,271.8,305.3
			z"/>
		<path id="path143" class="st15" d="M276.7,313.3v-0.5c-0.1-2.4-1.1-4.7-2.9-6.2c0.9,1,3,4.6,0.8,7.4c-1.5,1.8-8.6,4.4-14.4,1.1
			c0.5,0.6,1.1,1.2,1.8,1.6c3.8,1.9,8.4,1.9,12.2,0C275.5,316,276.4,314.8,276.7,313.3z"/>
		<path id="path145" class="st11" d="M268,306.4c0.4,0.9-0.4,2.1-1.7,2.6s-2.7,0.3-3.1-0.6s0.4-2.1,1.7-2.6S267.6,305.5,268,306.4z"
			/>
		<path id="path147" class="st11" d="M263,310c0.4,0.5,0.2,1.2-0.3,1.6s-1.2,0.2-1.6-0.3c-0.4-0.5-0.2-1.2,0.3-1.6
			c0.1,0,0.1-0.1,0.2-0.1C262.1,309.3,262.7,309.5,263,310C263,310,263,310,263,310z"/>
		<path id="path149" class="st6" d="M263.7,320c0-6.6-5.3-11.9-11.9-11.9c-6.6,0-11.9,5.3-11.9,11.9c0,0.1,0,0.2,0,0.3s0,0.2,0,0.3
			c0.1,1.6,1.3,3.3,3.5,4.5c4.6,2.7,12.2,2.7,16.9,0c2.2-1.3,3.3-2.9,3.5-4.5c0-0.1,0-0.2,0-0.3S263.8,320.1,263.7,320z"/>
		<path id="path151" class="st16" d="M263.7,320c0-6.6-5.3-11.9-11.9-11.9c-6.6,0-11.9,5.3-11.9,11.9c0,0.1,0,0.2,0,0.3s0,0.2,0,0.3
			c0.1,1.6,1.3,3.3,3.5,4.5c4.6,2.7,12.2,2.7,16.9,0c2.2-1.3,3.3-2.9,3.5-4.5c0-0.1,0-0.2,0-0.3S263.8,320.1,263.7,320z"/>
		<path id="path153" class="st11" d="M257,309.6L257,309.6c-5.9-2.9-13-0.4-15.9,5.5c-0.7,1.5-1.1,3.2-1.2,4.9c0,0.1,0,0.2,0,0.3
			s0,0.2,0,0.3c0.1,1.6,1.3,3.3,3.5,4.5c1.9,1,3.9,1.6,6,1.9c-3.1-0.5-5.1-4-4.1-7.8C246.3,314.8,250.8,308.4,257,309.6z"/>
		<path id="path155" class="st10" d="M263.7,320.6c0-0.1,0-0.2,0-0.3s0-0.2,0-0.3c-0.1-3.3-1.6-6.4-4-8.6c1.3,1.3,4.2,6.3,1,10.2
			c-2.1,2.5-11.8,6.1-19.9,1.5c0.7,0.9,1.5,1.6,2.5,2.1c4.6,2.7,12.2,2.7,16.9,0C262.4,323.9,263.6,322.3,263.7,320.6z"/>
		<path id="path157" class="st9" d="M251.7,311.1c0.5,1.2-0.5,2.8-2.3,3.6s-3.7,0.5-4.2-0.8s0.5-2.8,2.3-3.6
			S251.2,309.9,251.7,311.1z"/>
		<path id="path159" class="st9" d="M244.8,316c0.2,0.9-0.4,1.7-1.2,1.8c-0.6,0.1-1.2-0.1-1.6-0.6c-0.2-0.9,0.4-1.7,1.2-1.8
			C243.8,315.3,244.4,315.5,244.8,316z"/>
		<path id="path161" class="st6" d="M242.6,325.8c-0.2-8.2-7-14.6-15.2-14.4c-7.9,0.2-14.2,6.5-14.4,14.4c0,0.1,0,0.3,0,0.4
			s0,0.3,0,0.4c0.2,2,1.6,4,4.3,5.6c5.8,3.3,15.1,3.3,20.9,0c2.7-1.6,4.1-3.6,4.3-5.6c0-0.1,0-0.3,0-0.4S242.6,325.9,242.6,325.8z"
			/>
		<path id="path163" class="st8" d="M242.6,325.8c-0.2-8.2-7-14.6-15.2-14.4c-7.9,0.2-14.2,6.5-14.4,14.4c0,0.1,0,0.3,0,0.4
			s0,0.3,0,0.4c0.2,2,1.6,4,4.3,5.6c5.8,3.3,15.1,3.3,20.9,0c2.7-1.6,4.1-3.6,4.3-5.6c0-0.1,0-0.3,0-0.4S242.6,325.9,242.6,325.8z"
			/>
		<path id="path165" class="st9" d="M234.2,312.9L234.2,312.9c-7.3-3.6-16.2-0.5-19.7,6.8c-0.9,1.9-1.4,4-1.5,6.1c0,0.1,0,0.3,0,0.4
			s0,0.3,0,0.4c0.2,2,1.6,4,4.3,5.6c2.3,1.3,4.8,2,7.4,2.3c-3.8-0.7-6.3-4.9-5.1-9.7C221,319.4,226.6,311.5,234.2,312.9z"/>
		<path id="path167" class="st10" d="M242.6,326.6c0-0.1,0-0.3,0-0.4s0-0.3,0-0.4c-0.1-4.1-1.9-8-5-10.7c1.6,1.6,5.2,7.9,1.3,12.6
			c-2.6,3.1-14.7,7.6-24.7,1.9c0.9,1.1,1.9,2,3.1,2.7c5.8,3.3,15.1,3.3,20.9,0C241,330.6,242.4,328.6,242.6,326.6z"/>
		<path id="path169" class="st9" d="M227.7,314.7c0.7,1.5-0.6,3.5-2.8,4.5s-4.6,0.5-5.2-1s0.6-3.5,2.8-4.5S227,313.2,227.7,314.7z"
			/>
		<path id="path171" class="st9" d="M219.1,320.9c0.3,0.9-0.2,1.9-1.1,2.2c-0.7,0.5-1.7,0.3-2.2-0.4c-0.5-0.7-0.3-1.7,0.4-2.2
			c0.2-0.1,0.4-0.2,0.6-0.3C217.6,319.7,218.6,320,219.1,320.9z"/>
		<path id="path173" class="st6" d="M284,314.9c0-2.9-2.3-5.2-5.2-5.2c-2.9,0-5.2,2.3-5.2,5.2v0.3c0.1,0.9,0.7,1.6,1.5,2
			c2.3,1.2,5.1,1.2,7.4,0c0.8-0.4,1.4-1.1,1.5-2V314.9z"/>
		<path id="path175" class="st17" d="M284,314.9c0-2.9-2.3-5.2-5.2-5.2c-2.9,0-5.2,2.3-5.2,5.2v0.3c0.1,0.9,0.7,1.6,1.5,2
			c2.3,1.2,5.1,1.2,7.4,0c0.8-0.4,1.4-1.1,1.5-2V314.9z"/>
		<path id="path177" class="st11" d="M281.1,310.3L281.1,310.3c-2.6-1.3-5.7-0.2-7,2.4c-0.3,0.7-0.5,1.4-0.5,2.1v0.3
			c0.1,0.9,0.7,1.6,1.5,2c0.8,0.4,1.7,0.7,2.6,0.8c-1.4-0.4-2.3-1.8-1.9-3.2c0-0.1,0-0.1,0.1-0.2
			C276.4,312.6,278.3,309.8,281.1,310.3z"/>
		<path id="path179" class="st3" d="M284,315.2v-0.3c0-1.5-0.7-2.8-1.8-3.8c0.6,0.6,1.8,2.8,0.5,4.5c-0.9,1.1-5.2,2.7-8.7,0.6
			c0.3,0.4,0.7,0.7,1.1,0.9c2.3,1.2,5.1,1.2,7.4,0C283.3,316.8,283.9,316,284,315.2z"/>
		<path id="path181" class="st9" d="M278.7,311c0.2,0.5-0.2,1.2-1,1.6s-1.6,0.2-1.9-0.3s0.2-1.2,1-1.6S278.5,310.4,278.7,311z"/>
		<path id="path183" class="st9" d="M275.7,313.1c0.1,0.3-0.1,0.7-0.4,0.8c-0.2,0.2-0.6,0.1-0.8-0.1c-0.2-0.2-0.1-0.6,0.1-0.8
			c0.1,0,0.1-0.1,0.2-0.1C275.2,312.8,275.5,312.9,275.7,313.1z"/>
		<path id="path185" class="st6" d="M104.6,308.4c0-4.8,3.9-8.6,8.7-8.6c4.8,0,8.6,3.9,8.6,8.6c0,0.1,0,0.2,0,0.2c0,0.1,0,0.2,0,0.2
			c-0.3,1.4-1.2,2.7-2.5,3.3c-3.8,1.9-8.4,1.9-12.2,0c-1.3-0.6-2.3-1.8-2.5-3.3c0-0.1,0-0.2,0-0.2
			C104.6,308.6,104.6,308.5,104.6,308.4z"/>
		<path id="path187" class="st11" d="M104.6,308.4c0-4.8,3.9-8.6,8.7-8.6c4.8,0,8.6,3.9,8.6,8.6c0,0.1,0,0.2,0,0.2
			c0,0.1,0,0.2,0,0.2c-0.3,1.4-1.2,2.7-2.5,3.3c-3.8,1.9-8.4,1.9-12.2,0c-1.3-0.6-2.3-1.8-2.5-3.3c0-0.1,0-0.2,0-0.2
			C104.6,308.6,104.6,308.5,104.6,308.4z"/>
		<path id="path189" class="st11" d="M109.5,300.9L109.5,300.9c1.2-0.6,2.5-0.9,3.8-0.9c4.7,0,8.5,3.7,8.7,8.4c0,0.1,0,0.2,0,0.2
			c0,0.1,0,0.2,0,0.2c-0.3,1.4-1.2,2.7-2.5,3.3c-1.3,0.7-2.8,1.2-4.3,1.4c2.2-0.4,3.7-2.9,3-5.7C117.3,304.7,114,300.1,109.5,300.9z
			"/>
		<path id="path191" class="st15" d="M104.6,308.9c0-0.1,0-0.2,0-0.2c0-0.1,0-0.2,0-0.2c0.1-2.4,1.1-4.7,2.9-6.2
			c-0.9,1-3,4.6-0.8,7.4c1.5,1.8,8.6,4.4,14.4,1.1c-0.5,0.6-1.1,1.2-1.8,1.6c-3.8,1.9-8.4,1.9-12.2,0
			C105.8,311.6,104.9,310.4,104.6,308.9z"/>
		<path id="path193" class="st9" d="M113.4,302c-0.4,0.9,0.4,2.1,1.7,2.6s2.7,0.3,3.1-0.6s-0.4-2.1-1.7-2.6S113.8,301.1,113.4,302z"
			/>
		<path id="path195" class="st9" d="M118.4,305.6c-0.4,0.5-0.2,1.2,0.3,1.6c0.5,0.4,1.2,0.2,1.6-0.3s0.2-1.2-0.3-1.6
			c-0.1,0-0.1-0.1-0.2-0.1C119.3,304.9,118.7,305.1,118.4,305.6C118.4,305.5,118.4,305.6,118.4,305.6z"/>
		<path id="path197" class="st6" d="M123.2,311.8c0-6.9,5.6-12.5,12.6-12.5s12.6,5.6,12.6,12.5c0,0.1,0,0.2,0,0.4s0,0.2,0,0.4
			c-0.1,1.7-1.4,3.4-3.7,4.8c-4.9,2.8-12.9,2.8-17.8,0c-2.3-1.3-3.5-3-3.7-4.8c0-0.1,0-0.2,0-0.4S123.2,311.9,123.2,311.8z"/>
		<path id="path199" class="st12" d="M123.2,311.8c0-6.9,5.6-12.5,12.6-12.5s12.6,5.6,12.6,12.5c0,0.1,0,0.2,0,0.4s0,0.2,0,0.4
			c-0.1,1.7-1.4,3.4-3.7,4.8c-4.9,2.8-12.9,2.8-17.8,0c-2.3-1.3-3.5-3-3.7-4.8c0-0.1,0-0.2,0-0.4S123.2,311.9,123.2,311.8z"/>
		<path id="path201" class="st9" d="M130.3,300.8L130.3,300.8c6.2-3,13.7-0.4,16.8,5.8c0.8,1.6,1.2,3.4,1.2,5.2c0,0.1,0,0.2,0,0.4
			s0,0.2,0,0.4c-0.1,1.7-1.4,3.4-3.7,4.8c-1.9,1.1-4.1,1.8-6.3,2c3.2-0.6,5.4-4.2,4.4-8.2C141.5,306.3,136.8,299.6,130.3,300.8z"/>
		<path id="path203" class="st10" d="M123.2,312.5c0-0.1,0-0.2,0-0.4s0-0.2,0-0.4c0.1-3.5,1.6-6.8,4.3-9.1
			c-1.4,1.4-4.4,6.7-1.1,10.7c2.2,2.6,12.5,6.4,20.9,1.6c-0.7,0.9-1.6,1.7-2.7,2.3c-4.9,2.8-12.9,2.8-17.8,0
			C124.5,315.9,123.3,314.2,123.2,312.5z"/>
		<path id="path205" class="st11" d="M135.9,302.4c-0.6,1.3,0.5,3,2.4,3.8s3.9,0.5,4.4-0.8s-0.5-3-2.4-3.8S136.4,301.1,135.9,302.4z
			"/>
		<path id="path207" class="st11" d="M143.1,307.6c-0.5,0.7-0.4,1.8,0.4,2.3c0.7,0.5,1.8,0.4,2.3-0.4s0.4-1.8-0.4-2.3
			c-0.1-0.1-0.2-0.1-0.3-0.2C144.4,306.6,143.5,306.9,143.1,307.6z"/>
		<path id="path209" class="st6" d="M112.1,319.1c0-6.6,5.3-11.9,11.9-11.9c6.6,0,11.9,5.3,11.9,11.9c0,0.1,0,0.2,0,0.3s0,0.2,0,0.3
			c-0.1,1.6-1.3,3.3-3.5,4.5c-4.7,2.7-12.2,2.7-16.9,0c-2.2-1.3-3.3-2.9-3.5-4.5c0-0.1,0-0.2,0-0.3S112.1,319.2,112.1,319.1z"/>
		<path id="path211" class="st16" d="M112.1,319.1c0-6.6,5.3-11.9,11.9-11.9c6.6,0,11.9,5.3,11.9,11.9c0,0.1,0,0.2,0,0.3
			s0,0.2,0,0.3c-0.1,1.6-1.3,3.3-3.5,4.5c-4.7,2.7-12.2,2.7-16.9,0c-2.2-1.3-3.3-2.9-3.5-4.5c0-0.1,0-0.2,0-0.3
			S112.1,319.2,112.1,319.1z"/>
		<path id="path213" class="st11" d="M118.9,308.7L118.9,308.7c5.9-2.9,13-0.4,15.9,5.5c0.8,1.5,1.2,3.2,1.2,4.9c0,0.1,0,0.2,0,0.3
			s0,0.2,0,0.3c-0.1,1.6-1.3,3.3-3.5,4.5c-1.9,1-3.9,1.6-6,1.9c3.1-0.5,5.1-4,4.1-7.8C129.5,314,125.1,307.6,118.9,308.7z"/>
		<path id="path215" class="st18" d="M112.1,319.8c0-0.1,0-0.2,0-0.3s0-0.2,0-0.3c0.1-3.3,1.5-6.4,4-8.6c-1.3,1.3-4.2,6.4-1,10.2
			c2.1,2.5,11.8,6.1,19.9,1.5c-0.7,0.9-1.5,1.6-2.5,2.1c-4.7,2.7-12.2,2.7-16.9,0C113.4,323,112.3,321.4,112.1,319.8z"/>
		<path id="path217" class="st9" d="M124.2,310.2c-0.5,1.2,0.5,2.8,2.3,3.6c1.8,0.8,3.7,0.4,4.2-0.8s-0.5-2.8-2.3-3.6
			S124.7,309,124.2,310.2z"/>
		<path id="path219" class="st9" d="M131.1,315.1c-0.2,0.8,0.4,1.7,1.2,1.9c0.6,0.1,1.2-0.1,1.6-0.6c0.2-0.8-0.4-1.7-1.2-1.9
			C132,314.4,131.4,314.6,131.1,315.1z"/>
		<path id="path221" class="st6" d="M137.4,324.3c0.3-8.2,7.2-14.5,15.3-14.2c7.7,0.3,14,6.5,14.2,14.2c0,0.1,0,0.3,0,0.4
			s0,0.3,0,0.4c-0.2,2-1.6,4.1-4.3,5.6c-5.8,3.3-15.1,3.3-20.9,0c-2.7-1.6-4.1-3.6-4.3-5.6c0-0.1,0-0.3,0-0.4
			S137.4,324.5,137.4,324.3z"/>
		<path id="path223" class="st8" d="M137.4,324.3c0.3-8.2,7.2-14.5,15.3-14.2c7.7,0.3,14,6.5,14.2,14.2c0,0.1,0,0.3,0,0.4
			s0,0.3,0,0.4c-0.2,2-1.6,4.1-4.3,5.6c-5.8,3.3-15.1,3.3-20.9,0c-2.7-1.6-4.1-3.6-4.3-5.6c0-0.1,0-0.3,0-0.4
			S137.4,324.5,137.4,324.3z"/>
		<path id="path225" class="st9" d="M145.8,311.4L145.8,311.4c7.3-3.6,16.2-0.5,19.7,6.8c0.9,1.9,1.4,4,1.5,6.1c0,0.1,0,0.3,0,0.4
			s0,0.3,0,0.4c-0.2,2-1.6,4.1-4.3,5.6c-2.3,1.3-4.8,2-7.4,2.3c3.8-0.7,6.3-5,5.1-9.7C159,318,153.4,310,145.8,311.4z"/>
		<path id="path227" class="st10" d="M137.4,325.2c0-0.1,0-0.3,0-0.4s0-0.3,0-0.4c0.1-4.1,1.9-8,5-10.7c-1.6,1.6-5.2,7.9-1.3,12.6
			c2.6,3.1,14.7,7.6,24.6,1.9c-0.9,1.1-1.9,2-3.1,2.7c-5.8,3.3-15.1,3.3-20.9,0C139,329.2,137.6,327.2,137.4,325.2z"/>
		<path id="path229" class="st9" d="M152.3,313.3c-0.7,1.5,0.6,3.5,2.8,4.5s4.6,0.6,5.2-1s-0.6-3.5-2.8-4.5S153,311.8,152.3,313.3z"
			/>
		<path id="path231" class="st9" d="M160.9,319.4c-0.6,0.9-0.4,2.1,0.5,2.7s2.1,0.4,2.7-0.5s0.4-2.1-0.5-2.7
			c-0.1-0.1-0.2-0.1-0.3-0.2C162.4,318.3,161.4,318.6,160.9,319.4z"/>
		<path id="path233" class="st6" d="M216.6,334.1c0-7.5-6-13.5-13.5-13.5s-13.5,6-13.5,13.5c0,0.1,0,0.2,0,0.4s0,0.2,0,0.4
			c0.1,1.9,1.5,3.7,3.9,5.1c5.3,3,13.8,3,19.1,0c2.5-1.4,3.8-3.3,3.9-5.1c0-0.1,0-0.2,0-0.4S216.6,334.2,216.6,334.1z"/>
		<path id="path235" class="st7" d="M216.6,334.1c0-7.5-6-13.5-13.5-13.5s-13.5,6-13.5,13.5c0,0.1,0,0.2,0,0.4s0,0.2,0,0.4
			c0.1,1.9,1.5,3.7,3.9,5.1c5.3,3,13.8,3,19.1,0c2.5-1.4,3.8-3.3,3.9-5.1c0-0.1,0-0.2,0-0.4S216.6,334.2,216.6,334.1z"/>
		<path id="path237" class="st11" d="M209,322.3L209,322.3c-6.7-3.2-14.8-0.4-18,6.3c-0.8,1.7-1.3,3.6-1.3,5.5c0,0.1,0,0.2,0,0.4
			s0,0.2,0,0.4c0.1,1.9,1.5,3.7,3.9,5.1c2.1,1.2,4.4,1.9,6.8,2.1c-3.5-0.6-5.8-4.5-4.7-8.8C196.9,328.3,202,321,209,322.3z"/>
		<path id="path239" class="st10" d="M216.6,334.9c0-0.1,0-0.2,0-0.4s0-0.2,0-0.4c-0.1-3.7-1.8-7.3-4.6-9.8
			c1.5,1.5,4.7,7.2,1.2,11.5c-2.3,2.9-13.4,6.9-22.5,1.7c0.8,1,1.8,1.8,2.9,2.4c5.3,3,13.8,3,19.1,0
			C215.2,338.6,216.5,336.8,216.6,334.9z"/>
		<path id="path241" class="st11" d="M203,324c0.6,1.4-0.6,3.2-2.6,4.1s-4.2,0.5-4.8-0.9s0.6-3.2,2.6-4.1S202.4,322.7,203,324z"/>
		<path id="path243" class="st11" d="M195.2,329.6c0.5,0.8,0.3,1.9-0.5,2.5c-0.8,0.5-1.9,0.3-2.5-0.5c-0.5-0.8-0.3-1.9,0.5-2.5
			c0.1-0.1,0.2-0.1,0.3-0.1C193.8,328.6,194.7,328.8,195.2,329.6C195.2,329.6,195.2,329.6,195.2,329.6z"/>
		<path id="path245" class="st6" d="M160.3,335.6c0.2-7.1,6.1-12.7,13.2-12.5c6.8,0.2,12.3,5.7,12.5,12.5c0,0.1,0,0.2,0,0.4
			s0,0.2,0,0.4c-0.1,1.8-1.4,3.5-3.8,4.9c-5,2.9-13.1,2.9-18.2,0c-2.4-1.4-3.6-3.1-3.8-4.9c0-0.1,0-0.2,0-0.4
			S160.3,335.7,160.3,335.6z"/>
		<path id="path247" class="st7" d="M160.3,335.6c0.2-7.1,6.1-12.7,13.2-12.5c6.8,0.2,12.3,5.7,12.5,12.5c0,0.1,0,0.2,0,0.4
			s0,0.2,0,0.4c-0.1,1.8-1.4,3.5-3.8,4.9c-5,2.9-13.1,2.9-18.2,0c-2.4-1.4-3.6-3.1-3.8-4.9c0-0.1,0-0.2,0-0.4
			S160.3,335.7,160.3,335.6z"/>
		<path id="path249" class="st11" d="M167.5,324.4L167.5,324.4c1.7-0.8,3.6-1.3,5.6-1.3c7,0,12.6,5.5,12.8,12.5c0,0.1,0,0.2,0,0.4
			s0,0.2,0,0.4c-0.1,1.8-1.4,3.5-3.8,4.9c-2,1.1-4.2,1.8-6.4,2c3.3-0.6,5.5-4.3,4.5-8.4C179,330,174.2,323.1,167.5,324.4z"/>
		<path id="path251" class="st10" d="M160.3,336.3c0-0.1,0-0.2,0-0.4s0-0.2,0-0.4c0.1-3.6,1.7-6.9,4.4-9.3c-1.4,1.4-4.5,6.8-1.1,11
			c2.2,2.7,12.8,6.6,21.4,1.6c-0.7,0.9-1.7,1.7-2.7,2.3c-5,2.9-13.1,2.9-18.2,0C161.7,339.8,160.4,338.1,160.3,336.3z"/>
		<path id="path253" class="st11" d="M173.2,326c-0.6,1.3,0.5,3.1,2.5,3.9s4,0.5,4.6-0.8s-0.5-3.1-2.5-3.9S173.8,324.7,173.2,326z"
			/>
		<path id="path255" class="st11" d="M180.7,331.3c-0.5,0.8-0.4,1.8,0.4,2.4s1.8,0.4,2.4-0.4c0.5-0.8,0.4-1.8-0.4-2.4
			c-0.1-0.1-0.2-0.1-0.3-0.2C182,330.4,181.1,330.6,180.7,331.3z"/>
		<path id="path257" class="st6" d="M193.6,340.1c0-2.9-2.3-5.2-5.2-5.2c-2.9,0-5.2,2.3-5.2,5.2v0.3c0.2,0.9,0.7,1.6,1.5,2
			c2.3,1.2,5.1,1.2,7.4,0c0.8-0.4,1.4-1.1,1.5-2L193.6,340.1L193.6,340.1z"/>
		<path id="path259" class="st7" d="M193.6,340.1c0-2.9-2.3-5.2-5.2-5.2c-2.9,0-5.2,2.3-5.2,5.2v0.3c0.2,0.9,0.7,1.6,1.5,2
			c2.3,1.2,5.1,1.2,7.4,0c0.8-0.4,1.4-1.1,1.5-2L193.6,340.1L193.6,340.1z"/>
		<path id="path261" class="st16" d="M190.6,335.5L190.6,335.5c-0.7-0.3-1.5-0.5-2.3-0.5c-2.8,0-5.1,2.3-5.2,5.1v0.3
			c0.2,0.9,0.7,1.6,1.5,2c0.8,0.4,1.7,0.7,2.6,0.8c-1.4-0.4-2.3-1.8-1.9-3.2c0-0.1,0-0.1,0.1-0.2C185.9,337.8,187.9,335,190.6,335.5
			z"/>
		<path id="path263" class="st10" d="M193.6,340.4v-0.3c0-1.5-0.7-2.8-1.8-3.8c0.6,0.6,1.8,2.8,0.5,4.5c-0.9,1.1-5.2,2.7-8.7,0.7
			c0.3,0.4,0.7,0.7,1.1,0.9c2.3,1.2,5.1,1.2,7.4,0C192.9,342,193.4,341.2,193.6,340.4z"/>
		<path id="path265" class="st11" d="M188.3,336.2c0.2,0.5-0.2,1.2-1,1.6s-1.6,0.2-1.9-0.3s0.2-1.2,1-1.6S188.1,335.6,188.3,336.2z"
			/>
		<path id="path267" class="st11" d="M185.3,338.3c0.1,0.3-0.1,0.7-0.4,0.8c-0.2,0.2-0.6,0.1-0.8-0.1c-0.2-0.2-0.1-0.6,0.1-0.8
			c0.1,0,0.1-0.1,0.2-0.1C184.7,337.9,185.1,338,185.3,338.3z"/>
		<path id="path269" class="st6" d="M97.3,310.5c0.1-2.9,2.6-5.1,5.5-5c2.7,0.1,4.9,2.3,5,5c0,0,0,0.1,0,0.1c0,0,0,0.1,0,0.1
			c-0.1,0.9-0.7,1.6-1.5,2c-2.3,1.2-5.1,1.2-7.4,0c-0.8-0.4-1.4-1.1-1.5-2V310.5z"/>
		<path id="path271" class="st17" d="M97.3,310.5c0.1-2.9,2.6-5.1,5.5-5c2.7,0.1,4.9,2.3,5,5c0,0,0,0.1,0,0.1c0,0,0,0.1,0,0.1
			c-0.1,0.9-0.7,1.6-1.5,2c-2.3,1.2-5.1,1.2-7.4,0c-0.8-0.4-1.4-1.1-1.5-2V310.5z"/>
		<path id="path273" class="st11" d="M100.3,305.9L100.3,305.9c2.6-1.3,5.7-0.2,7,2.4c0.3,0.7,0.5,1.4,0.5,2.1c0,0,0,0.1,0,0.1
			c0,0,0,0.1,0,0.1c-0.1,0.9-0.7,1.6-1.5,2c-0.8,0.4-1.7,0.7-2.6,0.8c1.4-0.4,2.3-1.8,1.9-3.2c0-0.1,0-0.1-0.1-0.2
			C104.9,308.2,103,305.4,100.3,305.9z"/>
		<path id="path275" class="st3" d="M97.3,310.8v-0.3c0-1.5,0.7-2.8,1.8-3.8c-0.6,0.6-1.8,2.8-0.5,4.5c0.9,1.1,5.2,2.7,8.7,0.6
			c-0.3,0.4-0.7,0.7-1.1,0.9c-2.3,1.2-5.1,1.2-7.4,0C98,312.4,97.4,311.6,97.3,310.8z"/>
		<path id="path277" class="st9" d="M102.6,306.6c-0.2,0.5,0.2,1.2,1,1.6s1.6,0.2,1.8-0.3s-0.2-1.2-1-1.6S102.8,306,102.6,306.6z"/>
		<path id="path279" class="st9" d="M105.6,308.7c-0.1,0.4,0.1,0.7,0.5,0.8c0.3,0.1,0.6,0,0.7-0.3c0.1-0.3-0.1-0.7-0.4-0.8
			C106.2,308.3,105.8,308.4,105.6,308.7z"/>
		<path id="path281" class="st6" d="M208.7,256.5h-9.1c-1.3,7.9,2.9,13.9,4.5,13.9S210,264.4,208.7,256.5z"/>
		<path id="path283" class="st12" d="M208.7,256.5h-9.1c-1.3,7.9,2.9,13.9,4.5,13.9S210,264.4,208.7,256.5z"/>
		<path id="path285" class="st19" d="M204.2,256.5h1.6c0.7,1.3,1,2.7,0.8,4.2c-0.2,2.1-1.5,4.9-2.4,4.9s-2.2-2.8-2.4-4.9
			c-0.2-1.5,0.1-2.9,0.9-4.2H204.2"/>
		<path id="path287" class="st6" d="M208.7,242.4l-9.4,3.3l-0.7,3.1c-0.1,1.3,0.6,2.6,1.7,3.3c0.4,0.3,0.9,0.6,1.4,0.8
			c1.7,0.7,3.7,0.7,5.4,0c0.5-0.2,1-0.4,1.4-0.8c1.1-0.7,1.8-2,1.7-3.3L208.7,242.4z"/>
		<path id="path289" class="st17" d="M208.7,242.4l-9.4,3.3l-0.7,3.1c-0.1,1.3,0.6,2.6,1.7,3.3c0.4,0.3,0.9,0.6,1.4,0.8
			c1.7,0.7,3.7,0.7,5.4,0c0.5-0.2,1-0.4,1.4-0.8c1.1-0.7,1.8-2,1.7-3.3L208.7,242.4z"/>
		<path id="path291" class="st6" d="M210.4,249.8l0.3,1.3c0,1.4-0.7,2.7-1.9,3.5c-0.5,0.3-1,0.6-1.5,0.8c-1.9,0.7-4,0.7-5.9,0
			c-0.6-0.2-1.1-0.5-1.6-0.9c-1.2-0.8-1.9-2.1-1.9-3.5l-0.9,3.7l0,0c0.1,1.4,0.9,2.7,2.1,3.4c0.6,0.4,1.2,0.7,1.8,0.9
			c2.1,0.7,4.4,0.7,6.6,0c0.6-0.2,1.2-0.5,1.8-0.9c1.2-0.7,2-2,2.1-3.4L210.4,249.8z"/>
		<path id="path293" class="st17" d="M210.4,249.8l0.3,1.3c0,1.4-0.7,2.7-1.9,3.5c-0.5,0.3-1,0.6-1.5,0.8c-1.9,0.7-4,0.7-5.9,0
			c-0.6-0.2-1.1-0.5-1.6-0.9c-1.2-0.8-1.9-2.1-1.9-3.5l-0.9,3.7l0,0c0.1,1.4,0.9,2.7,2.1,3.4c0.6,0.4,1.2,0.7,1.8,0.9
			c2.1,0.7,4.4,0.7,6.6,0c0.6-0.2,1.2-0.5,1.8-0.9c1.2-0.7,2-2,2.1-3.4L210.4,249.8z"/>
		<path id="path295" class="st3" d="M210.4,249.8l-0.1-0.3l-0.1-0.6c0.1,1.3-0.6,2.6-1.7,3.3c-0.4,0.3-0.9,0.6-1.4,0.8
			c-1.7,0.7-3.7,0.7-5.4,0c-0.5-0.2-1-0.5-1.4-0.8c-1.1-0.7-1.8-2-1.7-3.3l-0.5,2.3c0,1.4,0.7,2.7,1.9,3.5c0.5,0.3,1,0.6,1.6,0.9
			c1.9,0.7,4,0.7,5.9,0c0.5-0.2,1.1-0.5,1.5-0.8c1.2-0.8,1.9-2.1,1.9-3.5L210.4,249.8z"/>
		<path id="path297" class="st13" d="M209.5,245.8l-0.8-3.4l-9.4,3.3l-0.7,3.1l0,0l-0.2,0.9l-0.3,1.3l0,0l-0.6,2.6
			C202.8,252.2,207.1,249.3,209.5,245.8z"/>
		<path id="path299" class="st6" d="M176.6,256.5h-9.1c-1.3,7.9,2.9,13.9,4.6,13.9S177.9,264.4,176.6,256.5z"/>
		<path id="path301" class="st12" d="M176.6,256.5h-9.1c-1.3,7.9,2.9,13.9,4.6,13.9S177.9,264.4,176.6,256.5z"/>
		<path id="path303" class="st19" d="M172.1,256.5h1.6c0.7,1.3,1,2.7,0.9,4.2c-0.2,2.1-1.5,4.9-2.4,4.9s-2.2-2.8-2.4-4.9
			c-0.2-1.5,0.1-2.9,0.8-4.2H172.1"/>
		<path id="path305" class="st6" d="M176.6,242.4H168l-1.5,6.5c-0.1,1.3,0.6,2.6,1.7,3.3c0.4,0.3,0.9,0.6,1.4,0.8
			c1.7,0.7,3.7,0.7,5.4,0c0.5-0.2,1-0.5,1.4-0.8c1.1-0.7,1.8-2,1.7-3.3L176.6,242.4z"/>
		<path id="path307" class="st17" d="M176.6,242.4H168l-1.5,6.5c-0.1,1.3,0.6,2.6,1.7,3.3c0.4,0.3,0.9,0.6,1.4,0.8
			c1.7,0.7,3.7,0.7,5.4,0c0.5-0.2,1-0.5,1.4-0.8c1.1-0.7,1.8-2,1.7-3.3L176.6,242.4z"/>
		<path id="path309" class="st6" d="M178.2,249.5l0.1,0.3l0.3,1.4c0,1.4-0.7,2.7-1.9,3.5c-0.5,0.3-1,0.6-1.5,0.8
			c-1.9,0.7-4,0.7-5.9,0c-0.6-0.2-1.1-0.5-1.6-0.9c-1.2-0.8-1.9-2.1-1.9-3.5l-0.9,3.7l0,0c0.1,1.4,0.9,2.7,2.1,3.4
			c0.6,0.4,1.2,0.7,1.8,0.9c2.1,0.7,4.4,0.7,6.6,0c0.6-0.2,1.2-0.5,1.8-0.9c1.2-0.7,2-2,2.1-3.4L178.2,249.5z"/>
		<path id="path311" class="st17" d="M178.2,249.5l0.1,0.3l0.3,1.4c0,1.4-0.7,2.7-1.9,3.5c-0.5,0.3-1,0.6-1.5,0.8
			c-1.9,0.7-4,0.7-5.9,0c-0.6-0.2-1.1-0.5-1.6-0.9c-1.2-0.8-1.9-2.1-1.9-3.5l-0.9,3.7l0,0c0.1,1.4,0.9,2.7,2.1,3.4
			c0.6,0.4,1.2,0.7,1.8,0.9c2.1,0.7,4.4,0.7,6.6,0c0.6-0.2,1.2-0.5,1.8-0.9c1.2-0.7,2-2,2.1-3.4L178.2,249.5z"/>
		<path id="path313" class="st3" d="M178.3,249.8l-0.1-0.3l-0.1-0.6c0.1,1.3-0.6,2.6-1.7,3.3c-0.4,0.3-0.9,0.6-1.4,0.8
			c-1.7,0.7-3.7,0.7-5.4,0c-0.5-0.2-1-0.5-1.4-0.8c-1.1-0.7-1.8-2-1.7-3.3l-0.5,2.3c0,1.4,0.7,2.7,1.9,3.5c0.5,0.4,1,0.6,1.6,0.9
			c1.9,0.7,4,0.7,5.9,0c0.5-0.2,1.1-0.5,1.5-0.8c1.2-0.8,1.9-2.1,1.9-3.5L178.3,249.8z"/>
		<path id="path315" class="st13" d="M168,242.4l-0.8,3.4c2.4,3.5,6.7,6.4,12,7.9l-1-4.2l-0.1-0.6l0,0l-1.5-6.5H168z"/>
		<path id="path317" class="st6" d="M197.2,262.3l-8.9-2.3l-8.9,2.3c-0.7,4-0.6,8.1,0.1,12.2c1.2,7.4,6.3,14.9,8.8,14.9
			s7.6-7.4,8.8-14.9C197.8,270.4,197.8,266.3,197.2,262.3z"/>
		<path id="path319" class="st20" d="M197.2,262.3l-8.9-2.3l-8.9,2.3c-0.7,4-0.6,8.1,0.1,12.2c1.2,7.4,6.3,14.9,8.8,14.9
			s7.6-7.4,8.8-14.9C197.8,270.4,197.8,266.3,197.2,262.3z"/>
		<path id="path321" class="st11" d="M194.1,263.3H182c-1.7,10.5,3.8,18.5,6.1,18.5S195.9,273.8,194.1,263.3z"/>
		<path id="path323" class="st19" d="M188.1,263.3h2.1c1,1.7,1.4,3.7,1.1,5.6c-0.2,2.8-1.9,6.5-3.2,6.5s-2.9-3.7-3.2-6.5
			c-0.2-1.9,0.2-3.9,1.1-5.6H188.1"/>
		<path id="path325" class="st6" d="M196.1,252.4l-1-4.2h-13.6l-1,4.2c-0.1,1.8,0.8,3.5,2.3,4.4c0.6,0.4,1.2,0.8,1.9,1
			c2.3,0.9,4.9,0.9,7.2,0c0.7-0.3,1.3-0.6,1.9-1C195.3,255.8,196.2,254.1,196.1,252.4z"/>
		<path id="path327" class="st11" d="M196.1,252.4l-1-4.2h-13.6l-1,4.2c-0.1,1.8,0.8,3.5,2.3,4.4c0.6,0.4,1.2,0.8,1.9,1
			c2.3,0.9,4.9,0.9,7.2,0c0.7-0.3,1.3-0.6,1.9-1C195.3,255.8,196.2,254.1,196.1,252.4z"/>
		<path id="path329" class="st6" d="M196.3,253.2l0.1,0.4l0.4,1.8c0,1.9-0.9,3.6-2.5,4.6c-0.6,0.5-1.3,0.8-2,1.1
			c-2.5,0.9-5.3,0.9-7.9,0c-0.7-0.3-1.4-0.7-2.1-1.1c-1.6-1-2.5-2.8-2.5-4.6l-1.1,4.9l0,0c0.1,1.9,1.2,3.6,2.8,4.6
			c0.8,0.5,1.6,0.9,2.4,1.2c2.8,0.9,5.9,0.9,8.8,0c0.8-0.3,1.7-0.7,2.4-1.2c1.6-0.9,2.7-2.7,2.8-4.6L196.3,253.2z"/>
		<path id="path331" class="st11" d="M196.3,253.2l0.1,0.4l0.4,1.8c0,1.9-0.9,3.6-2.5,4.6c-0.6,0.5-1.3,0.8-2,1.1
			c-2.5,0.9-5.3,0.9-7.9,0c-0.7-0.3-1.4-0.7-2.1-1.1c-1.6-1-2.5-2.8-2.5-4.6l-1.1,4.9l0,0c0.1,1.9,1.2,3.6,2.8,4.6
			c0.8,0.5,1.6,0.9,2.4,1.2c2.8,0.9,5.9,0.9,8.8,0c0.8-0.3,1.7-0.7,2.4-1.2c1.6-0.9,2.7-2.7,2.8-4.6L196.3,253.2z"/>
		<path id="path333" class="st3" d="M196.4,253.6l-0.1-0.4l-0.2-0.8c0.1,1.8-0.8,3.5-2.3,4.4c-0.6,0.4-1.2,0.7-1.9,1
			c-2.3,0.9-4.9,0.9-7.2,0c-0.7-0.2-1.3-0.6-1.9-1c-1.5-1-2.3-2.7-2.3-4.4l-0.7,3c0,1.9,0.9,3.6,2.5,4.6c0.6,0.5,1.3,0.9,2.1,1.1
			c2.5,0.9,5.3,0.9,7.9,0c0.7-0.3,1.4-0.7,2-1.1c1.5-1,2.5-2.8,2.5-4.6L196.4,253.6z"/>
		<path id="path335" class="st13" d="M188.3,254.9c2.8,0,5.5-0.3,8.2-1l-0.1-0.4l-0.1-0.4l-0.2-0.8l-1-4.2h-13.6l-1,4.2l-0.4,1.6
			C182.8,254.6,185.6,254.9,188.3,254.9z"/>
		<path id="path337" class="st2" d="M179.9,214.7l-26.4-9.7c0-1.1,0-2.3,0.1-3.4c0-0.4,0.1-0.7,0.1-1s0.1-0.6,0.2-0.9
			s0.1-0.6,0.2-0.9l0.1-0.5l0.1-0.3l0,0c0.6-1.8,1.8-3.4,3.5-4.3l3.4-2l0.4-0.2c1.1-0.6,2.2-1,3.5-1.1c2.6-0.3,5.1-0.9,7.5-1.8
			c0.7-0.6,1.4-1.3,1.9-2.1c2.6-3.9,3.2-12.4,3.1-16.6l3.8-2.2l2.3,44.9l-3.9-1.4v0.1L179.9,214.7z"/>
		<path id="path339" class="st4" d="M153.6,205l26.4,9.7l-0.2-3.5v-0.1l-1.4-27l-0.7-14.3c0.2,4.2-0.5,12.7-3.1,16.6
			c-0.5,0.8-1.2,1.5-1.9,2.1c-2.6,2.2-6.5,3.3-11.3,4c-0.5,0.1-1,0.2-1.4,0.3c-0.7,0.2-1.4,0.5-2,0.8c-1.7,1-2.9,2.5-3.5,4.3l0,0
			l-0.1,0.3l-0.1,0.5c-0.1,0.3-0.2,0.6-0.2,0.9s-0.1,0.6-0.2,0.9s-0.1,0.7-0.1,1C153.6,202.7,153.5,203.9,153.6,205z"/>
		<path id="path341" class="st6" d="M179.6,207.2l-25.1-9.2c-0.4,1.2-0.7,2.4-0.8,3.7l26.1,9.6L179.6,207.2z"/>
		<path id="path343" class="st21" d="M179.6,207.2l-25.1-9.2c-0.4,1.2-0.7,2.4-0.8,3.7l26.1,9.6L179.6,207.2z"/>
		<path id="path345" class="st3" d="M200.5,206.1c3.3,10.7,6.7,21.4,10.3,32.1c0.5,2.1-0.2,4.4-1.9,5.8c-5.7,4.8-13,7.4-20.5,7.3
			c-7.5,0-14.8-2.7-20.5-7.6c-1.7-1.3-2.5-3.6-2-5.7c3.6-10.5,7-21,10.3-31.6L200.5,206.1z"/>
		<path id="path347" class="st4" d="M188.3,242.8c7.8,0.2,15.5-2.5,21.4-7.6l1,2.9c0.5,2.1-0.2,4.4-1.9,5.8
			c-5.7,4.8-13,7.4-20.5,7.3c-7.5,0-14.8-2.7-20.5-7.6c-1.7-1.3-2.5-3.6-2-5.7c0.4-1.1,0.6-1.7,1-2.9
			C172.8,240.2,180.6,242.6,188.3,242.8z"/>
		<path id="path349" class="st4" d="M188.3,218.1c-5.1,0.1-10.2-0.7-15.1-2.5c1.2-3.7,1.8-5.6,2.9-9.3l11-0.1h1.2c0.4,0,0.8,0,1.2,0
			l11-0.1c1.2,3.8,1.7,5.7,2.9,9.4C198.6,217.3,193.5,218.2,188.3,218.1z"/>
		<path id="path351" class="st3" d="M196.1,206.1c0.4,3,0.9,7,1.4,11.1c1.4-0.3,2.7-0.6,4.1-1.1c-0.7-4-1.1-6-1.8-10.1L196.1,206.1z
			"/>
		<path id="path353" class="st3" d="M167.8,243.6c5.7,4.9,13,7.5,20.5,7.6h1.5l1.5-0.1l0.7-0.1l1.1-0.1c0.2,0,0.5-0.1,0.7-0.1
			s0.5-0.1,0.7-0.1l1.2-0.2l0.2-0.1c0.4-0.1,0.9-0.2,1.3-0.3s1-0.3,1.6-0.5c0.3-0.1,0.6-0.2,0.9-0.3s0.8-0.3,1.1-0.4
			c0.7-0.3,1.4-0.6,2-0.9l0.5-0.2c0.2-0.1,0.4-0.2,0.6-0.3l0.8-0.4l0.8-0.5l0.8-0.5l0.7-0.5c-0.5-2.8-0.8-4.3-1.3-7.2
			c-1.6,1-3.3,1.8-5,2.4c0.2,1.4,0.4,2.5,0.4,2.7C198.9,250.7,181.7,251.9,167.8,243.6z"/>
		<path id="path355" class="st22" d="M197.5,217.2c1,7.8,2,15.7,3,23.5c1.7-0.6,3.4-1.5,5-2.4c-1.3-7.4-2.7-14.8-4-22.2
			C200.2,216.6,198.8,216.9,197.5,217.2z"/>
		<path id="path357" class="st2" d="M195.8,214.7l26.4-9.7c0-1.1,0-2.3-0.1-3.4c0-0.4-0.1-0.7-0.1-1s-0.1-0.6-0.2-0.9
			s-0.1-0.6-0.2-0.9l-0.1-0.5c0-0.1-0.1-0.2-0.1-0.3l0,0c-0.6-1.8-1.8-3.4-3.5-4.3l-3.4-2l-0.4-0.2c-1.1-0.6-2.2-1-3.5-1.1
			c-2.6-0.3-5.1-0.9-7.5-1.8c-0.7-0.6-1.4-1.3-1.9-2.1c-2.6-3.9-3.2-12.4-3.1-16.6l-3.8-2.2l-2.3,44.9l3.9-1.4v0.1L195.8,214.7z"/>
		<path id="path359" class="st4" d="M222.2,205l-26.4,9.7l0.2-3.5v-0.1l1.4-27l0.8-14.3c-0.2,4.2,0.5,12.7,3.1,16.6
			c0.5,0.8,1.2,1.5,1.9,2.1c2.6,2.2,6.5,3.3,11.3,4c0.5,0.1,1,0.2,1.4,0.3c0.7,0.2,1.4,0.5,2,0.8c1.7,1,2.9,2.5,3.5,4.3l0,0
			c0,0.1,0.1,0.2,0.1,0.3l0.1,0.5c0.1,0.3,0.2,0.6,0.2,0.9s0.1,0.6,0.2,0.9s0.1,0.7,0.1,1C222.2,202.7,222.2,203.9,222.2,205z"/>
		<path id="path361" class="st11" d="M196.2,207.2l25.1-9.2c0.4,1.2,0.7,2.4,0.8,3.7l-26.1,9.6L196.2,207.2z"/>
		<path id="path363" class="st6" d="M196.2,207.2l25.1-9.2c0.4,1.2,0.7,2.4,0.8,3.7l-26.1,9.6L196.2,207.2z"/>
		<path id="path365" class="st6" d="M214.5,124.9c0.1-1.9-0.1-3.8-0.5-5.7c-3.6-16.9-13.7-30.7-19.5-39.7c-1.1-1.6-3.4-5.4-4.3-6
			c-1.2-0.8-2.7-0.8-3.9,0c-0.9,0.7-3.2,4.4-4.3,6c-5.4,7.9-15.9,22.8-19.5,39.7c-0.4,1.9-0.5,3.8-0.5,5.7l3.3,94.4l0,0
			c0,4.7,4.3,9.4,12.9,11.9c6.5,1.9,13.5,1.9,20.1,0c8.6-2.6,12.9-7.3,12.9-11.9l0,0L214.5,124.9z"/>
		<path id="path367" class="st11" d="M214.5,124.9c0.1-1.9-0.1-3.8-0.5-5.7c-3.6-16.9-13.7-30.7-19.5-39.7c-1.1-1.6-3.4-5.4-4.3-6
			c-1.2-0.8-2.7-0.8-3.9,0c-0.9,0.7-3.2,4.4-4.3,6c-5.4,7.9-15.9,22.8-19.5,39.7c-0.4,1.9-0.5,3.8-0.5,5.7l3.3,94.4l0,0
			c0,4.7,4.3,9.4,12.9,11.9c6.5,1.9,13.5,1.9,20.1,0c8.6-2.6,12.9-7.3,12.9-11.9l0,0L214.5,124.9z"/>
		<path id="path369" class="st23" d="M214.1,119.2c-3.6-16.9-13.7-30.7-19.5-39.7l-0.9-1.3l0,0c4.8,12.1,12.3,31.6,12.8,58.8
			c0.3,16.1-0.9,59.1-1.9,91.8l0,0c1-0.6,2-1.2,2.9-2v-0.1c0.5-0.5,1-1,1.5-1.6l0.2-0.2c0.1-0.1,0.2-0.3,0.3-0.5
			c0.1-0.1,0.1-0.2,0.2-0.3c0.1-0.2,0.3-0.4,0.4-0.7s0.1-0.3,0.2-0.4s0.1-0.2,0.2-0.3s0.1-0.3,0.2-0.5s0.1-0.2,0.1-0.3
			s0.1-0.5,0.2-0.7c0-0.1,0-0.1,0.1-0.2s0.1-0.4,0.1-0.6v-0.2c0-0.3,0-0.5,0-0.8l0,0l3.3-94.4C214.6,123,214.4,121.1,214.1,119.2z"
			/>
		<path id="path371" class="st3" d="M168.1,128.8c11.1,6.4,29,6.4,40,0c2.5-1.4,4.7-3.3,6.4-5.7c0-1.4-0.2-2.8-0.5-4.2
			c-0.1-0.7-0.3-1.5-0.5-2.2c-1.5,1.7-3.4,3.2-5.4,4.3c-11.1,6.4-29,6.4-40,0c-1.9-1.1-3.6-2.4-5.1-4c-0.1,0.6-0.3,1.2-0.4,1.9
			c-0.3,1.6-0.5,3.1-0.5,4.7C163.7,125.8,165.8,127.5,168.1,128.8z"/>
		<path id="path373" class="st22" d="M214.5,123.1c0-1.3-0.2-2.7-0.5-4c-0.2-0.8-0.4-1.6-0.6-2.4c-1.5,1.7-3.3,3.2-5.3,4.3
			c-0.9,0.5-1.7,0.9-2.6,1.3c0.3,2.4,0.5,4.9,0.7,7.4c0.7-0.3,1.3-0.7,2-1C210.7,127.4,212.9,125.5,214.5,123.1z"/>
		<path id="path375" class="st13" d="M190,73.3c-0.5-0.3-1.1-0.4-1.6-0.4c-0.7,0-1.4,0.2-1.9,0.6c-0.9,0.7-3.2,4.4-4.3,6
			c-5.4,7.9-15.9,22.8-19.5,39.7c-0.4,1.9-0.5,3.8-0.5,5.7l3.3,94.4c0,4.7,4.3,9.4,12.9,11.9c0.1,0,0.2,0.1,0.4,0.1
			c-1.7-39.3-9.4-103.2-1.6-128.7C181.3,88.8,187.2,72.3,190,73.3z"/>
		<path id="path377" class="st22" d="M193.7,78.1c1.6,4.1,3.5,9,5.4,14.7c1.1-0.6,2-1.3,2.9-1.9c-2.1-3.4-4.1-6.4-5.9-9.2l-1.5-2.2
			l-0.6-0.9L193.7,78.1z"/>
		<path id="path379" class="st3" d="M177.1,225.4l-26.4,20.8l-3.7-2.2c-0.2-7.6,2.3-14.4,7.8-21.5c2.4-3,4.5-5.9,6.4-8.6
			c2.9-3.8,5.4-7.8,7.7-12c3.2-6.3,4-10.2,3.9-14.5c0-0.1,0-0.3,0-0.4c0-0.1,0-0.3,0-0.4l2,1L177.1,225.4z"/>
		<path id="path381" class="st6" d="M147.8,236c-0.4,1.5-0.6,3-0.8,4.6l3.7,2.1v-0.1c0.1-1.5,0.4-3,0.8-4.4l0,0L147.8,236z"/>
		<path id="path383" class="st16" d="M147.8,236c-0.4,1.5-0.6,3-0.8,4.6l3.7,2.1v-0.1c0.1-1.5,0.4-3,0.8-4.4l0,0L147.8,236z"/>
		<path id="path385" class="st2" d="M174.7,187.6c0.2,4-0.5,8.9-3.1,15.8c-2.4,6.4-7,13.4-13.2,21.3c-5.5,7.1-8,13.9-7.8,21.5
			l26.4-20.8L174.7,187.6z"/>
		<path id="path387" class="st6" d="M176.7,218.4l-25.1,19.8c-0.4,1.5-0.6,3-0.8,4.6l26.1-20.5L176.7,218.4z"/>
		<path id="path389" class="st3" d="M198.7,225.4l26.4,20.8l3.7-2.2c0.2-7.6-2.3-14.4-7.8-21.5c-2.4-3-4.5-5.9-6.4-8.6
			c-2.9-3.8-5.4-7.8-7.6-12c-3.2-6.3-4-10.2-3.9-14.5c0-0.1,0-0.3,0-0.4c0-0.1,0-0.3,0-0.4l-2,1L198.7,225.4z"/>
		<path id="path391" class="st6" d="M228,236c0.4,1.5,0.6,3,0.8,4.6l-3.8,2.2v-0.1c-0.1-1.5-0.4-3-0.8-4.4l0,0L228,236z"/>
		<path id="path393" class="st16" d="M228,236c0.4,1.5,0.6,3,0.8,4.6l-3.8,2.2v-0.1c-0.1-1.5-0.4-3-0.8-4.4l0,0L228,236z"/>
		<path id="path395" class="st2" d="M201,187.6c-0.2,4,0.5,8.9,3.1,15.8c2.4,6.4,7,13.4,13.2,21.3c5.5,7.1,8,13.9,7.8,21.5
			l-26.4-20.8L201,187.6z"/>
		<path id="path397" class="st6" d="M199.1,218.4l25.1,19.8c0.4,1.5,0.6,3,0.8,4.6l-26.1-20.5L199.1,218.4z"/>
		<path id="path399" class="st2" d="M167.1,134.1c0.8,0.6,1.4,1.5,1.4,2.5c0,0.9-0.6,1.3-1.4,0.8c-0.8-0.5-1.4-1.5-1.4-2.5
			C165.6,134,166.2,133.6,167.1,134.1z"/>
		<path id="path401" class="st2" d="M167,139.9c0.8,0.5,1.3,1.4,1.4,2.4c0,0.9-0.6,1.2-1.4,0.8c-0.8-0.5-1.3-1.4-1.4-2.4
			C165.6,139.9,166.2,139.5,167,139.9z"/>
		<path id="path403" class="st2" d="M167.1,145.8c0.8,0.5,1.2,1.3,1.3,2.2c0,0.8-0.6,1.1-1.3,0.7c-0.8-0.5-1.2-1.3-1.3-2.2
			C165.8,145.7,166.4,145.4,167.1,145.8z"/>
		<path id="path405" class="st2" d="M167.2,151.7c0.7,0.5,1.2,1.2,1.2,2.1c0,0.8-0.5,1.1-1.2,0.7c-0.7-0.5-1.2-1.2-1.2-2.1
			C166,151.6,166.6,151.3,167.2,151.7z"/>
		<path id="path407" class="st2" d="M167.4,157.6c0.7,0.4,1.1,1.2,1.1,2c0,0.7-0.5,1-1.1,0.7c-0.7-0.4-1.1-1.2-1.1-2
			C166.3,157.5,166.8,157.2,167.4,157.6z"/>
		<path id="path409" class="st2" d="M167.7,163.4c0.6,0.4,1,1.1,1.1,1.8c0,0.7-0.5,0.9-1.1,0.6c-0.6-0.4-1-1.1-1.1-1.8
			C166.6,163.4,167.1,163.1,167.7,163.4z"/>
		<path id="path411" class="st2" d="M167.9,169.3c0.6,0.4,1,1,1,1.7c0,0.6-0.4,0.9-1,0.6c-0.6-0.4-1-1-1-1.7
			C166.9,169.2,167.4,169,167.9,169.3z"/>
		<path id="path413" class="st3" d="M209.6,134.1c-0.8,0.6-1.4,1.5-1.4,2.5c0,0.9,0.6,1.3,1.4,0.8c0.8-0.6,1.4-1.5,1.4-2.5
			C211,134,210.4,133.6,209.6,134.1z"/>
		<path id="path415" class="st3" d="M209.7,139.9c-0.8,0.5-1.3,1.4-1.4,2.4c0,0.9,0.6,1.2,1.4,0.8c0.8-0.5,1.3-1.4,1.4-2.4
			C211,139.9,210.4,139.5,209.7,139.9z"/>
		<path id="path417" class="st3" d="M209.6,145.8c-0.8,0.5-1.2,1.3-1.3,2.2c0,0.8,0.6,1.1,1.3,0.7c0.8-0.5,1.2-1.3,1.3-2.2
			C210.9,145.7,210.3,145.4,209.6,145.8z"/>
		<path id="path419" class="st3" d="M209.4,151.7c-0.7,0.5-1.2,1.2-1.2,2.1c0,0.8,0.5,1.1,1.2,0.7c0.7-0.5,1.2-1.2,1.2-2.1
			C210.6,151.6,210.1,151.3,209.4,151.7z"/>
		<path id="path421" class="st3" d="M209.2,157.6c-0.7,0.4-1.1,1.2-1.1,2c0,0.7,0.5,1,1.1,0.7c0.7-0.4,1.1-1.2,1.1-2
			C210.3,157.5,209.8,157.2,209.2,157.6z"/>
		<path id="path423" class="st3" d="M209,163.4c-0.6,0.4-1,1.1-1.1,1.8c0,0.7,0.5,0.9,1.1,0.6c0.6-0.4,1-1.1,1.1-1.8
			C210,163.4,209.6,163.1,209,163.4z"/>
		<path id="path425" class="st3" d="M208.7,169.3c-0.6,0.4-1,1-1,1.7c0,0.6,0.4,0.9,1,0.6c0.6-0.4,1-1,1-1.7
			C209.7,169.2,209.3,169,208.7,169.3z"/>
		<circle id="circle427" class="st2" cx="188.3" cy="160.4" r="10.6"/>
		<circle id="circle429" class="st6" cx="188.3" cy="160.3" r="7.7"/>
	</g>
</g>
<g id="freepik--speech-bubble--inject-378">
	<g id="freepik--speach-bubble--inject-378">
		<path id="path433" class="st24" d="M384.3,135.9l-3.2-9.2l2.6-7.5v-4.6l-7.9,4.6v4.6l3.4,9c0.1,0.1,0.1,0.2,0.2,0.2l0,0
			L384.3,135.9z"/>
		<path id="path435" class="st25" d="M384.3,135.9l-3.2-9.2l2.6-7.5v-4.6l-7.9,4.6v4.6l3.4,9c0.1,0.1,0.1,0.2,0.2,0.2l0,0
			L384.3,135.9z"/>
		<path id="path437" class="st24" d="M403.3,78.2c-0.1-1.7-1-3.2-2.4-4.1L399,73c-1.5-0.8-3.3-0.8-4.8,0l-29.8,17.1
			c-1.4,0.9-2.3,2.5-2.4,4.1V127c0.1,1.7,1,3.2,2.4,4.1l1.9,1.1c1.5,0.7,3.3,0.7,4.8,0l9.5-5.5l3.4,9c0.1,0.2,0.5,0.3,0.7,0.2
			c0.1-0.1,0.2-0.2,0.2-0.3l3.6-13.5l12.2-7.1c1.4-0.9,2.3-2.4,2.4-4.1V78.2z"/>
		<path id="path439" class="st25" d="M362.1,127c0.1,1.7,1,3.2,2.4,4.1l1.9,1.1c1.4,0.7,2.9,0.7,4.4,0.2c-1.1,0.4-2-0.2-2-1.6V98.1
			c0-0.8,0.3-1.6,0.7-2.3l-6.7-3.9c-0.4,0.7-0.7,1.5-0.7,2.3L362.1,127z"/>
		<path id="path441" class="st9" d="M403.2,77.5c-0.3-1-1.2-1.3-2.3-0.7L371.2,94c-0.7,0.4-1.3,1-1.7,1.8l-6.7-3.9
			c0.4-0.7,1-1.3,1.7-1.8L394.2,73c1.5-0.8,3.3-0.8,4.8,0l1.9,1.1C402.1,74.9,402.9,76.1,403.2,77.5z"/>
		<path id="path443" class="st19" d="M398,101.4L398,101.4h-0.2l-2.3-0.1c-0.2,0-0.4-0.1-0.4-0.3c0,0,0,0,0,0c0-0.3,0-0.7,0-1.1
			s0-0.8,0-1.1c0-0.2,0.1-0.5,0.2-0.7l2.5-3.1c0.1-0.2,0.2-0.4,0.1-0.6l-1.2-2.7c0,0,0-0.1-0.1-0.1l0,0c-0.1,0-0.2,0-0.4,0.1
			l-2.7,2.5c-0.1,0.2-0.4,0.2-0.6,0.1c-0.3-0.3-0.7-0.5-1.2-0.7c-0.2-0.1-0.3-0.3-0.3-0.5l0.8-3.8c0-0.1,0-0.2-0.1-0.3
			c-0.1,0-0.2,0-0.2,0l-2.6,0.3c-0.3,0-0.5,0.2-0.6,0.4l-1.4,3.9c-0.1,0.2-0.3,0.4-0.6,0.6c-0.6,0.3-1.1,0.6-1.6,1
			c-0.2,0.2-0.5,0.2-0.6,0l-1.4-2.1c-0.1-0.2-0.3-0.1-0.5,0.1l-2.9,3.1c-0.2,0.2-0.2,0.4-0.2,0.6l0.8,2.8c0,0.2,0,0.5-0.1,0.7
			c-0.5,0.7-0.9,1.5-1.3,2.3c-0.1,0.2-0.4,0.4-0.6,0.5l-2.5,0.6c-0.2,0.1-0.5,0.2-0.6,0.5l-1.2,4.2c0,0.2,0.1,0.3,0.2,0.4
			c0,0,0.1,0,0.1,0l2.3,0.1c0.2,0,0.4,0.2,0.4,0.4c-0.1,0.7-0.1,1.5,0,2.2c0,0.2-0.1,0.5-0.2,0.7l-2.6,2.9c-0.2,0.2-0.2,0.4-0.2,0.6
			l1.2,2.7c0,0,0,0.1,0.1,0.1l0,0c0,0,0.1,0,0.1,0l0,0c0.1,0,0.2-0.1,0.3-0.1l2.7-2.5c0.2-0.2,0.4-0.2,0.6-0.1
			c0.3,0.3,0.7,0.5,1.2,0.7c0.2,0.1,0.3,0.3,0.3,0.5l-0.8,3.8c0,0.1,0,0.2,0.1,0.3l0,0c0.1,0,0.2,0,0.2,0l2.6-0.3
			c0.2,0,0.5-0.2,0.6-0.4l1.4-3.9c0.1-0.2,0.3-0.4,0.6-0.6c0.3-0.1,0.6-0.3,0.8-0.4s0.5-0.3,0.8-0.5s0.5-0.2,0.6,0l1.4,2.1
			c0,0,0,0,0.1,0.1c0.1,0.1,0.3,0,0.4-0.1l2.9-3.1c0.2-0.2,0.2-0.4,0.2-0.6l-0.8-2.8c0-0.2,0-0.5,0.1-0.7c0.5-0.7,0.9-1.5,1.3-2.3
			c0.1-0.2,0.4-0.4,0.6-0.5l2.5-0.6c0.3-0.1,0.5-0.2,0.6-0.5l1.2-4.2C398.1,101.6,398.1,101.4,398,101.4z M384.7,111.7h-0.1h-0.1
			h-0.2h-0.3h-0.2c-1.1,0-2.1-0.7-2.5-1.7c-0.2-0.4-0.3-0.9-0.4-1.4c0-0.3,0-0.5,0-0.8c0.2-2.8,1.3-5.5,3.3-7.5
			c0.6-0.6,1.3-1.2,2-1.6c0.2-0.1,0.4-0.2,0.7-0.3c0.6-0.3,1.2-0.4,1.9-0.4h0.3c1,0.2,1.7,0.9,2,1.8c1.1,2.5-0.2,6.8-2.9,9.7
			C387.2,110.5,386,111.3,384.7,111.7L384.7,111.7z"/>
	</g>
</g>
<g id="freepik--Character--inject-378">
	<g id="freepik--Briefcase--inject-378">
		<path id="path447" class="st26" d="M451.5,347.7v35.8c-0.1,2-1.2,3.8-2.8,4.9l-3.4,2c-1.2,0.6-2.6,0.8-4,0.6
			c-0.6-0.1-1.1-0.3-1.6-0.5h-0.1l-0.2-0.1l-39.7-22.9c-2.9-1.7-4.7-4.8-4.7-8.1v-33.7c0-0.8,0.5-1.6,1.2-2.1l6.6-3.8
			c0.8-0.4,1.6-0.4,2.4,0l45,26c0.4,0.2,0.7,0.5,0.9,0.9C451.3,346.9,451.4,347.3,451.5,347.7z"/>
		<path id="path449" class="st25" d="M451.5,347.7v35.8c-0.1,2-1.2,3.8-2.8,4.9l-3.4,2c-1.2,0.6-2.6,0.8-4,0.6
			c-0.6-0.1-1.1-0.3-1.6-0.5l0,0c1.5,0.7,2.8-0.1,2.8-1.9v-34.8c0-0.6-0.2-1.3-0.5-1.8l9.2-5.3C451.3,346.9,451.4,347.3,451.5,347.7
			z"/>
		<path id="path451" class="st21" d="M442.4,353.6c-0.1-1.3-0.7-2.5-1.8-3.2L398,325.9c-1.7-1-3.1-0.2-3.1,1.8v31.5
			c0,3.4,1.8,6.4,4.7,8.1l39.7,22.9c1.7,1,3.1,0.2,3.1-1.8L442.4,353.6z"/>
		<path id="path453" class="st27" d="M395,337.2c0.1,2.5,1.4,4.7,3.5,6l40.5,23.4c1.9,1.1,3.5,0.2,3.5-2v-12c0-0.7,0.4-1.3,1-1.7
			l6.2-3.6l-46.8-27.8l-6.9,4c-0.6,0.3-1,1-1,1.7L395,337.2z"/>
		<path id="path455" class="st26" d="M402.8,319.6l-6.9,4c-0.3,0.2-0.6,0.4-0.7,0.8l47.5,27.3c0.2-0.3,0.4-0.5,0.7-0.7l6.2-3.6
			L402.8,319.6z"/>
		<path id="path457" class="st2" d="M415.5,350.4l6.3,3.6c1,0.7,1.7,1.8,1.8,3v1.4c0,1.1-0.8,1.6-1.7,1l-6.3-3.6
			c-1-0.7-1.7-1.8-1.7-3v-1.4C413.8,350.3,414.6,349.8,415.5,350.4z"/>
		<path id="path459" class="st4" d="M418.2,325.8v5l-2.9,1.7v-7.6c0-0.4,0.3-0.5,0.6-0.4L418.2,325.8z"/>
		<path id="path461" class="st3" d="M433.3,331.1v9.3l-2.1,1.2l-1.4-0.8v-7.6c0-0.4-0.3-0.8-0.6-1.1l-10.9-6.3l-2.3-1.3
			c-0.3-0.2-0.6,0-0.6,0.4v7.6l-1.5-0.8v-9.2c0,0,0-0.1,0-0.1c0.1-0.4,0.3-0.7,0.6-0.9l0.9-0.5c0.4-0.2,0.8-0.2,1.2,0l16,9.2
			C433,330.3,433.3,330.7,433.3,331.1z"/>
		<path id="path463" class="st2" d="M431.2,332.3v9.3l-1.4-0.8v-7.6c0-0.4-0.3-0.8-0.6-1.1l-10.9-6.3l-2.3-1.3
			c-0.3-0.2-0.6,0-0.6,0.4v7.6l-1.5-0.8v-9.2c0,0,0-0.1,0-0.1c0.1-0.3,0.3-0.4,0.6-0.2l16,9.3C430.9,331.5,431.1,331.9,431.2,332.3z
			"/>
	</g>
	<g id="freepik--character--inject-378">
		<path id="path466" class="st4" d="M406.1,376.5c0.7,0.2,1.1,1.5,1.4,4.6c0.2,1.9,0.8,4.4-2.1,6c-2.2,1.1-4.8,1.1-6.9-0.1
			c-2.5-1.6-3.3-5.1-6.3-7.5c-2.6-2-6.8-4.1-8.2-7.2c-1.2-2.6-1.2-6.3,3.1-6.1c5.2,0.2,8.2,4.4,11.8,4.5
			C400.8,370.7,405.4,376.2,406.1,376.5z"/>
		<path id="path468" class="st28" d="M406.1,374.9v3.1c0,1.5-6.5,3.8-8.3,0.3c-0.1-0.3-0.8-4.6-0.8-4.6L406.1,374.9z"/>
		<path id="path470" class="st4" d="M376.1,394.6c0,0,1.2,0,1.7,5c0.2,1.9,0.6,5.8,0,7.3s-4.2,2-8.2,2.4c-3,0.3-5.6,1.7-8.4,3.2
			c-2.6,1.5-5.5,2.3-8.5,2.3c-3.8,0-6.9-0.4-9.6-2.5c-1.4-1.1-3.2-3.5-1.9-5.3c0.5-0.5,1.2-0.9,2-1.1c1.7-0.6,3.4-1.2,5.1-1.7
			c2.6-0.8,5-1.7,7.4-2.9c3.5-1.7,7.4-3.7,10.1-6.6L376.1,394.6z"/>
		<path id="path472" class="st28" d="M376,392c0,0,0,2.3,0,3.6s-1.5,3.3-5.6,3.2c-2.8-0.1-4.8-0.8-4.7-3.2v-3.4L376,392z"/>
		<path id="path474" class="st2" d="M407.9,333.6c-0.7-5.5-2-10.9-3.8-16.2c0,0,1-14,1.5-27.3c0.4-13.6,0-27.2-1.1-40.8
			c0,0-45.1-4.3-45.9,12.3s0.3,58.7,0.9,66s1.2,14.1,2.7,27.6c1.3,11.7,3.5,37,3.5,37c3.3,1.6,7.1,1.5,10.2-0.3c0,0,3.4-34,3.8-42.4
			c0.5-10.9-2-16.9-2-16.9s1-6.9,2.6-20.9c1.2-10,2.8-21.3,2.8-21.3s1.5,14,2.5,21.8c0.9,7.2,2.3,13,4.5,26.5
			c1.9,11.7,7,36.5,7,36.5c5.3,2.8,8.9-0.4,8.9-0.4S409.4,343.8,407.9,333.6z"/>
		<path id="path476" class="st4" d="M383.2,290.5l2.1-13.9c0,0,8.8-2.8,13.2-8c0,0-2.4,6.1-10.6,9.4l-3.3,11.7l-0.6,9.6L383.2,290.5
			z"/>
		<path id="path478" class="st29" d="M395.2,193.8c7-1.7,11.5,1.7,14.1,11.3c2.2,8.2,5.5,25.2,6.7,31.5c0.5,2.4,1.4,5-3.5,8
			c-7.2,4.1-14.6,7.9-22.1,11.2l-2.7-10.1l10.9-22.3L395.2,193.8z"/>
		<path id="path480" class="st30" d="M395.2,193.8c7-1.7,11.5,1.7,14.1,11.3c2.2,8.2,5.5,25.2,6.7,31.5c0.5,2.4,1.4,5-3.5,8
			c-7.2,4.1-14.6,7.9-22.1,11.2l-2.7-10.1l10.9-22.3L395.2,193.8z"/>
		<polygon id="polygon482" class="st28" points="375.8,189.3 377.9,204.1 391.2,203.6 389.9,186.4 		"/>
		<path id="path484" class="st31" d="M366.2,171c0,0-3.6,5.2-3.2,5.8s3,1,3,1L366.2,171z"/>
		<path id="path486" class="st4" d="M367.4,174.5c-2.4,0-4.3-2-4.3-4.4c0-2.4,2-4.3,4.4-4.3c2.4,0,4.3,2,4.3,4.4
			C371.8,172.6,369.8,174.5,367.4,174.5C367.4,174.5,367.4,174.5,367.4,174.5z M367.5,166.7c-1.9,0-3.4,1.5-3.4,3.3
			c0,1.9,1.5,3.4,3.3,3.4c1.9,0,3.4-1.5,3.4-3.3c0,0,0,0,0,0C370.9,168.3,369.4,166.8,367.5,166.7
			C367.5,166.7,367.5,166.7,367.5,166.7L367.5,166.7z"/>
		<path id="path488" class="st28" d="M376.1,156.6c-7.1,1.4-9.2,4.4-10,15.6c-0.9,11.7,0.2,15.4,1.8,17c1,1.1,6.8,1.4,9.7,0.6
			c3.7-1,12-3.7,15.9-9.6c4.6-6.9,6-16.2,1.2-20.2C388,154.5,379,156,376.1,156.6z"/>
		<path id="path490" class="st31" d="M375.9,190.1c-3,0.3-7.1,0-8-0.9c2.6,0,5.2-0.5,7.6-1.5L375.9,190.1z"/>
		<path id="path492" class="st4" d="M366,159.3c0.2,0.3,0.4,0.6,0.6,0.9c1.2,1.6,2.5,3,4.1,4.2c1.2,1.1,2.1,2.5,2.5,4.1
			c0.5,1.7,0.6,3.7,2.5,4.5c0,0,1.2-4.5,5-3.9s4.3,5.6,1.8,8.5s-4.7,1.8-4.7,1.8s0,6.5,2.8,10.2c0,0,3.2,1.1,9.3-0.1
			c3.7-0.7,9-5.3,11.3-10.1c4.8-10.3,5.3-19.6-1.3-22.5c-0.1-0.1-0.6-2.4-0.8-2.8c-0.4-0.8-1-1.6-1.6-2.2c-1.5-1.4-3.4-2.4-5.4-2.7
			c-5.4-0.8-10.8,0.3-16.1-0.8c-2.4-0.5-4.9-1.4-7.2-0.7c-2.3,0.9-3.9,3-4.1,5.5C364.3,155.5,364.9,157.5,366,159.3z"/>
		<path id="path494" class="st4" d="M399,159.3l4.3-2.4c-0.7-1.2-2.2-1.6-3.3-0.9S398.3,158.1,399,159.3z"/>
		<path id="path496" class="st4" d="M375.6,175.6l0.2-4.9c-1.4-0.1-2.5,1-2.6,2.3S374.2,175.6,375.6,175.6L375.6,175.6z"/>
		<polygon id="polygon498" class="st4" points="363.5,169.1 376.6,171.1 376.1,172 363.5,170.1 		"/>
		<path id="path500" class="st32" d="M405.9,201.6c-1.5-6.1-3.8-8.1-9-8.2c-2.7,0.2-5.4,0.5-8.1,1c-0.6,2.6-7.2,4.3-13.9,2.9
			c-2,0.6-7.3,2-8.9,2.6c-4.8,1.7-7,6.6-7.4,22.3c0,0-0.9,37.1,0,43.6c12,4.7,24.4,4.5,31.3,2.9c14.3-3.2,16-9.1,16-9.1
			s-0.8-14.9-1.2-26.2c0.7-7.2,1.8-12.6,2.2-18.4C407.1,210.4,406.8,205.9,405.9,201.6z"/>
		<path id="path502" class="st33" d="M405.9,201.6c-1.5-6.1-3.8-8.1-9-8.2c-2.7,0.2-5.4,0.5-8.1,1c-0.6,2.6-7.2,4.3-13.9,2.9
			c-2,0.6-7.3,2-8.9,2.6c-4.8,1.7-7,6.6-7.4,22.3c0,0-0.9,37.1,0,43.6c12,4.7,24.4,4.5,31.3,2.9c14.3-3.2,16-9.1,16-9.1
			s-0.8-14.9-1.2-26.2c0.7-7.2,1.8-12.6,2.2-18.4C407.1,210.4,406.8,205.9,405.9,201.6z"/>
		<path id="path504" class="st32" d="M390.2,190.6l0.1,1.4c0,0-0.7,2-4.7,2.8c-6.8,1.3-9.2-0.9-9.2-0.9l-0.2-1.2
			c0,0-0.7-0.3-1.8,0.6c-1.7,1.7-3.2,3.6-4.7,5.5c0,0,1.3-0.4,5.5,1.4c4.2,1.6,8.9,1.8,13.2,0.5c2.5-0.8,4.3-2.9,4.8-5.4
			C393.6,194,391.4,190,390.2,190.6z"/>
		<path id="path506" class="st30" d="M390.2,190.6l0.1,1.4c0,0-0.7,2-4.7,2.8c-6.8,1.3-9.2-0.9-9.2-0.9l-0.2-1.2
			c0,0-0.7-0.3-1.8,0.6c-1.7,1.7-3.2,3.6-4.7,5.5c0,0,1.3-0.4,5.5,1.4c4.2,1.6,8.9,1.8,13.2,0.5c2.5-0.8,4.3-2.9,4.8-5.4
			C393.6,194,391.4,190,390.2,190.6z"/>
		<path id="path508" class="st30" d="M367.1,199.5c-9.5,1-10.3,3.7-13.6,14c-3.1,9.8-6.6,22.8-7.2,25.1c-0.7,3.2-0.6,12.2,1.6,14.2
			s6.6,5.4,10.6-5.2c3.6-9.7,9.2-25.6,9.2-25.6S371.6,208.2,367.1,199.5z"/>
		<path id="path510" class="st2" d="M344.7,216.8l-8.5-26.2c0-0.1-0.2-0.3-0.3-0.3l-1.1-0.4c-0.1-0.1-0.3-0.1-0.4,0l-12.9,7.5
			c-0.3,0.2-0.4,0.5-0.3,0.8l9.4,25.8c0.1,0.2,0.3,0.4,0.6,0.3c0,0,0.1,0,0.1,0l0.4-0.2l0.1,0.3c0.1,0.2,0.3,0.4,0.6,0.3
			c0,0,0.1,0,0.1,0l12.1-7C344.7,217.5,344.8,217.1,344.7,216.8z"/>
		<path id="path512" class="st3" d="M335.5,190.3l-12.9,7.5c-0.3,0.2-0.4,0.5-0.3,0.8l9.4,25.7c0.1,0.2,0.3,0.4,0.6,0.3
			c0,0,0.1,0,0.1,0l12.1-7c0.3-0.2,0.4-0.5,0.3-0.8l-8.5-26.2c-0.1-0.2-0.3-0.4-0.5-0.3C335.6,190.3,335.6,190.3,335.5,190.3z"/>
		<polygon id="polygon514" class="st19" points="324.2,200.1 336,193.4 343.1,215.3 332,221.6 		"/>
		<path id="path516" class="st2" d="M328.9,196.2c-0.1,0-0.2-0.1-0.2-0.1c-0.1-0.1,0-0.3,0.1-0.4l2.9-1.7c0.1-0.1,0.3,0,0.4,0.1
			c0.1,0.1,0,0.3-0.1,0.4l0,0l-2.9,1.7C329,196.2,328.9,196.2,328.9,196.2z"/>
		<path id="path518" class="st2" d="M328.1,196.5c0,0.2-0.1,0.3-0.3,0.3c-0.2,0-0.3-0.1-0.3-0.3c0-0.1,0.1-0.3,0.3-0.3
			C328,196.2,328.1,196.3,328.1,196.5z"/>
		<path id="path520" class="st2" d="M339,219.6c0,0.4-0.3,0.7-0.7,0.7c-0.4,0-0.7-0.3-0.7-0.7s0.3-0.7,0.7-0.7c0,0,0,0,0,0
			C338.7,218.9,339,219.2,339,219.6C339,219.6,339,219.6,339,219.6z"/>
		<path id="path522" class="st28" d="M330.5,215.1c0.1-0.9,0.3-1.9,0.6-2.8c0.3-0.9,0.8-1.7,1.6-2.4c0.4-0.4,0.9-0.5,1.5-0.3
			c0.3,0.2,0.5,0.5,0.5,0.8c0,0.3,0,0.7-0.1,1c-0.2,1.4-0.2,2.7,0.2,4.1c0.2,0.6,0.5,1.2,0.7,1.9c0.2,0.7,0.4,1.4,0.4,2.2
			c0.3,1.4,0.8,2.7,1.5,3.8c1.2,1.8,16.8,17.3,16.8,17.3l-2.4,14.3c-4.3,0.4-14.4-14-17.7-18.7c-3.2-4.5-6-7.4-9-11.2
			c-2.3-3-3.8-11.7-3.1-17.3c0.1-1.3,0.6-2.5,1.4-3.5l2.8,7.7l2.4,3.8c0.3,0.5,1,1,1.6,0.5C330.3,215.9,330.5,215.5,330.5,215.1z"/>
		<path id="path524" class="st32" d="M367.9,199.3c0,0-5.2-0.1-8.9,2s-5.5,9.7-6.6,13.4s-4.9,18.3-4.9,18.3l-8.1-7.4
			c0,0-5.1,1.5-6.8,8.5c0,0,2.6,4,7.2,10.6s9.5,11.8,12.9,11s5.4-4.5,8.8-13.1s7.9-23.4,7.9-23.4S372,206.8,367.9,199.3z"/>
		<path id="path526" class="st30" d="M367.9,199.3c0,0-5.2-0.1-8.9,2s-5.5,9.7-6.6,13.4s-4.9,18.3-4.9,18.3l-8.1-7.4
			c0,0-5.1,1.5-6.8,8.5c0,0,2.6,4,7.2,10.6s9.5,11.8,12.9,11s5.4-4.5,8.8-13.1s7.9-23.4,7.9-23.4S372,206.8,367.9,199.3z"/>
		<path id="path528" class="st30" d="M347.5,233.1c0,0-0.9,2.9-1.6,6.1c0-2.3,0.2-4.7,0.6-6.9L347.5,233.1z"/>
	</g>
</g>
</svg>
